<?xml version="1.0" encoding="UTF-8" standalone="no"?>
<!-- Created with matplotlib (https://matplotlib.org/) -->

<svg
   height="288pt"
   version="1.1"
   viewBox="0 0 288 288"
   width="288pt"
   id="svg353"
   sodipodi:docname="cr_datapoint_scaling_predicted_talk.svg"
   inkscape:version="1.2 (1:1.2+202205241504+da316b6974)"
   xmlns:inkscape="http://www.inkscape.org/namespaces/inkscape"
   xmlns:sodipodi="http://sodipodi.sourceforge.net/DTD/sodipodi-0.dtd"
   xmlns:xlink="http://www.w3.org/1999/xlink"
   xmlns="http://www.w3.org/2000/svg"
   xmlns:svg="http://www.w3.org/2000/svg">
  <sodipodi:namedview
     id="namedview355"
     pagecolor="#ffffff"
     bordercolor="#666666"
     borderopacity="1.0"
     inkscape:pageshadow="2"
     inkscape:pageopacity="0.0"
     inkscape:pagecheckerboard="0"
     inkscape:document-units="pt"
     showgrid="false"
     inkscape:zoom="2.1979167"
     inkscape:cx="31.620853"
     inkscape:cy="100.54976"
     inkscape:window-width="2502"
     inkscape:window-height="1403"
     inkscape:window-x="58"
     inkscape:window-y="0"
     inkscape:window-maximized="1"
     inkscape:current-layer="text3322"
     inkscape:showpageshadow="2"
     inkscape:deskcolor="#d1d1d1" />
  <defs
     id="defs4">
    <style
       type="text/css"
       id="style2">
*{stroke-linecap:butt;stroke-linejoin:round;}
  </style>
  </defs>
  <g
     id="figure_1">
    <g
       id="patch_1">
      <path
         d="M 0 288  L 288 288  L 288 0  L 0 0  z "
         style="fill:#ffffff;"
         id="path6" />
    </g>
    <g
       id="axes_1">
      <g
         id="patch_2">
        <path
           d="M 50.8 246.2  L 277.2 246.2  L 277.2 26.8  L 50.8 26.8  z "
           style="fill:#ffffff;"
           id="path9" />
      </g>
      <g
         id="patch_3">
        <path
           clip-path="url(#p89e39861cc)"
           d="M 61.090909 246.2  L 89.479624 246.2  L 89.479624 240.443215  L 61.090909 240.443215  z "
           style="fill:#9467bd;"
           id="path12" />
      </g>
      <g
         id="patch_4">
        <path
           clip-path="url(#p89e39861cc)"
           d="M 96.576803 246.2  L 124.965517 246.2  L 124.965517 239.193426  L 96.576803 239.193426  z "
           style="fill:#9467bd;"
           id="path15" />
      </g>
      <g
         id="patch_5">
        <path
           clip-path="url(#p89e39861cc)"
           d="M 132.062696 246.2  L 160.451411 246.2  L 160.451411 235.648237  L 132.062696 235.648237  z "
           style="fill:#9467bd;"
           id="path18" />
      </g>
      <g
         id="patch_6">
        <path
           clip-path="url(#p89e39861cc)"
           d="M 167.548589 246.2  L 195.937304 246.2  L 195.937304 219.022914  L 167.548589 219.022914  z "
           style="fill:#9467bd;"
           id="path21" />
      </g>
      <g
         id="patch_7">
        <path
           clip-path="url(#p89e39861cc)"
           d="M 203.034483 246.2  L 231.423197 246.2  L 231.423197 175.921995  L 203.034483 175.921995  z "
           style="fill:#9467bd;"
           id="path24" />
      </g>
      <g
         id="patch_8">
        <path
           clip-path="url(#p89e39861cc)"
           d="M 238.520376 246.2  L 266.909091 246.2  L 266.909091 26.8  L 238.520376 26.8  z "
           style="fill:#9467bd;"
           id="path27" />
      </g>
      <g
         id="matplotlib.axis_1">
        <g
           id="xtick_1">
          <g
             id="line2d_1">
            <defs
               id="defs31">
              <path
                 d="M 0 0  L 0 3.5  "
                 id="md195d32ac9"
                 style="stroke:#000000;stroke-width:0.8;" />
            </defs>
            <g
               id="g35">
              <use
                 style="stroke:#000000;stroke-width:0.8;"
                 x="75.285266"
                 xlink:href="#md195d32ac9"
                 y="246.2"
                 id="use33" />
            </g>
          </g>
          <g
             id="text_1">
            <!-- 3 -->
            <defs
               id="defs39">
              <path
                 d="M 40.578125 39.3125  Q 47.65625 37.796875 51.625 33  Q 55.609375 28.21875 55.609375 21.1875  Q 55.609375 10.40625 48.1875 4.484375  Q 40.765625 -1.421875 27.09375 -1.421875  Q 22.515625 -1.421875 17.65625 -0.515625  Q 12.796875 0.390625 7.625 2.203125  L 7.625 11.71875  Q 11.71875 9.328125 16.59375 8.109375  Q 21.484375 6.890625 26.8125 6.890625  Q 36.078125 6.890625 40.9375 10.546875  Q 45.796875 14.203125 45.796875 21.1875  Q 45.796875 27.640625 41.28125 31.265625  Q 36.765625 34.90625 28.71875 34.90625  L 20.21875 34.90625  L 20.21875 43.015625  L 29.109375 43.015625  Q 36.375 43.015625 40.234375 45.921875  Q 44.09375 48.828125 44.09375 54.296875  Q 44.09375 59.90625 40.109375 62.90625  Q 36.140625 65.921875 28.71875 65.921875  Q 24.65625 65.921875 20.015625 65.03125  Q 15.375 64.15625 9.8125 62.3125  L 9.8125 71.09375  Q 15.4375 72.65625 20.34375 73.4375  Q 25.25 74.21875 29.59375 74.21875  Q 40.828125 74.21875 47.359375 69.109375  Q 53.90625 64.015625 53.90625 55.328125  Q 53.90625 49.265625 50.4375 45.09375  Q 46.96875 40.921875 40.578125 39.3125  z "
                 id="DejaVuSans-51" />
            </defs>
            <g
               transform="translate(72.104016 260.798437)scale(0.1 -0.1)"
               id="g43">
              <use
                 xlink:href="#DejaVuSans-51"
                 id="use41" />
            </g>
          </g>
        </g>
        <g
           id="xtick_2">
          <g
             id="line2d_2">
            <g
               id="g49">
              <use
                 style="stroke:#000000;stroke-width:0.8;"
                 x="110.77116"
                 xlink:href="#md195d32ac9"
                 y="246.2"
                 id="use47" />
            </g>
          </g>
          <g
             id="text_2">
            <!-- 10 -->
            <defs
               id="defs54">
              <path
                 d="M 12.40625 8.296875  L 28.515625 8.296875  L 28.515625 63.921875  L 10.984375 60.40625  L 10.984375 69.390625  L 28.421875 72.90625  L 38.28125 72.90625  L 38.28125 8.296875  L 54.390625 8.296875  L 54.390625 0  L 12.40625 0  z "
                 id="DejaVuSans-49" />
              <path
                 d="M 31.78125 66.40625  Q 24.171875 66.40625 20.328125 58.90625  Q 16.5 51.421875 16.5 36.375  Q 16.5 21.390625 20.328125 13.890625  Q 24.171875 6.390625 31.78125 6.390625  Q 39.453125 6.390625 43.28125 13.890625  Q 47.125 21.390625 47.125 36.375  Q 47.125 51.421875 43.28125 58.90625  Q 39.453125 66.40625 31.78125 66.40625  z M 31.78125 74.21875  Q 44.046875 74.21875 50.515625 64.515625  Q 56.984375 54.828125 56.984375 36.375  Q 56.984375 17.96875 50.515625 8.265625  Q 44.046875 -1.421875 31.78125 -1.421875  Q 19.53125 -1.421875 13.0625 8.265625  Q 6.59375 17.96875 6.59375 36.375  Q 6.59375 54.828125 13.0625 64.515625  Q 19.53125 74.21875 31.78125 74.21875  z "
                 id="DejaVuSans-48" />
            </defs>
            <g
               transform="translate(104.40866 260.798437)scale(0.1 -0.1)"
               id="g60">
              <use
                 xlink:href="#DejaVuSans-49"
                 id="use56" />
              <use
                 x="63.623047"
                 xlink:href="#DejaVuSans-48"
                 id="use58" />
            </g>
          </g>
        </g>
        <g
           id="xtick_3">
          <g
             id="line2d_3">
            <g
               id="g66">
              <use
                 style="stroke:#000000;stroke-width:0.8;"
                 x="146.257053"
                 xlink:href="#md195d32ac9"
                 y="246.2"
                 id="use64" />
            </g>
          </g>
          <g
             id="text_3">
            <!-- 30 -->
            <g
               transform="translate(139.894553 260.798437)scale(0.1 -0.1)"
               id="g73">
              <use
                 xlink:href="#DejaVuSans-51"
                 id="use69" />
              <use
                 x="63.623047"
                 xlink:href="#DejaVuSans-48"
                 id="use71" />
            </g>
          </g>
        </g>
        <g
           id="xtick_4">
          <g
             id="line2d_4">
            <g
               id="g79">
              <use
                 style="stroke:#000000;stroke-width:0.8;"
                 x="181.742947"
                 xlink:href="#md195d32ac9"
                 y="246.2"
                 id="use77" />
            </g>
          </g>
          <g
             id="text_4">
            <!-- 100 -->
            <g
               transform="translate(172.199197 260.798437)scale(0.1 -0.1)"
               id="g88">
              <use
                 xlink:href="#DejaVuSans-49"
                 id="use82" />
              <use
                 x="63.623047"
                 xlink:href="#DejaVuSans-48"
                 id="use84" />
              <use
                 x="127.246094"
                 xlink:href="#DejaVuSans-48"
                 id="use86" />
            </g>
          </g>
        </g>
        <g
           id="xtick_5">
          <g
             id="line2d_5">
            <g
               id="g94">
              <use
                 style="stroke:#000000;stroke-width:0.8;"
                 x="217.22884"
                 xlink:href="#md195d32ac9"
                 y="246.2"
                 id="use92" />
            </g>
          </g>
          <g
             id="text_5">
            <!-- 300 -->
            <g
               transform="translate(207.68509 260.798437)scale(0.1 -0.1)"
               id="g103">
              <use
                 xlink:href="#DejaVuSans-51"
                 id="use97" />
              <use
                 x="63.623047"
                 xlink:href="#DejaVuSans-48"
                 id="use99" />
              <use
                 x="127.246094"
                 xlink:href="#DejaVuSans-48"
                 id="use101" />
            </g>
          </g>
        </g>
        <g
           id="xtick_6">
          <g
             id="line2d_6">
            <g
               id="g109">
              <use
                 style="stroke:#000000;stroke-width:0.8;"
                 x="252.714734"
                 xlink:href="#md195d32ac9"
                 y="246.2"
                 id="use107" />
            </g>
          </g>
          <g
             id="text_6">
            <!-- 1000 -->
            <g
               transform="translate(239.989734 260.798437)scale(0.1 -0.1)"
               id="g120">
              <use
                 xlink:href="#DejaVuSans-49"
                 id="use112" />
              <use
                 x="63.623047"
                 xlink:href="#DejaVuSans-48"
                 id="use114" />
              <use
                 x="127.246094"
                 xlink:href="#DejaVuSans-48"
                 id="use116" />
              <use
                 x="190.869141"
                 xlink:href="#DejaVuSans-48"
                 id="use118" />
            </g>
          </g>
        </g>
        <g
           id="text_7">
          <!-- # Data -->
          <defs
             id="defs129">
            <path
               d="M 51.125 44  L 36.921875 44  L 32.8125 27.6875  L 47.125 27.6875  z M 43.796875 71.78125  L 38.71875 51.515625  L 52.984375 51.515625  L 58.109375 71.78125  L 65.921875 71.78125  L 60.890625 51.515625  L 76.125 51.515625  L 76.125 44  L 58.984375 44  L 54.984375 27.6875  L 70.515625 27.6875  L 70.515625 20.21875  L 53.078125 20.21875  L 48 0  L 40.1875 0  L 45.21875 20.21875  L 30.90625 20.21875  L 25.875 0  L 18.015625 0  L 23.09375 20.21875  L 7.71875 20.21875  L 7.71875 27.6875  L 24.90625 27.6875  L 29 44  L 13.28125 44  L 13.28125 51.515625  L 30.90625 51.515625  L 35.890625 71.78125  z "
               id="DejaVuSans-35" />
            <path
               id="DejaVuSans-32" />
            <path
               d="M 19.671875 64.796875  L 19.671875 8.109375  L 31.59375 8.109375  Q 46.6875 8.109375 53.6875 14.9375  Q 60.6875 21.78125 60.6875 36.53125  Q 60.6875 51.171875 53.6875 57.984375  Q 46.6875 64.796875 31.59375 64.796875  z M 9.8125 72.90625  L 30.078125 72.90625  Q 51.265625 72.90625 61.171875 64.09375  Q 71.09375 55.28125 71.09375 36.53125  Q 71.09375 17.671875 61.125 8.828125  Q 51.171875 0 30.078125 0  L 9.8125 0  z "
               id="DejaVuSans-68" />
            <path
               d="M 34.28125 27.484375  Q 23.390625 27.484375 19.1875 25  Q 14.984375 22.515625 14.984375 16.5  Q 14.984375 11.71875 18.140625 8.90625  Q 21.296875 6.109375 26.703125 6.109375  Q 34.1875 6.109375 38.703125 11.40625  Q 43.21875 16.703125 43.21875 25.484375  L 43.21875 27.484375  z M 52.203125 31.203125  L 52.203125 0  L 43.21875 0  L 43.21875 8.296875  Q 40.140625 3.328125 35.546875 0.953125  Q 30.953125 -1.421875 24.3125 -1.421875  Q 15.921875 -1.421875 10.953125 3.296875  Q 6 8.015625 6 15.921875  Q 6 25.140625 12.171875 29.828125  Q 18.359375 34.515625 30.609375 34.515625  L 43.21875 34.515625  L 43.21875 35.40625  Q 43.21875 41.609375 39.140625 45  Q 35.0625 48.390625 27.6875 48.390625  Q 23 48.390625 18.546875 47.265625  Q 14.109375 46.140625 10.015625 43.890625  L 10.015625 52.203125  Q 14.9375 54.109375 19.578125 55.046875  Q 24.21875 56 28.609375 56  Q 40.484375 56 46.34375 49.84375  Q 52.203125 43.703125 52.203125 31.203125  z "
               id="DejaVuSans-97" />
            <path
               d="M 18.3125 70.21875  L 18.3125 54.6875  L 36.8125 54.6875  L 36.8125 47.703125  L 18.3125 47.703125  L 18.3125 18.015625  Q 18.3125 11.328125 20.140625 9.421875  Q 21.96875 7.515625 27.59375 7.515625  L 36.8125 7.515625  L 36.8125 0  L 27.59375 0  Q 17.1875 0 13.234375 3.875  Q 9.28125 7.765625 9.28125 18.015625  L 9.28125 47.703125  L 2.6875 47.703125  L 2.6875 54.6875  L 9.28125 54.6875  L 9.28125 70.21875  z "
               id="DejaVuSans-116" />
          </defs>
          <g
             transform="translate(146.282813 274.476562)scale(0.1 -0.1)"
             id="g143">
            <use
               xlink:href="#DejaVuSans-35"
               id="use131" />
            <use
               x="83.789062"
               xlink:href="#DejaVuSans-32"
               id="use133" />
            <use
               x="115.576172"
               xlink:href="#DejaVuSans-68"
               id="use135" />
            <use
               x="192.578125"
               xlink:href="#DejaVuSans-97"
               id="use137" />
            <use
               x="253.857422"
               xlink:href="#DejaVuSans-116"
               id="use139" />
            <use
               x="293.066406"
               xlink:href="#DejaVuSans-97"
               id="use141" />
          </g>
        </g>
      </g>
      <g
         id="matplotlib.axis_2">
        <g
           id="ytick_1">
          <g
             id="line2d_7">
            <defs
               id="defs148">
              <path
                 d="M 0 0  L -3.5 0  "
                 id="m87236b91f6"
                 style="stroke:#000000;stroke-width:0.8;" />
            </defs>
            <g
               id="g152">
              <use
                 style="stroke:#000000;stroke-width:0.8;"
                 x="50.8"
                 xlink:href="#m87236b91f6"
                 y="246.2"
                 id="use150" />
            </g>
          </g>
          <g
             id="text_8">
            <!-- 0 -->
            <g
               transform="translate(37.4375 249.999219)scale(0.1 -0.1)"
               id="g157">
              <use
                 xlink:href="#DejaVuSans-48"
                 id="use155" />
            </g>
          </g>
        </g>
        <g
           id="ytick_2">
          <g
             id="line2d_8">
            <g
               id="g163">
              <use
                 style="stroke:#000000;stroke-width:0.8;"
                 x="50.8"
                 xlink:href="#m87236b91f6"
                 y="197.458055"
                 id="use161" />
            </g>
          </g>
          <g
             id="text_9">
            <!-- 50 -->
            <defs
               id="defs167">
              <path
                 d="M 10.796875 72.90625  L 49.515625 72.90625  L 49.515625 64.59375  L 19.828125 64.59375  L 19.828125 46.734375  Q 21.96875 47.46875 24.109375 47.828125  Q 26.265625 48.1875 28.421875 48.1875  Q 40.625 48.1875 47.75 41.5  Q 54.890625 34.8125 54.890625 23.390625  Q 54.890625 11.625 47.5625 5.09375  Q 40.234375 -1.421875 26.90625 -1.421875  Q 22.3125 -1.421875 17.546875 -0.640625  Q 12.796875 0.140625 7.71875 1.703125  L 7.71875 11.625  Q 12.109375 9.234375 16.796875 8.0625  Q 21.484375 6.890625 26.703125 6.890625  Q 35.15625 6.890625 40.078125 11.328125  Q 45.015625 15.765625 45.015625 23.390625  Q 45.015625 31 40.078125 35.4375  Q 35.15625 39.890625 26.703125 39.890625  Q 22.75 39.890625 18.8125 39.015625  Q 14.890625 38.140625 10.796875 36.28125  z "
                 id="DejaVuSans-53" />
            </defs>
            <g
               transform="translate(31.075 201.257274)scale(0.1 -0.1)"
               id="g173">
              <use
                 xlink:href="#DejaVuSans-53"
                 id="use169" />
              <use
                 x="63.623047"
                 xlink:href="#DejaVuSans-48"
                 id="use171" />
            </g>
          </g>
        </g>
        <g
           id="ytick_3">
          <g
             id="line2d_9">
            <g
               id="g179">
              <use
                 style="stroke:#000000;stroke-width:0.8;"
                 x="50.8"
                 xlink:href="#m87236b91f6"
                 y="148.716111"
                 id="use177" />
            </g>
          </g>
          <g
             id="text_10">
            <!-- 100 -->
            <g
               transform="translate(24.7125 152.51533)scale(0.1 -0.1)"
               id="g188">
              <use
                 xlink:href="#DejaVuSans-49"
                 id="use182" />
              <use
                 x="63.623047"
                 xlink:href="#DejaVuSans-48"
                 id="use184" />
              <use
                 x="127.246094"
                 xlink:href="#DejaVuSans-48"
                 id="use186" />
            </g>
          </g>
        </g>
        <g
           id="ytick_4">
          <g
             id="line2d_10">
            <g
               id="g194">
              <use
                 style="stroke:#000000;stroke-width:0.8;"
                 x="50.8"
                 xlink:href="#m87236b91f6"
                 y="99.974166"
                 id="use192" />
            </g>
          </g>
          <g
             id="text_11">
            <!-- 150 -->
            <g
               transform="translate(24.7125 103.773385)scale(0.1 -0.1)"
               id="g203">
              <use
                 xlink:href="#DejaVuSans-49"
                 id="use197" />
              <use
                 x="63.623047"
                 xlink:href="#DejaVuSans-53"
                 id="use199" />
              <use
                 x="127.246094"
                 xlink:href="#DejaVuSans-48"
                 id="use201" />
            </g>
          </g>
        </g>
        <g
           id="ytick_5">
          <g
             id="line2d_11">
            <g
               id="g209">
              <use
                 style="stroke:#000000;stroke-width:0.8;"
                 x="50.8"
                 xlink:href="#m87236b91f6"
                 y="51.232222"
                 id="use207" />
            </g>
          </g>
          <g
             id="text_12">
            <!-- 200 -->
            <defs
               id="defs213">
              <path
                 d="M 19.1875 8.296875  L 53.609375 8.296875  L 53.609375 0  L 7.328125 0  L 7.328125 8.296875  Q 12.9375 14.109375 22.625 23.890625  Q 32.328125 33.6875 34.8125 36.53125  Q 39.546875 41.84375 41.421875 45.53125  Q 43.3125 49.21875 43.3125 52.78125  Q 43.3125 58.59375 39.234375 62.25  Q 35.15625 65.921875 28.609375 65.921875  Q 23.96875 65.921875 18.8125 64.3125  Q 13.671875 62.703125 7.8125 59.421875  L 7.8125 69.390625  Q 13.765625 71.78125 18.9375 73  Q 24.125 74.21875 28.421875 74.21875  Q 39.75 74.21875 46.484375 68.546875  Q 53.21875 62.890625 53.21875 53.421875  Q 53.21875 48.921875 51.53125 44.890625  Q 49.859375 40.875 45.40625 35.40625  Q 44.1875 33.984375 37.640625 27.21875  Q 31.109375 20.453125 19.1875 8.296875  z "
                 id="DejaVuSans-50" />
            </defs>
            <g
               transform="translate(24.7125 55.03144)scale(0.1 -0.1)"
               id="g221">
              <use
                 xlink:href="#DejaVuSans-50"
                 id="use215" />
              <use
                 x="63.623047"
                 xlink:href="#DejaVuSans-48"
                 id="use217" />
              <use
                 x="127.246094"
                 xlink:href="#DejaVuSans-48"
                 id="use219" />
            </g>
          </g>
        </g>
        <g
           id="text_13">
          <!-- log10(# Simulations) -->
          <defs
             id="defs236">
            <path
               d="M 9.421875 75.984375  L 18.40625 75.984375  L 18.40625 0  L 9.421875 0  z "
               id="DejaVuSans-108" />
            <path
               d="M 30.609375 48.390625  Q 23.390625 48.390625 19.1875 42.75  Q 14.984375 37.109375 14.984375 27.296875  Q 14.984375 17.484375 19.15625 11.84375  Q 23.34375 6.203125 30.609375 6.203125  Q 37.796875 6.203125 41.984375 11.859375  Q 46.1875 17.53125 46.1875 27.296875  Q 46.1875 37.015625 41.984375 42.703125  Q 37.796875 48.390625 30.609375 48.390625  z M 30.609375 56  Q 42.328125 56 49.015625 48.375  Q 55.71875 40.765625 55.71875 27.296875  Q 55.71875 13.875 49.015625 6.21875  Q 42.328125 -1.421875 30.609375 -1.421875  Q 18.84375 -1.421875 12.171875 6.21875  Q 5.515625 13.875 5.515625 27.296875  Q 5.515625 40.765625 12.171875 48.375  Q 18.84375 56 30.609375 56  z "
               id="DejaVuSans-111" />
            <path
               d="M 45.40625 27.984375  Q 45.40625 37.75 41.375 43.109375  Q 37.359375 48.484375 30.078125 48.484375  Q 22.859375 48.484375 18.828125 43.109375  Q 14.796875 37.75 14.796875 27.984375  Q 14.796875 18.265625 18.828125 12.890625  Q 22.859375 7.515625 30.078125 7.515625  Q 37.359375 7.515625 41.375 12.890625  Q 45.40625 18.265625 45.40625 27.984375  z M 54.390625 6.78125  Q 54.390625 -7.171875 48.1875 -13.984375  Q 42 -20.796875 29.203125 -20.796875  Q 24.46875 -20.796875 20.265625 -20.09375  Q 16.0625 -19.390625 12.109375 -17.921875  L 12.109375 -9.1875  Q 16.0625 -11.328125 19.921875 -12.34375  Q 23.78125 -13.375 27.78125 -13.375  Q 36.625 -13.375 41.015625 -8.765625  Q 45.40625 -4.15625 45.40625 5.171875  L 45.40625 9.625  Q 42.625 4.78125 38.28125 2.390625  Q 33.9375 0 27.875 0  Q 17.828125 0 11.671875 7.65625  Q 5.515625 15.328125 5.515625 27.984375  Q 5.515625 40.671875 11.671875 48.328125  Q 17.828125 56 27.875 56  Q 33.9375 56 38.28125 53.609375  Q 42.625 51.21875 45.40625 46.390625  L 45.40625 54.6875  L 54.390625 54.6875  z "
               id="DejaVuSans-103" />
            <path
               d="M 31 75.875  Q 24.46875 64.65625 21.28125 53.65625  Q 18.109375 42.671875 18.109375 31.390625  Q 18.109375 20.125 21.3125 9.0625  Q 24.515625 -2 31 -13.1875  L 23.1875 -13.1875  Q 15.875 -1.703125 12.234375 9.375  Q 8.59375 20.453125 8.59375 31.390625  Q 8.59375 42.28125 12.203125 53.3125  Q 15.828125 64.359375 23.1875 75.875  z "
               id="DejaVuSans-40" />
            <path
               d="M 53.515625 70.515625  L 53.515625 60.890625  Q 47.90625 63.578125 42.921875 64.890625  Q 37.9375 66.21875 33.296875 66.21875  Q 25.25 66.21875 20.875 63.09375  Q 16.5 59.96875 16.5 54.203125  Q 16.5 49.359375 19.40625 46.890625  Q 22.3125 44.4375 30.421875 42.921875  L 36.375 41.703125  Q 47.40625 39.59375 52.65625 34.296875  Q 57.90625 29 57.90625 20.125  Q 57.90625 9.515625 50.796875 4.046875  Q 43.703125 -1.421875 29.984375 -1.421875  Q 24.8125 -1.421875 18.96875 -0.25  Q 13.140625 0.921875 6.890625 3.21875  L 6.890625 13.375  Q 12.890625 10.015625 18.65625 8.296875  Q 24.421875 6.59375 29.984375 6.59375  Q 38.421875 6.59375 43.015625 9.90625  Q 47.609375 13.234375 47.609375 19.390625  Q 47.609375 24.75 44.3125 27.78125  Q 41.015625 30.8125 33.5 32.328125  L 27.484375 33.5  Q 16.453125 35.6875 11.515625 40.375  Q 6.59375 45.0625 6.59375 53.421875  Q 6.59375 63.09375 13.40625 68.65625  Q 20.21875 74.21875 32.171875 74.21875  Q 37.3125 74.21875 42.625 73.28125  Q 47.953125 72.359375 53.515625 70.515625  z "
               id="DejaVuSans-83" />
            <path
               d="M 9.421875 54.6875  L 18.40625 54.6875  L 18.40625 0  L 9.421875 0  z M 9.421875 75.984375  L 18.40625 75.984375  L 18.40625 64.59375  L 9.421875 64.59375  z "
               id="DejaVuSans-105" />
            <path
               d="M 52 44.1875  Q 55.375 50.25 60.0625 53.125  Q 64.75 56 71.09375 56  Q 79.640625 56 84.28125 50.015625  Q 88.921875 44.046875 88.921875 33.015625  L 88.921875 0  L 79.890625 0  L 79.890625 32.71875  Q 79.890625 40.578125 77.09375 44.375  Q 74.3125 48.1875 68.609375 48.1875  Q 61.625 48.1875 57.5625 43.546875  Q 53.515625 38.921875 53.515625 30.90625  L 53.515625 0  L 44.484375 0  L 44.484375 32.71875  Q 44.484375 40.625 41.703125 44.40625  Q 38.921875 48.1875 33.109375 48.1875  Q 26.21875 48.1875 22.15625 43.53125  Q 18.109375 38.875 18.109375 30.90625  L 18.109375 0  L 9.078125 0  L 9.078125 54.6875  L 18.109375 54.6875  L 18.109375 46.1875  Q 21.1875 51.21875 25.484375 53.609375  Q 29.78125 56 35.6875 56  Q 41.65625 56 45.828125 52.96875  Q 50 49.953125 52 44.1875  z "
               id="DejaVuSans-109" />
            <path
               d="M 8.5 21.578125  L 8.5 54.6875  L 17.484375 54.6875  L 17.484375 21.921875  Q 17.484375 14.15625 20.5 10.265625  Q 23.53125 6.390625 29.59375 6.390625  Q 36.859375 6.390625 41.078125 11.03125  Q 45.3125 15.671875 45.3125 23.6875  L 45.3125 54.6875  L 54.296875 54.6875  L 54.296875 0  L 45.3125 0  L 45.3125 8.40625  Q 42.046875 3.421875 37.71875 1  Q 33.40625 -1.421875 27.6875 -1.421875  Q 18.265625 -1.421875 13.375 4.4375  Q 8.5 10.296875 8.5 21.578125  z M 31.109375 56  z "
               id="DejaVuSans-117" />
            <path
               d="M 54.890625 33.015625  L 54.890625 0  L 45.90625 0  L 45.90625 32.71875  Q 45.90625 40.484375 42.875 44.328125  Q 39.84375 48.1875 33.796875 48.1875  Q 26.515625 48.1875 22.3125 43.546875  Q 18.109375 38.921875 18.109375 30.90625  L 18.109375 0  L 9.078125 0  L 9.078125 54.6875  L 18.109375 54.6875  L 18.109375 46.1875  Q 21.34375 51.125 25.703125 53.5625  Q 30.078125 56 35.796875 56  Q 45.21875 56 50.046875 50.171875  Q 54.890625 44.34375 54.890625 33.015625  z "
               id="DejaVuSans-110" />
            <path
               d="M 44.28125 53.078125  L 44.28125 44.578125  Q 40.484375 46.53125 36.375 47.5  Q 32.28125 48.484375 27.875 48.484375  Q 21.1875 48.484375 17.84375 46.4375  Q 14.5 44.390625 14.5 40.28125  Q 14.5 37.15625 16.890625 35.375  Q 19.28125 33.59375 26.515625 31.984375  L 29.59375 31.296875  Q 39.15625 29.25 43.1875 25.515625  Q 47.21875 21.78125 47.21875 15.09375  Q 47.21875 7.46875 41.1875 3.015625  Q 35.15625 -1.421875 24.609375 -1.421875  Q 20.21875 -1.421875 15.453125 -0.5625  Q 10.6875 0.296875 5.421875 2  L 5.421875 11.28125  Q 10.40625 8.6875 15.234375 7.390625  Q 20.0625 6.109375 24.8125 6.109375  Q 31.15625 6.109375 34.5625 8.28125  Q 37.984375 10.453125 37.984375 14.40625  Q 37.984375 18.0625 35.515625 20.015625  Q 33.0625 21.96875 24.703125 23.78125  L 21.578125 24.515625  Q 13.234375 26.265625 9.515625 29.90625  Q 5.8125 33.546875 5.8125 39.890625  Q 5.8125 47.609375 11.28125 51.796875  Q 16.75 56 26.8125 56  Q 31.78125 56 36.171875 55.265625  Q 40.578125 54.546875 44.28125 53.078125  z "
               id="DejaVuSans-115" />
            <path
               d="M 8.015625 75.875  L 15.828125 75.875  Q 23.140625 64.359375 26.78125 53.3125  Q 30.421875 42.28125 30.421875 31.390625  Q 30.421875 20.453125 26.78125 9.375  Q 23.140625 -1.703125 15.828125 -13.1875  L 8.015625 -13.1875  Q 14.5 -2 17.703125 9.0625  Q 20.90625 20.125 20.90625 31.390625  Q 20.90625 42.671875 17.703125 53.65625  Q 14.5 64.65625 8.015625 75.875  z "
               id="DejaVuSans-41" />
          </defs>
          <g
             transform="translate(18.632812 189.403125)rotate(-90)scale(0.1 -0.1)"
             id="g278">
            <use
               xlink:href="#DejaVuSans-108"
               id="use238" />
            <use
               x="27.783203"
               xlink:href="#DejaVuSans-111"
               id="use240" />
            <use
               x="88.964844"
               xlink:href="#DejaVuSans-103"
               id="use242" />
            <use
               x="152.441406"
               xlink:href="#DejaVuSans-49"
               id="use244" />
            <use
               x="216.064453"
               xlink:href="#DejaVuSans-48"
               id="use246" />
            <use
               x="279.6875"
               xlink:href="#DejaVuSans-40"
               id="use248" />
            <use
               x="318.701172"
               xlink:href="#DejaVuSans-35"
               id="use250" />
            <use
               x="402.490234"
               xlink:href="#DejaVuSans-32"
               id="use252" />
            <use
               x="434.277344"
               xlink:href="#DejaVuSans-83"
               id="use254" />
            <use
               x="497.753906"
               xlink:href="#DejaVuSans-105"
               id="use256" />
            <use
               x="525.537109"
               xlink:href="#DejaVuSans-109"
               id="use258" />
            <use
               x="622.949219"
               xlink:href="#DejaVuSans-117"
               id="use260" />
            <use
               x="686.328125"
               xlink:href="#DejaVuSans-108"
               id="use262" />
            <use
               x="714.111328"
               xlink:href="#DejaVuSans-97"
               id="use264" />
            <use
               x="775.390625"
               xlink:href="#DejaVuSans-116"
               id="use266" />
            <use
               x="814.599609"
               xlink:href="#DejaVuSans-105"
               id="use268" />
            <use
               x="842.382812"
               xlink:href="#DejaVuSans-111"
               id="use270" />
            <use
               x="903.564453"
               xlink:href="#DejaVuSans-110"
               id="use272" />
            <use
               x="966.943359"
               xlink:href="#DejaVuSans-115"
               id="use274" />
            <use
               x="1019.042969"
               xlink:href="#DejaVuSans-41"
               id="use276" />
          </g>
        </g>
      </g>
      <g
         id="patch_9">
        <path
           d="M 50.8 246.2  L 50.8 26.8  "
           style="fill:none;stroke:#000000;stroke-linecap:square;stroke-linejoin:miter;stroke-width:0.8;"
           id="path282" />
      </g>
      <g
         id="patch_10">
        <path
           d="M 50.8 246.2  L 277.2 246.2  "
           style="fill:none;stroke:#000000;stroke-linecap:square;stroke-linejoin:miter;stroke-width:0.8;"
           id="path285" />
      </g>
      <g
         id="text_14">
        <!-- A3 (partly predictions) -->
        <defs
           id="defs295">
          <path
             d="M 34.1875,63.1875 20.796875,26.90625 h 26.8125 z m -5.578125,9.71875 h 11.1875 L 67.578125,0 h -10.25 L 50.6875,18.703125 H 17.828125 L 11.1875,0 H 0.78125 Z"
             id="DejaVuSans-65" />
          <path
             d="m 18.109375,8.203125 v -29 H 9.078125 V 54.6875 h 9.03125 v -8.296875 q 2.84375,4.875 7.15625,7.234375 Q 29.59375,56 35.59375,56 q 9.96875,0 16.1875,-7.90625 6.234375,-7.90625 6.234375,-20.796875 0,-12.890625 -6.234375,-20.8125 -6.21875,-7.90625 -16.1875,-7.90625 -6,0 -10.328125,2.375 -4.3125,2.375 -7.15625,7.25 z M 48.6875,27.296875 q 0,9.90625 -4.078125,15.546875 -4.078125,5.640625 -11.203125,5.640625 -7.140625,0 -11.21875,-5.640625 -4.078125,-5.640625 -4.078125,-15.546875 0,-9.90625 4.078125,-15.546875 4.078125,-5.640625 11.21875,-5.640625 7.125,0 11.203125,5.640625 4.078125,5.640625 4.078125,15.546875 z"
             id="DejaVuSans-112" />
          <path
             d="m 41.109375,46.296875 q -1.515625,0.875 -3.296875,1.28125 Q 36.03125,48 33.890625,48 26.265625,48 22.1875,43.046875 18.109375,38.09375 18.109375,28.8125 V 0 h -9.03125 v 54.6875 h 9.03125 v -8.5 q 2.84375,4.984375 7.375,7.390625 Q 30.03125,56 36.53125,56 q 0.921875,0 2.046875,-0.125 1.125,-0.109375 2.484375,-0.359375 z"
             id="DejaVuSans-114" />
          <path
             d="M 32.171875,-5.078125 Q 28.375,-14.84375 24.75,-17.8125 q -3.609375,-2.984375 -9.65625,-2.984375 h -7.1875 v 7.515625 h 5.28125 q 3.703125,0 5.75,1.765625 2.0625,1.75 4.546875,8.296875 L 25.09375,0.875 2.984375,54.6875 H 12.5 L 29.59375,11.921875 46.6875,54.6875 h 9.515625 z"
             id="DejaVuSans-121" />
          <path
             d="m 56.203125,29.59375 v -4.390625 h -41.3125 q 0.59375,-9.28125 5.59375,-14.140625 5,-4.859375 13.9375,-4.859375 5.171875,0 10.03125,1.265625 4.859375,1.265625 9.65625,3.8125 v -8.5 q -4.84375,-2.046875 -9.921875,-3.125 -5.078125,-1.078125 -10.296875,-1.078125 -13.09375,0 -20.734375,7.609375 -7.640625,7.625 -7.640625,20.625 0,13.421875 7.25,21.296875 Q 20.015625,56 32.328125,56 q 11.03125,0 17.453125,-7.109375 6.421875,-7.09375 6.421875,-19.296875 z m -8.984375,2.640625 q -0.09375,7.359375 -4.125,11.75 -4.03125,4.40625 -10.671875,4.40625 -7.515625,0 -12.03125,-4.25 -4.515625,-4.25 -5.203125,-11.96875 z"
             id="DejaVuSans-101" />
          <path
             d="m 45.40625,46.390625 v 29.59375 h 8.984375 V 0 H 45.40625 v 8.203125 q -2.828125,-4.875 -7.15625,-7.25 -4.3125,-2.375 -10.375,-2.375 -9.90625,0 -16.140625,7.90625 -6.21875,7.921875 -6.21875,20.8125 0,12.890625 6.21875,20.796875 Q 17.96875,56 27.875,56 q 6.0625,0 10.375,-2.375 4.328125,-2.359375 7.15625,-7.234375 z M 14.796875,27.296875 q 0,-9.90625 4.078125,-15.546875 4.078125,-5.640625 11.203125,-5.640625 7.125,0 11.21875,5.640625 4.109375,5.640625 4.109375,15.546875 0,9.90625 -4.109375,15.546875 -4.09375,5.640625 -11.21875,5.640625 -7.125,0 -11.203125,-5.640625 -4.078125,-5.640625 -4.078125,-15.546875 z"
             id="DejaVuSans-100" />
          <path
             d="M 48.78125,52.59375 V 44.1875 q -3.8125,2.109375 -7.640625,3.15625 -3.828125,1.046875 -7.734375,1.046875 -8.75,0 -13.59375,-5.546875 -4.828125,-5.53125 -4.828125,-15.546875 0,-10.015625 4.828125,-15.5625 4.84375,-5.53125 13.59375,-5.53125 3.90625,0 7.734375,1.046875 3.828125,1.046875 7.640625,3.15625 v -8.3125 q -3.765625,-1.75 -7.796875,-2.625 -4.015625,-0.890625 -8.5625,-0.890625 -12.359375,0 -19.640625,7.765625 -7.265625,7.765625 -7.265625,20.953125 0,13.375 7.34375,21.03125 Q 20.21875,56 33.015625,56 q 4.140625,0 8.09375,-0.859375 3.953125,-0.84375 7.671875,-2.546875 z"
             id="DejaVuSans-99" />
        </defs>
        <g
           transform="matrix(0.12,0,0,-0.12,96.83375,20.8)"
           id="g343">
          <g
             aria-label="Old method (partly predictions)"
             transform="scale(1,-1)"
             id="text3322"
             style="font-size:95.9195px;word-spacing:0px;stroke-width:2.39798">
            <path
               d="m -266.22279,-63.661286 q -10.30385,0 -16.39249,7.681054 -6.04181,7.681054 -6.04181,20.935555 0,13.207666 6.04181,20.88872 6.08864,7.6810539 16.39249,7.6810539 10.30385,0 16.29882,-7.6810539 6.04181,-7.681054 6.04181,-20.88872 0,-13.254501 -6.04181,-20.935555 -5.99497,-7.681054 -16.29882,-7.681054 z m 0,-7.681054 q 14.70641,0 23.51152,9.882332 8.80511,9.835495 8.80511,26.415331 0,16.533 -8.80511,26.415332 -8.80511,9.8354958 -23.51152,9.8354958 -14.75324,0 -23.60519,-9.8354958 -8.80511,-9.835496 -8.80511,-26.415332 0,-16.579836 8.80511,-26.415331 8.85195,-9.882332 23.60519,-9.882332 z"
               id="path3850" />
            <path
               d="m -219.48077,-73.028425 h 8.61777 v 72.87634065 h -8.61777 z"
               id="path3852" />
            <path
               d="m -158.31335,-44.645994 v -28.382431 h 8.61777 v 72.87634065 h -8.61777 V -8.020481 q -2.71647,4.6835694 -6.88485,6.9785185 -4.12154,2.2481133 -9.92916,2.2481133 -9.50765,0 -15.50262,-7.5873825 -5.94813,-7.5873823 -5.94813,-19.9520063 0,-12.364623 5.94813,-19.952005 5.99497,-7.587383 15.50262,-7.587383 5.80762,0 9.92916,2.294949 4.16838,2.248113 6.88485,6.931683 z m -29.36598,18.312756 q 0,9.507646 3.88736,14.940587 3.9342,5.3861048 10.77221,5.3861048 6.83802,0 10.77221,-5.3861048 3.9342,-5.432941 3.9342,-14.940587 0,-9.507646 -3.9342,-14.89375 -3.93419,-5.432941 -10.77221,-5.432941 -6.83801,0 -10.77221,5.432941 -3.88736,5.386104 -3.88736,14.89375 z"
               id="path3854" />
            <path
               d="m -60.6141,-42.538388 q 3.23167,-5.807626 7.72789,-8.570932 4.49623,-2.763306 10.58487,-2.763306 8.19625,0 12.64564,5.760791 4.44939,5.713954 4.44939,16.298821 v 31.66092965 h -8.6646 V -31.532 q 0,-7.540546 -2.66964,-11.193731 -2.66963,-3.653184 -8.14941,-3.653184 -6.6975,0 -10.58487,4.449391 -3.88736,4.449391 -3.88736,12.130445 v 29.64699465 h -8.6646 V -31.532 q 0,-7.587382 -2.66964,-11.193731 -2.66963,-3.653184 -8.24308,-3.653184 -6.60383,0 -10.4912,4.496227 -3.88736,4.449391 -3.88736,12.083609 v 29.64699465 h -8.6646 V -52.608062 h 8.6646 v 8.149411 q 2.95065,-4.824077 7.07219,-7.119026 4.12154,-2.294949 9.78866,-2.294949 5.71396,0 9.69499,2.903813 4.02787,2.903813 5.94813,8.430425 z"
               id="path3856" />
            <path
               d="m 36.851,-28.534515 v 4.215212 H -2.772 q 0.56203,8.898782 5.33927,13.582352 4.82408,4.6367335 13.39501,4.6367335 4.96458,0 9.60132,-1.2177281 4.68357,-1.2177281 9.27346,-3.6531844 v 8.1494111 q -4.63673,1.96709913 -9.50764,2.99748441 -4.87091,1.03038529 -9.88233,1.03038529 -12.55197,0 -19.90517,-7.3063683 -7.30637,-7.3063685 -7.30637,-19.7646635 0,-12.879816 6.93168,-20.420362 6.97852,-7.587383 18.78111,-7.587383 10.58487,0 16.72035,6.838011 6.18231,6.791176 6.18231,18.5001 z m -8.61777,-2.529128 q -0.0937,-7.07219 -3.98103,-11.287402 -3.84053,-4.215213 -10.21018,-4.215213 -7.2127,0 -11.56842,4.074706 -4.30888,4.074705 -4.96458,11.474745 z"
               id="path3858" />
            <path
               d="m 59.51947,-67.501813 v 14.893751 H 77.2702 v 6.697504 H 59.51947 v 28.476102 q 0,6.416491 1.73292,8.2430826 1.77976,1.8265921 7.16586,1.8265921 h 8.85195 v 7.21269695 h -8.85195 q -9.976,0 -13.76969,-3.70001985 -3.79369,-3.7468556 -3.79369,-13.5823518 v -28.476102 h -6.32282 v -6.697504 h 6.32282 v -14.893751 z"
               id="path3860" />
            <path
               d="m 132.20845,-31.813014 v 31.66092965 h -8.61777 V -31.532 q 0,-7.446875 -2.90382,-11.146895 -2.90381,-3.70002 -8.71143,-3.70002 -6.97852,0 -11.00639,4.449391 -4.02787,4.449391 -4.02787,12.130445 V -0.15208435 H 88.27656 V -73.028425 h 8.66461 v 28.569774 q 3.09115,-4.730405 7.25953,-7.07219 4.21521,-2.341785 9.69499,-2.341785 9.03929,0 13.67602,5.620283 4.63674,5.573448 4.63674,16.439329 z"
               id="path3862" />
            <path
               d="m 169.72386,-46.566258 q -6.93168,0 -10.95955,5.432941 -4.02787,5.386105 -4.02787,14.800079 0,9.413975 3.98103,14.846916 4.02787,5.3861045 11.00639,5.3861045 6.88485,0 10.91272,-5.4329405 4.02787,-5.432941 4.02787,-14.80008 0,-9.320303 -4.02787,-14.753243 -4.02787,-5.479777 -10.91272,-5.479777 z m 0,-7.306368 q 11.24057,0 17.65706,7.306368 6.41649,7.306369 6.41649,20.23302 0,12.879816 -6.41649,20.2330205 -6.41649,7.3063683 -17.65706,7.3063683 -11.2874,0 -17.70389,-7.3063683 -6.36966,-7.3532045 -6.36966,-20.2330205 0,-12.926651 6.36966,-20.23302 6.41649,-7.306368 17.70389,-7.306368 z"
               id="path3864" />
            <path
               d="m 242.6002,-44.645994 v -28.382431 h 8.61776 V -0.15208435 H 242.6002 V -8.020481 q -2.71648,4.6835694 -6.88485,6.9785185 -4.12154,2.2481133 -9.92917,2.2481133 -9.50765,0 -15.50261,-7.5873825 -5.94814,-7.5873823 -5.94814,-19.9520063 0,-12.364623 5.94814,-19.952005 5.99496,-7.587383 15.50261,-7.587383 5.80763,0 9.92917,2.294949 4.16837,2.248113 6.88485,6.931683 z m -29.36599,18.312756 q 0,9.507646 3.88737,14.940587 3.9342,5.3861048 10.77221,5.3861048 6.83801,0 10.77221,-5.3861048 3.9342,-5.432941 3.9342,-14.940587 0,-9.507646 -3.9342,-14.89375 -3.9342,-5.432941 -10.77221,-5.432941 -6.83801,0 -10.77221,5.432941 -3.88737,5.386104 -3.88737,14.89375 z"
               id="path3866" />
            <path
               d="m 470.16007,-72.934754 q -6.27598,10.77221 -9.3203,21.310241 -3.04432,10.538032 -3.04432,21.357077 0,10.819046 3.04432,21.4507482 3.09115,10.5848669 9.3203,21.3102408 h -7.49371 Q 455.641,1.487165 452.12833,-9.1445377 448.66249,-19.77624 448.66249,-30.267436 q 0,-10.44436 3.46584,-21.029227 3.46584,-10.584867 10.53803,-21.638091 z"
               id="path3868" />
            <path
               d="m 495.2172,-8.020481 v 27.820402 h -8.6646 v -72.407983 h 8.6646 v 7.962068 q 2.71647,-4.68357 6.83801,-6.931683 4.16838,-2.294949 9.92917,-2.294949 9.55448,0 15.50261,7.587383 5.99497,7.587382 5.99497,19.952005 0,12.364624 -5.99497,19.9520063 -5.94813,7.5873825 -15.50261,7.5873825 -5.76079,0 -9.92917,-2.2481133 -4.12154,-2.2949491 -6.83801,-6.9785185 z m 29.31914,-18.312757 q 0,-9.507646 -3.93419,-14.89375 -3.88737,-5.432941 -10.72538,-5.432941 -6.83801,0 -10.77221,5.432941 -3.88736,5.386104 -3.88736,14.89375 0,9.507646 3.88736,14.940587 3.9342,5.3861048 10.77221,5.3861048 6.83801,0 10.72538,-5.3861048 3.93419,-5.432941 3.93419,-14.940587 z"
               id="path3870" />
            <path
               d="m 571.60623,-26.52058 q -10.44436,0 -14.47223,2.38862 -4.02787,2.388621 -4.02787,8.149411 0,4.589898 2.99748,7.3063683 3.04432,2.6696345 8.24308,2.6696345 7.16587,0 11.47475,-5.0582548 4.35572,-5.105091 4.35572,-13.535516 v -1.920263 z m 17.1887,-3.559513 v 29.92800865 h -8.61777 V -8.1141524 q -2.95065,4.7772408 -7.3532,7.0721899 -4.40256,2.2481133 -10.77221,2.2481133 -8.05574,0 -12.83298,-4.4962267 -4.73041,-4.5430623 -4.73041,-12.1304451 0,-8.851946 5.9013,-13.348173 5.94813,-4.496226 17.70389,-4.496226 h 12.08361 v -0.843043 q 0,-5.948133 -3.9342,-9.179796 -3.88736,-3.278499 -10.95955,-3.278499 -4.49623,0 -8.75828,1.077221 -4.26204,1.077221 -8.19624,3.231663 v -7.962068 q 4.7304,-1.826592 9.17979,-2.71647 4.44939,-0.936714 8.66461,-0.936714 11.38107,0 17.00135,5.901298 5.62029,5.901297 5.62029,17.891235 z"
               id="path3872" />
            <path
               d="m 636.94203,-44.552323 q -1.4519,-0.843042 -3.18482,-1.217728 -1.68609,-0.421521 -3.74686,-0.421521 -7.30637,0 -11.24057,4.777241 -3.88736,4.730405 -3.88736,13.629187 v 27.63305965 h -8.6646 V -52.608062 h 8.6646 v 8.149411 q 2.71647,-4.777241 7.07219,-7.07219 4.35572,-2.341785 10.58487,-2.341785 0.88988,0 1.9671,0.140507 1.07722,0.09367 2.38862,0.32785 z"
               id="path3874" />
            <path
               d="m 654.50537,-67.501813 v 14.893751 h 17.75073 v 6.697504 h -17.75073 v 28.476102 q 0,6.416491 1.73292,8.2430826 1.77976,1.8265921 7.16586,1.8265921 h 8.85195 v 7.21269695 h -8.85195 q -9.976,0 -13.76969,-3.70001985 -3.79369,-3.7468556 -3.79369,-13.5823518 v -28.476102 h -6.32282 v -6.697504 h 6.32282 v -14.893751 z"
               id="path3876" />
            <path
               d="m 683.59034,-73.028425 h 8.61777 v 72.87634065 h -8.61777 z"
               id="path3878" />
            <path
               d="m 732.06531,4.7188279 q -3.65318,9.3671391 -7.11902,12.2241161 -3.46584,2.856977 -9.27347,2.856977 h -6.88485 v -7.212696 h 5.05826 q 3.55951,0 5.52661,-1.686085 1.9671,-1.6860855 4.35572,-7.9620685 l 1.54558,-3.93419835 -21.21657,-51.61293515 h 9.13296 l 16.39249,41.028068 16.3925,-41.028068 h 9.13296 z"
               id="path3880" />
            <path
               d="m 805.83152,-8.020481 v 27.820402 h -8.66461 v -72.407983 h 8.66461 v 7.962068 q 2.71647,-4.68357 6.83801,-6.931683 4.16838,-2.294949 9.92917,-2.294949 9.55448,0 15.50261,7.587383 5.99497,7.587382 5.99497,19.952005 0,12.364624 -5.99497,19.9520063 -5.94813,7.5873825 -15.50261,7.5873825 -5.76079,0 -9.92917,-2.2481133 -4.12154,-2.2949491 -6.83801,-6.9785185 z m 29.31914,-18.312757 q 0,-9.507646 -3.9342,-14.89375 -3.88736,-5.432941 -10.72537,-5.432941 -6.83801,0 -10.77221,5.432941 -3.88736,5.386104 -3.88736,14.89375 0,9.507646 3.88736,14.940587 3.9342,5.3861048 10.77221,5.3861048 6.83801,0 10.72537,-5.3861048 3.9342,-5.432941 3.9342,-14.940587 z"
               id="path3882" />
            <path
               d="m 888.77754,-44.552323 q -1.4519,-0.843042 -3.18482,-1.217728 -1.68609,-0.421521 -3.74686,-0.421521 -7.30637,0 -11.24057,4.777241 -3.88736,4.730405 -3.88736,13.629187 v 27.63305965 h -8.6646 V -52.608062 h 8.6646 v 8.149411 q 2.71647,-4.777241 7.07219,-7.07219 4.35572,-2.341785 10.58487,-2.341785 0.88988,0 1.9671,0.140507 1.07722,0.09367 2.38862,0.32785 z"
               id="path3884" />
            <path
               d="m 940.57778,-28.534515 v 4.215212 h -39.623 q 0.56203,8.898782 5.33927,13.582352 4.82407,4.6367335 13.39501,4.6367335 4.96458,0 9.60131,-1.2177281 4.68357,-1.2177281 9.27347,-3.6531844 v 8.1494111 q -4.63673,1.96709913 -9.50765,2.99748441 -4.87091,1.03038529 -9.88233,1.03038529 -12.55196,0 -19.90517,-7.3063683 -7.30637,-7.3063685 -7.30637,-19.7646635 0,-12.879816 6.93169,-20.420362 6.97852,-7.587383 18.78111,-7.587383 10.58487,0 16.72034,6.838011 6.18232,6.791176 6.18232,18.5001 z m -8.61777,-2.529128 q -0.0937,-7.07219 -3.98104,-11.287402 -3.84052,-4.215213 -10.21018,-4.215213 -7.21269,0 -11.56841,4.074706 -4.30889,4.074705 -4.96459,11.474745 z"
               id="path3886" />
            <path
               d="m 989.2401,-44.645994 v -28.382431 h 8.6178 v 72.87634065 h -8.6178 V -8.020481 q -2.71642,4.6835694 -6.8848,6.9785185 -4.12154,2.2481133 -9.92917,2.2481133 -9.50764,0 -15.50261,-7.5873825 -5.94813,-7.5873823 -5.94813,-19.9520063 0,-12.364623 5.94813,-19.952005 5.99497,-7.587383 15.50261,-7.587383 5.80763,0 9.92917,2.294949 4.16838,2.248113 6.8848,6.931683 z m -29.36593,18.312756 q 0,9.507646 3.88736,14.940587 3.9342,5.3861048 10.77221,5.3861048 6.83801,0 10.77221,-5.3861048 3.93415,-5.432941 3.93415,-14.940587 0,-9.507646 -3.93415,-14.89375 -3.9342,-5.432941 -10.77221,-5.432941 -6.83801,0 -10.77221,5.432941 -3.88736,5.386104 -3.88736,14.89375 z"
               id="path3888" />
            <path
               d="m 1015.6086,-52.608062 h 8.6178 v 52.45597765 h -8.6178 z m 0,-20.420363 h 8.6178 v 10.912717 h -8.6178 z"
               id="path3890" />
            <path
               d="m 1080.0077,-50.594127 v 8.055739 q -3.6532,-2.013935 -7.3532,-2.997484 -3.6532,-1.030386 -7.4,-1.030386 -8.3836,0 -13.0204,5.33927 -4.6367,5.292433 -4.6367,14.89375 0,9.601318 4.6367,14.940587 4.6368,5.2924335 13.0204,5.2924335 3.7468,0 7.4,-0.9835496 3.7,-1.0303853 7.3532,-3.0443199 v 7.9620678 q -3.6063,1.68608499 -7.4937,2.52912749 -3.8405,0.84304251 -8.1963,0.84304251 -11.8494,0 -18.8279,-7.4468754 -6.9785,-7.4468754 -6.9785,-20.0925134 0,-12.83298 7.0253,-20.186184 7.0722,-7.353204 19.3432,-7.353204 3.981,0 7.7747,0.843043 3.7937,0.796206 7.3532,2.435456 z"
               id="path3892" />
            <path
               d="m 1103.5192,-67.501813 v 14.893751 h 17.7507 v 6.697504 h -17.7507 v 28.476102 q 0,6.416491 1.7329,8.2430826 1.7797,1.8265921 7.1658,1.8265921 h 8.852 v 7.21269695 h -8.852 q -9.976,0 -13.7696,-3.70001985 -3.7937,-3.7468556 -3.7937,-13.5823518 v -28.476102 h -6.3229 v -6.697504 h 6.3229 v -14.893751 z"
               id="path3894" />
            <path
               d="m 1132.6042,-52.608062 h 8.6178 v 52.45597765 h -8.6178 z m 0,-20.420363 h 8.6178 v 10.912717 h -8.6178 z"
               id="path3896" />
            <path
               d="m 1179.5803,-46.566258 q -6.9317,0 -10.9595,5.432941 -4.0279,5.386105 -4.0279,14.800079 0,9.413975 3.981,14.846916 4.0279,5.3861045 11.0064,5.3861045 6.8849,0 10.9127,-5.4329405 4.0279,-5.432941 4.0279,-14.80008 0,-9.320303 -4.0279,-14.753243 -4.0278,-5.479777 -10.9127,-5.479777 z m 0,-7.306368 q 11.2406,0 17.6571,7.306368 6.4165,7.306369 6.4165,20.23302 0,12.879816 -6.4165,20.2330205 -6.4165,7.3063683 -17.6571,7.3063683 -11.2874,0 -17.7039,-7.3063683 -6.3696,-7.3532045 -6.3696,-20.2330205 0,-12.926651 6.3696,-20.23302 6.4165,-7.306368 17.7039,-7.306368 z"
               id="path3898" />
            <path
               d="m 1261.5428,-31.813014 v 31.66092965 h -8.6177 V -31.532 q 0,-7.446875 -2.9039,-11.146895 -2.9038,-3.70002 -8.7114,-3.70002 -6.9785,0 -11.0064,4.449391 -4.0279,4.449391 -4.0279,12.130445 v 29.64699465 h -8.6646 V -52.608062 h 8.6646 v 8.149411 q 3.0912,-4.730405 7.2596,-7.07219 4.2152,-2.341785 9.695,-2.341785 9.0393,0 13.676,5.620283 4.6367,5.573448 4.6367,16.439329 z"
               id="path3900" />
            <path
               d="m 1312.1722,-51.062484 v 8.149411 q -3.6532,-1.873428 -7.5874,-2.810142 -3.9342,-0.936714 -8.1494,-0.936714 -6.4165,0 -9.6481,1.967099 -3.1849,1.967099 -3.1849,5.901298 0,2.997484 2.295,4.730405 2.2949,1.686085 9.2266,3.231663 l 2.9507,0.655699 q 9.1798,1.9671 13.0203,5.573448 3.8873,3.559513 3.8873,9.976003 0,7.3063684 -5.8076,11.5684166 -5.7608,4.2620482 -15.8773,4.2620482 -4.2152,0 -8.8051,-0.84304251 -4.5431,-0.79620681 -9.6013,-2.43545609 V -10.97113 q 4.7772,2.482292 9.414,3.7468558 4.6367,1.217728 9.1798,1.217728 6.0886,0 9.3671,-2.0607705 3.2785,-2.1076063 3.2785,-5.9012973 0,-3.512677 -2.3886,-5.386105 -2.3418,-1.873428 -10.3507,-3.606349 l -2.9975,-0.702535 q -8.0089,-1.686085 -11.5684,-5.151926 -3.5595,-3.512677 -3.5595,-9.601318 0,-7.400039 5.2456,-11.427909 5.2456,-4.02787 14.8937,-4.02787 4.7773,0 8.9925,0.702536 4.2152,0.702535 7.7747,2.107606 z"
               id="path3902" />
            <path
               d="m 1327.3469,-72.934754 h 7.4937 q 7.0254,11.053224 10.4912,21.638091 3.5127,10.584867 3.5127,21.029227 0,10.491196 -3.5127,21.1228983 -3.4658,10.6317027 -10.4912,21.6380907 h -7.4937 q 6.2292,-10.7253739 9.2735,-21.3102408 3.0911,-10.6317022 3.0911,-21.4507482 0,-10.819045 -3.0911,-21.357077 -3.0443,-10.538031 -9.2735,-21.310241 z"
               id="path3904" />
            <g
               aria-label="A3"
               id="text563"
               style="font-size:94.7434px;line-height:1.25;stroke-width:5.67983">
              <path
                 d="m 318.41706,-61.285529 -12.67563,34.372239 h 25.39752 z m -5.27381,-9.206024 h 10.59387 l 26.32275,69.068309 h -9.7149 l -6.29155,-17.718126 h -31.13394 l -6.29156,17.718126 h -9.85368 z"
                 id="path511" />
              <path
                 d="m 389.28956,-38.663692 q 6.70791,1.434104 10.45508,5.967724 3.79344,4.53362 3.79344,11.195265 0,10.223775 -7.03174,15.8214078 -7.03174,5.59763256 -19.98494,5.59763256 -4.34857,0 -8.97471,-0.8789671 -4.57988,-0.83270566 -9.48359,-2.54437846 v -9.0209778 q 3.88596,2.26681 8.5121,3.4233453 4.62614,1.1565356 9.66864,1.1565356 8.78967,0 13.36955,-3.4696069 4.62614,-3.469607 4.62614,-10.084991 0,-6.106508 -4.30231,-9.529854 -4.25605,-3.469607 -11.88919,-3.469607 h -8.04949 v -7.679396 h 8.41958 q 6.89296,0 10.54761,-2.729424 3.65465,-2.775686 3.65465,-7.956966 0,-5.320064 -3.79344,-8.142011 -3.74717,-2.868208 -10.77891,-2.868208 -3.8397,0 -8.23453,0.832705 -4.39484,0.832706 -9.66864,2.59064 v -8.327056 q 5.32006,-1.480366 9.94621,-2.220549 4.6724,-0.740183 8.78967,-0.740183 10.64013,0 16.83916,4.85745 6.19903,4.811188 6.19903,13.045722 0,5.736417 -3.28456,9.7149 -3.28456,3.932221 -9.34481,5.458848 z"
                 id="path513" />
            </g>
          </g>
          <use
             x="132.03125"
             xlink:href="#DejaVuSans-32"
             id="use301"
             y="0"
             width="100%"
             height="100%" />
          <use
             x="494.87305"
             xlink:href="#DejaVuSans-32"
             id="use317"
             y="0"
             width="100%"
             height="100%" />
        </g>
      </g>
    </g>
  </g>
  <defs
     id="defs351">
    <clipPath
       id="p89e39861cc">
      <rect
         height="219.4"
         width="226.4"
         x="50.8"
         y="26.8"
         id="rect348" />
    </clipPath>
  </defs>
</svg>
