<?xml version="1.0" encoding="UTF-8" standalone="no"?>
<!-- Created with matplotlib (https://matplotlib.org/) -->

<svg
   height="288pt"
   version="1.1"
   viewBox="0 0 288 288"
   width="288pt"
   id="svg340"
   sodipodi:docname="cr_datapoint_scaling_ours_talk.svg"
   inkscape:version="1.1.2 (1:1.1+202205011109+08b2f3d93c)"
   xmlns:inkscape="http://www.inkscape.org/namespaces/inkscape"
   xmlns:sodipodi="http://sodipodi.sourceforge.net/DTD/sodipodi-0.dtd"
   xmlns:xlink="http://www.w3.org/1999/xlink"
   xmlns="http://www.w3.org/2000/svg"
   xmlns:svg="http://www.w3.org/2000/svg">
  <sodipodi:namedview
     id="namedview342"
     pagecolor="#ffffff"
     bordercolor="#666666"
     borderopacity="1.0"
     inkscape:pageshadow="2"
     inkscape:pageopacity="0.0"
     inkscape:pagecheckerboard="0"
     inkscape:document-units="pt"
     showgrid="false"
     inkscape:zoom="2.265625"
     inkscape:cx="239.88966"
     inkscape:cy="144.77241"
     inkscape:window-width="1862"
     inkscape:window-height="1163"
     inkscape:window-x="1978"
     inkscape:window-y="0"
     inkscape:window-maximized="1"
     inkscape:current-layer="svg340" />
  <defs
     id="defs4">
    <marker
       style="overflow:visible;"
       id="Arrow1Mend"
       refX="0.0"
       refY="0.0"
       orient="auto"
       inkscape:stockid="Arrow1Mend"
       inkscape:isstock="true">
      <path
         transform="scale(0.4) rotate(180) translate(10,0)"
         style="fill-rule:evenodd;fill:context-stroke;stroke:context-stroke;stroke-width:1.0pt;"
         d="M 0.0,0.0 L 5.0,-5.0 L -12.5,0.0 L 5.0,5.0 L 0.0,0.0 z "
         id="path16761" />
    </marker>
    <marker
       style="overflow:visible;"
       id="Arrow1Send"
       refX="0.0"
       refY="0.0"
       orient="auto"
       inkscape:stockid="Arrow1Send"
       inkscape:isstock="true">
      <path
         transform="scale(0.2) rotate(180) translate(6,0)"
         style="fill-rule:evenodd;fill:context-stroke;stroke:context-stroke;stroke-width:1.0pt;"
         d="M 0.0,0.0 L 5.0,-5.0 L -12.5,0.0 L 5.0,5.0 L 0.0,0.0 z "
         id="path16767" />
    </marker>
    <inkscape:path-effect
       effect="spiro"
       id="path-effect16750"
       is_visible="true"
       lpeversion="1" />
    <style
       type="text/css"
       id="style2">
*{stroke-linecap:butt;stroke-linejoin:round;}
  </style>
  </defs>
  <g
     id="figure_1">
    <g
       id="patch_1">
      <path
         d="M 0 288  L 288 288  L 288 0  L 0 0  z "
         style="fill:#ffffff;"
         id="path6" />
    </g>
    <g
       id="axes_1">
      <g
         id="patch_2">
        <path
           d="M 50.8 246.2  L 277.2 246.2  L 277.2 26.8  L 50.8 26.8  z "
           style="fill:#ffffff;"
           id="path9" />
      </g>
      <g
         id="patch_3">
        <path
           clip-path="url(#pc25414cf01)"
           d="M 61.090909 246.2  L 89.479624 246.2  L 89.479624 241.732197  L 61.090909 241.732197  z "
           style="fill:#1f77b4;"
           id="path12" />
      </g>
      <g
         id="patch_4">
        <path
           clip-path="url(#pc25414cf01)"
           d="M 96.576803 246.2  L 124.965517 246.2  L 124.965517 241.753301  L 96.576803 241.753301  z "
           style="fill:#1f77b4;"
           id="path15" />
      </g>
      <g
         id="patch_5">
        <path
           clip-path="url(#pc25414cf01)"
           d="M 132.062696 246.2  L 160.451411 246.2  L 160.451411 241.707816  L 132.062696 241.707816  z "
           style="fill:#1f77b4;"
           id="path18" />
      </g>
      <g
         id="patch_6">
        <path
           clip-path="url(#pc25414cf01)"
           d="M 167.548589 246.2  L 195.937304 246.2  L 195.937304 241.639269  L 167.548589 241.639269  z "
           style="fill:#1f77b4;"
           id="path21" />
      </g>
      <g
         id="patch_7">
        <path
           clip-path="url(#pc25414cf01)"
           d="M 203.034483 246.2  L 231.423197 246.2  L 231.423197 241.61916  L 203.034483 241.61916  z "
           style="fill:#1f77b4;"
           id="path24" />
      </g>
      <g
         id="patch_8">
        <path
           clip-path="url(#pc25414cf01)"
           d="M 238.520376 246.2  L 266.909091 246.2  L 266.909091 241.569524  L 238.520376 241.569524  z "
           style="fill:#1f77b4;"
           id="path27" />
      </g>
      <g
         id="matplotlib.axis_1">
        <g
           id="xtick_1">
          <g
             id="line2d_1">
            <defs
               id="defs31">
              <path
                 d="M 0 0  L 0 3.5  "
                 id="m6da156686a"
                 style="stroke:#000000;stroke-width:0.8;" />
            </defs>
            <g
               id="g35">
              <use
                 style="stroke:#000000;stroke-width:0.8;"
                 x="75.285266"
                 xlink:href="#m6da156686a"
                 y="246.2"
                 id="use33" />
            </g>
          </g>
          <g
             id="text_1">
            <!-- 3 -->
            <defs
               id="defs39">
              <path
                 d="M 40.578125 39.3125  Q 47.65625 37.796875 51.625 33  Q 55.609375 28.21875 55.609375 21.1875  Q 55.609375 10.40625 48.1875 4.484375  Q 40.765625 -1.421875 27.09375 -1.421875  Q 22.515625 -1.421875 17.65625 -0.515625  Q 12.796875 0.390625 7.625 2.203125  L 7.625 11.71875  Q 11.71875 9.328125 16.59375 8.109375  Q 21.484375 6.890625 26.8125 6.890625  Q 36.078125 6.890625 40.9375 10.546875  Q 45.796875 14.203125 45.796875 21.1875  Q 45.796875 27.640625 41.28125 31.265625  Q 36.765625 34.90625 28.71875 34.90625  L 20.21875 34.90625  L 20.21875 43.015625  L 29.109375 43.015625  Q 36.375 43.015625 40.234375 45.921875  Q 44.09375 48.828125 44.09375 54.296875  Q 44.09375 59.90625 40.109375 62.90625  Q 36.140625 65.921875 28.71875 65.921875  Q 24.65625 65.921875 20.015625 65.03125  Q 15.375 64.15625 9.8125 62.3125  L 9.8125 71.09375  Q 15.4375 72.65625 20.34375 73.4375  Q 25.25 74.21875 29.59375 74.21875  Q 40.828125 74.21875 47.359375 69.109375  Q 53.90625 64.015625 53.90625 55.328125  Q 53.90625 49.265625 50.4375 45.09375  Q 46.96875 40.921875 40.578125 39.3125  z "
                 id="DejaVuSans-51" />
            </defs>
            <g
               transform="translate(72.104016 260.798437)scale(0.1 -0.1)"
               id="g43">
              <use
                 xlink:href="#DejaVuSans-51"
                 id="use41" />
            </g>
          </g>
        </g>
        <g
           id="xtick_2">
          <g
             id="line2d_2">
            <g
               id="g49">
              <use
                 style="stroke:#000000;stroke-width:0.8;"
                 x="110.77116"
                 xlink:href="#m6da156686a"
                 y="246.2"
                 id="use47" />
            </g>
          </g>
          <g
             id="text_2">
            <!-- 10 -->
            <defs
               id="defs54">
              <path
                 d="M 12.40625 8.296875  L 28.515625 8.296875  L 28.515625 63.921875  L 10.984375 60.40625  L 10.984375 69.390625  L 28.421875 72.90625  L 38.28125 72.90625  L 38.28125 8.296875  L 54.390625 8.296875  L 54.390625 0  L 12.40625 0  z "
                 id="DejaVuSans-49" />
              <path
                 d="M 31.78125 66.40625  Q 24.171875 66.40625 20.328125 58.90625  Q 16.5 51.421875 16.5 36.375  Q 16.5 21.390625 20.328125 13.890625  Q 24.171875 6.390625 31.78125 6.390625  Q 39.453125 6.390625 43.28125 13.890625  Q 47.125 21.390625 47.125 36.375  Q 47.125 51.421875 43.28125 58.90625  Q 39.453125 66.40625 31.78125 66.40625  z M 31.78125 74.21875  Q 44.046875 74.21875 50.515625 64.515625  Q 56.984375 54.828125 56.984375 36.375  Q 56.984375 17.96875 50.515625 8.265625  Q 44.046875 -1.421875 31.78125 -1.421875  Q 19.53125 -1.421875 13.0625 8.265625  Q 6.59375 17.96875 6.59375 36.375  Q 6.59375 54.828125 13.0625 64.515625  Q 19.53125 74.21875 31.78125 74.21875  z "
                 id="DejaVuSans-48" />
            </defs>
            <g
               transform="translate(104.40866 260.798437)scale(0.1 -0.1)"
               id="g60">
              <use
                 xlink:href="#DejaVuSans-49"
                 id="use56" />
              <use
                 x="63.623047"
                 xlink:href="#DejaVuSans-48"
                 id="use58" />
            </g>
          </g>
        </g>
        <g
           id="xtick_3">
          <g
             id="line2d_3">
            <g
               id="g66">
              <use
                 style="stroke:#000000;stroke-width:0.8;"
                 x="146.257053"
                 xlink:href="#m6da156686a"
                 y="246.2"
                 id="use64" />
            </g>
          </g>
          <g
             id="text_3">
            <!-- 30 -->
            <g
               transform="translate(139.894553 260.798437)scale(0.1 -0.1)"
               id="g73">
              <use
                 xlink:href="#DejaVuSans-51"
                 id="use69" />
              <use
                 x="63.623047"
                 xlink:href="#DejaVuSans-48"
                 id="use71" />
            </g>
          </g>
        </g>
        <g
           id="xtick_4">
          <g
             id="line2d_4">
            <g
               id="g79">
              <use
                 style="stroke:#000000;stroke-width:0.8;"
                 x="181.742947"
                 xlink:href="#m6da156686a"
                 y="246.2"
                 id="use77" />
            </g>
          </g>
          <g
             id="text_4">
            <!-- 100 -->
            <g
               transform="translate(172.199197 260.798437)scale(0.1 -0.1)"
               id="g88">
              <use
                 xlink:href="#DejaVuSans-49"
                 id="use82" />
              <use
                 x="63.623047"
                 xlink:href="#DejaVuSans-48"
                 id="use84" />
              <use
                 x="127.246094"
                 xlink:href="#DejaVuSans-48"
                 id="use86" />
            </g>
          </g>
        </g>
        <g
           id="xtick_5">
          <g
             id="line2d_5">
            <g
               id="g94">
              <use
                 style="stroke:#000000;stroke-width:0.8;"
                 x="217.22884"
                 xlink:href="#m6da156686a"
                 y="246.2"
                 id="use92" />
            </g>
          </g>
          <g
             id="text_5">
            <!-- 300 -->
            <g
               transform="translate(207.68509 260.798437)scale(0.1 -0.1)"
               id="g103">
              <use
                 xlink:href="#DejaVuSans-51"
                 id="use97" />
              <use
                 x="63.623047"
                 xlink:href="#DejaVuSans-48"
                 id="use99" />
              <use
                 x="127.246094"
                 xlink:href="#DejaVuSans-48"
                 id="use101" />
            </g>
          </g>
        </g>
        <g
           id="xtick_6">
          <g
             id="line2d_6">
            <g
               id="g109">
              <use
                 style="stroke:#000000;stroke-width:0.8;"
                 x="252.714734"
                 xlink:href="#m6da156686a"
                 y="246.2"
                 id="use107" />
            </g>
          </g>
          <g
             id="text_6">
            <!-- 1000 -->
            <g
               transform="translate(239.989734 260.798437)scale(0.1 -0.1)"
               id="g120">
              <use
                 xlink:href="#DejaVuSans-49"
                 id="use112" />
              <use
                 x="63.623047"
                 xlink:href="#DejaVuSans-48"
                 id="use114" />
              <use
                 x="127.246094"
                 xlink:href="#DejaVuSans-48"
                 id="use116" />
              <use
                 x="190.869141"
                 xlink:href="#DejaVuSans-48"
                 id="use118" />
            </g>
          </g>
        </g>
        <g
           id="text_7">
          <!-- # Data -->
          <defs
             id="defs129">
            <path
               d="M 51.125 44  L 36.921875 44  L 32.8125 27.6875  L 47.125 27.6875  z M 43.796875 71.78125  L 38.71875 51.515625  L 52.984375 51.515625  L 58.109375 71.78125  L 65.921875 71.78125  L 60.890625 51.515625  L 76.125 51.515625  L 76.125 44  L 58.984375 44  L 54.984375 27.6875  L 70.515625 27.6875  L 70.515625 20.21875  L 53.078125 20.21875  L 48 0  L 40.1875 0  L 45.21875 20.21875  L 30.90625 20.21875  L 25.875 0  L 18.015625 0  L 23.09375 20.21875  L 7.71875 20.21875  L 7.71875 27.6875  L 24.90625 27.6875  L 29 44  L 13.28125 44  L 13.28125 51.515625  L 30.90625 51.515625  L 35.890625 71.78125  z "
               id="DejaVuSans-35" />
            <path
               id="DejaVuSans-32" />
            <path
               d="M 19.671875 64.796875  L 19.671875 8.109375  L 31.59375 8.109375  Q 46.6875 8.109375 53.6875 14.9375  Q 60.6875 21.78125 60.6875 36.53125  Q 60.6875 51.171875 53.6875 57.984375  Q 46.6875 64.796875 31.59375 64.796875  z M 9.8125 72.90625  L 30.078125 72.90625  Q 51.265625 72.90625 61.171875 64.09375  Q 71.09375 55.28125 71.09375 36.53125  Q 71.09375 17.671875 61.125 8.828125  Q 51.171875 0 30.078125 0  L 9.8125 0  z "
               id="DejaVuSans-68" />
            <path
               d="M 34.28125 27.484375  Q 23.390625 27.484375 19.1875 25  Q 14.984375 22.515625 14.984375 16.5  Q 14.984375 11.71875 18.140625 8.90625  Q 21.296875 6.109375 26.703125 6.109375  Q 34.1875 6.109375 38.703125 11.40625  Q 43.21875 16.703125 43.21875 25.484375  L 43.21875 27.484375  z M 52.203125 31.203125  L 52.203125 0  L 43.21875 0  L 43.21875 8.296875  Q 40.140625 3.328125 35.546875 0.953125  Q 30.953125 -1.421875 24.3125 -1.421875  Q 15.921875 -1.421875 10.953125 3.296875  Q 6 8.015625 6 15.921875  Q 6 25.140625 12.171875 29.828125  Q 18.359375 34.515625 30.609375 34.515625  L 43.21875 34.515625  L 43.21875 35.40625  Q 43.21875 41.609375 39.140625 45  Q 35.0625 48.390625 27.6875 48.390625  Q 23 48.390625 18.546875 47.265625  Q 14.109375 46.140625 10.015625 43.890625  L 10.015625 52.203125  Q 14.9375 54.109375 19.578125 55.046875  Q 24.21875 56 28.609375 56  Q 40.484375 56 46.34375 49.84375  Q 52.203125 43.703125 52.203125 31.203125  z "
               id="DejaVuSans-97" />
            <path
               d="M 18.3125 70.21875  L 18.3125 54.6875  L 36.8125 54.6875  L 36.8125 47.703125  L 18.3125 47.703125  L 18.3125 18.015625  Q 18.3125 11.328125 20.140625 9.421875  Q 21.96875 7.515625 27.59375 7.515625  L 36.8125 7.515625  L 36.8125 0  L 27.59375 0  Q 17.1875 0 13.234375 3.875  Q 9.28125 7.765625 9.28125 18.015625  L 9.28125 47.703125  L 2.6875 47.703125  L 2.6875 54.6875  L 9.28125 54.6875  L 9.28125 70.21875  z "
               id="DejaVuSans-116" />
          </defs>
          <g
             transform="translate(146.282813 274.476562)scale(0.1 -0.1)"
             id="g143">
            <use
               xlink:href="#DejaVuSans-35"
               id="use131" />
            <use
               x="83.789062"
               xlink:href="#DejaVuSans-32"
               id="use133" />
            <use
               x="115.576172"
               xlink:href="#DejaVuSans-68"
               id="use135" />
            <use
               x="192.578125"
               xlink:href="#DejaVuSans-97"
               id="use137" />
            <use
               x="253.857422"
               xlink:href="#DejaVuSans-116"
               id="use139" />
            <use
               x="293.066406"
               xlink:href="#DejaVuSans-97"
               id="use141" />
          </g>
        </g>
      </g>
      <g
         id="matplotlib.axis_2">
        <g
           id="ytick_1">
          <g
             id="line2d_7">
            <defs
               id="defs148">
              <path
                 d="M 0 0  L -3.5 0  "
                 id="m86fc1425a2"
                 style="stroke:#000000;stroke-width:0.8;" />
            </defs>
            <g
               id="g152">
              <use
                 style="stroke:#000000;stroke-width:0.8;"
                 x="50.8"
                 xlink:href="#m86fc1425a2"
                 y="246.2"
                 id="use150" />
            </g>
          </g>
          <g
             id="text_8">
            <!-- 0 -->
            <g
               transform="translate(37.4375 249.999219)scale(0.1 -0.1)"
               id="g157">
              <use
                 xlink:href="#DejaVuSans-48"
                 id="use155" />
            </g>
          </g>
        </g>
        <g
           id="ytick_2">
          <g
             id="line2d_8">
            <g
               id="g163">
              <use
                 style="stroke:#000000;stroke-width:0.8;"
                 x="50.8"
                 xlink:href="#m86fc1425a2"
                 y="197.458055"
                 id="use161" />
            </g>
          </g>
          <g
             id="text_9">
            <!-- 50 -->
            <defs
               id="defs167">
              <path
                 d="M 10.796875 72.90625  L 49.515625 72.90625  L 49.515625 64.59375  L 19.828125 64.59375  L 19.828125 46.734375  Q 21.96875 47.46875 24.109375 47.828125  Q 26.265625 48.1875 28.421875 48.1875  Q 40.625 48.1875 47.75 41.5  Q 54.890625 34.8125 54.890625 23.390625  Q 54.890625 11.625 47.5625 5.09375  Q 40.234375 -1.421875 26.90625 -1.421875  Q 22.3125 -1.421875 17.546875 -0.640625  Q 12.796875 0.140625 7.71875 1.703125  L 7.71875 11.625  Q 12.109375 9.234375 16.796875 8.0625  Q 21.484375 6.890625 26.703125 6.890625  Q 35.15625 6.890625 40.078125 11.328125  Q 45.015625 15.765625 45.015625 23.390625  Q 45.015625 31 40.078125 35.4375  Q 35.15625 39.890625 26.703125 39.890625  Q 22.75 39.890625 18.8125 39.015625  Q 14.890625 38.140625 10.796875 36.28125  z "
                 id="DejaVuSans-53" />
            </defs>
            <g
               transform="translate(31.075 201.257274)scale(0.1 -0.1)"
               id="g173">
              <use
                 xlink:href="#DejaVuSans-53"
                 id="use169" />
              <use
                 x="63.623047"
                 xlink:href="#DejaVuSans-48"
                 id="use171" />
            </g>
          </g>
        </g>
        <g
           id="ytick_3">
          <g
             id="line2d_9">
            <g
               id="g179">
              <use
                 style="stroke:#000000;stroke-width:0.8;"
                 x="50.8"
                 xlink:href="#m86fc1425a2"
                 y="148.716111"
                 id="use177" />
            </g>
          </g>
          <g
             id="text_10">
            <!-- 100 -->
            <g
               transform="translate(24.7125 152.51533)scale(0.1 -0.1)"
               id="g188">
              <use
                 xlink:href="#DejaVuSans-49"
                 id="use182" />
              <use
                 x="63.623047"
                 xlink:href="#DejaVuSans-48"
                 id="use184" />
              <use
                 x="127.246094"
                 xlink:href="#DejaVuSans-48"
                 id="use186" />
            </g>
          </g>
        </g>
        <g
           id="ytick_4">
          <g
             id="line2d_10">
            <g
               id="g194">
              <use
                 style="stroke:#000000;stroke-width:0.8;"
                 x="50.8"
                 xlink:href="#m86fc1425a2"
                 y="99.974166"
                 id="use192" />
            </g>
          </g>
          <g
             id="text_11">
            <!-- 150 -->
            <g
               transform="translate(24.7125 103.773385)scale(0.1 -0.1)"
               id="g203">
              <use
                 xlink:href="#DejaVuSans-49"
                 id="use197" />
              <use
                 x="63.623047"
                 xlink:href="#DejaVuSans-53"
                 id="use199" />
              <use
                 x="127.246094"
                 xlink:href="#DejaVuSans-48"
                 id="use201" />
            </g>
          </g>
        </g>
        <g
           id="ytick_5">
          <g
             id="line2d_11">
            <g
               id="g209">
              <use
                 style="stroke:#000000;stroke-width:0.8;"
                 x="50.8"
                 xlink:href="#m86fc1425a2"
                 y="51.232222"
                 id="use207" />
            </g>
          </g>
          <g
             id="text_12">
            <!-- 200 -->
            <defs
               id="defs213">
              <path
                 d="M 19.1875 8.296875  L 53.609375 8.296875  L 53.609375 0  L 7.328125 0  L 7.328125 8.296875  Q 12.9375 14.109375 22.625 23.890625  Q 32.328125 33.6875 34.8125 36.53125  Q 39.546875 41.84375 41.421875 45.53125  Q 43.3125 49.21875 43.3125 52.78125  Q 43.3125 58.59375 39.234375 62.25  Q 35.15625 65.921875 28.609375 65.921875  Q 23.96875 65.921875 18.8125 64.3125  Q 13.671875 62.703125 7.8125 59.421875  L 7.8125 69.390625  Q 13.765625 71.78125 18.9375 73  Q 24.125 74.21875 28.421875 74.21875  Q 39.75 74.21875 46.484375 68.546875  Q 53.21875 62.890625 53.21875 53.421875  Q 53.21875 48.921875 51.53125 44.890625  Q 49.859375 40.875 45.40625 35.40625  Q 44.1875 33.984375 37.640625 27.21875  Q 31.109375 20.453125 19.1875 8.296875  z "
                 id="DejaVuSans-50" />
            </defs>
            <g
               transform="translate(24.7125 55.03144)scale(0.1 -0.1)"
               id="g221">
              <use
                 xlink:href="#DejaVuSans-50"
                 id="use215" />
              <use
                 x="63.623047"
                 xlink:href="#DejaVuSans-48"
                 id="use217" />
              <use
                 x="127.246094"
                 xlink:href="#DejaVuSans-48"
                 id="use219" />
            </g>
          </g>
        </g>
        <g
           id="text_13">
          <!-- log10(# Simulations) -->
          <defs
             id="defs236">
            <path
               d="M 9.421875 75.984375  L 18.40625 75.984375  L 18.40625 0  L 9.421875 0  z "
               id="DejaVuSans-108" />
            <path
               d="M 30.609375 48.390625  Q 23.390625 48.390625 19.1875 42.75  Q 14.984375 37.109375 14.984375 27.296875  Q 14.984375 17.484375 19.15625 11.84375  Q 23.34375 6.203125 30.609375 6.203125  Q 37.796875 6.203125 41.984375 11.859375  Q 46.1875 17.53125 46.1875 27.296875  Q 46.1875 37.015625 41.984375 42.703125  Q 37.796875 48.390625 30.609375 48.390625  z M 30.609375 56  Q 42.328125 56 49.015625 48.375  Q 55.71875 40.765625 55.71875 27.296875  Q 55.71875 13.875 49.015625 6.21875  Q 42.328125 -1.421875 30.609375 -1.421875  Q 18.84375 -1.421875 12.171875 6.21875  Q 5.515625 13.875 5.515625 27.296875  Q 5.515625 40.765625 12.171875 48.375  Q 18.84375 56 30.609375 56  z "
               id="DejaVuSans-111" />
            <path
               d="M 45.40625 27.984375  Q 45.40625 37.75 41.375 43.109375  Q 37.359375 48.484375 30.078125 48.484375  Q 22.859375 48.484375 18.828125 43.109375  Q 14.796875 37.75 14.796875 27.984375  Q 14.796875 18.265625 18.828125 12.890625  Q 22.859375 7.515625 30.078125 7.515625  Q 37.359375 7.515625 41.375 12.890625  Q 45.40625 18.265625 45.40625 27.984375  z M 54.390625 6.78125  Q 54.390625 -7.171875 48.1875 -13.984375  Q 42 -20.796875 29.203125 -20.796875  Q 24.46875 -20.796875 20.265625 -20.09375  Q 16.0625 -19.390625 12.109375 -17.921875  L 12.109375 -9.1875  Q 16.0625 -11.328125 19.921875 -12.34375  Q 23.78125 -13.375 27.78125 -13.375  Q 36.625 -13.375 41.015625 -8.765625  Q 45.40625 -4.15625 45.40625 5.171875  L 45.40625 9.625  Q 42.625 4.78125 38.28125 2.390625  Q 33.9375 0 27.875 0  Q 17.828125 0 11.671875 7.65625  Q 5.515625 15.328125 5.515625 27.984375  Q 5.515625 40.671875 11.671875 48.328125  Q 17.828125 56 27.875 56  Q 33.9375 56 38.28125 53.609375  Q 42.625 51.21875 45.40625 46.390625  L 45.40625 54.6875  L 54.390625 54.6875  z "
               id="DejaVuSans-103" />
            <path
               d="M 31 75.875  Q 24.46875 64.65625 21.28125 53.65625  Q 18.109375 42.671875 18.109375 31.390625  Q 18.109375 20.125 21.3125 9.0625  Q 24.515625 -2 31 -13.1875  L 23.1875 -13.1875  Q 15.875 -1.703125 12.234375 9.375  Q 8.59375 20.453125 8.59375 31.390625  Q 8.59375 42.28125 12.203125 53.3125  Q 15.828125 64.359375 23.1875 75.875  z "
               id="DejaVuSans-40" />
            <path
               d="M 53.515625 70.515625  L 53.515625 60.890625  Q 47.90625 63.578125 42.921875 64.890625  Q 37.9375 66.21875 33.296875 66.21875  Q 25.25 66.21875 20.875 63.09375  Q 16.5 59.96875 16.5 54.203125  Q 16.5 49.359375 19.40625 46.890625  Q 22.3125 44.4375 30.421875 42.921875  L 36.375 41.703125  Q 47.40625 39.59375 52.65625 34.296875  Q 57.90625 29 57.90625 20.125  Q 57.90625 9.515625 50.796875 4.046875  Q 43.703125 -1.421875 29.984375 -1.421875  Q 24.8125 -1.421875 18.96875 -0.25  Q 13.140625 0.921875 6.890625 3.21875  L 6.890625 13.375  Q 12.890625 10.015625 18.65625 8.296875  Q 24.421875 6.59375 29.984375 6.59375  Q 38.421875 6.59375 43.015625 9.90625  Q 47.609375 13.234375 47.609375 19.390625  Q 47.609375 24.75 44.3125 27.78125  Q 41.015625 30.8125 33.5 32.328125  L 27.484375 33.5  Q 16.453125 35.6875 11.515625 40.375  Q 6.59375 45.0625 6.59375 53.421875  Q 6.59375 63.09375 13.40625 68.65625  Q 20.21875 74.21875 32.171875 74.21875  Q 37.3125 74.21875 42.625 73.28125  Q 47.953125 72.359375 53.515625 70.515625  z "
               id="DejaVuSans-83" />
            <path
               d="M 9.421875 54.6875  L 18.40625 54.6875  L 18.40625 0  L 9.421875 0  z M 9.421875 75.984375  L 18.40625 75.984375  L 18.40625 64.59375  L 9.421875 64.59375  z "
               id="DejaVuSans-105" />
            <path
               d="M 52 44.1875  Q 55.375 50.25 60.0625 53.125  Q 64.75 56 71.09375 56  Q 79.640625 56 84.28125 50.015625  Q 88.921875 44.046875 88.921875 33.015625  L 88.921875 0  L 79.890625 0  L 79.890625 32.71875  Q 79.890625 40.578125 77.09375 44.375  Q 74.3125 48.1875 68.609375 48.1875  Q 61.625 48.1875 57.5625 43.546875  Q 53.515625 38.921875 53.515625 30.90625  L 53.515625 0  L 44.484375 0  L 44.484375 32.71875  Q 44.484375 40.625 41.703125 44.40625  Q 38.921875 48.1875 33.109375 48.1875  Q 26.21875 48.1875 22.15625 43.53125  Q 18.109375 38.875 18.109375 30.90625  L 18.109375 0  L 9.078125 0  L 9.078125 54.6875  L 18.109375 54.6875  L 18.109375 46.1875  Q 21.1875 51.21875 25.484375 53.609375  Q 29.78125 56 35.6875 56  Q 41.65625 56 45.828125 52.96875  Q 50 49.953125 52 44.1875  z "
               id="DejaVuSans-109" />
            <path
               d="M 8.5 21.578125  L 8.5 54.6875  L 17.484375 54.6875  L 17.484375 21.921875  Q 17.484375 14.15625 20.5 10.265625  Q 23.53125 6.390625 29.59375 6.390625  Q 36.859375 6.390625 41.078125 11.03125  Q 45.3125 15.671875 45.3125 23.6875  L 45.3125 54.6875  L 54.296875 54.6875  L 54.296875 0  L 45.3125 0  L 45.3125 8.40625  Q 42.046875 3.421875 37.71875 1  Q 33.40625 -1.421875 27.6875 -1.421875  Q 18.265625 -1.421875 13.375 4.4375  Q 8.5 10.296875 8.5 21.578125  z M 31.109375 56  z "
               id="DejaVuSans-117" />
            <path
               d="M 54.890625 33.015625  L 54.890625 0  L 45.90625 0  L 45.90625 32.71875  Q 45.90625 40.484375 42.875 44.328125  Q 39.84375 48.1875 33.796875 48.1875  Q 26.515625 48.1875 22.3125 43.546875  Q 18.109375 38.921875 18.109375 30.90625  L 18.109375 0  L 9.078125 0  L 9.078125 54.6875  L 18.109375 54.6875  L 18.109375 46.1875  Q 21.34375 51.125 25.703125 53.5625  Q 30.078125 56 35.796875 56  Q 45.21875 56 50.046875 50.171875  Q 54.890625 44.34375 54.890625 33.015625  z "
               id="DejaVuSans-110" />
            <path
               d="M 44.28125 53.078125  L 44.28125 44.578125  Q 40.484375 46.53125 36.375 47.5  Q 32.28125 48.484375 27.875 48.484375  Q 21.1875 48.484375 17.84375 46.4375  Q 14.5 44.390625 14.5 40.28125  Q 14.5 37.15625 16.890625 35.375  Q 19.28125 33.59375 26.515625 31.984375  L 29.59375 31.296875  Q 39.15625 29.25 43.1875 25.515625  Q 47.21875 21.78125 47.21875 15.09375  Q 47.21875 7.46875 41.1875 3.015625  Q 35.15625 -1.421875 24.609375 -1.421875  Q 20.21875 -1.421875 15.453125 -0.5625  Q 10.6875 0.296875 5.421875 2  L 5.421875 11.28125  Q 10.40625 8.6875 15.234375 7.390625  Q 20.0625 6.109375 24.8125 6.109375  Q 31.15625 6.109375 34.5625 8.28125  Q 37.984375 10.453125 37.984375 14.40625  Q 37.984375 18.0625 35.515625 20.015625  Q 33.0625 21.96875 24.703125 23.78125  L 21.578125 24.515625  Q 13.234375 26.265625 9.515625 29.90625  Q 5.8125 33.546875 5.8125 39.890625  Q 5.8125 47.609375 11.28125 51.796875  Q 16.75 56 26.8125 56  Q 31.78125 56 36.171875 55.265625  Q 40.578125 54.546875 44.28125 53.078125  z "
               id="DejaVuSans-115" />
            <path
               d="M 8.015625 75.875  L 15.828125 75.875  Q 23.140625 64.359375 26.78125 53.3125  Q 30.421875 42.28125 30.421875 31.390625  Q 30.421875 20.453125 26.78125 9.375  Q 23.140625 -1.703125 15.828125 -13.1875  L 8.015625 -13.1875  Q 14.5 -2 17.703125 9.0625  Q 20.90625 20.125 20.90625 31.390625  Q 20.90625 42.671875 17.703125 53.65625  Q 14.5 64.65625 8.015625 75.875  z "
               id="DejaVuSans-41" />
          </defs>
          <g
             transform="translate(18.632812 189.403125)rotate(-90)scale(0.1 -0.1)"
             id="g278">
            <use
               xlink:href="#DejaVuSans-108"
               id="use238" />
            <use
               x="27.783203"
               xlink:href="#DejaVuSans-111"
               id="use240" />
            <use
               x="88.964844"
               xlink:href="#DejaVuSans-103"
               id="use242" />
            <use
               x="152.441406"
               xlink:href="#DejaVuSans-49"
               id="use244" />
            <use
               x="216.064453"
               xlink:href="#DejaVuSans-48"
               id="use246" />
            <use
               x="279.6875"
               xlink:href="#DejaVuSans-40"
               id="use248" />
            <use
               x="318.701172"
               xlink:href="#DejaVuSans-35"
               id="use250" />
            <use
               x="402.490234"
               xlink:href="#DejaVuSans-32"
               id="use252" />
            <use
               x="434.277344"
               xlink:href="#DejaVuSans-83"
               id="use254" />
            <use
               x="497.753906"
               xlink:href="#DejaVuSans-105"
               id="use256" />
            <use
               x="525.537109"
               xlink:href="#DejaVuSans-109"
               id="use258" />
            <use
               x="622.949219"
               xlink:href="#DejaVuSans-117"
               id="use260" />
            <use
               x="686.328125"
               xlink:href="#DejaVuSans-108"
               id="use262" />
            <use
               x="714.111328"
               xlink:href="#DejaVuSans-97"
               id="use264" />
            <use
               x="775.390625"
               xlink:href="#DejaVuSans-116"
               id="use266" />
            <use
               x="814.599609"
               xlink:href="#DejaVuSans-105"
               id="use268" />
            <use
               x="842.382812"
               xlink:href="#DejaVuSans-111"
               id="use270" />
            <use
               x="903.564453"
               xlink:href="#DejaVuSans-110"
               id="use272" />
            <use
               x="966.943359"
               xlink:href="#DejaVuSans-115"
               id="use274" />
            <use
               x="1019.042969"
               xlink:href="#DejaVuSans-41"
               id="use276" />
          </g>
        </g>
      </g>
      <g
         id="patch_9">
        <path
           d="M 50.8 246.2  L 50.8 26.8  "
           style="fill:none;stroke:#000000;stroke-linecap:square;stroke-linejoin:miter;stroke-width:0.8;"
           id="path282" />
      </g>
      <g
         id="patch_10">
        <path
           d="M 50.8 246.2  L 277.2 246.2  "
           style="fill:none;stroke:#000000;stroke-linecap:square;stroke-linejoin:miter;stroke-width:0.8;"
           id="path285" />
      </g>
      <g
         id="text_14">
        <!-- Our method (ASSA) -->
        <defs
           id="defs294">
          <path
             d="M 39.40625 66.21875  Q 28.65625 66.21875 22.328125 58.203125  Q 16.015625 50.203125 16.015625 36.375  Q 16.015625 22.609375 22.328125 14.59375  Q 28.65625 6.59375 39.40625 6.59375  Q 50.140625 6.59375 56.421875 14.59375  Q 62.703125 22.609375 62.703125 36.375  Q 62.703125 50.203125 56.421875 58.203125  Q 50.140625 66.21875 39.40625 66.21875  z M 39.40625 74.21875  Q 54.734375 74.21875 63.90625 63.9375  Q 73.09375 53.65625 73.09375 36.375  Q 73.09375 19.140625 63.90625 8.859375  Q 54.734375 -1.421875 39.40625 -1.421875  Q 24.03125 -1.421875 14.8125 8.828125  Q 5.609375 19.09375 5.609375 36.375  Q 5.609375 53.65625 14.8125 63.9375  Q 24.03125 74.21875 39.40625 74.21875  z "
             id="DejaVuSans-79" />
          <path
             d="M 41.109375 46.296875  Q 39.59375 47.171875 37.8125 47.578125  Q 36.03125 48 33.890625 48  Q 26.265625 48 22.1875 43.046875  Q 18.109375 38.09375 18.109375 28.8125  L 18.109375 0  L 9.078125 0  L 9.078125 54.6875  L 18.109375 54.6875  L 18.109375 46.1875  Q 20.953125 51.171875 25.484375 53.578125  Q 30.03125 56 36.53125 56  Q 37.453125 56 38.578125 55.875  Q 39.703125 55.765625 41.0625 55.515625  z "
             id="DejaVuSans-114" />
          <path
             d="M 56.203125 29.59375  L 56.203125 25.203125  L 14.890625 25.203125  Q 15.484375 15.921875 20.484375 11.0625  Q 25.484375 6.203125 34.421875 6.203125  Q 39.59375 6.203125 44.453125 7.46875  Q 49.3125 8.734375 54.109375 11.28125  L 54.109375 2.78125  Q 49.265625 0.734375 44.1875 -0.34375  Q 39.109375 -1.421875 33.890625 -1.421875  Q 20.796875 -1.421875 13.15625 6.1875  Q 5.515625 13.8125 5.515625 26.8125  Q 5.515625 40.234375 12.765625 48.109375  Q 20.015625 56 32.328125 56  Q 43.359375 56 49.78125 48.890625  Q 56.203125 41.796875 56.203125 29.59375  z M 47.21875 32.234375  Q 47.125 39.59375 43.09375 43.984375  Q 39.0625 48.390625 32.421875 48.390625  Q 24.90625 48.390625 20.390625 44.140625  Q 15.875 39.890625 15.1875 32.171875  z "
             id="DejaVuSans-101" />
          <path
             d="M 54.890625 33.015625  L 54.890625 0  L 45.90625 0  L 45.90625 32.71875  Q 45.90625 40.484375 42.875 44.328125  Q 39.84375 48.1875 33.796875 48.1875  Q 26.515625 48.1875 22.3125 43.546875  Q 18.109375 38.921875 18.109375 30.90625  L 18.109375 0  L 9.078125 0  L 9.078125 75.984375  L 18.109375 75.984375  L 18.109375 46.1875  Q 21.34375 51.125 25.703125 53.5625  Q 30.078125 56 35.796875 56  Q 45.21875 56 50.046875 50.171875  Q 54.890625 44.34375 54.890625 33.015625  z "
             id="DejaVuSans-104" />
          <path
             d="M 45.40625 46.390625  L 45.40625 75.984375  L 54.390625 75.984375  L 54.390625 0  L 45.40625 0  L 45.40625 8.203125  Q 42.578125 3.328125 38.25 0.953125  Q 33.9375 -1.421875 27.875 -1.421875  Q 17.96875 -1.421875 11.734375 6.484375  Q 5.515625 14.40625 5.515625 27.296875  Q 5.515625 40.1875 11.734375 48.09375  Q 17.96875 56 27.875 56  Q 33.9375 56 38.25 53.625  Q 42.578125 51.265625 45.40625 46.390625  z M 14.796875 27.296875  Q 14.796875 17.390625 18.875 11.75  Q 22.953125 6.109375 30.078125 6.109375  Q 37.203125 6.109375 41.296875 11.75  Q 45.40625 17.390625 45.40625 27.296875  Q 45.40625 37.203125 41.296875 42.84375  Q 37.203125 48.484375 30.078125 48.484375  Q 22.953125 48.484375 18.875 42.84375  Q 14.796875 37.203125 14.796875 27.296875  z "
             id="DejaVuSans-100" />
          <path
             d="M 34.1875 63.1875  L 20.796875 26.90625  L 47.609375 26.90625  z M 28.609375 72.90625  L 39.796875 72.90625  L 67.578125 0  L 57.328125 0  L 50.6875 18.703125  L 17.828125 18.703125  L 11.1875 0  L 0.78125 0  z "
             id="DejaVuSans-65" />
        </defs>
        <g
           transform="translate(105.401563 20.8)scale(0.12 -0.12)"
           id="g330">
          <use
             xlink:href="#DejaVuSans-79"
             id="use296" />
          <use
             x="78.710938"
             xlink:href="#DejaVuSans-117"
             id="use298" />
          <use
             x="142.089844"
             xlink:href="#DejaVuSans-114"
             id="use300" />
          <use
             x="183.203125"
             xlink:href="#DejaVuSans-32"
             id="use302" />
          <use
             x="214.990234"
             xlink:href="#DejaVuSans-109"
             id="use304" />
          <use
             x="312.402344"
             xlink:href="#DejaVuSans-101"
             id="use306" />
          <use
             x="373.925781"
             xlink:href="#DejaVuSans-116"
             id="use308" />
          <use
             x="413.134766"
             xlink:href="#DejaVuSans-104"
             id="use310" />
          <use
             x="476.513672"
             xlink:href="#DejaVuSans-111"
             id="use312" />
          <use
             x="537.695312"
             xlink:href="#DejaVuSans-100"
             id="use314" />
          <use
             x="601.171875"
             xlink:href="#DejaVuSans-32"
             id="use316" />
          <use
             x="632.958984"
             xlink:href="#DejaVuSans-40"
             id="use318" />
          <use
             x="671.972656"
             xlink:href="#DejaVuSans-65"
             id="use320" />
          <use
             x="740.380859"
             xlink:href="#DejaVuSans-83"
             id="use322" />
          <use
             x="803.857422"
             xlink:href="#DejaVuSans-83"
             id="use324" />
          <use
             x="869.208984"
             xlink:href="#DejaVuSans-65"
             id="use326" />
          <use
             x="937.617188"
             xlink:href="#DejaVuSans-41"
             id="use328" />
        </g>
      </g>
    </g>
  </g>
  <defs
     id="defs338">
    <clipPath
       id="pc25414cf01">
      <rect
         height="219.4"
         width="226.4"
         x="50.8"
         y="26.8"
         id="rect335" />
    </clipPath>
  </defs>
  <g
     aria-label="(adaptive sequential stochastic acceptor)"
     id="text1777"
     style="font-size:9.14884px;line-height:1.25;word-spacing:0px;stroke-width:0.228721">
    <path
       d="m 92.675437,43.927963 q -0.598606,1.027458 -0.888974,2.032579 -0.290369,1.005122 -0.290369,2.037047 0,1.031924 0.290369,2.04598 0.294835,1.009589 0.888974,2.03258 h -0.714753 q -0.670081,-1.049794 -1.005122,-2.06385 -0.330573,-1.014056 -0.330573,-2.01471 0,-0.996188 0.330573,-2.005776 0.330573,-1.009589 1.005122,-2.06385 z"
       id="path17993" />
    <path
       d="m 96.544038,48.354965 q -0.996187,0 -1.380367,0.227828 -0.38418,0.227827 -0.38418,0.777294 0,0.437786 0.285902,0.696884 0.290368,0.254631 0.786228,0.254631 0.683483,0 1.094466,-0.482458 0.41545,-0.486926 0.41545,-1.291023 v -0.183156 z m 1.639465,-0.339508 v 2.854546 h -0.821966 v -0.759425 q -0.281434,0.455655 -0.701351,0.674548 -0.419918,0.214426 -1.027458,0.214426 -0.76836,0 -1.224015,-0.428852 -0.451188,-0.433319 -0.451188,-1.157007 0,-0.844302 0.562868,-1.273154 0.567336,-0.428852 1.688605,-0.428852 h 1.152539 v -0.08041 q 0,-0.567336 -0.375245,-0.875573 -0.370778,-0.312704 -1.045327,-0.312704 -0.428852,0 -0.835367,0.102745 -0.406516,0.102746 -0.781762,0.308238 v -0.759426 q 0.451188,-0.174221 0.875573,-0.259098 0.424385,-0.08934 0.826433,-0.08934 1.085531,0 1.621596,0.562868 0.536065,0.562868 0.536065,1.706473 z"
       id="path17995" />
    <path
       d="m 103.16891,46.626156 v -2.707127 h 0.82196 v 6.950974 h -0.82196 v -0.750491 q -0.2591,0.446721 -0.65668,0.665614 -0.39312,0.214426 -0.94705,0.214426 -0.90684,0 -1.47865,-0.723688 -0.567332,-0.723687 -0.567332,-1.90303 0,-1.179343 0.567332,-1.90303 0.57181,-0.723688 1.47865,-0.723688 0.55393,0 0.94705,0.218893 0.39758,0.214426 0.65668,0.661147 z m -2.80094,1.746678 q 0,0.906843 0.37078,1.425039 0.37524,0.513729 1.02745,0.513729 0.65222,0 1.02746,-0.513729 0.37525,-0.518196 0.37525,-1.425039 0,-0.906843 -0.37525,-1.420572 -0.37524,-0.518196 -1.02746,-0.518196 -0.65221,0 -1.02745,0.518196 -0.37078,0.513729 -0.37078,1.420572 z"
       id="path17997" />
    <path
       d="m 107.95775,48.354965 q -0.99619,0 -1.38037,0.227828 -0.38417,0.227827 -0.38417,0.777294 0,0.437786 0.2859,0.696884 0.29036,0.254631 0.78622,0.254631 0.68349,0 1.09447,-0.482458 0.41545,-0.486926 0.41545,-1.291023 v -0.183156 z m 1.63947,-0.339508 v 2.854546 h -0.82197 v -0.759425 q -0.28143,0.455655 -0.70135,0.674548 -0.41992,0.214426 -1.02746,0.214426 -0.76836,0 -1.22401,-0.428852 -0.45119,-0.433319 -0.45119,-1.157007 0,-0.844302 0.56287,-1.273154 0.56733,-0.428852 1.6886,-0.428852 h 1.15254 v -0.08041 q 0,-0.567336 -0.37524,-0.875573 -0.37078,-0.312704 -1.04533,-0.312704 -0.42885,0 -0.83537,0.102745 -0.40651,0.102746 -0.78176,0.308238 v -0.759426 q 0.45119,-0.174221 0.87557,-0.259098 0.42439,-0.08934 0.82644,-0.08934 1.08553,0 1.62159,0.562868 0.53607,0.562868 0.53607,1.706473 z"
       id="path17999" />
    <path
       d="m 112.08545,50.119512 v 2.653521 h -0.82643 v -6.906302 h 0.82643 v 0.759425 q 0.2591,-0.446721 0.65221,-0.661147 0.39759,-0.218893 0.94705,-0.218893 0.91131,0 1.47865,0.723688 0.5718,0.723687 0.5718,1.90303 0,1.179343 -0.5718,1.90303 -0.56734,0.723688 -1.47865,0.723688 -0.54946,0 -0.94705,-0.214426 -0.39311,-0.218893 -0.65221,-0.665614 z m 2.79647,-1.746678 q 0,-0.906843 -0.37524,-1.420572 -0.37078,-0.518196 -1.02299,-0.518196 -0.65221,0 -1.02746,0.518196 -0.37078,0.513729 -0.37078,1.420572 0,0.906843 0.37078,1.425039 0.37525,0.513729 1.02746,0.513729 0.65221,0 1.02299,-0.513729 0.37524,-0.518196 0.37524,-1.425039 z"
       id="path18001" />
    <path
       d="m 117.91069,44.446159 v 1.420572 h 1.69307 v 0.638811 h -1.69307 v 2.716061 q 0,0.612008 0.16529,0.786229 0.16975,0.174221 0.68348,0.174221 h 0.8443 v 0.68795 h -0.8443 q -0.95152,0 -1.31336,-0.35291 -0.36184,-0.357376 -0.36184,-1.29549 v -2.716061 h -0.60308 v -0.638811 h 0.60308 v -1.420572 z"
       id="path18003" />
    <path
       d="m 120.68483,45.866731 h 0.82196 v 5.003272 h -0.82196 z m 0,-1.947702 h 0.82196 v 1.040859 h -0.82196 z"
       id="path18005" />
    <path
       d="m 122.63699,45.866731 h 0.87111 l 1.56352,4.199174 1.56352,-4.199174 h 0.87111 l -1.87623,5.003272 h -1.1168 z"
       id="path18007" />
    <path
       d="m 132.9205,48.162875 v 0.402049 h -3.77925 q 0.0536,0.848769 0.50926,1.29549 0.46012,0.442253 1.27762,0.442253 0.47352,0 0.91578,-0.116147 0.44672,-0.116147 0.8845,-0.348442 v 0.777294 q -0.44225,0.187623 -0.90684,0.285901 -0.46459,0.09828 -0.94258,0.09828 -1.19721,0 -1.89856,-0.696885 -0.69689,-0.696884 -0.69689,-1.885161 0,-1.228482 0.66115,-1.947702 0.66561,-0.723688 1.79135,-0.723688 1.00959,0 1.59479,0.652213 0.58967,0.647745 0.58967,1.764546 z m -0.82196,-0.241229 q -0.009,-0.674548 -0.37972,-1.076597 -0.36631,-0.402048 -0.97385,-0.402048 -0.68795,0 -1.1034,0.388647 -0.41098,0.388647 -0.47352,1.094465 z"
       id="path18009" />
    <path
       d="m 140.36734,46.014149 v 0.777294 q -0.34844,-0.178689 -0.72369,-0.268033 -0.37524,-0.08934 -0.77729,-0.08934 -0.61201,0 -0.92025,0.187623 -0.30377,0.187623 -0.30377,0.562868 0,0.285901 0.2189,0.451188 0.21889,0.160819 0.88004,0.308237 l 0.28143,0.06254 q 0.87557,0.187623 1.24188,0.531598 0.37078,0.339507 0.37078,0.951515 0,0.696884 -0.55393,1.1034 -0.54947,0.406516 -1.51439,0.406516 -0.40204,0 -0.83983,-0.08041 -0.43332,-0.07594 -0.91578,-0.232295 v -0.848769 q 0.45566,0.236762 0.89791,0.357376 0.44225,0.116148 0.87557,0.116148 0.58074,0 0.89344,-0.196557 0.31271,-0.201025 0.31271,-0.562868 0,-0.335041 -0.22783,-0.513729 -0.22336,-0.178688 -0.98725,-0.343975 l -0.2859,-0.06701 q -0.76389,-0.16082 -1.1034,-0.491393 -0.33951,-0.33504 -0.33951,-0.915777 0,-0.705819 0.50033,-1.089999 0.50032,-0.38418 1.42057,-0.38418 0.45565,0 0.8577,0.06701 0.40205,0.06701 0.74156,0.201025 z"
       id="path18011" />
    <path
       d="m 146.22385,48.162875 v 0.402049 h -3.77926 q 0.0536,0.848769 0.50926,1.29549 0.46012,0.442253 1.27762,0.442253 0.47353,0 0.91578,-0.116147 0.44672,-0.116147 0.88451,-0.348442 v 0.777294 q -0.44226,0.187623 -0.90685,0.285901 -0.46458,0.09828 -0.94258,0.09828 -1.19721,0 -1.89856,-0.696885 -0.69688,-0.696884 -0.69688,-1.885161 0,-1.228482 0.66114,-1.947702 0.66562,-0.723688 1.79135,-0.723688 1.00959,0 1.5948,0.652213 0.58967,0.647745 0.58967,1.764546 z m -0.82197,-0.241229 q -0.009,-0.674548 -0.37971,-1.076597 -0.36631,-0.402048 -0.97385,-0.402048 -0.68795,0 -1.1034,0.388647 -0.41099,0.388647 -0.47353,1.094465 z"
       id="path18013" />
    <path
       d="m 148.06434,48.372834 q 0,0.906843 0.37078,1.425039 0.37524,0.513729 1.02745,0.513729 0.65222,0 1.02746,-0.513729 0.37525,-0.518196 0.37525,-1.425039 0,-0.906843 -0.37525,-1.420572 -0.37524,-0.518196 -1.02746,-0.518196 -0.65221,0 -1.02745,0.518196 -0.37078,0.513729 -0.37078,1.420572 z m 2.80094,1.746678 q -0.2591,0.446721 -0.65668,0.665614 -0.39312,0.214426 -0.94705,0.214426 -0.90684,0 -1.47865,-0.723688 -0.56733,-0.723687 -0.56733,-1.90303 0,-1.179343 0.56733,-1.90303 0.57181,-0.723688 1.47865,-0.723688 0.55393,0 0.94705,0.218893 0.39758,0.214426 0.65668,0.661147 v -0.759425 h 0.82196 v 6.906302 h -0.82196 z"
       id="path18015" />
    <path
       d="m 153.29544,48.895497 v -3.028766 h 0.82196 v 2.997496 q 0,0.710286 0.27697,1.067662 0.27697,0.35291 0.8309,0.35291 0.66561,0 1.04979,-0.424385 0.38865,-0.424385 0.38865,-1.157007 v -2.836676 h 0.82197 v 5.003272 h -0.82197 v -0.76836 q -0.2993,0.455655 -0.69688,0.679016 -0.39312,0.218893 -0.91578,0.218893 -0.86217,0 -1.30889,-0.536065 -0.44672,-0.536065 -0.44672,-1.56799 z m 2.06831,-3.149381 z"
       id="path18017" />
    <path
       d="m 163.45833,48.162875 v 0.402049 h -3.77926 q 0.0536,0.848769 0.50926,1.29549 0.46013,0.442253 1.27763,0.442253 0.47352,0 0.91577,-0.116147 0.44672,-0.116147 0.88451,-0.348442 v 0.777294 q -0.44225,0.187623 -0.90684,0.285901 -0.46459,0.09828 -0.94258,0.09828 -1.19722,0 -1.89857,-0.696885 -0.69688,-0.696884 -0.69688,-1.885161 0,-1.228482 0.66115,-1.947702 0.66561,-0.723688 1.79135,-0.723688 1.00958,0 1.59479,0.652213 0.58967,0.647745 0.58967,1.764546 z m -0.82197,-0.241229 q -0.009,-0.674548 -0.37971,-1.076597 -0.36631,-0.402048 -0.97385,-0.402048 -0.68795,0 -1.1034,0.388647 -0.41098,0.388647 -0.47352,1.094465 z"
       id="path18019" />
    <path
       d="m 168.9664,47.850171 v 3.019832 h -0.82197 v -2.993029 q 0,-0.710286 -0.27696,-1.063195 -0.27697,-0.35291 -0.8309,-0.35291 -0.66562,0 -1.0498,0.424385 -0.38418,0.424385 -0.38418,1.157007 v 2.827742 h -0.82643 v -5.003272 h 0.82643 v 0.777294 q 0.29484,-0.451188 0.69242,-0.674548 0.40205,-0.223361 0.92471,-0.223361 0.86217,0 1.30443,0.536065 0.44225,0.531598 0.44225,1.56799 z"
       id="path18021" />
    <path
       d="m 171.41889,44.446159 v 1.420572 h 1.69307 v 0.638811 h -1.69307 v 2.716061 q 0,0.612008 0.16529,0.786229 0.16975,0.174221 0.68348,0.174221 h 0.8443 v 0.68795 h -0.8443 q -0.95151,0 -1.31336,-0.35291 -0.36184,-0.357376 -0.36184,-1.29549 v -2.716061 h -0.60307 v -0.638811 h 0.60307 v -1.420572 z"
       id="path18023" />
    <path
       d="m 174.19303,45.866731 h 0.82196 v 5.003272 h -0.82196 z m 0,-1.947702 h 0.82196 v 1.040859 h -0.82196 z"
       id="path18025" />
    <path
       d="m 179.00868,48.354965 q -0.99618,0 -1.38036,0.227828 -0.38418,0.227827 -0.38418,0.777294 0,0.437786 0.2859,0.696884 0.29037,0.254631 0.78623,0.254631 0.68348,0 1.09446,-0.482458 0.41545,-0.486926 0.41545,-1.291023 v -0.183156 z m 1.63947,-0.339508 v 2.854546 h -0.82197 v -0.759425 q -0.28143,0.455655 -0.70135,0.674548 -0.41992,0.214426 -1.02746,0.214426 -0.76836,0 -1.22401,-0.428852 -0.45119,-0.433319 -0.45119,-1.157007 0,-0.844302 0.56287,-1.273154 0.56733,-0.428852 1.6886,-0.428852 h 1.15254 v -0.08041 q 0,-0.567336 -0.37524,-0.875573 -0.37078,-0.312704 -1.04533,-0.312704 -0.42885,0 -0.83537,0.102745 -0.40651,0.102746 -0.78176,0.308238 v -0.759426 q 0.45119,-0.174221 0.87557,-0.259098 0.42439,-0.08934 0.82644,-0.08934 1.08553,0 1.62159,0.562868 0.53607,0.562868 0.53607,1.706473 z"
       id="path18027" />
    <path
       d="m 182.34121,43.919029 h 0.82197 v 6.950974 h -0.82197 z"
       id="path18029" />
    <path
       d="m 190.9808,46.014149 v 0.777294 q -0.34845,-0.178689 -0.72369,-0.268033 -0.37525,-0.08934 -0.7773,-0.08934 -0.612,0 -0.92024,0.187623 -0.30377,0.187623 -0.30377,0.562868 0,0.285901 0.21889,0.451188 0.2189,0.160819 0.88004,0.308237 l 0.28144,0.06254 q 0.87557,0.187623 1.24188,0.531598 0.37078,0.339507 0.37078,0.951515 0,0.696884 -0.55394,1.1034 -0.54946,0.406516 -1.51438,0.406516 -0.40205,0 -0.83983,-0.08041 -0.43332,-0.07594 -0.91578,-0.232295 v -0.848769 q 0.45565,0.236762 0.89791,0.357376 0.44225,0.116148 0.87557,0.116148 0.58074,0 0.89344,-0.196557 0.31271,-0.201025 0.31271,-0.562868 0,-0.335041 -0.22783,-0.513729 -0.22336,-0.178688 -0.98725,-0.343975 l -0.28591,-0.06701 q -0.76389,-0.16082 -1.1034,-0.491393 -0.3395,-0.33504 -0.3395,-0.915777 0,-0.705819 0.50032,-1.089999 0.50033,-0.38418 1.42058,-0.38418 0.45565,0 0.8577,0.06701 0.40205,0.06701 0.74156,0.201025 z"
       id="path18031" />
    <path
       d="m 193.37075,44.446159 v 1.420572 h 1.69307 v 0.638811 h -1.69307 v 2.716061 q 0,0.612008 0.16529,0.786229 0.16975,0.174221 0.68348,0.174221 h 0.8443 v 0.68795 h -0.8443 q -0.95151,0 -1.31336,-0.35291 -0.36184,-0.357376 -0.36184,-1.29549 v -2.716061 h -0.60307 v -0.638811 h 0.60307 v -1.420572 z"
       id="path18033" />
    <path
       d="m 198.08365,46.443001 q -0.66114,0 -1.04532,0.518196 -0.38418,0.513728 -0.38418,1.411637 0,0.897909 0.37971,1.416105 0.38418,0.513728 1.04979,0.513728 0.65668,0 1.04086,-0.518196 0.38418,-0.518196 0.38418,-1.411637 0,-0.888974 -0.38418,-1.40717 -0.38418,-0.522663 -1.04086,-0.522663 z m 0,-0.696885 q 1.07213,0 1.68414,0.696885 0.61201,0.696884 0.61201,1.929833 0,1.228482 -0.61201,1.929833 -0.61201,0.696885 -1.68414,0.696885 -1.07659,0 -1.6886,-0.696885 -0.60754,-0.701351 -0.60754,-1.929833 0,-1.232949 0.60754,-1.929833 0.61201,-0.696885 1.6886,-0.696885 z"
       id="path18035" />
    <path
       d="m 205.34287,46.058821 v 0.768359 q -0.34845,-0.192089 -0.70135,-0.285901 -0.34845,-0.09828 -0.70582,-0.09828 -0.79963,0 -1.24189,0.509261 -0.44225,0.504795 -0.44225,1.420572 0,0.915777 0.44225,1.425039 0.44226,0.504794 1.24189,0.504794 0.35737,0 0.70582,-0.09381 0.3529,-0.09828 0.70135,-0.290368 v 0.759425 q -0.34398,0.160819 -0.71476,0.241229 -0.36631,0.08041 -0.78176,0.08041 -1.1302,0 -1.79581,-0.710286 -0.66562,-0.710286 -0.66562,-1.916432 0,-1.224015 0.67008,-1.925366 0.67455,-0.701352 1.84496,-0.701352 0.37971,0 0.74156,0.08041 0.36184,0.07594 0.70135,0.232295 z"
       id="path18037" />
    <path
       d="m 210.93134,47.850171 v 3.019832 h -0.82196 v -2.993029 q 0,-0.710286 -0.27697,-1.063195 -0.27697,-0.35291 -0.8309,-0.35291 -0.66561,0 -1.04979,0.424385 -0.38418,0.424385 -0.38418,1.157007 v 2.827742 h -0.82644 v -6.950974 h 0.82644 v 2.724996 q 0.29483,-0.451188 0.69241,-0.674548 0.40205,-0.223361 0.92471,-0.223361 0.86218,0 1.30443,0.536065 0.44225,0.531598 0.44225,1.56799 z"
       id="path18039" />
    <path
       d="m 214.84461,48.354965 q -0.99618,0 -1.38036,0.227828 -0.38418,0.227827 -0.38418,0.777294 0,0.437786 0.2859,0.696884 0.29037,0.254631 0.78623,0.254631 0.68348,0 1.09446,-0.482458 0.41545,-0.486926 0.41545,-1.291023 v -0.183156 z m 1.63947,-0.339508 v 2.854546 h -0.82197 v -0.759425 q -0.28143,0.455655 -0.70135,0.674548 -0.41992,0.214426 -1.02746,0.214426 -0.76836,0 -1.22401,-0.428852 -0.45119,-0.433319 -0.45119,-1.157007 0,-0.844302 0.56287,-1.273154 0.56733,-0.428852 1.6886,-0.428852 h 1.15254 v -0.08041 q 0,-0.567336 -0.37524,-0.875573 -0.37078,-0.312704 -1.04533,-0.312704 -0.42885,0 -0.83537,0.102745 -0.40651,0.102746 -0.78176,0.308238 v -0.759426 q 0.45119,-0.174221 0.87557,-0.259098 0.42439,-0.08934 0.82644,-0.08934 1.08553,0 1.62159,0.562868 0.53607,0.562868 0.53607,1.706473 z"
       id="path18041" />
    <path
       d="m 221.36674,46.014149 v 0.777294 q -0.34845,-0.178689 -0.72369,-0.268033 -0.37525,-0.08934 -0.7773,-0.08934 -0.612,0 -0.92024,0.187623 -0.30377,0.187623 -0.30377,0.562868 0,0.285901 0.21889,0.451188 0.2189,0.160819 0.88004,0.308237 l 0.28144,0.06254 q 0.87557,0.187623 1.24188,0.531598 0.37078,0.339507 0.37078,0.951515 0,0.696884 -0.55393,1.1034 -0.54947,0.406516 -1.51439,0.406516 -0.40205,0 -0.83983,-0.08041 -0.43332,-0.07594 -0.91578,-0.232295 v -0.848769 q 0.45565,0.236762 0.89791,0.357376 0.44225,0.116148 0.87557,0.116148 0.58074,0 0.89344,-0.196557 0.31271,-0.201025 0.31271,-0.562868 0,-0.335041 -0.22783,-0.513729 -0.22336,-0.178688 -0.98725,-0.343975 l -0.2859,-0.06701 q -0.7639,-0.16082 -1.10341,-0.491393 -0.3395,-0.33504 -0.3395,-0.915777 0,-0.705819 0.50032,-1.089999 0.50033,-0.38418 1.42058,-0.38418 0.45565,0 0.8577,0.06701 0.40205,0.06701 0.74156,0.201025 z"
       id="path18043" />
    <path
       d="m 223.7567,44.446159 v 1.420572 h 1.69307 v 0.638811 h -1.69307 v 2.716061 q 0,0.612008 0.16529,0.786229 0.16975,0.174221 0.68348,0.174221 h 0.8443 v 0.68795 h -0.8443 q -0.95152,0 -1.31336,-0.35291 -0.36184,-0.357376 -0.36184,-1.29549 v -2.716061 h -0.60308 v -0.638811 h 0.60308 v -1.420572 z"
       id="path18045" />
    <path
       d="m 226.53083,45.866731 h 0.82196 v 5.003272 h -0.82196 z m 0,-1.947702 h 0.82196 v 1.040859 h -0.82196 z"
       id="path18047" />
    <path
       d="m 232.67323,46.058821 v 0.768359 q -0.34844,-0.192089 -0.70135,-0.285901 -0.34844,-0.09828 -0.70582,-0.09828 -0.79963,0 -1.24188,0.509261 -0.44225,0.504795 -0.44225,1.420572 0,0.915777 0.44225,1.425039 0.44225,0.504794 1.24188,0.504794 0.35738,0 0.70582,-0.09381 0.35291,-0.09828 0.70135,-0.290368 v 0.759425 q -0.34397,0.160819 -0.71475,0.241229 -0.36631,0.08041 -0.78176,0.08041 -1.1302,0 -1.79582,-0.710286 -0.66561,-0.710286 -0.66561,-1.916432 0,-1.224015 0.67008,-1.925366 0.67455,-0.701352 1.84496,-0.701352 0.37971,0 0.74155,0.08041 0.36185,0.07594 0.70135,0.232295 z"
       id="path18049" />
    <path
       d="m 239.28471,48.354965 q -0.99619,0 -1.38037,0.227828 -0.38418,0.227827 -0.38418,0.777294 0,0.437786 0.2859,0.696884 0.29037,0.254631 0.78623,0.254631 0.68348,0 1.09447,-0.482458 0.41545,-0.486926 0.41545,-1.291023 v -0.183156 z m 1.63946,-0.339508 v 2.854546 h -0.82196 v -0.759425 q -0.28144,0.455655 -0.70136,0.674548 -0.41991,0.214426 -1.02745,0.214426 -0.76836,0 -1.22402,-0.428852 -0.45119,-0.433319 -0.45119,-1.157007 0,-0.844302 0.56287,-1.273154 0.56734,-0.428852 1.68861,-0.428852 h 1.15254 v -0.08041 q 0,-0.567336 -0.37525,-0.875573 -0.37078,-0.312704 -1.04533,-0.312704 -0.42885,0 -0.83536,0.102745 -0.40652,0.102746 -0.78177,0.308238 v -0.759426 q 0.45119,-0.174221 0.87558,-0.259098 0.42438,-0.08934 0.82643,-0.08934 1.08553,0 1.6216,0.562868 0.53606,0.562868 0.53606,1.706473 z"
       id="path18051" />
    <path
       d="m 246.21781,46.058821 v 0.768359 q -0.34845,-0.192089 -0.70136,-0.285901 -0.34844,-0.09828 -0.70581,-0.09828 -0.79963,0 -1.24189,0.509261 -0.44225,0.504795 -0.44225,1.420572 0,0.915777 0.44225,1.425039 0.44226,0.504794 1.24189,0.504794 0.35737,0 0.70581,-0.09381 0.35291,-0.09828 0.70136,-0.290368 v 0.759425 q -0.34398,0.160819 -0.71476,0.241229 -0.36631,0.08041 -0.78176,0.08041 -1.1302,0 -1.79582,-0.710286 -0.66561,-0.710286 -0.66561,-1.916432 0,-1.224015 0.67008,-1.925366 0.67455,-0.701352 1.84496,-0.701352 0.37971,0 0.74155,0.08041 0.36185,0.07594 0.70136,0.232295 z"
       id="path18053" />
    <path
       d="m 251.24788,46.058821 v 0.768359 q -0.34844,-0.192089 -0.70135,-0.285901 -0.34844,-0.09828 -0.70582,-0.09828 -0.79963,0 -1.24188,0.509261 -0.44226,0.504795 -0.44226,1.420572 0,0.915777 0.44226,1.425039 0.44225,0.504794 1.24188,0.504794 0.35738,0 0.70582,-0.09381 0.35291,-0.09828 0.70135,-0.290368 v 0.759425 q -0.34397,0.160819 -0.71475,0.241229 -0.36631,0.08041 -0.78176,0.08041 -1.13021,0 -1.79582,-0.710286 -0.66561,-0.710286 -0.66561,-1.916432 0,-1.224015 0.67008,-1.925366 0.67454,-0.701352 1.84495,-0.701352 0.37972,0 0.74156,0.08041 0.36184,0.07594 0.70135,0.232295 z"
       id="path18055" />
    <path
       d="m 256.95697,48.162875 v 0.402049 h -3.77926 q 0.0536,0.848769 0.50927,1.29549 0.46012,0.442253 1.27762,0.442253 0.47352,0 0.91577,-0.116147 0.44673,-0.116147 0.88451,-0.348442 v 0.777294 q -0.44225,0.187623 -0.90684,0.285901 -0.46459,0.09828 -0.94258,0.09828 -1.19721,0 -1.89857,-0.696885 -0.69688,-0.696884 -0.69688,-1.885161 0,-1.228482 0.66115,-1.947702 0.66561,-0.723688 1.79135,-0.723688 1.00959,0 1.59479,0.652213 0.58967,0.647745 0.58967,1.764546 z m -0.82196,-0.241229 q -0.009,-0.674548 -0.37972,-1.076597 -0.36631,-0.402048 -0.97385,-0.402048 -0.68795,0 -1.1034,0.388647 -0.41098,0.388647 -0.47352,1.094465 z"
       id="path18057" />
    <path
       d="m 259.10123,50.119512 v 2.653521 h -0.82644 v -6.906302 h 0.82644 v 0.759425 q 0.2591,-0.446721 0.65221,-0.661147 0.39758,-0.218893 0.94705,-0.218893 0.91131,0 1.47864,0.723688 0.57181,0.723687 0.57181,1.90303 0,1.179343 -0.57181,1.90303 -0.56733,0.723688 -1.47864,0.723688 -0.54947,0 -0.94705,-0.214426 -0.39311,-0.218893 -0.65221,-0.665614 z m 2.79647,-1.746678 q 0,-0.906843 -0.37525,-1.420572 -0.37077,-0.518196 -1.02299,-0.518196 -0.65221,0 -1.02745,0.518196 -0.37078,0.513729 -0.37078,1.420572 0,0.906843 0.37078,1.425039 0.37524,0.513729 1.02745,0.513729 0.65222,0 1.02299,-0.513729 0.37525,-0.518196 0.37525,-1.425039 z"
       id="path18059" />
    <path
       d="m 264.92647,44.446159 v 1.420572 h 1.69307 v 0.638811 h -1.69307 v 2.716061 q 0,0.612008 0.16529,0.786229 0.16975,0.174221 0.68348,0.174221 h 0.8443 v 0.68795 h -0.8443 q -0.95152,0 -1.31336,-0.35291 -0.36184,-0.357376 -0.36184,-1.29549 v -2.716061 h -0.60308 v -0.638811 h 0.60308 v -1.420572 z"
       id="path18061" />
    <path
       d="m 269.63938,46.443001 q -0.66115,0 -1.04533,0.518196 -0.38418,0.513728 -0.38418,1.411637 0,0.897909 0.37972,1.416105 0.38417,0.513728 1.04979,0.513728 0.65668,0 1.04086,-0.518196 0.38418,-0.518196 0.38418,-1.411637 0,-0.888974 -0.38418,-1.40717 -0.38418,-0.522663 -1.04086,-0.522663 z m 0,-0.696885 q 1.07213,0 1.68414,0.696885 0.612,0.696884 0.612,1.929833 0,1.228482 -0.612,1.929833 -0.61201,0.696885 -1.68414,0.696885 -1.0766,0 -1.68861,-0.696885 -0.60754,-0.701351 -0.60754,-1.929833 0,-1.232949 0.60754,-1.929833 0.61201,-0.696885 1.68861,-0.696885 z"
       id="path18063" />
    <path
       d="m 276.19724,46.635091 q -0.13848,-0.08041 -0.30377,-0.116148 -0.16082,-0.04021 -0.35738,-0.04021 -0.69688,0 -1.07213,0.455655 -0.37077,0.451188 -0.37077,1.299958 v 2.635652 h -0.82644 v -5.003272 h 0.82644 v 0.777294 q 0.25909,-0.455655 0.67454,-0.674548 0.41545,-0.223361 1.00959,-0.223361 0.0849,0 0.18763,0.0134 0.10274,0.0089 0.22782,0.03127 z"
       id="path18065" />
    <path
       d="m 276.92986,43.927963 h 0.71475 q 0.67008,1.054261 1.00065,2.06385 0.33505,1.009588 0.33505,2.005776 0,1.000654 -0.33505,2.01471 -0.33057,1.014056 -1.00065,2.06385 h -0.71475 q 0.59414,-1.022991 0.8845,-2.03258 0.29484,-1.014056 0.29484,-2.04598 0,-1.031925 -0.29484,-2.037047 -0.29036,-1.005121 -0.8845,-2.032579 z"
       id="path18067" />
  </g>
  <path
     style="fill:none;stroke:#000000;stroke-width:0.75px;stroke-linecap:butt;stroke-linejoin:miter;stroke-opacity:1;marker-end:url(#Arrow1Mend)"
     d="M 180.57879,42.373186 194.71796,23.228299"
     id="path16748"
     inkscape:path-effect="#path-effect16750"
     inkscape:original-d="M 180.57879,42.373186 C -225.721,308.77567 191.56165,28.697214 194.71796,23.228299"
     sodipodi:nodetypes="cc" />
</svg>
