<?xml version="1.0" encoding="UTF-8" standalone="no"?>
<!-- Created with Inkscape (http://www.inkscape.org/) -->

<svg
   version="1.1"
   id="svg2"
   xml:space="preserve"
   width="1169.7146"
   height="501.297"
   viewBox="0 0 1169.7146 501.29699"
   sodipodi:docname="concept.svg"
   inkscape:version="1.2 (1:1.2+202205241504+da316b6974)"
   xmlns:inkscape="http://www.inkscape.org/namespaces/inkscape"
   xmlns:sodipodi="http://sodipodi.sourceforge.net/DTD/sodipodi-0.dtd"
   xmlns="http://www.w3.org/2000/svg"
   xmlns:svg="http://www.w3.org/2000/svg"><defs
     id="defs6"><inkscape:path-effect
       effect="spiro"
       id="path-effect6387"
       is_visible="true"
       lpeversion="1" /><inkscape:path-effect
       effect="spiro"
       id="path-effect3422"
       is_visible="true"
       lpeversion="1" /><inkscape:path-effect
       effect="spiro"
       id="path-effect1080"
       is_visible="true"
       lpeversion="1" /><inkscape:path-effect
       effect="spiro"
       id="path-effect1080-3"
       is_visible="true"
       lpeversion="1" /></defs><sodipodi:namedview
     id="namedview4"
     pagecolor="#ffffff"
     bordercolor="#666666"
     borderopacity="1.0"
     inkscape:pageshadow="2"
     inkscape:pageopacity="0.0"
     inkscape:pagecheckerboard="0"
     showgrid="false"
     inkscape:zoom="1.0050233"
     inkscape:cx="766.64886"
     inkscape:cy="79.600141"
     inkscape:window-width="2502"
     inkscape:window-height="1403"
     inkscape:window-x="58"
     inkscape:window-y="0"
     inkscape:window-maximized="1"
     inkscape:current-layer="g10"
     inkscape:showpageshadow="2"
     inkscape:deskcolor="#d1d1d1" /><g
     id="g8"
     inkscape:groupmode="layer"
     inkscape:label="concept"
     transform="matrix(1.3333333,0,0,1.3333333,-80.797331,-47.588326)"><g
       id="g10"><path
         d="m 184.184,218.891 c 23.015,-34.68 -31.907,-90.684 22.898,-88.672 54.805,2.011 78.356,62.25 53.445,122.039 -24.91,59.785 -143.058,41.476 -144.48,19.926 -1.426,-21.547 45.125,-18.61 68.137,-53.293 z"
         style="fill:#969696;fill-opacity:1;fill-rule:nonzero;stroke:none"
         id="path14" /><path
         d="m 197.629,221.766 c 15.383,-23.18 -21.324,-60.614 15.305,-59.266 36.632,1.344 52.375,41.605 35.722,81.566 -16.648,39.961 -95.617,27.723 -96.57,13.321 -0.949,-14.403 30.164,-12.442 45.543,-35.621 z"
         style="fill:#b9b9b9;fill-opacity:1;fill-rule:nonzero;stroke:none"
         id="path16" /><path
         d="m 209.113,225.289 c 9.086,-13.687 -12.593,-35.793 9.039,-35 21.633,0.797 30.93,24.574 21.094,48.172 -9.832,23.598 -56.465,16.371 -57.027,7.867 -0.563,-8.508 17.812,-7.348 26.894,-21.039 z"
         style="fill:#dcdcdc;fill-opacity:1;fill-rule:nonzero;stroke:none"
         id="path18" /><g
         id="g20"><path
           d="m 96.117,117.738 v 184.34 h 184.34"
           style="fill:none;stroke:#000000;stroke-width:4.25197;stroke-linecap:round;stroke-linejoin:miter;stroke-miterlimit:4;stroke-dasharray:none;stroke-opacity:1"
           id="path22" /></g><path
         d="m 210.32,260.535 h 15.645 V 276.18 H 210.32 Z"
         style="fill:#a5d6a7;fill-opacity:1;fill-rule:nonzero;stroke:none"
         id="path24" /><path
         d="m 218.312,155.336 h 15.648 v 15.645 h -15.648 z"
         style="fill:#ffab91;fill-opacity:1;fill-rule:nonzero;stroke:none"
         id="path26" /><path
         d="m 209.113,225.289 h 15.645 v 15.648 h -15.645 z"
         style="fill:#80deea;fill-opacity:1;fill-rule:nonzero;stroke:none"
         id="path28" /><path
         d="m 246.457,189.84 h 15.645 v 15.645 h -15.645 z"
         style="fill:#ffcc80;fill-opacity:1;fill-rule:nonzero;stroke:none"
         id="path30" /><path
         d="m 158.27,260.836 h 15.645 v 15.645 H 158.27 Z"
         style="fill:#80cbc4;fill-opacity:1;fill-rule:nonzero;stroke:none"
         id="path32" /><text
         transform="translate(118.22104,102.45757)"
         style="font-variant:normal;font-weight:normal;font-size:24px;font-family:'DejaVu Sans';-inkscape-font-specification:DejaVuSans;writing-mode:lr-tb;fill:#000000;fill-opacity:1;fill-rule:nonzero;stroke:none"
         id="text36"><tspan
           x="0 15.216 29.903999 39.767998 54.455997 77.759995 92.519997 101.92799 116.688 126.55199"
           y="0"
           sodipodi:role="line"
           id="tspan34">parameters</tspan></text><g
         id="g38"><path
           d="m 724.848,278.07 c -67.133,19.059 -136.875,28.907 -206.664,29.18 -72.469,0.285 -144.973,-9.758 -214.637,-29.734"
           style="fill:none;stroke:#000000;stroke-width:4.25197;stroke-linecap:round;stroke-linejoin:miter;stroke-miterlimit:4;stroke-dasharray:none;stroke-opacity:1"
           id="path40" /></g><g
         id="g42"
         transform="matrix(1,0.286725,-0.286725,1,0,0)"><path
           d="m 361.885,180.957 -13.396,-4.924 13.396,-4.927 c -2.14,2.906 -2.127,6.887 0,9.851 z"
           style="fill:#000000;fill-opacity:1;fill-rule:evenodd;stroke:#000000;stroke-width:0.766364;stroke-linecap:butt;stroke-linejoin:round;stroke-miterlimit:4;stroke-dasharray:none;stroke-opacity:1"
           id="path44" /></g><path
         d="m 467.742,378.855 c 0,8.231 -6.672,14.899 -14.898,14.899 -8.227,0 -14.899,-6.668 -14.899,-14.899 0,-8.226 6.672,-14.898 14.899,-14.898 8.226,0 14.898,6.672 14.898,14.898 z"
         style="fill:#880e4f;fill-opacity:1;fill-rule:nonzero;stroke:none"
         id="path46" /><path
         d="m 467.742,331.582 c 0,8.227 -6.672,14.898 -14.898,14.898 -8.227,0 -14.899,-6.671 -14.899,-14.898 0,-8.227 6.672,-14.898 14.899,-14.898 8.226,0 14.898,6.671 14.898,14.898 z"
         style="fill:#880e4f;fill-opacity:1;fill-rule:nonzero;stroke:none"
         id="path48" /><g
         id="g50"><path
           d="m 452.039,331.285 46.668,-14.133"
           style="fill:#880e4f;fill-opacity:1;fill-rule:nonzero;stroke:#880e4f;stroke-width:5.41443;stroke-linecap:butt;stroke-linejoin:miter;stroke-miterlimit:4;stroke-dasharray:none;stroke-opacity:1"
           id="path52" /></g><g
         id="g54"><path
           d="M 452.359,379.875 501.648,360.34"
           style="fill:#880e4f;fill-opacity:1;fill-rule:nonzero;stroke:#880e4f;stroke-width:2.70723;stroke-linecap:butt;stroke-linejoin:miter;stroke-miterlimit:4;stroke-dasharray:none;stroke-opacity:1"
           id="path56" /></g><g
         id="g58"><path
           d="m 452.359,379.875 50.207,-56.781"
           style="fill:#880e4f;fill-opacity:1;fill-rule:nonzero;stroke:#880e4f;stroke-width:1.35361;stroke-linecap:butt;stroke-linejoin:miter;stroke-miterlimit:4;stroke-dasharray:none;stroke-opacity:1"
           id="path60" /></g><g
         id="g62"><path
           d="m 452.359,379.875 47.34,15.883"
           style="fill:#880e4f;fill-opacity:1;fill-rule:nonzero;stroke:#880e4f;stroke-width:4.06081;stroke-linecap:butt;stroke-linejoin:miter;stroke-miterlimit:4;stroke-dasharray:none;stroke-opacity:1"
           id="path64" /></g><g
         id="g66"><path
           d="m 452.039,331.285 47.676,19.344"
           style="fill:#880e4f;fill-opacity:1;fill-rule:nonzero;stroke:#880e4f;stroke-width:1.35361;stroke-linecap:butt;stroke-linejoin:miter;stroke-miterlimit:4;stroke-dasharray:none;stroke-opacity:1"
           id="path68" /></g><g
         id="g70"><path
           d="m 452.039,331.285 50.809,55.563"
           style="fill:#880e4f;fill-opacity:1;fill-rule:nonzero;stroke:#880e4f;stroke-width:2.70723;stroke-linecap:butt;stroke-linejoin:miter;stroke-miterlimit:4;stroke-dasharray:none;stroke-opacity:1"
           id="path72" /></g><g
         id="g74"><path
           d="m 512.434,313.379 49.761,33.68"
           style="fill:#880e4f;fill-opacity:1;fill-rule:nonzero;stroke:#880e4f;stroke-width:2.70723;stroke-linecap:butt;stroke-linejoin:miter;stroke-miterlimit:4;stroke-dasharray:none;stroke-opacity:1"
           id="path76" /></g><g
         id="g78"><path
           d="m 513.816,356 45.489,-0.199"
           style="fill:#880e4f;fill-opacity:1;fill-rule:nonzero;stroke:#880e4f;stroke-width:5.41443;stroke-linecap:butt;stroke-linejoin:miter;stroke-miterlimit:4;stroke-dasharray:none;stroke-opacity:1"
           id="path80" /></g><g
         id="g82"><path
           d="m 512.508,396.336 49.094,-31.895"
           style="fill:#880e4f;fill-opacity:1;fill-rule:nonzero;stroke:#880e4f;stroke-width:3.24866;stroke-linecap:butt;stroke-linejoin:miter;stroke-miterlimit:4;stroke-dasharray:none;stroke-opacity:1"
           id="path84" /></g><path
         d="m 527.191,313.676 c 0,8.226 -6.668,14.898 -14.894,14.898 -8.231,0 -14.899,-6.672 -14.899,-14.898 0,-8.231 6.668,-14.899 14.899,-14.899 8.226,0 14.894,6.668 14.894,14.899 z"
         style="fill:#880e4f;fill-opacity:1;fill-rule:nonzero;stroke:none"
         id="path86" /><path
         d="m 527.191,355.219 c 0,8.23 -6.668,14.898 -14.894,14.898 -8.231,0 -14.899,-6.668 -14.899,-14.898 0,-8.227 6.668,-14.899 14.899,-14.899 8.226,0 14.894,6.672 14.894,14.899 z"
         style="fill:#880e4f;fill-opacity:1;fill-rule:nonzero;stroke:none"
         id="path88" /><path
         d="m 527.191,396.766 c 0,8.226 -6.668,14.898 -14.894,14.898 -8.231,0 -14.899,-6.672 -14.899,-14.898 0,-8.231 6.668,-14.899 14.899,-14.899 8.226,0 14.894,6.668 14.894,14.899 z"
         style="fill:#880e4f;fill-opacity:1;fill-rule:nonzero;stroke:none"
         id="path90" /><path
         d="m 586.645,355.219 c 0,8.23 -6.672,14.898 -14.899,14.898 -8.226,0 -14.898,-6.668 -14.898,-14.898 0,-8.227 6.672,-14.899 14.898,-14.899 8.227,0 14.899,6.672 14.899,14.899 z"
         style="fill:#880e4f;fill-opacity:1;fill-rule:nonzero;stroke:none"
         id="path92" /><text
         transform="translate(398.69447,163.22963)"
         style="font-variant:normal;font-weight:normal;font-size:24px;font-family:'DejaVu Sans';-inkscape-font-specification:DejaVuSans;writing-mode:lr-tb;fill:#1a237e;fill-opacity:1;fill-rule:nonzero;stroke:none"
         id="text96"><tspan
           x="0 23.375999 38.135998 51.311996 66.503998 81.119995 96.311996 102.96 115.43999 124.84799 131.424 144.59999 152.20799 175.584 190.17599 205.392 220.15199"
           y="0"
           sodipodi:role="line"
           id="tspan94">mechanistic model</tspan></text><text
         transform="translate(360.79602,253.26101)"
         style="font-variant:normal;font-weight:normal;font-size:24px;font-family:'DejaVu Sans';-inkscape-font-specification:DejaVuSans;writing-mode:lr-tb;fill:#880e4f;fill-opacity:1;fill-rule:nonzero;stroke:none"
         id="text100"><tspan
           x="0 6.6479998 21.839998 36.023998 50.711998 60.575996 73.056 87.815994 95.423996 104.712 119.47199 134.68799 144 158.75999 171.23999 183.71999 190.29599 204.95999 220.15199 227.68799 251.064 265.728 280.944 295.70398"
           y="0"
           sodipodi:role="line"
           id="tspan98">inverse regression model</tspan></text><text
         transform="translate(816.98739,103.84038)"
         style="font-variant:normal;font-weight:normal;font-size:24px;font-family:'DejaVu Sans';-inkscape-font-specification:DejaVuSans;writing-mode:lr-tb;fill:#000000;fill-opacity:1;fill-rule:nonzero;stroke:none"
         id="text104"><tspan
           x="0 15.216 29.903999 39.311996"
           y="0"
           sodipodi:role="line"
           id="tspan102">data</tspan></text><g
         id="g110"><path
           d="m 751.418,117.738 v 184.34 h 184.34"
           style="fill:none;stroke:#000000;stroke-width:4.25197;stroke-linecap:round;stroke-linejoin:miter;stroke-miterlimit:4;stroke-dasharray:none;stroke-opacity:1"
           id="path112" /></g><path
         d="m 842.387,196.027 c 0,-5 4.054,-9.054 9.058,-9.054 5,0 9.059,4.054 9.059,9.054 0,5.004 -4.059,9.059 -9.059,9.059 -5.004,0 -9.058,-4.055 -9.058,-9.059 z"
         style="fill:#a5d6a7;fill-opacity:1;fill-rule:nonzero;stroke:none"
         id="path118" /><path
         d="m 889.477,267.926 c 0,-5 4.054,-9.055 9.058,-9.055 5,0 9.055,4.055 9.055,9.055 0,5.004 -4.055,9.058 -9.055,9.058 -5.004,0 -9.058,-4.054 -9.058,-9.058 z"
         style="fill:#ffab91;fill-opacity:1;fill-rule:nonzero;stroke:none"
         id="path120" /><path
         d="m 830.719,238.352 c 0,-5.004 4.054,-9.059 9.058,-9.059 5.004,0 9.059,4.055 9.059,9.059 0,5.003 -4.055,9.058 -9.059,9.058 -5.004,0 -9.058,-4.055 -9.058,-9.058 z"
         style="fill:#ffcc80;fill-opacity:1;fill-rule:nonzero;stroke:none"
         id="path122" /><path
         d="m 795.762,155.016 c 0,-5.004 4.054,-9.059 9.058,-9.059 5.004,0 9.059,4.055 9.059,9.059 0,5.004 -4.055,9.058 -9.059,9.058 -5.004,0 -9.058,-4.054 -9.058,-9.058 z"
         style="fill:#80cbc4;fill-opacity:1;fill-rule:nonzero;stroke:none"
         id="path124" /><path
         d="m 800.102,205.785 c 0,-5 4.054,-9.055 9.058,-9.055 5.004,0 9.059,4.055 9.059,9.055 0,5.004 -4.055,9.059 -9.059,9.059 -5.004,0 -9.058,-4.055 -9.058,-9.059 z"
         style="fill:#80deea;fill-opacity:1;fill-rule:nonzero;stroke:none"
         id="path126" /><path
         d="m 464.719,182.109 c 0.129,-0.386 0.129,-0.429 0.129,-0.64 0,-0.469 -0.383,-0.727 -0.809,-0.727 -0.258,0 -0.684,0.172 -0.937,0.555 -0.043,0.172 -0.301,0.98 -0.387,1.492 -0.211,0.684 -0.383,1.449 -0.551,2.176 l -1.238,4.898 c -0.086,0.387 -1.278,2.301 -3.067,2.301 -1.363,0 -1.664,-1.191 -1.664,-2.215 0,-1.234 0.469,-2.941 1.364,-5.328 0.425,-1.105 0.554,-1.406 0.554,-1.961 0,-1.191 -0.851,-2.215 -2.215,-2.215 -2.601,0 -3.582,3.965 -3.582,4.176 0,0.301 0.258,0.301 0.301,0.301 0.297,0 0.297,-0.086 0.426,-0.512 0.766,-2.558 1.832,-3.367 2.769,-3.367 0.215,0 0.684,0 0.684,0.852 0,0.683 -0.301,1.406 -0.469,1.917 -1.109,2.899 -1.578,4.434 -1.578,5.711 0,2.43 1.703,3.239 3.324,3.239 1.067,0 1.961,-0.469 2.727,-1.235 -0.34,1.407 -0.68,2.77 -1.746,4.219 -0.727,0.895 -1.75,1.703 -2.984,1.703 -0.383,0 -1.622,-0.082 -2.09,-1.148 0.429,0 0.812,0 1.152,-0.34 0.297,-0.215 0.555,-0.598 0.555,-1.109 0,-0.852 -0.727,-0.938 -0.981,-0.938 -0.64,0 -1.535,0.426 -1.535,1.746 0,1.363 1.195,2.387 2.899,2.387 2.769,0 5.582,-2.473 6.351,-5.539 z"
         style="fill:#1a237e;fill-opacity:1;fill-rule:nonzero;stroke:none"
         id="path142" /><path
         d="m 493.004,183.387 c 0,-0.598 -0.172,-0.895 -0.383,-0.895 -0.129,0 -0.383,0.211 -0.383,0.723 -0.129,2.601 -1.918,4.094 -3.836,4.094 -1.707,0 -2.984,-1.153 -4.347,-2.305 -1.364,-1.277 -2.77,-2.512 -4.645,-2.512 -2.941,0 -4.562,2.985 -4.562,5.453 0,0.895 0.34,0.895 0.382,0.895 0.301,0 0.383,-0.551 0.383,-0.637 0.129,-2.984 2.133,-4.176 3.797,-4.176 1.703,0 3.024,1.149 4.344,2.301 1.406,1.277 2.816,2.512 4.648,2.512 2.981,0 4.602,-2.981 4.602,-5.453 z"
         style="fill:#1a237e;fill-opacity:1;fill-rule:nonzero;stroke:none"
         id="path144" /><path
         d="m 509.242,182.32 h 3.07 c -0.894,4.008 -1.152,5.2 -1.152,7.032 0,0.386 0,1.109 0.215,2.046 0.297,1.196 0.598,1.364 0.98,1.364 0.555,0 1.149,-0.469 1.149,-1.024 0,-0.168 0,-0.211 -0.168,-0.593 -0.813,-1.961 -0.813,-3.754 -0.813,-4.52 0,-1.406 0.215,-2.898 0.512,-4.305 h 3.07 c 0.383,0 1.364,0 1.364,-0.937 0,-0.641 -0.598,-0.641 -1.11,-0.641 h -9.121 c -0.593,0 -1.617,0 -2.812,1.281 -0.938,1.067 -1.66,2.301 -1.66,2.43 0,0.043 0,0.297 0.339,0.297 0.215,0 0.258,-0.129 0.426,-0.34 1.321,-2.09 2.899,-2.09 3.453,-2.09 h 1.536 c -0.852,3.282 -2.301,6.563 -3.454,9.035 -0.214,0.426 -0.214,0.469 -0.214,0.684 0,0.512 0.429,0.723 0.769,0.723 0.809,0 1.024,-0.766 1.363,-1.746 0.383,-1.278 0.383,-1.321 0.727,-2.684 z"
         style="fill:#1a237e;fill-opacity:1;fill-rule:nonzero;stroke:none"
         id="path146" /><path
         d="m 527.496,198.984 c 0,-0.086 0,-0.129 -0.469,-0.597 -3.367,-3.407 -4.261,-8.567 -4.261,-12.742 0,-4.731 1.023,-9.461 4.39,-12.829 0.34,-0.339 0.34,-0.382 0.34,-0.468 0,-0.215 -0.082,-0.297 -0.254,-0.297 -0.297,0 -2.726,1.875 -4.347,5.324 -1.364,2.984 -1.704,6.012 -1.704,8.27 0,2.132 0.297,5.414 1.789,8.523 1.661,3.324 3.965,5.117 4.262,5.117 0.172,0 0.254,-0.086 0.254,-0.301 z"
         style="fill:#1a237e;fill-opacity:1;fill-rule:nonzero;stroke:none"
         id="path148" /><path
         d="m 542.285,182.109 c 0.125,-0.386 0.125,-0.429 0.125,-0.64 0,-0.469 -0.383,-0.727 -0.808,-0.727 -0.254,0 -0.68,0.172 -0.938,0.555 -0.043,0.172 -0.297,0.98 -0.383,1.492 -0.215,0.684 -0.383,1.449 -0.554,2.176 l -1.235,4.898 c -0.086,0.387 -1.281,2.301 -3.07,2.301 -1.363,0 -1.66,-1.191 -1.66,-2.215 0,-1.234 0.468,-2.941 1.363,-5.328 0.426,-1.105 0.555,-1.406 0.555,-1.961 0,-1.191 -0.856,-2.215 -2.219,-2.215 -2.598,0 -3.578,3.965 -3.578,4.176 0,0.301 0.254,0.301 0.297,0.301 0.297,0 0.297,-0.086 0.425,-0.512 0.77,-2.558 1.833,-3.367 2.77,-3.367 0.215,0 0.684,0 0.684,0.852 0,0.683 -0.297,1.406 -0.469,1.917 -1.11,2.899 -1.578,4.434 -1.578,5.711 0,2.43 1.707,3.239 3.324,3.239 1.066,0 1.961,-0.469 2.73,-1.235 -0.343,1.407 -0.683,2.77 -1.75,4.219 -0.722,0.895 -1.746,1.703 -2.984,1.703 -0.383,0 -1.617,-0.082 -2.086,-1.148 0.426,0 0.809,0 1.149,-0.34 0.3,-0.215 0.554,-0.598 0.554,-1.109 0,-0.852 -0.722,-0.938 -0.98,-0.938 -0.637,0 -1.535,0.426 -1.535,1.746 0,1.363 1.195,2.387 2.898,2.387 2.773,0 5.586,-2.473 6.352,-5.539 z"
         style="fill:#1a237e;fill-opacity:1;fill-rule:nonzero;stroke:none"
         id="path150" /><path
         d="m 547.676,173.031 c 0,-0.469 0,-0.98 -0.512,-0.98 -0.555,0 -0.555,0.511 -0.555,0.98 v 25.274 c 0,0.468 0,0.98 0.555,0.98 0.512,0 0.512,-0.512 0.512,-0.98 z"
         style="fill:#1a237e;fill-opacity:1;fill-rule:nonzero;stroke:none"
         id="path152" /><path
         d="m 563.281,178.867 c 0,-1.789 -0.469,-5.582 -3.238,-5.582 -3.797,0 -7.973,7.672 -7.973,13.895 0,2.558 0.77,5.582 3.239,5.582 3.836,0 7.972,-7.797 7.972,-13.895 z m -8.355,3.711 c 0.469,-1.707 1.023,-3.879 2.133,-5.84 0.722,-1.32 1.703,-2.855 2.941,-2.855 1.32,0 1.488,1.746 1.488,3.281 0,1.363 -0.211,2.727 -0.851,5.414 z m 5.457,0.895 c -0.301,1.234 -0.852,3.535 -1.918,5.496 -0.938,1.875 -1.961,3.195 -3.156,3.195 -0.895,0 -1.45,-0.809 -1.45,-3.324 0,-1.149 0.172,-2.727 0.856,-5.367 z"
         style="fill:#1a237e;fill-opacity:1;fill-rule:nonzero;stroke:none"
         id="path154" /><path
         d="m 572.273,185.645 c 0,-2.086 -0.3,-5.372 -1.789,-8.481 -1.621,-3.324 -3.964,-5.113 -4.222,-5.113 -0.168,0 -0.297,0.125 -0.297,0.297 0,0.086 0,0.129 0.512,0.64 2.683,2.684 4.218,6.989 4.218,12.657 0,4.687 -0.98,9.46 -4.347,12.871 -0.383,0.339 -0.383,0.382 -0.383,0.468 0,0.172 0.129,0.301 0.297,0.301 0.258,0 2.73,-1.875 4.304,-5.328 1.407,-2.984 1.707,-6.012 1.707,-8.312 z"
         style="fill:#1a237e;fill-opacity:1;fill-rule:nonzero;stroke:none"
         id="path156" /><path
         d="m 409.352,273.422 c -0.723,0.043 -1.278,0.64 -1.278,1.238 0,0.383 0.254,0.809 0.852,0.809 0.597,0 1.238,-0.469 1.238,-1.535 0,-1.235 -1.152,-2.344 -3.242,-2.344 -3.578,0 -4.602,2.769 -4.602,3.965 0,2.129 2.004,2.515 2.813,2.683 1.406,0.301 2.812,0.598 2.812,2.09 0,0.68 -0.593,2.984 -3.879,2.984 -0.382,0 -2.468,0 -3.109,-1.449 1.066,0.125 1.746,-0.683 1.746,-1.449 0,-0.598 -0.469,-0.937 -1.023,-0.937 -0.723,0 -1.532,0.55 -1.532,1.789 0,1.535 1.575,2.64 3.875,2.64 4.434,0 5.5,-3.281 5.5,-4.515 0,-0.981 -0.511,-1.664 -0.851,-1.961 -0.727,-0.77 -1.535,-0.938 -2.731,-1.153 -0.976,-0.211 -2.043,-0.425 -2.043,-1.66 0,-0.769 0.637,-2.429 3.024,-2.429 0.683,0 2.047,0.21 2.43,1.234 z"
         style="fill:#880e4f;fill-opacity:1;fill-rule:nonzero;stroke:none"
         id="path158" /><path
         d="m 420.473,290.129 c 0,-0.086 0,-0.125 -0.469,-0.598 -3.367,-3.406 -4.262,-8.566 -4.262,-12.742 0,-4.73 1.02,-9.461 4.387,-12.828 0.344,-0.34 0.344,-0.383 0.344,-0.469 0,-0.211 -0.086,-0.297 -0.258,-0.297 -0.297,0 -2.727,1.875 -4.348,5.328 -1.363,2.981 -1.703,6.008 -1.703,8.266 0,2.133 0.297,5.414 1.789,8.523 1.664,3.325 3.965,5.118 4.262,5.118 0.172,0 0.258,-0.086 0.258,-0.301 z"
         style="fill:#880e4f;fill-opacity:1;fill-rule:nonzero;stroke:none"
         id="path160" /><path
         d="m 435.258,273.254 c 0.129,-0.387 0.129,-0.426 0.129,-0.641 0,-0.468 -0.383,-0.726 -0.813,-0.726 -0.254,0 -0.679,0.172 -0.937,0.554 -0.039,0.172 -0.297,0.981 -0.383,1.493 -0.211,0.683 -0.383,1.449 -0.555,2.175 l -1.234,4.899 c -0.086,0.387 -1.277,2.304 -3.07,2.304 -1.364,0 -1.661,-1.195 -1.661,-2.218 0,-1.235 0.469,-2.942 1.364,-5.328 0.425,-1.106 0.554,-1.407 0.554,-1.961 0,-1.192 -0.851,-2.215 -2.214,-2.215 -2.602,0 -3.583,3.965 -3.583,4.176 0,0.3 0.254,0.3 0.297,0.3 0.301,0 0.301,-0.086 0.426,-0.511 0.77,-2.559 1.836,-3.367 2.774,-3.367 0.21,0 0.679,0 0.679,0.851 0,0.684 -0.297,1.406 -0.469,1.918 -1.105,2.898 -1.574,4.434 -1.574,5.711 0,2.43 1.703,3.238 3.324,3.238 1.063,0 1.958,-0.468 2.727,-1.234 -0.34,1.406 -0.684,2.769 -1.746,4.219 -0.727,0.894 -1.75,1.703 -2.984,1.703 -0.383,0 -1.621,-0.082 -2.09,-1.149 0.426,0 0.808,0 1.152,-0.34 0.297,-0.214 0.555,-0.597 0.555,-1.109 0,-0.851 -0.727,-0.937 -0.981,-0.937 -0.64,0 -1.535,0.425 -1.535,1.746 0,1.363 1.192,2.386 2.899,2.386 2.769,0 5.582,-2.472 6.347,-5.539 z"
         style="fill:#880e4f;fill-opacity:1;fill-rule:nonzero;stroke:none"
         id="path162" /><path
         d="m 444.188,276.789 c 0,-2.086 -0.301,-5.371 -1.793,-8.48 -1.618,-3.325 -3.961,-5.114 -4.219,-5.114 -0.168,0 -0.297,0.125 -0.297,0.297 0,0.086 0,0.129 0.512,0.641 2.683,2.683 4.218,6.988 4.218,12.656 0,4.688 -0.98,9.461 -4.347,12.871 -0.383,0.344 -0.383,0.383 -0.383,0.469 0,0.172 0.129,0.301 0.297,0.301 0.258,0 2.73,-1.875 4.304,-5.328 1.407,-2.985 1.708,-6.012 1.708,-8.313 z"
         style="fill:#880e4f;fill-opacity:1;fill-rule:nonzero;stroke:none"
         id="path164" /><path
         d="m 474.109,271.336 c 0,-0.598 -0.214,-0.856 -0.382,-0.856 -0.129,0 -0.383,0.129 -0.383,0.77 -0.129,1.875 -2.004,2.984 -3.797,2.984 -1.574,0 -2.938,-0.855 -4.344,-1.793 -1.449,-0.98 -2.941,-1.961 -4.691,-1.961 -2.555,0 -4.559,1.918 -4.559,4.434 0,0.598 0.215,0.809 0.383,0.809 0.258,0 0.383,-0.508 0.383,-0.637 0.129,-2.258 2.343,-3.07 3.793,-3.07 1.578,0 2.941,0.812 4.347,1.789 1.45,0.98 2.942,1.961 4.688,1.961 2.515,0 4.562,-1.961 4.562,-4.43 z m 0,6.348 c 0,-0.809 -0.339,-0.852 -0.382,-0.852 -0.129,0 -0.383,0.129 -0.383,0.727 -0.129,1.875 -2.004,3.023 -3.797,3.023 -1.574,0 -2.938,-0.852 -4.344,-1.832 -1.449,-0.98 -2.941,-1.961 -4.691,-1.961 -2.555,0 -4.559,1.961 -4.559,4.434 0,0.64 0.215,0.851 0.383,0.851 0.258,0 0.383,-0.512 0.383,-0.64 0.129,-2.301 2.343,-3.11 3.793,-3.11 1.578,0 2.941,0.852 4.347,1.789 1.45,0.981 2.942,1.961 4.688,1.961 2.601,0 4.562,-2.004 4.562,-4.39 z"
         style="fill:#880e4f;fill-opacity:1;fill-rule:nonzero;stroke:none"
         id="path166" /><path
         d="m 490.18,274.488 c 0.679,0 2,0 2.937,0.555 1.324,0.852 1.406,2.301 1.406,2.473 0.043,0.382 0.043,0.722 0.512,0.722 0.469,0 0.469,-0.383 0.469,-0.851 v -7.375 c 0,-0.426 0,-0.852 -0.469,-0.852 -0.469,0 -0.512,0.383 -0.512,0.598 -0.168,3.539 -2.937,3.707 -4.343,3.75 v -5.754 c 0,-1.832 0.508,-1.832 1.191,-1.832 h 1.277 c 3.668,0 5.5,1.875 5.668,3.75 0.043,0.215 0.043,0.64 0.469,0.64 0.469,0 0.469,-0.425 0.469,-0.894 v -3.539 c 0,-0.852 -0.039,-0.895 -0.895,-0.895 h -13.894 c -0.508,0 -0.938,0 -0.938,0.469 0,0.469 0.512,0.469 0.727,0.469 1.578,0 1.66,0.215 1.66,1.578 v 13.594 c 0,1.281 -0.082,1.578 -1.531,1.578 -0.387,0 -0.856,0 -0.856,0.469 0,0.468 0.43,0.468 0.938,0.468 h 14.406 c 0.512,0 0.77,0 0.856,-0.382 0.039,-0.043 0.808,-4.563 0.808,-4.688 0,-0.301 -0.258,-0.512 -0.469,-0.512 -0.382,0 -0.511,0.383 -0.511,0.383 -0.129,0.723 -0.426,1.875 -2.387,3.024 -1.449,0.855 -2.813,1.238 -4.305,1.238 h -1.492 c -0.683,0 -1.191,0 -1.191,-1.832 z m 8.136,-8.566 v 1.32 c -0.468,-0.512 -0.976,-0.937 -1.531,-1.32 z m -5.281,7.969 c 0.426,-0.168 1.02,-0.594 1.488,-1.149 V 275 c -0.636,-0.727 -1.488,-1.066 -1.488,-1.066 z m -6.183,-6.477 c 0,-0.301 0,-0.98 -0.211,-1.492 h 2.898 c -0.301,0.64 -0.301,1.535 -0.301,1.789 v 13.172 c 0,0.98 0.172,1.531 0.301,1.789 h -2.898 c 0.211,-0.512 0.211,-1.195 0.211,-1.492 z m 10.144,15.258 v -0.043 c 0.852,-0.426 1.578,-1.024 2.133,-1.492 0,0.086 -0.215,1.32 -0.258,1.535 z"
         style="fill:#880e4f;fill-opacity:1;fill-rule:nonzero;stroke:none"
         id="path168" /><path
         d="m 507.188,281.609 h 2.257 c -0.297,1.149 -0.722,2.856 -0.722,4.391 0,0.766 0.125,1.277 0.211,1.66 0.3,0.981 0.554,1.024 0.851,1.024 0.469,0 0.899,-0.383 0.899,-0.852 0,-0.129 -0.043,-0.215 -0.129,-0.383 -0.383,-0.726 -0.727,-1.793 -0.727,-3.367 0,-0.344 0,-1.109 0.258,-2.473 h 2.387 c 0.339,0 0.511,0 0.722,-0.129 0.258,-0.21 0.301,-0.511 0.301,-0.597 0,-0.551 -0.469,-0.551 -0.812,-0.551 h -7.161 c -0.765,0 -1.32,0.168 -2.171,0.98 -0.512,0.426 -1.239,1.446 -1.239,1.618 0,0.215 0.258,0.215 0.344,0.215 0.211,0 0.211,-0.043 0.34,-0.215 0.937,-1.321 2.133,-1.321 2.558,-1.321 h 1.149 c -0.594,2.09 -1.617,4.348 -2.172,5.496 -0.129,0.215 -0.301,0.641 -0.383,0.684 0,0.086 -0.043,0.172 -0.043,0.297 0,0.301 0.211,0.598 0.68,0.598 0.726,0 0.937,-0.852 1.406,-2.559 z"
         style="fill:#880e4f;fill-opacity:1;fill-rule:nonzero;stroke:none"
         id="path170" /><path
         d="m 521.387,274.277 c -3.578,2.516 -4.559,6.567 -4.559,9.461 0,2.688 0.809,6.864 4.559,9.508 0.172,0 0.383,0 0.383,-0.215 0,-0.129 -0.043,-0.172 -0.168,-0.297 -2.559,-2.304 -3.454,-5.5 -3.454,-8.953 0,-5.156 1.961,-7.672 3.493,-9.078 0.086,-0.082 0.129,-0.125 0.129,-0.211 0,-0.215 -0.211,-0.215 -0.383,-0.215 z"
         style="fill:#880e4f;fill-opacity:1;fill-rule:nonzero;stroke:none"
         id="path172" /><path
         d="m 532.863,279.266 c 0,-2.004 -0.769,-4.137 -2.644,-4.137 -2.856,0 -5.883,5.117 -5.883,9.465 0,2.258 0.898,4.09 2.644,4.09 2.856,0 5.883,-5.157 5.883,-9.418 z m -6.394,2.3 c 0.98,-4.089 2.64,-5.882 3.75,-5.882 1.195,0 1.195,2.089 1.195,2.429 0,0.77 -0.129,1.875 -0.512,3.453 z m 4.261,0.684 c -0.554,2.086 -0.98,3.109 -1.578,4.047 -0.554,0.98 -1.32,1.875 -2.172,1.875 -1.023,0 -1.195,-1.449 -1.195,-2.473 0,-1.234 0.344,-2.726 0.512,-3.449 z"
         style="fill:#880e4f;fill-opacity:1;fill-rule:nonzero;stroke:none"
         id="path174" /><path
         d="m 537.789,275.004 c 0,-0.301 0,-0.727 -0.469,-0.727 -0.472,0 -0.472,0.426 -0.472,0.727 v 17.516 c 0,0.296 0,0.726 0.429,0.726 0.512,0 0.512,-0.43 0.512,-0.726 z"
         style="fill:#880e4f;fill-opacity:1;fill-rule:nonzero;stroke:none"
         id="path176" /><path
         d="m 551.102,281.352 c 0.086,-0.254 0.086,-0.297 0.086,-0.426 0,-0.383 -0.297,-0.594 -0.641,-0.594 -0.211,0 -0.551,0.082 -0.766,0.426 -0.086,0.125 -0.211,0.722 -0.297,1.105 l -0.425,1.578 c -0.086,0.469 -0.684,2.856 -0.77,3.071 0,0 -0.851,1.66 -2.301,1.66 -1.32,0 -1.32,-1.234 -1.32,-1.578 0,-1.02 0.426,-2.215 1.023,-3.707 0.211,-0.598 0.297,-0.809 0.297,-1.149 0,-0.894 -0.765,-1.621 -1.789,-1.621 -1.918,0 -2.769,2.602 -2.769,2.942 0,0.211 0.254,0.211 0.34,0.211 0.253,0 0.253,-0.082 0.339,-0.297 0.469,-1.578 1.278,-2.301 2.047,-2.301 0.297,0 0.469,0.211 0.469,0.64 0,0.469 -0.172,0.852 -0.258,1.106 -0.937,2.344 -1.105,3.027 -1.105,3.879 0,0.297 0,1.195 0.722,1.832 0.598,0.469 1.407,0.555 1.918,0.555 0.77,0 1.45,-0.254 2.047,-0.852 -0.215,1.066 -0.426,1.875 -1.238,2.813 -0.508,0.597 -1.277,1.191 -2.301,1.191 -0.125,0 -1.023,0 -1.406,-0.594 1.023,-0.129 1.023,-1.023 1.023,-1.066 0,-0.598 -0.554,-0.727 -0.722,-0.727 -0.469,0 -1.11,0.387 -1.11,1.281 0,0.938 0.895,1.661 2.258,1.661 1.918,0 4.262,-1.493 4.859,-3.879 z"
         style="fill:#880e4f;fill-opacity:1;fill-rule:nonzero;stroke:none"
         id="path178" /><path
         d="m 553.941,274.277 c -0.129,0 -0.339,0 -0.339,0.215 0,0.086 0.043,0.129 0.171,0.297 1.618,1.492 3.45,4.051 3.45,8.949 0,3.965 -1.235,6.992 -3.282,8.824 -0.339,0.34 -0.339,0.34 -0.339,0.469 0,0.086 0.043,0.215 0.21,0.215 0.258,0 2.047,-1.238 3.329,-3.625 0.808,-1.578 1.363,-3.621 1.363,-5.84 0,-2.683 -0.813,-6.859 -4.563,-9.504 z"
         style="fill:#880e4f;fill-opacity:1;fill-rule:nonzero;stroke:none"
         id="path180" /><path
         d="m 569.035,290.43 v -1.11 h -2.64 v -25.019 h 2.64 v -1.106 h -3.75 v 27.235 z"
         style="fill:#880e4f;fill-opacity:1;fill-rule:nonzero;stroke:none"
         id="path182" /><path
         d="m 579.355,275.684 c 1.106,2.855 2.43,6.988 2.856,7.628 0.426,0.594 0.68,0.594 1.449,0.594 h 0.594 c 0.258,-0.043 0.301,-0.168 0.301,-0.254 0,-0.086 -0.086,-0.172 -0.172,-0.257 -0.254,-0.297 -0.426,-0.723 -0.598,-1.235 l -5.539,-15.472 c -0.598,-1.575 -2.047,-1.961 -3.324,-1.961 -0.129,0 -0.512,0 -0.512,0.3 0,0.211 0.215,0.297 0.258,0.297 0.894,0.129 1.105,0.301 1.789,2.176 l 2.598,7.371 -7.5,7.461 c -0.297,0.34 -0.469,0.469 -0.469,0.852 0,0.468 0.383,0.765 0.809,0.765 0.425,0 0.683,-0.297 0.898,-0.554 z"
         style="fill:#880e4f;fill-opacity:1;fill-rule:nonzero;stroke:none"
         id="path184" /><path
         d="m 594.48,290.129 c 0,-0.086 0,-0.125 -0.468,-0.598 -3.367,-3.406 -4.262,-8.566 -4.262,-12.742 0,-4.73 1.023,-9.461 4.391,-12.828 0.339,-0.34 0.339,-0.383 0.339,-0.469 0,-0.211 -0.085,-0.297 -0.253,-0.297 -0.301,0 -2.731,1.875 -4.348,5.328 -1.363,2.981 -1.707,6.008 -1.707,8.266 0,2.133 0.301,5.414 1.789,8.523 1.664,3.325 3.965,5.118 4.266,5.118 0.168,0 0.253,-0.086 0.253,-0.301 z"
         style="fill:#880e4f;fill-opacity:1;fill-rule:nonzero;stroke:none"
         id="path186" /><path
         d="m 608.418,270.012 c 0,-1.789 -0.469,-5.582 -3.238,-5.582 -3.793,0 -7.973,7.672 -7.973,13.894 0,2.559 0.77,5.582 3.238,5.582 3.836,0 7.973,-7.797 7.973,-13.894 z m -8.356,3.711 c 0.469,-1.707 1.024,-3.879 2.133,-5.84 0.723,-1.321 1.703,-2.856 2.942,-2.856 1.32,0 1.492,1.746 1.492,3.282 0,1.363 -0.215,2.726 -0.856,5.414 z m 5.458,0.894 c -0.301,1.235 -0.852,3.535 -1.918,5.496 -0.938,1.875 -1.961,3.199 -3.157,3.199 -0.894,0 -1.445,-0.812 -1.445,-3.324 0,-1.152 0.168,-2.73 0.852,-5.371 z"
         style="fill:#880e4f;fill-opacity:1;fill-rule:nonzero;stroke:none"
         id="path188" /><path
         d="m 617.414,276.789 c 0,-2.086 -0.301,-5.371 -1.793,-8.48 -1.617,-3.325 -3.961,-5.114 -4.219,-5.114 -0.168,0 -0.297,0.125 -0.297,0.297 0,0.086 0,0.129 0.512,0.641 2.684,2.683 4.219,6.988 4.219,12.656 0,4.688 -0.981,9.461 -4.348,12.871 -0.383,0.344 -0.383,0.383 -0.383,0.469 0,0.172 0.129,0.301 0.297,0.301 0.258,0 2.727,-1.875 4.305,-5.328 1.406,-2.985 1.707,-6.012 1.707,-8.313 z"
         style="fill:#880e4f;fill-opacity:1;fill-rule:nonzero;stroke:none"
         id="path190" /><path
         d="m 624.441,263.195 h -3.707 v 1.106 h 2.645 v 25.019 h -2.645 v 1.11 h 3.707 z"
         style="fill:#880e4f;fill-opacity:1;fill-rule:nonzero;stroke:none"
         id="path192" /><path
         d="m 189.27,316.051 c 0,-1.934 -0.508,-6.031 -3.5,-6.031 -4.098,0 -8.614,8.289 -8.614,15.011 0,2.762 0.832,6.031 3.5,6.031 4.145,0 8.614,-8.425 8.614,-15.011 z m -9.028,4.008 c 0.508,-1.844 1.106,-4.192 2.305,-6.309 0.781,-1.43 1.84,-3.086 3.176,-3.086 1.429,0 1.613,1.887 1.613,3.547 0,1.473 -0.231,2.945 -0.922,5.848 z m 5.895,0.964 c -0.321,1.336 -0.922,3.825 -2.071,5.942 -1.015,2.027 -2.121,3.453 -3.41,3.453 -0.965,0 -1.566,-0.875 -1.566,-3.59 0,-1.242 0.187,-2.949 0.922,-5.805 z"
         style="fill:#000000;fill-opacity:1;fill-rule:nonzero;stroke:none"
         id="path194" /><path
         d="m 196.562,322.066 c 0,-0.55 0,-0.55 -0.601,-0.55 -1.336,1.289 -3.176,1.289 -4.004,1.289 v 0.734 c 0.457,0 1.84,0 2.945,-0.551 v 10.453 c 0,0.692 0,0.969 -2.027,0.969 h -0.781 v 0.735 c 0.367,0 2.902,-0.09 3.636,-0.09 0.645,0 3.227,0.09 3.684,0.09 v -0.735 h -0.781 c -2.071,0 -2.071,-0.277 -2.071,-0.969 z"
         style="fill:#000000;fill-opacity:1;fill-rule:nonzero;stroke:none"
         id="path196" /><path
         d="m 66.629,209.25 c -1.934,0 -6.031,0.504 -6.031,3.5 0,4.098 8.289,8.609 15.011,8.609 2.766,0 6.036,-0.828 6.036,-3.5 0,-4.144 -8.43,-8.609 -15.016,-8.609 z m 4.008,9.023 c -1.84,-0.503 -4.192,-1.105 -6.309,-2.3 -1.43,-0.785 -3.086,-1.844 -3.086,-3.18 0,-1.426 1.887,-1.609 3.547,-1.609 1.473,0 2.945,0.23 5.848,0.921 z m 0.968,-5.894 c 1.336,0.324 3.821,0.922 5.942,2.074 2.023,1.012 3.453,2.117 3.453,3.406 0,0.969 -0.875,1.567 -3.594,1.567 -1.242,0 -2.945,-0.184 -5.801,-0.922 z"
         style="fill:#000000;fill-opacity:1;fill-rule:nonzero;stroke:none"
         id="path198" /><path
         d="m 81.996,198.457 v 0.691 c 0.457,0.047 1.656,0.278 1.84,0.551 0.141,0.141 0.141,1.707 0.141,2.028 v 3.777 c -1.891,-2.164 -2.489,-2.902 -3.457,-4.098 -1.196,-1.523 -2.485,-2.949 -4.418,-2.949 -2.489,0 -4.008,2.164 -4.008,4.789 0,2.535 1.797,4.285 3.683,4.285 1.012,0 1.153,-0.875 1.153,-1.105 0,-0.461 -0.371,-1.063 -1.106,-1.063 -0.371,0 -1.105,0.141 -1.105,1.199 -1.43,-0.644 -1.891,-2.027 -1.891,-2.992 0,-2.074 1.613,-3.132 3.274,-3.132 1.793,0 3.175,1.289 3.914,1.933 l 4.925,4.93 c 0.184,0.23 0.231,0.23 0.786,0.23 v -8.476 z"
         style="fill:#000000;fill-opacity:1;fill-rule:nonzero;stroke:none"
         id="path200" /><path
         d="m 845.371,314.867 c 0.137,-0.414 0.137,-0.461 0.137,-0.691 0,-0.504 -0.414,-0.781 -0.875,-0.781 -0.278,0 -0.738,0.183 -1.012,0.597 -0.047,0.184 -0.324,1.059 -0.414,1.613 -0.23,0.735 -0.418,1.567 -0.602,2.348 l -1.335,5.297 c -0.09,0.414 -1.379,2.488 -3.313,2.488 -1.477,0 -1.797,-1.293 -1.797,-2.398 0,-1.332 0.504,-3.176 1.473,-5.754 0.461,-1.199 0.597,-1.52 0.597,-2.117 0,-1.293 -0.918,-2.399 -2.394,-2.399 -2.809,0 -3.867,4.285 -3.867,4.516 0,0.32 0.277,0.32 0.32,0.32 0.324,0 0.324,-0.09 0.461,-0.551 0.832,-2.761 1.98,-3.636 2.996,-3.636 0.231,0 0.734,0 0.734,0.918 0,0.738 -0.32,1.519 -0.503,2.074 -1.2,3.129 -1.707,4.789 -1.707,6.172 0,2.625 1.843,3.5 3.593,3.5 1.153,0 2.117,-0.508 2.949,-1.336 -0.371,1.519 -0.738,2.992 -1.89,4.558 -0.781,0.965 -1.887,1.84 -3.223,1.84 -0.414,0 -1.75,-0.09 -2.258,-1.242 0.461,0 0.875,0 1.247,-0.367 0.32,-0.231 0.597,-0.645 0.597,-1.199 0,-0.922 -0.785,-1.012 -1.058,-1.012 -0.692,0 -1.661,0.461 -1.661,1.887 0,1.476 1.289,2.578 3.133,2.578 2.992,0 6.031,-2.668 6.863,-5.985 z"
         style="fill:#000000;fill-opacity:1;fill-rule:nonzero;stroke:none"
         id="path202" /><path
         d="m 852.352,317.383 c 0,-0.551 0,-0.551 -0.598,-0.551 -1.336,1.289 -3.176,1.289 -4.008,1.289 v 0.734 c 0.461,0 1.844,0 2.949,-0.55 v 10.453 c 0,0.691 0,0.969 -2.027,0.969 h -0.781 v 0.734 c 0.367,0 2.902,-0.09 3.636,-0.09 0.645,0 3.223,0.09 3.684,0.09 v -0.734 h -0.781 c -2.074,0 -2.074,-0.278 -2.074,-0.969 z"
         style="fill:#000000;fill-opacity:1;fill-rule:nonzero;stroke:none"
         id="path204" /><path
         d="m 724.953,208.449 c -0.414,-0.137 -0.461,-0.137 -0.691,-0.137 -0.504,0 -0.782,0.415 -0.782,0.876 0,0.273 0.184,0.734 0.598,1.011 0.184,0.047 1.059,0.324 1.613,0.414 0.735,0.231 1.567,0.414 2.348,0.598 l 5.297,1.336 c 0.414,0.094 2.484,1.383 2.484,3.316 0,1.473 -1.289,1.797 -2.394,1.797 -1.336,0 -3.176,-0.508 -5.754,-1.472 -1.199,-0.461 -1.52,-0.602 -2.121,-0.602 -1.289,0 -2.395,0.922 -2.395,2.398 0,2.809 4.285,3.868 4.516,3.868 0.32,0 0.32,-0.278 0.32,-0.325 0,-0.32 -0.09,-0.32 -0.551,-0.461 -2.765,-0.828 -3.64,-1.98 -3.64,-2.992 0,-0.23 0,-0.738 0.922,-0.738 0.738,0 1.519,0.324 2.074,0.508 3.129,1.199 4.789,1.703 6.168,1.703 2.625,0 3.5,-1.84 3.5,-3.59 0,-1.152 -0.504,-2.121 -1.332,-2.949 1.519,0.371 2.992,0.738 4.558,1.89 0.965,0.782 1.84,1.887 1.84,3.223 0,0.414 -0.09,1.75 -1.242,2.258 0,-0.461 0,-0.875 -0.367,-1.246 -0.231,-0.321 -0.645,-0.598 -1.199,-0.598 -0.922,0 -1.012,0.781 -1.012,1.059 0,0.691 0.461,1.66 1.887,1.66 1.472,0 2.578,-1.293 2.578,-3.133 0,-2.992 -2.668,-6.035 -5.985,-6.863 z"
         style="fill:#000000;fill-opacity:1;fill-rule:nonzero;stroke:none"
         id="path206" /><path
         d="m 736.816,197.965 v 0.691 c 0.461,0.047 1.661,0.278 1.844,0.555 0.137,0.137 0.137,1.703 0.137,2.023 v 3.778 c -1.887,-2.164 -2.485,-2.903 -3.453,-4.098 -1.199,-1.519 -2.489,-2.949 -4.422,-2.949 -2.484,0 -4.004,2.164 -4.004,4.789 0,2.535 1.793,4.285 3.684,4.285 1.011,0 1.148,-0.875 1.148,-1.105 0,-0.461 -0.367,-1.059 -1.105,-1.059 -0.368,0 -1.102,0.137 -1.102,1.195 -1.43,-0.644 -1.891,-2.023 -1.891,-2.992 0,-2.074 1.614,-3.133 3.27,-3.133 1.797,0 3.18,1.289 3.914,1.934 l 4.93,4.93 c 0.183,0.23 0.23,0.23 0.781,0.23 v -8.473 z"
         style="fill:#000000;fill-opacity:1;fill-rule:nonzero;stroke:none"
         id="path208" /><g
         id="g210"><path
           d="m 299.742,156.703 c 67.133,-19.058 136.875,-28.906 206.664,-29.18 72.469,-0.285 144.973,9.758 214.637,29.735"
           style="fill:none;stroke:#000000;stroke-width:4.25197;stroke-linecap:round;stroke-linejoin:miter;stroke-miterlimit:4;stroke-dasharray:none;stroke-opacity:1"
           id="path212" /></g><g
         id="g214"
         transform="matrix(-1,-0.286727,0.286727,-1,0,0)"><path
           d="m -700.061,50.672 -13.396,-4.925 13.396,-4.927 c -2.139,2.91 -2.127,6.887 0,9.852 z"
           style="fill:#000000;fill-opacity:1;fill-rule:evenodd;stroke:#000000;stroke-width:0.766364;stroke-linecap:butt;stroke-linejoin:round;stroke-miterlimit:4;stroke-dasharray:none;stroke-opacity:1"
           id="path216" /></g><g
         id="g218"><path
           d="m 415.961,98.371 c 0,0.164 -0.133,0.297 -0.297,0.297 -0.164,0 -0.297,-0.133 -0.297,-0.297 0,-0.16 0.133,-0.293 0.297,-0.293 0.164,0 0.297,0.133 0.297,0.293 z"
           style="fill:#000000;fill-opacity:1;fill-rule:nonzero;stroke:#1a237e;stroke-width:0.567466;stroke-linecap:butt;stroke-linejoin:miter;stroke-miterlimit:4;stroke-dasharray:none;stroke-opacity:1"
           id="path220" /></g><g
         id="g222"><path
           d="m 415.961,98.371 c 0,0.164 -0.133,0.297 -0.297,0.297 -0.164,0 -0.297,-0.133 -0.297,-0.297 0,-0.16 0.133,-0.293 0.297,-0.293 0.164,0 0.297,0.133 0.297,0.293 z"
           style="fill:#000000;fill-opacity:1;fill-rule:nonzero;stroke:#1a237e;stroke-width:0.567466;stroke-linecap:butt;stroke-linejoin:miter;stroke-miterlimit:4;stroke-dasharray:none;stroke-opacity:1"
           id="path224" /></g><g
         id="g226"><path
           d="m 438.363,65.047 c -2.871,2.058 -5.222,4.844 -6.769,8.019 -2.129,4.372 -2.703,9.469 -1.684,14.223 0.86,3.988 2.778,7.668 4.867,11.172 2.383,3.988 5.024,7.836 8.118,11.301 3.617,4.058 7.835,7.566 12.39,10.535 3.348,2.183 6.883,4.082 10.586,5.586 2.621,1.066 5.359,1.937 8.184,2.109 4.57,0.281 9.129,-1.308 12.91,-3.89 3.281,-2.247 6.066,-5.274 7.793,-8.86 1.738,-3.617 2.363,-7.762 1.804,-11.738 -0.515,-3.684 -2.031,-7.215 -4.308,-10.156 -2.016,-2.602 -4.602,-4.727 -7.395,-6.469 -2.23,-1.387 -4.613,-2.551 -6.66,-4.195 -2.609,-2.094 -4.566,-4.883 -6.406,-7.68 -1.977,-3.004 -3.895,-6.109 -6.551,-8.535 -2.566,-2.348 -5.758,-3.981 -9.133,-4.832 -3.367,-0.856 -6.945,-0.946 -10.324,-0.129 -2.683,0.648 -5.23,1.863 -7.422,3.539 z"
           style="fill:none;stroke:#1a237e;stroke-width:4.28951;stroke-linecap:butt;stroke-linejoin:miter;stroke-miterlimit:4;stroke-dasharray:none;stroke-opacity:1"
           id="path228" /></g><g
         id="g230"><path
           d="m 486.855,110.523 c 0,4.543 -3.679,8.227 -8.222,8.227 -4.543,0 -8.223,-3.684 -8.223,-8.227 0,-4.543 3.68,-8.222 8.223,-8.222 4.543,0 8.222,3.679 8.222,8.222 z"
           style="fill:none;stroke:#1a237e;stroke-width:4.28951;stroke-linecap:round;stroke-linejoin:miter;stroke-miterlimit:4;stroke-dasharray:none;stroke-opacity:1"
           id="path232" /></g><g
         id="g234"><path
           d="m 460.477,105.215 c 0,2.926 -2.375,5.301 -5.301,5.301 -2.926,0 -5.301,-2.375 -5.301,-5.301 0,-2.93 2.375,-5.301 5.301,-5.301 2.926,0 5.301,2.371 5.301,5.301 z"
           style="fill:none;stroke:#1a237e;stroke-width:4.28951;stroke-linecap:round;stroke-linejoin:miter;stroke-miterlimit:4;stroke-dasharray:none;stroke-opacity:1"
           id="path236" /></g><g
         id="g238"><path
           d="m 474.262,92.852 c 0,1.914 -1.551,3.464 -3.469,3.464 -1.914,0 -3.465,-1.55 -3.465,-3.464 0,-1.918 1.551,-3.469 3.465,-3.469 1.918,0 3.469,1.551 3.469,3.469 z"
           style="fill:none;stroke:#1a237e;stroke-width:4.28951;stroke-linecap:round;stroke-linejoin:miter;stroke-miterlimit:4;stroke-dasharray:none;stroke-opacity:1"
           id="path240" /></g><g
         id="g242"><path
           d="m 451.449,58.562 0.086,-5.085"
           style="fill:none;stroke:#1a237e;stroke-width:4.28951;stroke-linecap:round;stroke-linejoin:miter;stroke-miterlimit:4;stroke-dasharray:none;stroke-opacity:1"
           id="path244" /></g><g
         id="g246"><path
           d="m 441.258,62.359 -2.629,-4.351"
           style="fill:none;stroke:#1a237e;stroke-width:4.28951;stroke-linecap:round;stroke-linejoin:miter;stroke-miterlimit:4;stroke-dasharray:none;stroke-opacity:1"
           id="path248" /></g><g
         id="g250"><path
           d="m 431.949,68.93 -4.027,-3.106"
           style="fill:none;stroke:#1a237e;stroke-width:4.28951;stroke-linecap:round;stroke-linejoin:miter;stroke-miterlimit:4;stroke-dasharray:none;stroke-opacity:1"
           id="path252" /></g><g
         id="g254"><path
           d="m 423.016,78.68 5.082,0.265"
           style="fill:none;stroke:#1a237e;stroke-width:4.28951;stroke-linecap:round;stroke-linejoin:miter;stroke-miterlimit:4;stroke-dasharray:none;stroke-opacity:1"
           id="path256" /></g><g
         id="g258"><path
           d="m 423.656,92.258 4.91,-1.332"
           style="fill:none;stroke:#1a237e;stroke-width:4.28951;stroke-linecap:round;stroke-linejoin:miter;stroke-miterlimit:4;stroke-dasharray:none;stroke-opacity:1"
           id="path260" /></g><g
         id="g262"><path
           d="m 429.348,102.918 4.484,-2.398"
           style="fill:none;stroke:#1a237e;stroke-width:4.28951;stroke-linecap:round;stroke-linejoin:miter;stroke-miterlimit:4;stroke-dasharray:none;stroke-opacity:1"
           id="path264" /></g><g
         id="g266"><path
           d="m 436.852,112.031 4.121,-2.984"
           style="fill:none;stroke:#1a237e;stroke-width:4.28951;stroke-linecap:round;stroke-linejoin:miter;stroke-miterlimit:4;stroke-dasharray:none;stroke-opacity:1"
           id="path268" /></g><g
         id="g270"><path
           d="m 444.359,120.867 3.332,-3.844"
           style="fill:none;stroke:#1a237e;stroke-width:4.28951;stroke-linecap:round;stroke-linejoin:miter;stroke-miterlimit:4;stroke-dasharray:none;stroke-opacity:1"
           id="path272" /></g><g
         id="g274"><path
           d="m 455.625,127.836 2.746,-4.281"
           style="fill:none;stroke:#1a237e;stroke-width:4.28951;stroke-linecap:round;stroke-linejoin:miter;stroke-miterlimit:4;stroke-dasharray:none;stroke-opacity:1"
           id="path276" /></g><g
         id="g278"><path
           d="m 467.957,133.73 1.289,-4.921"
           style="fill:none;stroke:#1a237e;stroke-width:4.28951;stroke-linecap:round;stroke-linejoin:miter;stroke-miterlimit:4;stroke-dasharray:none;stroke-opacity:1"
           id="path280" /></g><g
         id="g282"><path
           d="m 484.301,132.176 -2.215,-4.578"
           style="fill:none;stroke:#1a237e;stroke-width:4.28951;stroke-linecap:round;stroke-linejoin:miter;stroke-miterlimit:4;stroke-dasharray:none;stroke-opacity:1"
           id="path284" /></g><g
         id="g286"><path
           d="m 497.688,123.918 -4.024,-3.113"
           style="fill:none;stroke:#1a237e;stroke-width:4.28951;stroke-linecap:round;stroke-linejoin:miter;stroke-miterlimit:4;stroke-dasharray:none;stroke-opacity:1"
           id="path288" /></g><g
         id="g290"><path
           d="m 498.707,109.562 5.063,0.512"
           style="fill:none;stroke:#1a237e;stroke-width:4.28951;stroke-linecap:round;stroke-linejoin:miter;stroke-miterlimit:4;stroke-dasharray:none;stroke-opacity:1"
           id="path292" /></g><g
         id="g294"><path
           d="m 495.414,97.32 4.707,-1.929"
           style="fill:none;stroke:#1a237e;stroke-width:4.28951;stroke-linecap:round;stroke-linejoin:miter;stroke-miterlimit:4;stroke-dasharray:none;stroke-opacity:1"
           id="path296" /></g><g
         id="g298"><path
           d="m 488.699,88.043 3.25,-3.91"
           style="fill:none;stroke:#1a237e;stroke-width:4.28951;stroke-linecap:round;stroke-linejoin:miter;stroke-miterlimit:4;stroke-dasharray:none;stroke-opacity:1"
           id="path300" /></g><g
         id="g302"><path
           d="m 477.723,80.695 3.793,-3.39"
           style="fill:none;stroke:#1a237e;stroke-width:4.28951;stroke-linecap:round;stroke-linejoin:miter;stroke-miterlimit:4;stroke-dasharray:none;stroke-opacity:1"
           id="path304" /></g><g
         id="g306"><path
           d="m 472.012,70.617 3.621,-3.574"
           style="fill:none;stroke:#1a237e;stroke-width:4.28951;stroke-linecap:round;stroke-linejoin:miter;stroke-miterlimit:4;stroke-dasharray:none;stroke-opacity:1"
           id="path308" /></g><g
         id="g310"><path
           d="m 462.594,62.199 2.664,-4.336"
           style="fill:none;stroke:#1a237e;stroke-width:4.28951;stroke-linecap:round;stroke-linejoin:miter;stroke-miterlimit:4;stroke-dasharray:none;stroke-opacity:1"
           id="path312" /></g><g
         id="g314"><path
           d="m 461.875,81.297 c 0,6.523 -5.285,11.808 -11.805,11.808 -6.523,0 -11.808,-5.285 -11.808,-11.808 0,-6.52 5.285,-11.805 11.808,-11.805 6.52,0 11.805,5.285 11.805,11.805 z"
           style="fill:none;stroke:#1a237e;stroke-width:4.28951;stroke-linecap:round;stroke-linejoin:miter;stroke-miterlimit:4;stroke-dasharray:none;stroke-opacity:1"
           id="path316" /></g><g
         id="g318"
         transform="matrix(0.74198,-1,1,0.74198,0,0)"><path
           d="m 231.604,415.283 c 0,12.082 -9.797,21.879 -21.879,21.879 -12.085,0.002 -21.882,-9.796 -21.879,-21.88 -0.002,-12.084 9.793,-21.879 21.878,-21.881 12.084,0.003 21.879,9.797 21.88,21.882 z"
           style="fill:none;stroke:#1a237e;stroke-width:3.44483;stroke-linecap:round;stroke-linejoin:miter;stroke-miterlimit:4;stroke-dasharray:none;stroke-opacity:1"
           id="path320" /></g><g
         id="g322"
         transform="matrix(0.74198,-1,1,0.74198,0,0)"><path
           d="m 212.982,404.152 c 0.001,3.128 -2.534,5.661 -5.662,5.662 -3.126,-0.001 -5.659,-2.536 -5.663,-5.662 0.002,-3.126 2.539,-5.661 5.664,-5.66 3.127,-0.003 5.662,2.534 5.661,5.66 z"
           style="fill:none;stroke:#1a237e;stroke-width:3.44483;stroke-linecap:round;stroke-linejoin:miter;stroke-miterlimit:4;stroke-dasharray:none;stroke-opacity:1"
           id="path324" /></g><g
         id="g326"
         transform="matrix(0.74198,-1,1,0.74198,0,0)"><path
           d="m 224.519,420.938 c 0.001,4.313 -3.495,7.809 -7.807,7.809 -4.313,10e-4 -7.809,-3.495 -7.809,-7.807 0,-4.313 3.498,-7.811 7.81,-7.811 4.312,0 7.808,3.495 7.806,7.809 z"
           style="fill:none;stroke:#1a237e;stroke-width:3.44483;stroke-linecap:round;stroke-linejoin:miter;stroke-miterlimit:4;stroke-dasharray:none;stroke-opacity:1"
           id="path328" /></g><g
         id="g330"
         transform="matrix(0.74198,-1,1,0.74198,0,0)"><path
           d="m 200.257,418.8 c -0.002,1.466 -1.189,2.652 -2.656,2.654 -1.464,10e-4 -2.651,-1.189 -2.652,-2.653 -0.003,-1.467 1.187,-2.654 2.651,-2.655 1.469,0 2.656,1.19 2.657,2.654 z"
           style="fill:none;stroke:#1a237e;stroke-width:3.44483;stroke-linecap:round;stroke-linejoin:miter;stroke-miterlimit:4;stroke-dasharray:none;stroke-opacity:1"
           id="path332" /></g><g
         id="g334"
         transform="matrix(0.74198,-1,1,0.74198,0,0)"><path
           d="m 204.263,445.5 10.764,-0.003"
           style="fill:none;stroke:#1a237e;stroke-width:3.44483;stroke-linecap:round;stroke-linejoin:miter;stroke-miterlimit:4;stroke-dasharray:none;stroke-opacity:1"
           id="path336" /></g><g
         id="g338"
         transform="matrix(0.74198,-1,1,0.74198,0,0)"><path
           d="m 204.621,384.808 10.764,0.002"
           style="fill:none;stroke:#1a237e;stroke-width:3.44483;stroke-linecap:round;stroke-linejoin:miter;stroke-miterlimit:4;stroke-dasharray:none;stroke-opacity:1"
           id="path340" /></g><g
         id="g342"
         transform="matrix(0.74198,-1,1,0.74198,0,0)"><path
           d="m 179.343,409.466 -0.083,10.765"
           style="fill:none;stroke:#1a237e;stroke-width:3.44483;stroke-linecap:round;stroke-linejoin:miter;stroke-miterlimit:4;stroke-dasharray:none;stroke-opacity:1"
           id="path344" /></g><g
         id="g346"
         transform="matrix(0.74198,-1,1,0.74198,0,0)"><path
           d="m 222.136,388.918 5.622,3.598"
           style="fill:none;stroke:#1a237e;stroke-width:3.44483;stroke-linecap:round;stroke-linejoin:miter;stroke-miterlimit:4;stroke-dasharray:none;stroke-opacity:1"
           id="path348" /></g><g
         id="g350"
         transform="matrix(0.74198,-1,1,0.74198,0,0)"><path
           d="m 190.624,436.494 5.444,3.863"
           style="fill:none;stroke:#1a237e;stroke-width:3.44483;stroke-linecap:round;stroke-linejoin:miter;stroke-miterlimit:4;stroke-dasharray:none;stroke-opacity:1"
           id="path352" /></g><g
         id="g354"
         transform="matrix(0.74198,-1,1,0.74198,0,0)"><path
           d="m 182.767,425.785 2.866,6.03"
           style="fill:none;stroke:#1a237e;stroke-width:3.44483;stroke-linecap:round;stroke-linejoin:miter;stroke-miterlimit:4;stroke-dasharray:none;stroke-opacity:1"
           id="path356" /></g><g
         id="g358"
         transform="matrix(0.74198,-1,1,0.74198,0,0)"><path
           d="m 233.05,397.878 3.251,5.83"
           style="fill:none;stroke:#1a237e;stroke-width:3.44483;stroke-linecap:round;stroke-linejoin:miter;stroke-miterlimit:4;stroke-dasharray:none;stroke-opacity:1"
           id="path360" /></g><g
         id="g362"
         transform="matrix(0.74198,-1,1,0.74198,0,0)"><path
           d="m 236.381,427.212 -3.53,5.666"
           style="fill:none;stroke:#1a237e;stroke-width:3.44483;stroke-linecap:round;stroke-linejoin:miter;stroke-miterlimit:4;stroke-dasharray:none;stroke-opacity:1"
           id="path364" /></g><g
         id="g366"
         transform="matrix(0.74198,-1,1,0.74198,0,0)"><path
           d="m 186.743,397.765 -3.533,5.668"
           style="fill:none;stroke:#1a237e;stroke-width:3.44483;stroke-linecap:round;stroke-linejoin:miter;stroke-miterlimit:4;stroke-dasharray:none;stroke-opacity:1"
           id="path368" /></g><g
         id="g370"
         transform="matrix(0.74198,-1,1,0.74198,0,0)"><path
           d="m 227.852,438.297 -5.688,3.495"
           style="fill:none;stroke:#1a237e;stroke-width:3.44483;stroke-linecap:round;stroke-linejoin:miter;stroke-miterlimit:4;stroke-dasharray:none;stroke-opacity:1"
           id="path372" /></g><g
         id="g374"
         transform="matrix(0.74198,-1,1,0.74198,0,0)"><path
           d="m 199.253,387.971 -5.688,3.494"
           style="fill:none;stroke:#1a237e;stroke-width:3.44483;stroke-linecap:round;stroke-linejoin:miter;stroke-miterlimit:4;stroke-dasharray:none;stroke-opacity:1"
           id="path376" /></g><g
         id="g378"
         transform="matrix(0.74198,-1,1,0.74198,0,0)"><path
           d="m 240.591,409.006 v 10.765"
           style="fill:none;stroke:#1a237e;stroke-width:3.44483;stroke-linecap:round;stroke-linejoin:miter;stroke-miterlimit:4;stroke-dasharray:none;stroke-opacity:1"
           id="path380" /></g><g
         id="g382"
         transform="matrix(0.74198,-1,1,0.74198,0,0)"><path
           d="m 210.003,385.311 v 8.172"
           style="fill:none;stroke:#1a237e;stroke-width:3.44483;stroke-linecap:butt;stroke-linejoin:miter;stroke-miterlimit:4;stroke-dasharray:none;stroke-opacity:1"
           id="path384" /></g><g
         id="g386"
         transform="matrix(0.74198,-1,1,0.74198,0,0)"><path
           d="m 209.799,437.825 v 8.176"
           style="fill:none;stroke:#1a237e;stroke-width:3.44483;stroke-linecap:butt;stroke-linejoin:miter;stroke-miterlimit:4;stroke-dasharray:none;stroke-opacity:1"
           id="path388" /></g><g
         id="g390"
         transform="matrix(0.74198,-1,1,0.74198,0,0)"><path
           d="M 240.185,414.076 H 232.01"
           style="fill:none;stroke:#1a237e;stroke-width:3.44483;stroke-linecap:butt;stroke-linejoin:miter;stroke-miterlimit:4;stroke-dasharray:none;stroke-opacity:1"
           id="path392" /></g><g
         id="g394"
         transform="matrix(0.74198,-1,1,0.74198,0,0)"><path
           d="m 187.67,414.788 -8.174,0.002"
           style="fill:none;stroke:#1a237e;stroke-width:3.44483;stroke-linecap:butt;stroke-linejoin:miter;stroke-miterlimit:4;stroke-dasharray:none;stroke-opacity:1"
           id="path396" /></g><g
         id="g398"
         transform="matrix(0.74198,-1,1,0.74198,0,0)"><path
           d="m 200.549,396.54 -4.296,-6.953"
           style="fill:none;stroke:#1a237e;stroke-width:3.44483;stroke-linecap:butt;stroke-linejoin:miter;stroke-miterlimit:4;stroke-dasharray:none;stroke-opacity:1"
           id="path400" /></g><g
         id="g402"
         transform="matrix(0.74198,-1,1,0.74198,0,0)"><path
           d="m 191.987,404.643 -7.05,-4.136"
           style="fill:none;stroke:#1a237e;stroke-width:3.44483;stroke-linecap:butt;stroke-linejoin:miter;stroke-miterlimit:4;stroke-dasharray:none;stroke-opacity:1"
           id="path404" /></g><g
         id="g406"
         transform="matrix(0.74198,-1,1,0.74198,0,0)"><path
           d="m 191.264,424.617 -7.054,4.128"
           style="fill:none;stroke:#1a237e;stroke-width:3.44483;stroke-linecap:butt;stroke-linejoin:miter;stroke-miterlimit:4;stroke-dasharray:none;stroke-opacity:1"
           id="path408" /></g><g
         id="g410"
         transform="matrix(0.74198,-1,1,0.74198,0,0)"><path
           d="M 197.616,431.846 192.87,438.5"
           style="fill:none;stroke:#1a237e;stroke-width:3.44483;stroke-linecap:butt;stroke-linejoin:miter;stroke-miterlimit:4;stroke-dasharray:none;stroke-opacity:1"
           id="path412" /></g><g
         id="g414"
         transform="matrix(0.74198,-1,1,0.74198,0,0)"><path
           d="m 224.781,440.76 -4.101,-7.07"
           style="fill:none;stroke:#1a237e;stroke-width:3.44483;stroke-linecap:butt;stroke-linejoin:miter;stroke-miterlimit:4;stroke-dasharray:none;stroke-opacity:1"
           id="path416" /></g><g
         id="g418"
         transform="matrix(0.74198,-1,1,0.74198,0,0)"><path
           d="m 235.545,430.207 -7.014,-4.198"
           style="fill:none;stroke:#1a237e;stroke-width:3.44483;stroke-linecap:butt;stroke-linejoin:miter;stroke-miterlimit:4;stroke-dasharray:none;stroke-opacity:1"
           id="path420" /></g><g
         id="g422"
         transform="matrix(0.74198,-1,1,0.74198,0,0)"><path
           d="m 235.376,400.36 -7.123,4.004"
           style="fill:none;stroke:#1a237e;stroke-width:3.44483;stroke-linecap:butt;stroke-linejoin:miter;stroke-miterlimit:4;stroke-dasharray:none;stroke-opacity:1"
           id="path424" /></g><g
         id="g426"
         transform="matrix(0.74198,-1,1,0.74198,0,0)"><path
           d="m 225.057,390.212 -4.281,6.961"
           style="fill:none;stroke:#1a237e;stroke-width:3.44483;stroke-linecap:butt;stroke-linejoin:miter;stroke-miterlimit:4;stroke-dasharray:none;stroke-opacity:1"
           id="path428" /></g><g
         id="g430"><path
           d="m 491.82,47.273 c -1.621,1.684 -2.793,3.793 -3.367,6.059 -0.301,1.184 -0.441,2.414 -0.316,3.625 0.121,1.211 0.508,2.41 1.203,3.41 0.738,1.067 1.789,1.879 2.906,2.531 1.117,0.653 2.313,1.161 3.473,1.731 1.64,0.809 3.25,1.777 4.426,3.183 1.187,1.422 1.855,3.2 2.726,4.836 1.078,2.016 2.563,3.907 4.594,4.961 1.332,0.692 2.851,0.996 4.351,0.946 1.496,-0.055 2.977,-0.453 4.332,-1.098 2.52,-1.195 4.653,-3.293 5.664,-5.891 1.008,-2.593 0.864,-5.535 0.032,-8.191 -0.942,-3 -2.715,-5.676 -4.735,-8.09 -2.152,-2.57 -4.613,-4.89 -7.324,-6.871 -2.297,-1.676 -4.816,-3.121 -7.574,-3.82 -1.895,-0.481 -3.906,-0.594 -5.801,-0.106 -1.758,0.457 -3.375,1.438 -4.59,2.785 z"
           style="fill:none;stroke:#1a237e;stroke-width:4.28951;stroke-linecap:butt;stroke-linejoin:miter;stroke-miterlimit:4;stroke-dasharray:none;stroke-opacity:1"
           id="path432" /></g><g
         id="g434"><path
           d="m 508.406,44.691 1.926,-3.503"
           style="fill:none;stroke:#1a237e;stroke-width:4.28951;stroke-linecap:round;stroke-linejoin:miter;stroke-miterlimit:4;stroke-dasharray:none;stroke-opacity:1"
           id="path436" /></g><g
         id="g438"><path
           d="m 515.523,52.273 3.504,-3.976"
           style="fill:none;stroke:#1a237e;stroke-width:4.28951;stroke-linecap:round;stroke-linejoin:miter;stroke-miterlimit:4;stroke-dasharray:none;stroke-opacity:1"
           id="path440" /></g><g
         id="g442"><path
           d="m 522.355,59.562 3.422,-1.39"
           style="fill:none;stroke:#1a237e;stroke-width:4.28951;stroke-linecap:round;stroke-linejoin:miter;stroke-miterlimit:4;stroke-dasharray:none;stroke-opacity:1"
           id="path444" /></g><g
         id="g446"><path
           d="M 520.406,81.109 516.891,77.43"
           style="fill:none;stroke:#1a237e;stroke-width:4.28951;stroke-linecap:round;stroke-linejoin:miter;stroke-miterlimit:4;stroke-dasharray:none;stroke-opacity:1"
           id="path448" /></g><g
         id="g450"><path
           d="m 527.516,71.82 -4.278,-1.3"
           style="fill:none;stroke:#1a237e;stroke-width:4.28951;stroke-linecap:round;stroke-linejoin:miter;stroke-miterlimit:4;stroke-dasharray:none;stroke-opacity:1"
           id="path452" /></g><g
         id="g454"><path
           d="m 509.027,83.668 0.434,-4.289"
           style="fill:none;stroke:#1a237e;stroke-width:4.28951;stroke-linecap:round;stroke-linejoin:miter;stroke-miterlimit:4;stroke-dasharray:none;stroke-opacity:1"
           id="path456" /></g><g
         id="g458"><path
           d="m 488.562,67.09 2.547,-2.66"
           style="fill:none;stroke:#1a237e;stroke-width:4.28951;stroke-linecap:round;stroke-linejoin:miter;stroke-miterlimit:4;stroke-dasharray:none;stroke-opacity:1"
           id="path460" /></g><g
         id="g462"><path
           d="m 497.805,75.156 3.668,-2.031"
           style="fill:none;stroke:#1a237e;stroke-width:4.28951;stroke-linecap:round;stroke-linejoin:miter;stroke-miterlimit:4;stroke-dasharray:none;stroke-opacity:1"
           id="path464" /></g><g
         id="g466"><path
           d="m 482.578,55.953 3.449,0.113"
           style="fill:none;stroke:#1a237e;stroke-width:4.28951;stroke-linecap:round;stroke-linejoin:miter;stroke-miterlimit:4;stroke-dasharray:none;stroke-opacity:1"
           id="path468" /></g><g
         id="g470"><path
           d="m 491.82,47.273 -3.461,-3.726"
           style="fill:none;stroke:#1a237e;stroke-width:4.28951;stroke-linecap:round;stroke-linejoin:miter;stroke-miterlimit:4;stroke-dasharray:none;stroke-opacity:1"
           id="path472" /></g><g
         id="g474"><path
           d="m 498.629,42.383 -0.231,-4.547"
           style="fill:none;stroke:#1a237e;stroke-width:4.28951;stroke-linecap:round;stroke-linejoin:miter;stroke-miterlimit:4;stroke-dasharray:none;stroke-opacity:1"
           id="path476" /></g><path
         style="fill:none;stroke:#373f8e;stroke-width:0.75px;stroke-linecap:butt;stroke-linejoin:miter;stroke-opacity:1"
         d="m 454.3179,176.61847 h 11.06209"
         id="path1078"
         inkscape:path-effect="#path-effect1080"
         inkscape:original-d="m 454.3179,176.61847 c 3.68812,7.5e-4 7.37548,7.5e-4 11.06209,0" /><path
         style="fill:none;stroke:#880e4f;stroke-width:0.75px;stroke-linecap:butt;stroke-linejoin:miter;stroke-opacity:1"
         d="m 424.60913,268.18132 h 11.06209"
         id="path1078-6"
         inkscape:path-effect="#path-effect1080-3"
         inkscape:original-d="m 424.60913,268.18132 c 3.68812,7.5e-4 7.37548,7.5e-4 11.06209,0" /><path
         style="fill:none;stroke:#373f8e;stroke-width:0.75px;stroke-linecap:butt;stroke-linejoin:miter;stroke-opacity:1"
         d="m 530.92589,176.61847 h 11.06209"
         id="path3418"
         inkscape:path-effect="#path-effect3422"
         inkscape:original-d="m 530.92589,176.61847 c 3.68812,7.5e-4 7.37548,7.5e-4 11.06209,0" /><path
         style="fill:none;stroke:#880e4f;stroke-width:0.648246px;stroke-linecap:butt;stroke-linejoin:miter;stroke-opacity:1"
         d="m 543.14395,277.5632 h 8.26407"
         id="path6383"
         inkscape:path-effect="#path-effect6387"
         inkscape:original-d="m 543.14395,277.5632 c 2.75526,7.5e-4 5.50994,7.5e-4 8.26407,0" /></g></g></svg>
