<?xml version="1.0" encoding="UTF-8" standalone="no"?>
<!-- Created with Inkscape (http://www.inkscape.org/) -->

<svg
   id="svg5"
   version="1.1"
   viewBox="0 0 381.59099 192.97127"
   height="192.97127mm"
   width="381.591mm"
   sodipodi:docname="intro90.svg"
   inkscape:version="1.2 (1:1.2+202205241504+da316b6974)"
   xmlns:inkscape="http://www.inkscape.org/namespaces/inkscape"
   xmlns:sodipodi="http://sodipodi.sourceforge.net/DTD/sodipodi-0.dtd"
   xmlns="http://www.w3.org/2000/svg"
   xmlns:svg="http://www.w3.org/2000/svg">
  <sodipodi:namedview
     id="namedview765"
     pagecolor="#ffffff"
     bordercolor="#666666"
     borderopacity="1.0"
     inkscape:pageshadow="2"
     inkscape:pageopacity="0.0"
     inkscape:pagecheckerboard="0"
     inkscape:document-units="mm"
     showgrid="false"
     inkscape:zoom="0.64582867"
     inkscape:cx="451.3581"
     inkscape:cy="260.13091"
     inkscape:window-width="1862"
     inkscape:window-height="1043"
     inkscape:window-x="1978"
     inkscape:window-y="0"
     inkscape:window-maximized="1"
     inkscape:current-layer="layer1"
     inkscape:showpageshadow="2"
     inkscape:deskcolor="#d1d1d1" />
  <defs
     id="defs2">
    <rect
       x="875.04262"
       y="886.52313"
       width="345.271"
       height="193.51613"
       id="rect158117" />
    <inkscape:path-effect
       effect="spiro"
       id="path-effect3314"
       is_visible="true"
       lpeversion="1" />
    <rect
       x="248.51833"
       y="356.18341"
       width="129.52347"
       height="142.11378"
       id="rect29511" />
    <marker
       style="overflow:visible"
       id="marker10411"
       refX="0"
       refY="0"
       orient="auto">
      <path
         transform="matrix(-0.3,0,0,-0.3,0.69,0)"
         d="M 8.7185878,4.0337352 -2.2072895,0.01601326 8.7185884,-4.0017078 c -1.7454984,2.3720609 -1.7354408,5.6174519 -6e-7,8.035443 z"
         style="fill:context-stroke;fill-rule:evenodd;stroke:context-stroke;stroke-width:0.625;stroke-linejoin:round"
         id="path10409" />
    </marker>
    <marker
       style="overflow:visible"
       id="marker10401"
       refX="0"
       refY="0"
       orient="auto">
      <path
         transform="matrix(-0.2,0,0,-0.2,-1.2,0)"
         style="fill:context-stroke;fill-rule:evenodd;stroke:context-stroke;stroke-width:1pt"
         d="M 0,0 5,-5 -12.5,0 5,5 Z"
         id="path10399" />
    </marker>
    <marker
       style="overflow:visible"
       id="Arrow1Send"
       refX="0"
       refY="0"
       orient="auto"
       viewBox="0 0 4.4434635 2.539122"
       markerWidth="4.4434633"
       markerHeight="2.5391221"
       preserveAspectRatio="xMidYMid">
      <path
         transform="matrix(-0.2,0,0,-0.2,-1.2,0)"
         style="fill:context-stroke;fill-rule:evenodd;stroke:context-stroke;stroke-width:1pt"
         d="M 0,0 5,-5 -12.5,0 5,5 Z"
         id="path3335" />
    </marker>
    <marker
       style="overflow:visible"
       id="Arrow2Sstart"
       refX="0"
       refY="0"
       orient="auto">
      <path
         transform="matrix(0.3,0,0,0.3,-0.69,0)"
         d="M 8.7185878,4.0337352 -2.2072895,0.01601326 8.7185884,-4.0017078 c -1.7454984,2.3720609 -1.7354408,5.6174519 -6e-7,8.035443 z"
         style="fill:context-stroke;fill-rule:evenodd;stroke:context-stroke;stroke-width:0.625;stroke-linejoin:round"
         id="path3350" />
    </marker>
    <marker
       style="overflow:visible"
       id="Arrow2Send"
       refX="0"
       refY="0"
       orient="auto">
      <path
         transform="matrix(-0.3,0,0,-0.3,0.69,0)"
         d="M 8.7185878,4.0337352 -2.2072895,0.01601326 8.7185884,-4.0017078 c -1.7454984,2.3720609 -1.7354408,5.6174519 -6e-7,8.035443 z"
         style="fill:context-stroke;fill-rule:evenodd;stroke:context-stroke;stroke-width:0.625;stroke-linejoin:round"
         id="path3353" />
    </marker>
    <marker
       style="overflow:visible"
       id="Arrow2Mend"
       refX="0"
       refY="0"
       orient="auto"
       viewBox="0 0 6.9304588 5.1962256"
       markerWidth="3"
       markerHeight="2.4000001"
       preserveAspectRatio="xMidYMid">
      <path
         transform="scale(-0.6)"
         d="M 8.7185878,4.0337352 -2.2072895,0.01601326 8.7185884,-4.0017078 c -1.7454984,2.3720609 -1.7354408,5.6174519 -6e-7,8.035443 z"
         style="fill:context-stroke;fill-rule:evenodd;stroke:context-stroke;stroke-width:0.625;stroke-linejoin:round"
         id="path3347" />
    </marker>
    <marker
       style="overflow:visible"
       id="Arrow2Lend"
       refX="0"
       refY="0"
       orient="auto">
      <path
         transform="matrix(-1.1,0,0,-1.1,-1.1,0)"
         d="M 8.7185878,4.0337352 -2.2072895,0.01601326 8.7185884,-4.0017078 c -1.7454984,2.3720609 -1.7354408,5.6174519 -6e-7,8.035443 z"
         style="fill:context-stroke;fill-rule:evenodd;stroke:context-stroke;stroke-width:0.625;stroke-linejoin:round"
         id="path3341" />
    </marker>
    <marker
       style="overflow:visible"
       id="marker10411-5"
       refX="0"
       refY="0"
       orient="auto">
      <path
         transform="matrix(-0.3,0,0,-0.3,0.69,0)"
         d="M 8.7185878,4.0337352 -2.2072895,0.01601326 8.7185884,-4.0017078 c -1.7454984,2.3720609 -1.7354408,5.6174519 -6e-7,8.035443 z"
         style="fill:context-stroke;fill-rule:evenodd;stroke:context-stroke;stroke-width:0.625;stroke-linejoin:round"
         id="path10409-6" />
    </marker>
    <marker
       style="overflow:visible"
       id="marker10411-9"
       refX="0"
       refY="0"
       orient="auto">
      <path
         transform="matrix(-0.3,0,0,-0.3,0.69,0)"
         d="M 8.7185878,4.0337352 -2.2072895,0.01601326 8.7185884,-4.0017078 c -1.7454984,2.3720609 -1.7354408,5.6174519 -6e-7,8.035443 z"
         style="fill:context-stroke;fill-rule:evenodd;stroke:context-stroke;stroke-width:0.625;stroke-linejoin:round"
         id="path10409-4" />
    </marker>
    <marker
       style="overflow:visible"
       id="marker10411-1"
       refX="0"
       refY="0"
       orient="auto">
      <path
         transform="matrix(-0.3,0,0,-0.3,0.69,0)"
         d="M 8.7185878,4.0337352 -2.2072895,0.01601326 8.7185884,-4.0017078 c -1.7454984,2.3720609 -1.7354408,5.6174519 -6e-7,8.035443 z"
         style="fill:context-stroke;fill-rule:evenodd;stroke:context-stroke;stroke-width:0.625;stroke-linejoin:round"
         id="path10409-2" />
    </marker>
    <marker
       style="overflow:visible"
       id="marker5795"
       refX="0"
       refY="0"
       orient="auto"
       viewBox="0 0 6.9304588 5.1962256"
       markerWidth="6.9304585"
       markerHeight="5.1962256"
       preserveAspectRatio="xMidYMid">
      <path
         transform="scale(-0.6)"
         d="M 8.7185878,4.0337352 -2.2072895,0.01601326 8.7185884,-4.0017078 c -1.7454984,2.3720609 -1.7354408,5.6174519 -6e-7,8.035443 z"
         style="fill:#000000;fill-opacity:1;fill-rule:evenodd;stroke:#000000;stroke-width:0.625;stroke-linejoin:round;stroke-opacity:1"
         id="path5793" />
    </marker>
    <marker
       style="overflow:visible"
       id="marker10411-7"
       refX="0"
       refY="0"
       orient="auto">
      <path
         transform="matrix(-0.3,0,0,-0.3,0.69,0)"
         d="M 8.7185878,4.0337352 -2.2072895,0.01601326 8.7185884,-4.0017078 c -1.7454984,2.3720609 -1.7354408,5.6174519 -6e-7,8.035443 z"
         style="fill:context-stroke;fill-rule:evenodd;stroke:context-stroke;stroke-width:0.625;stroke-linejoin:round"
         id="path10409-41" />
    </marker>
    <marker
       style="overflow:visible"
       id="marker10411-5-8"
       refX="0"
       refY="0"
       orient="auto">
      <path
         transform="matrix(-0.3,0,0,-0.3,0.69,0)"
         d="M 8.7185878,4.0337352 -2.2072895,0.01601326 8.7185884,-4.0017078 c -1.7454984,2.3720609 -1.7354408,5.6174519 -6e-7,8.035443 z"
         style="fill:context-stroke;fill-rule:evenodd;stroke:context-stroke;stroke-width:0.625;stroke-linejoin:round"
         id="path10409-6-5" />
    </marker>
    <marker
       style="overflow:visible"
       id="marker10411-9-9"
       refX="0"
       refY="0"
       orient="auto"
       viewBox="0 0 3.4652294 2.5981128"
       markerWidth="3.4652293"
       markerHeight="2.5981126"
       preserveAspectRatio="xMidYMid">
      <path
         transform="matrix(-0.3,0,0,-0.3,0.69,0)"
         d="M 8.7185878,4.0337352 -2.2072895,0.01601326 8.7185884,-4.0017078 c -1.7454984,2.3720609 -1.7354408,5.6174519 -6e-7,8.035443 z"
         style="fill:context-stroke;fill-rule:evenodd;stroke:context-stroke;stroke-width:0.625;stroke-linejoin:round"
         id="path10409-4-7" />
    </marker>
    <marker
       style="overflow:visible"
       id="marker10411-1-5"
       refX="0"
       refY="0"
       orient="auto">
      <path
         transform="matrix(-0.3,0,0,-0.3,0.69,0)"
         d="M 8.7185878,4.0337352 -2.2072895,0.01601326 8.7185884,-4.0017078 c -1.7454984,2.3720609 -1.7354408,5.6174519 -6e-7,8.035443 z"
         style="fill:context-stroke;fill-rule:evenodd;stroke:context-stroke;stroke-width:0.625;stroke-linejoin:round"
         id="path10409-2-3" />
    </marker>
    <marker
       style="overflow:visible"
       id="marker4257"
       refX="0"
       refY="0"
       orient="auto">
      <path
         transform="scale(0.6)"
         d="M 8.7185878,4.0337352 -2.2072895,0.01601326 8.7185884,-4.0017078 c -1.7454984,2.3720609 -1.7354408,5.6174519 -6e-7,8.035443 z"
         style="fill:#000000;fill-opacity:1;fill-rule:evenodd;stroke:#000000;stroke-width:0.625;stroke-linejoin:round;stroke-opacity:1"
         id="path4255" />
    </marker>
    <marker
       style="overflow:visible"
       id="marker5795-4"
       refX="0"
       refY="0"
       orient="auto">
      <path
         transform="scale(-0.6)"
         d="M 8.7185878,4.0337352 -2.2072895,0.01601326 8.7185884,-4.0017078 c -1.7454984,2.3720609 -1.7354408,5.6174519 -6e-7,8.035443 z"
         style="fill:#000000;fill-opacity:1;fill-rule:evenodd;stroke:#000000;stroke-width:0.625;stroke-linejoin:round;stroke-opacity:1"
         id="path5793-6" />
    </marker>
    <marker
       style="overflow:visible"
       id="marker5795-3"
       refX="0"
       refY="0"
       orient="auto">
      <path
         transform="scale(-0.6)"
         d="M 8.7185878,4.0337352 -2.2072895,0.01601326 8.7185884,-4.0017078 c -1.7454984,2.3720609 -1.7354408,5.6174519 -6e-7,8.035443 z"
         style="fill:#000000;fill-opacity:1;fill-rule:evenodd;stroke:#000000;stroke-width:0.625;stroke-linejoin:round;stroke-opacity:1"
         id="path5793-8" />
    </marker>
    <marker
       style="overflow:visible"
       id="marker4924"
       refX="0"
       refY="0"
       orient="auto">
      <path
         transform="matrix(-1.1,0,0,-1.1,-1.1,0)"
         d="M 8.7185878,4.0337352 -2.2072895,0.01601326 8.7185884,-4.0017078 c -1.7454984,2.3720609 -1.7354408,5.6174519 -6e-7,8.035443 z"
         style="fill:#000000;fill-opacity:1;fill-rule:evenodd;stroke:#000000;stroke-width:0.625;stroke-linejoin:round;stroke-opacity:1"
         id="path4922" />
    </marker>
    <marker
       style="overflow:visible"
       id="Arrow2Send-5"
       refX="0"
       refY="0"
       orient="auto">
      <path
         transform="matrix(-0.3,0,0,-0.3,0.69,0)"
         d="M 8.7185878,4.0337352 -2.2072895,0.01601326 8.7185884,-4.0017078 c -1.7454984,2.3720609 -1.7354408,5.6174519 -6e-7,8.035443 z"
         style="fill:context-stroke;fill-rule:evenodd;stroke:context-stroke;stroke-width:0.625;stroke-linejoin:round"
         id="path3353-6" />
    </marker>
    <marker
       style="overflow:visible"
       id="Arrow2Send-0"
       refX="0"
       refY="0"
       orient="auto">
      <path
         transform="matrix(-0.3,0,0,-0.3,0.69,0)"
         d="M 8.7185878,4.0337352 -2.2072895,0.01601326 8.7185884,-4.0017078 c -1.7454984,2.3720609 -1.7354408,5.6174519 -6e-7,8.035443 z"
         style="fill:context-stroke;fill-rule:evenodd;stroke:context-stroke;stroke-width:0.625;stroke-linejoin:round"
         id="path3353-63" />
    </marker>
    <marker
       style="overflow:visible"
       id="marker11818"
       refX="0"
       refY="0"
       orient="auto">
      <path
         transform="matrix(-0.2,0,0,-0.2,-1.2,0)"
         style="fill:#000000;fill-opacity:1;fill-rule:evenodd;stroke:#000000;stroke-width:1pt;stroke-opacity:1"
         d="M 0,0 5,-5 -12.5,0 5,5 Z"
         id="path11816" />
    </marker>
    <marker
       orient="auto"
       refY="0"
       refX="0"
       id="marker4979"
       style="overflow:visible">
      <path
         id="path4977"
         style="fill:#3f51b5;fill-opacity:1;fill-rule:evenodd;stroke:#3f51b5;stroke-width:0.625;stroke-linejoin:round;stroke-opacity:1"
         d="M 8.7185878,4.0337352 -2.2072895,0.01601326 8.7185884,-4.0017078 c -1.7454984,2.3720609 -1.7354408,5.6174519 -6e-7,8.035443 z"
         transform="matrix(-0.3,0,0,-0.3,0.69,0)" />
    </marker>
    <marker
       orient="auto"
       refY="0"
       refX="0"
       id="marker5127"
       style="overflow:visible">
      <path
         id="path5125"
         style="fill:#3f51b5;fill-opacity:1;fill-rule:evenodd;stroke:#3f51b5;stroke-width:0.625;stroke-linejoin:round;stroke-opacity:1"
         d="M 8.7185878,4.0337352 -2.2072895,0.01601326 8.7185884,-4.0017078 c -1.7454984,2.3720609 -1.7354408,5.6174519 -6e-7,8.035443 z"
         transform="matrix(-0.3,0,0,-0.3,0.69,0)" />
    </marker>
    <marker
       style="overflow:visible"
       id="Arrow2Send-5-7"
       refX="0"
       refY="0"
       orient="auto">
      <path
         transform="matrix(-0.3,0,0,-0.3,0.69,0)"
         d="M 8.7185878,4.0337352 -2.2072895,0.01601326 8.7185884,-4.0017078 c -1.7454984,2.3720609 -1.7354408,5.6174519 -6e-7,8.035443 z"
         style="fill:context-stroke;fill-rule:evenodd;stroke:context-stroke;stroke-width:0.625;stroke-linejoin:round"
         id="path3353-6-2" />
    </marker>
    <marker
       style="overflow:visible"
       id="Arrow2Send-06"
       refX="0"
       refY="0"
       orient="auto">
      <path
         transform="matrix(-0.3,0,0,-0.3,0.69,0)"
         d="M 8.7185878,4.0337352 -2.2072895,0.01601326 8.7185884,-4.0017078 c -1.7454984,2.3720609 -1.7354408,5.6174519 -6e-7,8.035443 z"
         style="fill:context-stroke;fill-rule:evenodd;stroke:context-stroke;stroke-width:0.625;stroke-linejoin:round"
         id="path3353-2" />
    </marker>
    <marker
       style="overflow:visible"
       id="Arrow2Send-9"
       refX="0"
       refY="0"
       orient="auto">
      <path
         transform="matrix(-0.3,0,0,-0.3,0.69,0)"
         d="M 8.7185878,4.0337352 -2.2072895,0.01601326 8.7185884,-4.0017078 c -1.7454984,2.3720609 -1.7354408,5.6174519 -6e-7,8.035443 z"
         style="fill:context-stroke;fill-rule:evenodd;stroke:context-stroke;stroke-width:0.625;stroke-linejoin:round"
         id="path3353-0" />
    </marker>
    <marker
       style="overflow:visible"
       id="Arrow1Send-8"
       refX="0"
       refY="0"
       orient="auto"
       viewBox="0 0 4.4434635 2.539122"
       markerWidth="4.4434633"
       markerHeight="2.5391221"
       preserveAspectRatio="xMidYMid">
      <path
         transform="matrix(-0.2,0,0,-0.2,-1.2,0)"
         style="fill:context-stroke;fill-rule:evenodd;stroke:context-stroke;stroke-width:1pt"
         d="M 0,0 5,-5 -12.5,0 5,5 Z"
         id="path3335-5" />
    </marker>
    <inkscape:path-effect
       effect="spiro"
       id="path-effect3314-9"
       is_visible="true"
       lpeversion="1" />
  </defs>
  <g
     id="layer1"
     transform="translate(172.85881,44.082714)">
    <rect
       style="fill:#ffffff;fill-opacity:1;stroke:none;stroke-width:0.21405;stroke-linecap:round;stroke-miterlimit:4;stroke-dasharray:0.428101, 0.428101;stroke-dashoffset:0;stroke-opacity:1"
       id="rect72170"
       width="381.591"
       height="192.97127"
       x="-172.85881"
       y="-44.082714" />
    <text
       xml:space="preserve"
       transform="scale(0.26458333)"
       id="text29509"
       style="font-size:40px;line-height:1.25;font-family:sans-serif;word-spacing:0px;white-space:pre;shape-inside:url(#rect29511);display:inline" />
    <g
       id="g925"
       transform="matrix(0.26458333,0,0,0.26458333,-105.11951,35.754436)" />
    <g
       id="g913"
       transform="matrix(0.26458333,0,0,0.26458333,-64.470579,20.172306)" />
    <g
       id="g928"
       transform="matrix(0.26458333,0,0,0.26458333,-65.184575,27.562187)" />
    <g
       id="g943"
       transform="matrix(0.26458333,0,0,0.26458333,-65.278946,34.179786)" />
    <g
       id="g895"
       transform="matrix(0.26458333,0,0,0.26458333,-64.402609,13.006913)" />
    <g
       id="g1003"
       transform="matrix(0.26458333,0,0,0.26458333,-49.403316,40.95154)" />
    <g
       aria-label="Simulator"
       id="text2642"
       style="font-size:9.87778px;line-height:1.25;font-family:sans-serif;stroke-width:0.264583"
       transform="matrix(0.46315689,0,0,0.46315689,-165.06929,246.60771)" />
    <g
       id="g1018"
       transform="matrix(0.26458333,0,0,0.26458333,-45.408297,47.600701)" />
    <g
       id="g910"
       transform="matrix(0.26458333,0,0,0.26458333,-99.673552,11.244992)" />
    <g
       aria-label="Efficient accurate and robust statistical inference for
deterministic and stochastic models of biochemical systems"
       id="text1207"
       style="font-size:8.46667px;line-height:1.25;text-align:center;word-spacing:0px;text-anchor:middle;fill:#121212;stroke-width:0.264583">
      <path
         d="m -89.806284,-41.738039 h 3.902606 v 0.7028 h -3.067514 v 1.827279 h 2.939357 v 0.7028 h -2.939357 v 2.236557 h 3.141928 v 0.702799 h -3.97702 z"
         id="path162272" />
      <path
         d="m -82.145766,-41.998488 v 0.632519 h -0.727605 q -0.409277,0 -0.570508,0.165365 -0.157096,0.165365 -0.157096,0.595313 v 0.409277 h 2.087729 v -0.322461 q 0,-0.77308 0.359668,-1.124479 0.115755,-0.115756 0.276986,-0.194304 0.322461,-0.16123 0.86403,-0.16123 h 0.719336 v 0.632519 h -0.727604 q -0.409278,0 -0.570508,0.165365 -0.157097,0.165365 -0.157097,0.595313 v 0.409277 h 2.85254 v 4.63021 h -0.764811 v -4.039031 h -2.087729 v 4.039031 h -0.764811 v -4.039031 h -2.087729 v 4.039031 h -0.764812 v -4.039031 h -0.727604 v -0.591179 h 0.727604 v -0.322461 q 0,-0.77308 0.359669,-1.124479 0.359668,-0.355534 1.141016,-0.355534 z m 3.48506,0.0083 h 0.764811 v 0.963249 h -0.764811 z"
         id="path162274" />
      <path
         d="m -72.972163,-40.018247 v 0.711068 q -0.322461,-0.177767 -0.649056,-0.264583 -0.322461,-0.09095 -0.65319,-0.09095 -0.740007,0 -1.149285,0.47129 -0.409277,0.467155 -0.409277,1.314649 0,0.847493 0.409277,1.318783 0.409278,0.467155 1.149285,0.467155 0.330729,0 0.65319,-0.08682 0.326595,-0.09095 0.649056,-0.268717 v 0.702799 q -0.318327,0.148829 -0.661458,0.223243 -0.338998,0.07441 -0.723471,0.07441 -1.045931,0 -1.661914,-0.657325 -0.615984,-0.657324 -0.615984,-1.773535 0,-1.132748 0.620118,-1.781805 0.624251,-0.649056 1.70739,-0.649056 0.3514,0 0.686263,0.07441 0.334864,0.07028 0.649056,0.214974 z"
         id="path162276" />
      <path
         d="m -71.649245,-40.196014 h 0.760677 v 4.63021 h -0.760677 z m 0,-1.802474 h 0.760677 v 0.963249 h -0.760677 z"
         id="path162278" />
      <path
         d="m -65.33645,-38.071078 v 0.37207 h -3.497462 q 0.04961,0.785483 0.471289,1.198894 0.425814,0.409278 1.182357,0.409278 0.438217,0 0.847494,-0.107487 0.413412,-0.107487 0.818555,-0.322461 v 0.719336 q -0.409277,0.173633 -0.839225,0.264583 -0.429949,0.09095 -0.872299,0.09095 -1.107943,0 -1.756999,-0.644922 -0.644923,-0.644922 -0.644923,-1.744597 0,-1.136882 0.61185,-1.802475 0.615983,-0.669727 1.65778,-0.669727 0.934311,0 1.47588,0.603581 0.545703,0.599447 0.545703,1.632976 z m -0.760677,-0.223242 q -0.0083,-0.624252 -0.3514,-0.996322 -0.338998,-0.372071 -0.901237,-0.372071 -0.636654,0 -1.021127,0.359668 -0.380339,0.359669 -0.438217,1.012859 z"
         id="path162280" />
      <path
         d="m -60.239085,-38.360466 v 2.794662 h -0.760677 v -2.769857 q 0,-0.657325 -0.256315,-0.98392 -0.256316,-0.326595 -0.768946,-0.326595 -0.615983,0 -0.971517,0.392741 -0.355534,0.392741 -0.355534,1.070736 v 2.616895 h -0.764812 v -4.63021 h 0.764812 v 0.719337 q 0.272851,-0.417546 0.640788,-0.624252 0.37207,-0.206706 0.855762,-0.206706 0.797884,0 1.207162,0.496094 0.409277,0.49196 0.409277,1.451075 z"
         id="path162282" />
      <path
         d="m -57.969455,-41.510663 v 1.314649 h 1.56683 v 0.591179 h -1.56683 v 2.513543 q 0,0.566374 0.152963,0.727604 0.157096,0.161231 0.632519,0.161231 h 0.781348 v 0.636653 h -0.781348 q -0.880566,0 -1.21543,-0.326595 -0.334863,-0.330729 -0.334863,-1.198893 v -2.513543 h -0.558106 v -0.591179 h 0.558106 v -1.314649 z"
         id="path162284" />
      <path
         d="m -50.606593,-37.893311 q -0.921908,0 -1.277442,0.21084 -0.355534,0.21084 -0.355534,0.719336 0,0.405144 0.264583,0.644922 0.268718,0.235645 0.727605,0.235645 0.63252,0 1.012858,-0.446485 0.384473,-0.450618 0.384473,-1.194759 v -0.169499 z m 1.51722,-0.314193 v 2.6417 h -0.760677 v -0.702799 q -0.260449,0.42168 -0.649056,0.624251 -0.388607,0.198438 -0.950847,0.198438 -0.711068,0 -1.132748,-0.396875 -0.417546,-0.40101 -0.417546,-1.070736 0,-0.781348 0.520899,-1.178224 0.525033,-0.396875 1.562696,-0.396875 h 1.066602 v -0.07441 q 0,-0.525033 -0.347266,-0.810287 -0.343131,-0.289388 -0.967383,-0.289388 -0.396875,0 -0.77308,0.09508 -0.376204,0.09508 -0.72347,0.285254 v -0.7028 q 0.417546,-0.16123 0.810287,-0.239779 0.392741,-0.08268 0.764811,-0.08268 1.004591,0 1.500684,0.520899 0.496094,0.520898 0.496094,1.579232 z"
         id="path162286" />
      <path
         d="m -44.190444,-40.018247 v 0.711068 q -0.322461,-0.177767 -0.649057,-0.264583 -0.322461,-0.09095 -0.65319,-0.09095 -0.740007,0 -1.149284,0.47129 -0.409278,0.467155 -0.409278,1.314649 0,0.847493 0.409278,1.318783 0.409277,0.467155 1.149284,0.467155 0.330729,0 0.65319,-0.08682 0.326596,-0.09095 0.649057,-0.268717 v 0.702799 q -0.318327,0.148829 -0.661459,0.223243 -0.338998,0.07441 -0.72347,0.07441 -1.045932,0 -1.661915,-0.657325 -0.615983,-0.657324 -0.615983,-1.773535 0,-1.132748 0.620117,-1.781805 0.624252,-0.649056 1.70739,-0.649056 0.3514,0 0.686263,0.07441 0.334864,0.07028 0.649057,0.214974 z"
         id="path162288" />
      <path
         d="m -39.53543,-40.018247 v 0.711068 q -0.322461,-0.177767 -0.649057,-0.264583 -0.322461,-0.09095 -0.65319,-0.09095 -0.740007,0 -1.149284,0.47129 -0.409278,0.467155 -0.409278,1.314649 0,0.847493 0.409278,1.318783 0.409277,0.467155 1.149284,0.467155 0.330729,0 0.65319,-0.08682 0.326596,-0.09095 0.649057,-0.268717 v 0.702799 q -0.318327,0.148829 -0.661459,0.223243 -0.338997,0.07441 -0.72347,0.07441 -1.045932,0 -1.661915,-0.657325 -0.615983,-0.657324 -0.615983,-1.773535 0,-1.132748 0.620117,-1.781805 0.624252,-0.649056 1.70739,-0.649056 0.3514,0 0.686263,0.07441 0.334864,0.07028 0.649057,0.214974 z"
         id="path162290" />
      <path
         d="m -38.291062,-37.393083 v -2.802931 h 0.760677 v 2.773992 q 0,0.657325 0.256315,0.988054 0.256316,0.326595 0.768946,0.326595 0.615983,0 0.971517,-0.392741 0.359668,-0.392741 0.359668,-1.070736 v -2.625164 h 0.760678 v 4.63021 h -0.760678 v -0.711068 q -0.276985,0.42168 -0.644922,0.628386 -0.363802,0.202572 -0.847494,0.202572 -0.797884,0 -1.211296,-0.496094 -0.413411,-0.496094 -0.413411,-1.451075 z m 1.914096,-2.914552 z"
         id="path162292" />
      <path
         d="m -30.163387,-39.484946 q -0.128158,-0.07441 -0.28112,-0.107487 -0.148829,-0.03721 -0.33073,-0.03721 -0.644922,0 -0.992188,0.42168 -0.343131,0.417546 -0.343131,1.203028 v 2.439128 h -0.764812 v -4.63021 h 0.764812 v 0.719337 q 0.239778,-0.42168 0.624251,-0.624252 0.384473,-0.206706 0.934311,-0.206706 0.07855,0 0.173632,0.0124 0.09509,0.0083 0.21084,0.02894 z"
         id="path162294" />
      <path
         d="m -27.261241,-37.893311 q -0.921908,0 -1.277442,0.21084 -0.355534,0.21084 -0.355534,0.719336 0,0.405144 0.264583,0.644922 0.268718,0.235645 0.727605,0.235645 0.63252,0 1.012858,-0.446485 0.384473,-0.450618 0.384473,-1.194759 v -0.169499 z m 1.517221,-0.314193 v 2.6417 h -0.760678 v -0.702799 q -0.260449,0.42168 -0.649056,0.624251 -0.388607,0.198438 -0.950847,0.198438 -0.711068,0 -1.132748,-0.396875 -0.417545,-0.40101 -0.417545,-1.070736 0,-0.781348 0.520898,-1.178224 0.525033,-0.396875 1.562696,-0.396875 h 1.066602 v -0.07441 q 0,-0.525033 -0.347266,-0.810287 -0.343131,-0.289388 -0.967383,-0.289388 -0.396875,0 -0.773079,0.09508 -0.376205,0.09508 -0.723471,0.285254 v -0.7028 q 0.417546,-0.16123 0.810287,-0.239779 0.392741,-0.08268 0.764811,-0.08268 1.004591,0 1.500685,0.520899 0.496094,0.520898 0.496094,1.579232 z"
         id="path162296" />
      <path
         d="m -23.424777,-41.510663 v 1.314649 h 1.56683 v 0.591179 h -1.56683 v 2.513543 q 0,0.566374 0.152962,0.727604 0.157097,0.161231 0.63252,0.161231 h 0.781348 v 0.636653 h -0.781348 q -0.880567,0 -1.21543,-0.326595 -0.334863,-0.330729 -0.334863,-1.198893 v -2.513543 h -0.558106 v -0.591179 h 0.558106 v -1.314649 z"
         id="path162298" />
      <path
         d="m -16.897008,-38.071078 v 0.37207 h -3.497463 q 0.04961,0.785483 0.47129,1.198894 0.425814,0.409278 1.182357,0.409278 0.438216,0 0.847494,-0.107487 0.413411,-0.107487 0.818555,-0.322461 v 0.719336 q -0.409278,0.173633 -0.839226,0.264583 -0.429948,0.09095 -0.872298,0.09095 -1.107943,0 -1.757,-0.644922 -0.644922,-0.644922 -0.644922,-1.744597 0,-1.136882 0.611849,-1.802475 0.615984,-0.669727 1.657781,-0.669727 0.93431,0 1.475879,0.603581 0.545704,0.599447 0.545704,1.632976 z m -0.760678,-0.223242 q -0.0083,-0.624252 -0.351399,-0.996322 -0.338998,-0.372071 -0.901238,-0.372071 -0.636654,0 -1.021127,0.359668 -0.380338,0.359669 -0.438216,1.012859 z"
         id="path162300" />
      <path
         d="m -10.852935,-37.893311 q -0.921908,0 -1.277442,0.21084 -0.355534,0.21084 -0.355534,0.719336 0,0.405144 0.264584,0.644922 0.268717,0.235645 0.727604,0.235645 0.63252,0 1.012859,-0.446485 0.384472,-0.450618 0.384472,-1.194759 v -0.169499 z m 1.5172207,-0.314193 v 2.6417 h -0.7606777 v -0.702799 q -0.260449,0.42168 -0.649056,0.624251 -0.388607,0.198438 -0.950847,0.198438 -0.711068,0 -1.132748,-0.396875 -0.417545,-0.40101 -0.417545,-1.070736 0,-0.781348 0.520898,-1.178224 0.525033,-0.396875 1.562696,-0.396875 h 1.066602 v -0.07441 q 0,-0.525033 -0.347265,-0.810287 -0.343132,-0.289388 -0.967384,-0.289388 -0.396875,0 -0.773079,0.09508 -0.376205,0.09508 -0.723471,0.285254 v -0.7028 q 0.417546,-0.16123 0.810287,-0.239779 0.392741,-0.08268 0.764812,-0.08268 1.00459,0 1.5006838,0.520899 0.4960939,0.520898 0.4960939,1.579232 z"
         id="path162302" />
      <path
         d="m -3.9200216,-38.360466 v 2.794662 h -0.7606773 v -2.769857 q 0,-0.657325 -0.2563152,-0.98392 -0.2563153,-0.326595 -0.7689457,-0.326595 -0.6159833,0 -0.9715173,0.392741 -0.355534,0.392741 -0.355534,1.070736 v 2.616895 h -0.7648115 v -4.63021 h 0.7648115 v 0.719337 q 0.2728517,-0.417546 0.640788,-0.624252 0.3720705,-0.206706 0.8557621,-0.206706 0.7978844,0 1.2071619,0.496094 0.4092775,0.49196 0.4092775,1.451075 z"
         id="path162304" />
      <path
         d="m 0.64404113,-39.493214 v -2.505274 H 1.4047185 v 6.432684 H 0.64404113 v -0.694531 q -0.23977874,0.413412 -0.60771508,0.615983 -0.36380223,0.198438 -0.87643264,0.198438 -0.83922561,0 -1.36839251,-0.669727 -0.5250327,-0.669727 -0.5250327,-1.761133 0,-1.091407 0.5250327,-1.761134 0.5291669,-0.669727 1.36839251,-0.669727 0.51263041,0 0.87643264,0.202572 0.36793634,0.198437 0.60771508,0.611849 z m -2.59209083,1.61644 q 0,0.839225 0.3431316,1.318783 0.3472658,0.475423 0.95084674,0.475423 0.60358097,0 0.95084673,-0.475423 0.34726576,-0.479558 0.34726576,-1.318783 0,-0.839226 -0.34726576,-1.314649 -0.34726576,-0.479558 -0.95084673,-0.479558 -0.60358094,0 -0.95084674,0.479558 -0.3431316,0.475423 -0.3431316,1.314649 z"
         id="path162306" />
      <path
         d="m 8.3459051,-39.484946 q -0.1281576,-0.07441 -0.2811199,-0.107487 -0.1488282,-0.03721 -0.3307293,-0.03721 -0.6449221,0 -0.9921879,0.42168 -0.3431316,0.417546 -0.3431316,1.203028 v 2.439128 H 5.6339249 v -4.63021 h 0.7648115 v 0.719337 q 0.2397787,-0.42168 0.6242515,-0.624252 0.3844728,-0.206706 0.9343103,-0.206706 0.078548,0 0.1736329,0.0124 0.095085,0.0083 0.2108399,0.02894 z"
         id="path162308" />
      <path
         d="m 10.751961,-39.662713 q -0.611849,0 -0.9673827,0.479558 -0.355534,0.475423 -0.355534,1.306381 0,0.830957 0.3513999,1.310514 0.3555338,0.475424 0.9715168,0.475424 0.607716,0 0.96325,-0.479558 0.355534,-0.479557 0.355534,-1.30638 0,-0.82269 -0.355534,-1.302247 -0.355534,-0.483692 -0.96325,-0.483692 z m 0,-0.644922 q 0.992188,0 1.558562,0.644922 0.566374,0.644922 0.566374,1.785939 0,1.136881 -0.566374,1.785938 -0.566374,0.644922 -1.558562,0.644922 -0.9963215,0 -1.5626955,-0.644922 -0.5622398,-0.649057 -0.5622398,-1.785938 0,-1.141017 0.5622398,-1.785939 0.566374,-0.644922 1.5626955,-0.644922 z"
         id="path162310" />
      <path
         d="m 17.461631,-37.876774 q 0,-0.839226 -0.347266,-1.314649 -0.343132,-0.479558 -0.946713,-0.479558 -0.603581,0 -0.950847,0.479558 -0.343131,0.475423 -0.343131,1.314649 0,0.839225 0.343131,1.318783 0.347266,0.475423 0.950847,0.475423 0.603581,0 0.946713,-0.475423 0.347266,-0.479558 0.347266,-1.318783 z m -2.587957,-1.61644 q 0.239779,-0.413412 0.603581,-0.611849 0.367936,-0.202572 0.876432,-0.202572 0.84336,0 1.368393,0.669727 0.529167,0.669727 0.529167,1.761134 0,1.091406 -0.529167,1.761133 -0.525033,0.669727 -1.368393,0.669727 -0.508496,0 -0.876432,-0.198438 -0.363802,-0.202571 -0.603581,-0.615983 v 0.694531 h -0.764812 v -6.432684 h 0.764812 z"
         id="path162312" />
      <path
         d="m 19.433604,-37.393083 v -2.802931 h 0.760678 v 2.773992 q 0,0.657325 0.256315,0.988054 0.256315,0.326595 0.768946,0.326595 0.615983,0 0.971517,-0.392741 0.359668,-0.392741 0.359668,-1.070736 v -2.625164 h 0.760677 v 4.63021 h -0.760677 v -0.711068 q -0.276986,0.42168 -0.644922,0.628386 -0.363802,0.202572 -0.847494,0.202572 -0.797884,0 -1.211296,-0.496094 -0.413412,-0.496094 -0.413412,-1.451075 z m 1.914096,-2.914552 z"
         id="path162314" />
      <path
         d="m 27.829993,-40.059588 v 0.719336 q -0.322461,-0.165364 -0.669727,-0.248047 -0.347266,-0.08268 -0.719336,-0.08268 -0.566374,0 -0.851628,0.173633 -0.28112,0.173633 -0.28112,0.520899 0,0.264583 0.202572,0.417545 0.202571,0.148829 0.814421,0.285254 l 0.260449,0.05788 q 0.810287,0.173633 1.149284,0.49196 0.343132,0.314193 0.343132,0.880567 0,0.644922 -0.512631,1.021126 -0.508496,0.376205 -1.401465,0.376205 -0.37207,0 -0.777214,-0.07441 -0.401009,-0.07028 -0.847494,-0.214974 v -0.785482 q 0.42168,0.219108 0.830958,0.330729 0.409277,0.107487 0.810286,0.107487 0.537436,0 0.826824,-0.181901 0.289388,-0.186035 0.289388,-0.520899 0,-0.310059 -0.21084,-0.475423 -0.206706,-0.165365 -0.91364,-0.318327 l -0.264583,-0.06201 q -0.706934,-0.148828 -1.021127,-0.454753 -0.314193,-0.310058 -0.314193,-0.847493 0,-0.653191 0.463021,-1.008725 0.463021,-0.355534 1.314649,-0.355534 0.42168,0 0.793751,0.06201 0.37207,0.06201 0.686263,0.186035 z"
         id="path162316" />
      <path
         d="m 30.041745,-41.510663 v 1.314649 h 1.56683 v 0.591179 h -1.56683 v 2.513543 q 0,0.566374 0.152963,0.727604 0.157096,0.161231 0.632519,0.161231 h 0.781348 v 0.636653 h -0.781348 q -0.880566,0 -1.21543,-0.326595 -0.334863,-0.330729 -0.334863,-1.198893 v -2.513543 h -0.558106 v -0.591179 h 0.558106 v -1.314649 z"
         id="path162318" />
      <path
         d="m 38.252097,-40.059588 v 0.719336 q -0.322461,-0.165364 -0.669727,-0.248047 -0.347266,-0.08268 -0.719336,-0.08268 -0.566374,0 -0.851628,0.173633 -0.28112,0.173633 -0.28112,0.520899 0,0.264583 0.202572,0.417545 0.202571,0.148829 0.81442,0.285254 l 0.26045,0.05788 q 0.810287,0.173633 1.149284,0.49196 0.343132,0.314193 0.343132,0.880567 0,0.644922 -0.512631,1.021126 -0.508496,0.376205 -1.401465,0.376205 -0.372071,0 -0.777214,-0.07441 -0.401009,-0.07028 -0.847494,-0.214974 v -0.785482 q 0.42168,0.219108 0.830958,0.330729 0.409277,0.107487 0.810286,0.107487 0.537435,0 0.826824,-0.181901 0.289388,-0.186035 0.289388,-0.520899 0,-0.310059 -0.21084,-0.475423 -0.206706,-0.165365 -0.91364,-0.318327 l -0.264583,-0.06201 q -0.706934,-0.148828 -1.021127,-0.454753 -0.314193,-0.310058 -0.314193,-0.847493 0,-0.653191 0.463021,-1.008725 0.463021,-0.355534 1.314649,-0.355534 0.42168,0 0.79375,0.06201 0.372071,0.06201 0.686264,0.186035 z"
         id="path162320" />
      <path
         d="m 40.463849,-41.510663 v 1.314649 h 1.56683 v 0.591179 h -1.56683 v 2.513543 q 0,0.566374 0.152962,0.727604 0.157097,0.161231 0.63252,0.161231 h 0.781348 v 0.636653 h -0.781348 q -0.880566,0 -1.21543,-0.326595 -0.334863,-0.330729 -0.334863,-1.198893 v -2.513543 h -0.558106 v -0.591179 h 0.558106 v -1.314649 z"
         id="path162322" />
      <path
         d="m 45.135407,-37.893311 q -0.921908,0 -1.277442,0.21084 -0.355534,0.21084 -0.355534,0.719336 0,0.405144 0.264584,0.644922 0.268717,0.235645 0.727604,0.235645 0.63252,0 1.012859,-0.446485 0.384473,-0.450618 0.384473,-1.194759 v -0.169499 z m 1.517221,-0.314193 v 2.6417 h -0.760677 v -0.702799 q -0.26045,0.42168 -0.649057,0.624251 -0.388607,0.198438 -0.950846,0.198438 -0.711068,0 -1.132748,-0.396875 -0.417546,-0.40101 -0.417546,-1.070736 0,-0.781348 0.520899,-1.178224 0.525032,-0.396875 1.562696,-0.396875 h 1.066602 v -0.07441 q 0,-0.525033 -0.347266,-0.810287 -0.343132,-0.289388 -0.967383,-0.289388 -0.396876,0 -0.77308,0.09508 -0.376205,0.09508 -0.72347,0.285254 v -0.7028 q 0.417545,-0.16123 0.810286,-0.239779 0.392741,-0.08268 0.764812,-0.08268 1.00459,0 1.500684,0.520899 0.496094,0.520898 0.496094,1.579232 z"
         id="path162324" />
      <path
         d="m 48.97186,-41.510663 v 1.314649 h 1.56683 v 0.591179 h -1.56683 v 2.513543 q 0,0.566374 0.152962,0.727604 0.157097,0.161231 0.63252,0.161231 h 0.781348 v 0.636653 h -0.781348 q -0.880567,0 -1.21543,-0.326595 -0.334863,-0.330729 -0.334863,-1.198893 v -2.513543 h -0.558106 v -0.591179 h 0.558106 v -1.314649 z"
         id="path162326" />
      <path
         d="m 51.539153,-40.196014 h 0.760677 v 4.63021 h -0.760677 z m 0,-1.802474 h 0.760677 v 0.963249 h -0.760677 z"
         id="path162328" />
      <path
         d="m 56.843222,-40.059588 v 0.719336 q -0.322461,-0.165364 -0.669727,-0.248047 -0.347265,-0.08268 -0.719336,-0.08268 -0.566374,0 -0.851628,0.173633 -0.28112,0.173633 -0.28112,0.520899 0,0.264583 0.202572,0.417545 0.202572,0.148829 0.814421,0.285254 l 0.260449,0.05788 q 0.810287,0.173633 1.149285,0.49196 0.343131,0.314193 0.343131,0.880567 0,0.644922 -0.51263,1.021126 -0.508497,0.376205 -1.401466,0.376205 -0.37207,0 -0.777213,-0.07441 -0.40101,-0.07028 -0.847494,-0.214974 v -0.785482 q 0.42168,0.219108 0.830957,0.330729 0.409278,0.107487 0.810287,0.107487 0.537435,0 0.826823,-0.181901 0.289388,-0.186035 0.289388,-0.520899 0,-0.310059 -0.21084,-0.475423 -0.206706,-0.165365 -0.913639,-0.318327 l -0.264584,-0.06201 q -0.706934,-0.148828 -1.021127,-0.454753 -0.314192,-0.310058 -0.314192,-0.847493 0,-0.653191 0.463021,-1.008725 0.463021,-0.355534 1.314649,-0.355534 0.421679,0 0.79375,0.06201 0.37207,0.06201 0.686263,0.186035 z"
         id="path162330" />
      <path
         d="m 59.054975,-41.510663 v 1.314649 h 1.56683 v 0.591179 h -1.56683 v 2.513543 q 0,0.566374 0.152962,0.727604 0.157096,0.161231 0.63252,0.161231 h 0.781348 v 0.636653 h -0.781348 q -0.880567,0 -1.21543,-0.326595 -0.334864,-0.330729 -0.334864,-1.198893 v -2.513543 h -0.558106 v -0.591179 h 0.558106 v -1.314649 z"
         id="path162332" />
      <path
         d="m 61.622252,-40.196014 h 0.760678 v 4.63021 h -0.760678 z m 0,-1.802474 h 0.760678 v 0.963249 h -0.760678 z"
         id="path162334" />
      <path
         d="m 67.30666,-40.018247 v 0.711068 q -0.322461,-0.177767 -0.649056,-0.264583 -0.322461,-0.09095 -0.65319,-0.09095 -0.740007,0 -1.149285,0.47129 -0.409277,0.467155 -0.409277,1.314649 0,0.847493 0.409277,1.318783 0.409278,0.467155 1.149285,0.467155 0.330729,0 0.65319,-0.08682 0.326595,-0.09095 0.649056,-0.268717 v 0.702799 q -0.318327,0.148829 -0.661458,0.223243 -0.338998,0.07441 -0.723471,0.07441 -1.045931,0 -1.661914,-0.657325 -0.615984,-0.657324 -0.615984,-1.773535 0,-1.132748 0.620118,-1.781805 0.624251,-0.649056 1.70739,-0.649056 0.3514,0 0.686263,0.07441 0.334863,0.07028 0.649056,0.214974 z"
         id="path162336" />
      <path
         d="m 70.733842,-37.893311 q -0.921908,0 -1.277442,0.21084 -0.355534,0.21084 -0.355534,0.719336 0,0.405144 0.264583,0.644922 0.268718,0.235645 0.727605,0.235645 0.63252,0 1.012858,-0.446485 0.384473,-0.450618 0.384473,-1.194759 v -0.169499 z m 1.51722,-0.314193 v 2.6417 h -0.760677 v -0.702799 q -0.260449,0.42168 -0.649056,0.624251 -0.388607,0.198438 -0.950847,0.198438 -0.711068,0 -1.132748,-0.396875 -0.417546,-0.40101 -0.417546,-1.070736 0,-0.781348 0.520899,-1.178224 0.525033,-0.396875 1.562696,-0.396875 h 1.066602 v -0.07441 q 0,-0.525033 -0.347266,-0.810287 -0.343131,-0.289388 -0.967383,-0.289388 -0.396875,0 -0.77308,0.09508 -0.376204,0.09508 -0.72347,0.285254 v -0.7028 q 0.417546,-0.16123 0.810287,-0.239779 0.392741,-0.08268 0.764811,-0.08268 1.004591,0 1.500684,0.520899 0.496094,0.520898 0.496094,1.579232 z"
         id="path162338" />
      <path
         d="m 73.817901,-41.998488 h 0.760677 v 6.432684 h -0.760677 z"
         id="path162340" />
      <path
         d="m 78.861525,-40.196014 h 0.760678 v 4.63021 h -0.760678 z m 0,-1.802474 h 0.760678 v 0.963249 h -0.760678 z"
         id="path162342" />
      <path
         d="m 85.062698,-38.360466 v 2.794662 H 84.30202 v -2.769857 q 0,-0.657325 -0.256315,-0.98392 -0.256315,-0.326595 -0.768945,-0.326595 -0.615984,0 -0.971518,0.392741 -0.355534,0.392741 -0.355534,1.070736 v 2.616895 h -0.764811 v -4.63021 h 0.764811 v 0.719337 q 0.272852,-0.417546 0.640788,-0.624252 0.372071,-0.206706 0.855762,-0.206706 0.797885,0 1.207162,0.496094 0.409278,0.49196 0.409278,1.451075 z"
         id="path162344" />
      <path
         d="m 88.923953,-41.998488 v 0.632519 h -0.727604 q -0.409278,0 -0.570508,0.165365 -0.157097,0.165365 -0.157097,0.595313 v 0.409277 h 1.252637 v 0.591179 h -1.252637 v 4.039031 h -0.764811 v -4.039031 h -0.727605 v -0.591179 h 0.727605 v -0.322461 q 0,-0.77308 0.359668,-1.124479 0.359668,-0.355534 1.141016,-0.355534 z"
         id="path162346" />
      <path
         d="m 93.52109,-38.071078 v 0.37207 h -3.497462 q 0.04961,0.785483 0.471289,1.198894 0.425814,0.409278 1.182357,0.409278 0.438217,0 0.847494,-0.107487 0.413412,-0.107487 0.818555,-0.322461 v 0.719336 q -0.409277,0.173633 -0.839225,0.264583 -0.429948,0.09095 -0.872299,0.09095 -1.107943,0 -1.756999,-0.644922 -0.644922,-0.644922 -0.644922,-1.744597 0,-1.136882 0.611849,-1.802475 0.615983,-0.669727 1.65778,-0.669727 0.934311,0 1.47588,0.603581 0.545703,0.599447 0.545703,1.632976 z m -0.760677,-0.223242 q -0.0083,-0.624252 -0.3514,-0.996322 -0.338998,-0.372071 -0.901237,-0.372071 -0.636654,0 -1.021127,0.359668 -0.380339,0.359669 -0.438216,1.012859 z"
         id="path162348" />
      <path
         d="m 97.452648,-39.484946 q -0.128158,-0.07441 -0.28112,-0.107487 -0.148828,-0.03721 -0.330729,-0.03721 -0.644922,0 -0.992188,0.42168 -0.343132,0.417546 -0.343132,1.203028 v 2.439128 h -0.764811 v -4.63021 h 0.764811 v 0.719337 q 0.239779,-0.42168 0.624252,-0.624252 0.384473,-0.206706 0.93431,-0.206706 0.07855,0 0.173633,0.0124 0.09508,0.0083 0.21084,0.02894 z"
         id="path162350" />
      <path
         d="m 102.02498,-38.071078 v 0.37207 h -3.497461 q 0.04961,0.785483 0.471289,1.198894 0.425814,0.409278 1.182362,0.409278 0.43821,0 0.84749,-0.107487 0.41341,-0.107487 0.81855,-0.322461 v 0.719336 q -0.40927,0.173633 -0.83922,0.264583 -0.42995,0.09095 -0.8723,0.09095 -1.107943,0 -1.756999,-0.644922 -0.644922,-0.644922 -0.644922,-1.744597 0,-1.136882 0.611849,-1.802475 0.615983,-0.669727 1.657782,-0.669727 0.93431,0 1.47588,0.603581 0.5457,0.599447 0.5457,1.632976 z m -0.76068,-0.223242 q -0.008,-0.624252 -0.3514,-0.996322 -0.33899,-0.372071 -0.90123,-0.372071 -0.636657,0 -1.02113,0.359668 -0.380339,0.359669 -0.438216,1.012859 z"
         id="path162352" />
      <path
         d="m 107.12234,-38.360466 v 2.794662 h -0.76067 v -2.769857 q 0,-0.657325 -0.25632,-0.98392 -0.25631,-0.326595 -0.76894,-0.326595 -0.61599,0 -0.97152,0.392741 -0.35554,0.392741 -0.35554,1.070736 v 2.616895 h -0.76481 v -4.63021 h 0.76481 v 0.719337 q 0.27286,-0.417546 0.64079,-0.624252 0.37207,-0.206706 0.85577,-0.206706 0.79788,0 1.20716,0.496094 0.40927,0.49196 0.40927,1.451075 z"
         id="path162354" />
      <path
         d="m 111.97165,-40.018247 v 0.711068 q -0.32246,-0.177767 -0.64905,-0.264583 -0.32246,-0.09095 -0.65319,-0.09095 -0.74001,0 -1.14929,0.47129 -0.40927,0.467155 -0.40927,1.314649 0,0.847493 0.40927,1.318783 0.40928,0.467155 1.14929,0.467155 0.33073,0 0.65319,-0.08682 0.32659,-0.09095 0.64905,-0.268717 v 0.702799 q -0.31832,0.148829 -0.66146,0.223243 -0.33899,0.07441 -0.72347,0.07441 -1.04593,0 -1.66191,-0.657325 -0.61598,-0.657324 -0.61598,-1.773535 0,-1.132748 0.62011,-1.781805 0.62426,-0.649056 1.70739,-0.649056 0.3514,0 0.68627,0.07441 0.33486,0.07028 0.64905,0.214974 z"
         id="path162356" />
      <path
         d="m 117.25505,-38.071078 v 0.37207 h -3.49746 q 0.0496,0.785483 0.47129,1.198894 0.42581,0.409278 1.18236,0.409278 0.43821,0 0.84749,-0.107487 0.41341,-0.107487 0.81856,-0.322461 v 0.719336 q -0.40928,0.173633 -0.83923,0.264583 -0.42995,0.09095 -0.8723,0.09095 -1.10794,0 -1.757,-0.644922 -0.64492,-0.644922 -0.64492,-1.744597 0,-1.136882 0.61185,-1.802475 0.61598,-0.669727 1.65778,-0.669727 0.93431,0 1.47588,0.603581 0.5457,0.599447 0.5457,1.632976 z m -0.76067,-0.223242 q -0.008,-0.624252 -0.3514,-0.996322 -0.339,-0.372071 -0.90124,-0.372071 -0.63666,0 -1.02113,0.359668 -0.38034,0.359669 -0.43821,1.012859 z"
         id="path162358" />
      <path
         d="m 123.53891,-41.998488 v 0.632519 h -0.7276 q -0.40928,0 -0.57051,0.165365 -0.1571,0.165365 -0.1571,0.595313 v 0.409277 h 1.25264 v 0.591179 h -1.25264 v 4.039031 h -0.76481 v -4.039031 h -0.7276 v -0.591179 h 0.7276 v -0.322461 q 0,-0.77308 0.35967,-1.124479 0.35967,-0.355534 1.14102,-0.355534 z"
         id="path162360" />
      <path
         d="m 125.96977,-39.662713 q -0.61185,0 -0.96738,0.479558 -0.35553,0.475423 -0.35553,1.306381 0,0.830957 0.3514,1.310514 0.35553,0.475424 0.97151,0.475424 0.60772,0 0.96325,-0.479558 0.35554,-0.479557 0.35554,-1.30638 0,-0.82269 -0.35554,-1.302247 -0.35553,-0.483692 -0.96325,-0.483692 z m 0,-0.644922 q 0.99219,0 1.55856,0.644922 0.56638,0.644922 0.56638,1.785939 0,1.136881 -0.56638,1.785938 -0.56637,0.644922 -1.55856,0.644922 -0.99632,0 -1.56269,-0.644922 -0.56224,-0.649057 -0.56224,-1.785938 0,-1.141017 0.56224,-1.785939 0.56637,-0.644922 1.56269,-0.644922 z"
         id="path162362" />
      <path
         d="m 132.03866,-39.484946 q -0.12816,-0.07441 -0.28112,-0.107487 -0.14883,-0.03721 -0.33073,-0.03721 -0.64492,0 -0.99219,0.42168 -0.34313,0.417546 -0.34313,1.203028 v 2.439128 h -0.76481 v -4.63021 h 0.76481 v 0.719337 q 0.23978,-0.42168 0.62425,-0.624252 0.38448,-0.206706 0.93431,-0.206706 0.0786,0 0.17364,0.0124 0.0951,0.0083 0.21084,0.02894 z"
         id="path162364" />
      <path
         d="m -103.11607,-28.909876 v -2.505275 h 0.76068 v 6.432685 h -0.76068 v -0.694532 q -0.23978,0.413412 -0.60772,0.615984 -0.3638,0.198437 -0.87643,0.198437 -0.83922,0 -1.36839,-0.669726 -0.52503,-0.669727 -0.52503,-1.761134 0,-1.091407 0.52503,-1.761133 0.52917,-0.669727 1.36839,-0.669727 0.51263,0 0.87643,0.202571 0.36794,0.198438 0.60772,0.61185 z m -2.59209,1.616439 q 0,0.839226 0.34313,1.318783 0.34727,0.475423 0.95085,0.475423 0.60358,0 0.95084,-0.475423 0.34727,-0.479557 0.34727,-1.318783 0,-0.839226 -0.34727,-1.314649 -0.34726,-0.479557 -0.95084,-0.479557 -0.60358,0 -0.95085,0.479557 -0.34313,0.475423 -0.34313,1.314649 z"
         id="path162366" />
      <path
         d="m -96.82808,-27.48774 v 0.37207 h -3.49746 q 0.0496,0.785482 0.471287,1.198894 0.425814,0.409277 1.182357,0.409277 0.438216,0 0.847494,-0.107487 0.413412,-0.107487 0.818555,-0.322461 v 0.719336 q -0.409278,0.173633 -0.839226,0.264584 -0.429948,0.09095 -0.872298,0.09095 -1.107943,0 -1.756999,-0.644922 -0.64492,-0.644922 -0.64492,-1.744597 0,-1.136882 0.61185,-1.802474 0.61598,-0.669727 1.657777,-0.669727 0.93431,0 1.47588,0.603581 0.545703,0.599447 0.545703,1.632976 z m -0.760677,-0.223243 q -0.0083,-0.624251 -0.3514,-0.996322 -0.338998,-0.37207 -0.901238,-0.37207 -0.636654,0 -1.021126,0.359668 -0.380339,0.359668 -0.438219,1.012858 z"
         id="path162368" />
      <path
         d="m -94.827167,-30.927325 v 1.314649 h 1.56683 v 0.591178 h -1.56683 v 2.513543 q 0,0.566374 0.152962,0.727605 0.157096,0.16123 0.63252,0.16123 h 0.781348 v 0.636654 h -0.781348 q -0.880567,0 -1.215431,-0.326595 -0.334863,-0.330729 -0.334863,-1.198894 v -2.513543 h -0.558106 v -0.591178 h 0.558106 v -1.314649 z"
         id="path162370" />
      <path
         d="m -88.299399,-27.48774 v 0.37207 h -3.497462 q 0.04961,0.785482 0.471289,1.198894 0.425814,0.409277 1.182357,0.409277 0.438217,0 0.847494,-0.107487 0.413412,-0.107487 0.818555,-0.322461 v 0.719336 q -0.409277,0.173633 -0.839225,0.264584 -0.429948,0.09095 -0.872299,0.09095 -1.107943,0 -1.756999,-0.644922 -0.644922,-0.644922 -0.644922,-1.744597 0,-1.136882 0.611849,-1.802474 0.615983,-0.669727 1.65778,-0.669727 0.934311,0 1.47588,0.603581 0.545703,0.599447 0.545703,1.632976 z m -0.760677,-0.223243 q -0.0083,-0.624251 -0.3514,-0.996322 -0.338998,-0.37207 -0.901237,-0.37207 -0.636654,0 -1.021127,0.359668 -0.380339,0.359668 -0.438216,1.012858 z"
         id="path162372" />
      <path
         d="m -84.367854,-28.901608 q -0.128158,-0.07441 -0.28112,-0.107487 -0.148828,-0.03721 -0.33073,-0.03721 -0.644922,0 -0.992187,0.42168 -0.343132,0.417545 -0.343132,1.203027 v 2.439129 h -0.764812 v -4.63021 h 0.764812 v 0.719336 q 0.239779,-0.42168 0.624251,-0.624251 0.384473,-0.206706 0.934311,-0.206706 0.07855,0 0.173633,0.0124 0.09508,0.0083 0.210839,0.02894 z"
         id="path162374" />
      <path
         d="m -80.113848,-28.723841 q 0.285254,-0.512631 0.682129,-0.756543 0.396875,-0.243913 0.93431,-0.243913 0.72347,0 1.116211,0.508496 0.392741,0.504362 0.392741,1.438672 v 2.794663 h -0.764811 v -2.769858 q 0,-0.665593 -0.235645,-0.988054 -0.235644,-0.322461 -0.719336,-0.322461 -0.591179,0 -0.93431,0.392741 -0.343132,0.392741 -0.343132,1.070736 v 2.616896 h -0.764811 v -2.769858 q 0,-0.669727 -0.235645,-0.988054 -0.235645,-0.322461 -0.727604,-0.322461 -0.582911,0 -0.926042,0.396875 -0.343132,0.392741 -0.343132,1.066602 v 2.616896 h -0.764812 v -4.63021 h 0.764812 v 0.719336 q 0.260449,-0.425814 0.624251,-0.628386 0.363803,-0.202571 0.864031,-0.202571 0.504362,0 0.855762,0.256315 0.355534,0.256315 0.525033,0.744141 z"
         id="path162376" />
      <path
         d="m -75.471237,-29.612676 h 0.760677 v 4.63021 h -0.760677 z m 0,-1.802475 h 0.760677 v 0.963249 h -0.760677 z"
         id="path162378" />
      <path
         d="m -69.270061,-27.777129 v 2.794663 h -0.760678 v -2.769858 q 0,-0.657324 -0.256315,-0.98392 -0.256315,-0.326595 -0.768945,-0.326595 -0.615984,0 -0.971518,0.392741 -0.355534,0.392741 -0.355534,1.070736 v 2.616896 h -0.764811 v -4.63021 h 0.764811 v 0.719336 q 0.272852,-0.417546 0.640788,-0.624251 0.372071,-0.206706 0.855762,-0.206706 0.797885,0 1.207162,0.496094 0.409278,0.491959 0.409278,1.451074 z"
         id="path162380" />
      <path
         d="m -67.752842,-29.612676 h 0.760677 v 4.63021 h -0.760677 z m 0,-1.802475 h 0.760677 v 0.963249 h -0.760677 z"
         id="path162382" />
      <path
         d="m -62.448769,-29.47625 v 0.719336 q -0.322461,-0.165365 -0.669727,-0.248047 -0.347266,-0.08268 -0.719336,-0.08268 -0.566374,0 -0.851628,0.173632 -0.28112,0.173633 -0.28112,0.520899 0,0.264584 0.202572,0.417546 0.202571,0.148828 0.814421,0.285254 l 0.260449,0.05788 q 0.810287,0.173632 1.149284,0.491959 0.343132,0.314193 0.343132,0.880567 0,0.644922 -0.512631,1.021127 -0.508496,0.376204 -1.401465,0.376204 -0.37207,0 -0.777214,-0.07441 -0.401009,-0.07028 -0.847494,-0.214974 v -0.785482 q 0.42168,0.219108 0.830958,0.330729 0.409277,0.107487 0.810287,0.107487 0.537435,0 0.826823,-0.181901 0.289388,-0.186035 0.289388,-0.520898 0,-0.310059 -0.21084,-0.475424 -0.206706,-0.165364 -0.91364,-0.318327 l -0.264583,-0.06201 q -0.706934,-0.148829 -1.021127,-0.454753 -0.314193,-0.310059 -0.314193,-0.847494 0,-0.65319 0.463021,-1.008724 0.463021,-0.355534 1.314649,-0.355534 0.42168,0 0.793751,0.06201 0.37207,0.06201 0.686263,0.186036 z"
         id="path162384" />
      <path
         d="m -60.23702,-30.927325 v 1.314649 h 1.56683 v 0.591178 h -1.56683 v 2.513543 q 0,0.566374 0.152962,0.727605 0.157096,0.16123 0.63252,0.16123 h 0.781348 v 0.636654 h -0.781348 q -0.880567,0 -1.215431,-0.326595 -0.334863,-0.330729 -0.334863,-1.198894 v -2.513543 h -0.558106 v -0.591178 h 0.558106 v -1.314649 z"
         id="path162386" />
      <path
         d="m -57.669731,-29.612676 h 0.760677 v 4.63021 h -0.760677 z m 0,-1.802475 h 0.760677 v 0.963249 h -0.760677 z"
         id="path162388" />
      <path
         d="m -51.985323,-29.434909 v 0.711068 q -0.322461,-0.177767 -0.649057,-0.264584 -0.322461,-0.09095 -0.65319,-0.09095 -0.740007,0 -1.149284,0.471289 -0.409278,0.467155 -0.409278,1.314649 0,0.847494 0.409278,1.318783 0.409277,0.467155 1.149284,0.467155 0.330729,0 0.65319,-0.08682 0.326596,-0.09095 0.649057,-0.268718 v 0.7028 q -0.318327,0.148828 -0.661459,0.223242 -0.338998,0.07441 -0.72347,0.07441 -1.045932,0 -1.661915,-0.657324 -0.615983,-0.657325 -0.615983,-1.773536 0,-1.132748 0.620117,-1.781804 0.624252,-0.649056 1.70739,-0.649056 0.3514,0 0.686263,0.07441 0.334864,0.07028 0.649057,0.214974 z"
         id="path162390" />
      <path
         d="m -45.866831,-27.309973 q -0.921908,0 -1.277442,0.21084 -0.355534,0.210839 -0.355534,0.719336 0,0.405143 0.264584,0.644922 0.268717,0.235644 0.727604,0.235644 0.63252,0 1.012858,-0.446484 0.384473,-0.450619 0.384473,-1.19476 v -0.169498 z m 1.517221,-0.314193 v 2.6417 h -0.760678 v -0.7028 q -0.260449,0.42168 -0.649056,0.624252 -0.388607,0.198437 -0.950847,0.198437 -0.711068,0 -1.132748,-0.396875 -0.417545,-0.401009 -0.417545,-1.070736 0,-0.781348 0.520898,-1.178223 0.525033,-0.396875 1.562696,-0.396875 h 1.066602 v -0.07441 q 0,-0.525033 -0.347266,-0.810287 -0.343131,-0.289388 -0.967383,-0.289388 -0.396875,0 -0.773079,0.09508 -0.376205,0.09508 -0.723471,0.285254 v -0.7028 q 0.417546,-0.161231 0.810287,-0.239779 0.392741,-0.08268 0.764812,-0.08268 1.00459,0 1.500684,0.520898 0.496094,0.520899 0.496094,1.579233 z"
         id="path162392" />
      <path
         d="m -38.933918,-27.777129 v 2.794663 h -0.760677 v -2.769858 q 0,-0.657324 -0.256315,-0.98392 -0.256315,-0.326595 -0.768946,-0.326595 -0.615983,0 -0.971517,0.392741 -0.355534,0.392741 -0.355534,1.070736 v 2.616896 h -0.764812 v -4.63021 h 0.764812 v 0.719336 q 0.272852,-0.417546 0.640788,-0.624251 0.37207,-0.206706 0.855762,-0.206706 0.797884,0 1.207162,0.496094 0.409277,0.491959 0.409277,1.451074 z"
         id="path162394" />
      <path
         d="m -34.369855,-28.909876 v -2.505275 h 0.760677 v 6.432685 h -0.760677 v -0.694532 q -0.239779,0.413412 -0.607715,0.615984 -0.363802,0.198437 -0.876433,0.198437 -0.839225,0 -1.368392,-0.669726 -0.525033,-0.669727 -0.525033,-1.761134 0,-1.091407 0.525033,-1.761133 0.529167,-0.669727 1.368392,-0.669727 0.512631,0 0.876433,0.202571 0.367936,0.198438 0.607715,0.61185 z m -2.592091,1.616439 q 0,0.839226 0.343132,1.318783 0.347266,0.475423 0.950847,0.475423 0.603581,0 0.950846,-0.475423 0.347266,-0.479557 0.347266,-1.318783 0,-0.839226 -0.347266,-1.314649 -0.347265,-0.479557 -0.950846,-0.479557 -0.603581,0 -0.950847,0.479557 -0.343132,0.475423 -0.343132,1.314649 z"
         id="path162396" />
      <path
         d="m -26.399281,-29.47625 v 0.719336 q -0.322461,-0.165365 -0.669727,-0.248047 -0.347266,-0.08268 -0.719336,-0.08268 -0.566374,0 -0.851628,0.173632 -0.28112,0.173633 -0.28112,0.520899 0,0.264584 0.202572,0.417546 0.202571,0.148828 0.814421,0.285254 l 0.260449,0.05788 q 0.810287,0.173632 1.149284,0.491959 0.343132,0.314193 0.343132,0.880567 0,0.644922 -0.51263,1.021127 -0.508497,0.376204 -1.401466,0.376204 -0.37207,0 -0.777214,-0.07441 -0.401009,-0.07028 -0.847494,-0.214974 v -0.785482 q 0.42168,0.219108 0.830958,0.330729 0.409277,0.107487 0.810287,0.107487 0.537435,0 0.826823,-0.181901 0.289388,-0.186035 0.289388,-0.520898 0,-0.310059 -0.21084,-0.475424 -0.206706,-0.165364 -0.91364,-0.318327 l -0.264583,-0.06201 q -0.706934,-0.148829 -1.021127,-0.454753 -0.314193,-0.310059 -0.314193,-0.847494 0,-0.65319 0.463021,-1.008724 0.463021,-0.355534 1.314649,-0.355534 0.42168,0 0.793751,0.06201 0.37207,0.06201 0.686263,0.186036 z"
         id="path162398" />
      <path
         d="m -24.187529,-30.927325 v 1.314649 h 1.56683 v 0.591178 h -1.56683 v 2.513543 q 0,0.566374 0.152963,0.727605 0.157096,0.16123 0.63252,0.16123 h 0.781347 v 0.636654 h -0.781347 q -0.880567,0 -1.215431,-0.326595 -0.334863,-0.330729 -0.334863,-1.198894 v -2.513543 h -0.558106 v -0.591178 h 0.558106 v -1.314649 z"
         id="path162400" />
      <path
         d="m -19.826029,-29.079375 q -0.611849,0 -0.967383,0.479557 -0.355534,0.475424 -0.355534,1.306381 0,0.830957 0.3514,1.310515 0.355534,0.475423 0.971517,0.475423 0.607715,0 0.963249,-0.479557 0.355534,-0.479558 0.355534,-1.306381 0,-0.822689 -0.355534,-1.302247 -0.355534,-0.483691 -0.963249,-0.483691 z m 0,-0.644922 q 0.992188,0 1.558562,0.644922 0.566374,0.644922 0.566374,1.785938 0,1.136882 -0.566374,1.785938 -0.566374,0.644922 -1.558562,0.644922 -0.996322,0 -1.562696,-0.644922 -0.56224,-0.649056 -0.56224,-1.785938 0,-1.141016 0.56224,-1.785938 0.566374,-0.644922 1.562696,-0.644922 z"
         id="path162402" />
      <path
         d="m -13.108092,-29.434909 v 0.711068 q -0.322461,-0.177767 -0.649056,-0.264584 -0.322461,-0.09095 -0.65319,-0.09095 -0.740007,0 -1.149285,0.471289 -0.409277,0.467155 -0.409277,1.314649 0,0.847494 0.409277,1.318783 0.409278,0.467155 1.149285,0.467155 0.330729,0 0.65319,-0.08682 0.326595,-0.09095 0.649056,-0.268718 v 0.7028 q -0.318327,0.148828 -0.661458,0.223242 -0.338998,0.07441 -0.723471,0.07441 -1.045931,0 -1.661914,-0.657324 -0.615984,-0.657325 -0.615984,-1.773536 0,-1.132748 0.620118,-1.781804 0.624251,-0.649056 1.70739,-0.649056 0.3514,0 0.686263,0.07441 0.334863,0.07028 0.649056,0.214974 z"
         id="path162404" />
      <path
         d="m -7.9363133,-27.777129 v 2.794663 h -0.7606773 v -2.769858 q 0,-0.657324 -0.2563152,-0.98392 -0.2563152,-0.326595 -0.7689457,-0.326595 -0.6159835,0 -0.9715175,0.392741 -0.355534,0.392741 -0.355534,1.070736 v 2.616896 h -0.764811 v -6.432685 h 0.764811 v 2.521811 q 0.272852,-0.417546 0.640788,-0.624251 0.372071,-0.206706 0.8557623,-0.206706 0.7978844,0 1.2071619,0.496094 0.4092775,0.491959 0.4092775,1.451074 z"
         id="path162406" />
      <path
         d="m -4.3148291,-27.309973 q -0.9219079,0 -1.2774419,0.21084 -0.355534,0.210839 -0.355534,0.719336 0,0.405143 0.2645835,0.644922 0.2687175,0.235644 0.7276044,0.235644 0.6325198,0 1.0128585,-0.446484 0.3844728,-0.450619 0.3844728,-1.19476 v -0.169498 z m 1.5172207,-0.314193 v 2.6417 h -0.7606774 v -0.7028 q -0.2604493,0.42168 -0.6490562,0.624252 -0.388607,0.198437 -0.9508468,0.198437 -0.711068,0 -1.1327478,-0.396875 -0.4175458,-0.401009 -0.4175458,-1.070736 0,-0.781348 0.5208987,-1.178223 0.5250327,-0.396875 1.5626959,-0.396875 h 1.066602 v -0.07441 q 0,-0.525033 -0.3472658,-0.810287 -0.3431316,-0.289388 -0.9673832,-0.289388 -0.3968751,0 -0.7730797,0.09508 -0.3762046,0.09508 -0.7234703,0.285254 v -0.7028 q 0.4175457,-0.161231 0.8102868,-0.239779 0.392741,-0.08268 0.7648115,-0.08268 1.0045902,0 1.5006841,0.520898 0.496094,0.520899 0.496094,1.579233 z"
         id="path162408" />
      <path
         d="m 1.7209811,-29.47625 v 0.719336 q -0.3224611,-0.165365 -0.6697268,-0.248047 -0.34726578,-0.08268 -0.71933624,-0.08268 -0.56637393,0 -0.85162795,0.173632 -0.2811199,0.173633 -0.2811199,0.520899 0,0.264584 0.2025717,0.417546 0.20257169,0.148828 0.81442089,0.285254 l 0.26044933,0.05788 q 0.81028677,0.173632 1.14928427,0.491959 0.3431317,0.314193 0.3431317,0.880567 0,0.644922 -0.5126304,1.021127 -0.50849632,0.376204 -1.40146543,0.376204 -0.37207046,0 -0.77721385,-0.07441 -0.40100932,-0.07028 -0.84749382,-0.214974 v -0.785482 q 0.4216798,0.219108 0.83095735,0.330729 0.40927751,0.107487 0.81028679,0.107487 0.5374351,0 0.82682324,-0.181901 0.28938812,-0.186035 0.28938812,-0.520898 0,-0.310059 -0.21083991,-0.475424 -0.20670581,-0.165364 -0.91363969,-0.318327 l -0.26458344,-0.06201 q -0.70693387,-0.148829 -1.02112666,-0.454753 -0.3141929,-0.310059 -0.3141929,-0.847494 0,-0.65319 0.463021,-1.008724 0.46302106,-0.355534 1.314649,-0.355534 0.42167986,0 0.7937503,0.06201 0.3720705,0.06201 0.6862633,0.186036 z"
         id="path162410" />
      <path
         d="m 3.9327336,-30.927325 v 1.314649 h 1.56683 v 0.591178 h -1.56683 v 2.513543 q 0,0.566374 0.1529623,0.727605 0.1570964,0.16123 0.6325198,0.16123 h 0.7813479 v 0.636654 H 4.7182157 q -0.8805668,0 -1.2154302,-0.326595 -0.3348634,-0.330729 -0.3348634,-1.198894 v -2.513543 H 2.6098164 v -0.591178 h 0.5581057 v -1.314649 z"
         id="path162412" />
      <path
         d="m 6.5000189,-29.612676 h 0.7606774 v 4.63021 H 6.5000189 Z m 0,-1.802475 h 0.7606774 v 0.963249 H 6.5000189 Z"
         id="path162414" />
      <path
         d="m 12.184427,-29.434909 v 0.711068 q -0.322461,-0.177767 -0.649056,-0.264584 -0.322462,-0.09095 -0.653191,-0.09095 -0.740007,0 -1.1492841,0.471289 -0.4092775,0.467155 -0.4092775,1.314649 0,0.847494 0.4092775,1.318783 0.4092771,0.467155 1.1492841,0.467155 0.330729,0 0.653191,-0.08682 0.326595,-0.09095 0.649056,-0.268718 v 0.7028 q -0.318327,0.148828 -0.661459,0.223242 -0.338997,0.07441 -0.72347,0.07441 -1.0459315,0 -1.6619149,-0.657324 -0.6159833,-0.657325 -0.6159833,-1.773536 0,-1.132748 0.6201175,-1.781804 0.6242515,-0.649056 1.7073897,-0.649056 0.3514,0 0.686264,0.07441 0.334863,0.07028 0.649056,0.214974 z"
         id="path162416" />
      <path
         d="m 19.803607,-28.723841 q 0.285254,-0.512631 0.682129,-0.756543 0.396876,-0.243913 0.934311,-0.243913 0.72347,0 1.116211,0.508496 0.392741,0.504362 0.392741,1.438672 v 2.794663 h -0.764811 v -2.769858 q 0,-0.665593 -0.235645,-0.988054 -0.235645,-0.322461 -0.719336,-0.322461 -0.591179,0 -0.934311,0.392741 -0.343131,0.392741 -0.343131,1.070736 v 2.616896 h -0.764812 v -2.769858 q 0,-0.669727 -0.235644,-0.988054 -0.235645,-0.322461 -0.727605,-0.322461 -0.58291,0 -0.926042,0.396875 -0.343131,0.392741 -0.343131,1.066602 v 2.616896 h -0.764812 v -4.63021 h 0.764812 v 0.719336 q 0.260449,-0.425814 0.624251,-0.628386 0.363802,-0.202571 0.86403,-0.202571 0.504363,0 0.855762,0.256315 0.355534,0.256315 0.525033,0.744141 z"
         id="path162418" />
      <path
         d="m 26.240423,-29.079375 q -0.611849,0 -0.967383,0.479557 -0.355534,0.475424 -0.355534,1.306381 0,0.830957 0.3514,1.310515 0.355534,0.475423 0.971517,0.475423 0.607715,0 0.963249,-0.479557 0.355534,-0.479558 0.355534,-1.306381 0,-0.822689 -0.355534,-1.302247 -0.355534,-0.483691 -0.963249,-0.483691 z m 0,-0.644922 q 0.992188,0 1.558562,0.644922 0.566374,0.644922 0.566374,1.785938 0,1.136882 -0.566374,1.785938 -0.566374,0.644922 -1.558562,0.644922 -0.996322,0 -1.562696,-0.644922 -0.56224,-0.649056 -0.56224,-1.785938 0,-1.141016 0.56224,-1.785938 0.566374,-0.644922 1.562696,-0.644922 z"
         id="path162420" />
      <path
         d="m 32.673114,-28.909876 v -2.505275 h 0.760677 v 6.432685 h -0.760677 v -0.694532 q -0.239779,0.413412 -0.607715,0.615984 -0.363802,0.198437 -0.876433,0.198437 -0.839226,0 -1.368392,-0.669726 -0.525033,-0.669727 -0.525033,-1.761134 0,-1.091407 0.525033,-1.761133 0.529166,-0.669727 1.368392,-0.669727 0.512631,0 0.876433,0.202571 0.367936,0.198438 0.607715,0.61185 z m -2.592091,1.616439 q 0,0.839226 0.343132,1.318783 0.347265,0.475423 0.950846,0.475423 0.603581,0 0.950847,-0.475423 0.347266,-0.479557 0.347266,-1.318783 0,-0.839226 -0.347266,-1.314649 -0.347266,-0.479557 -0.950847,-0.479557 -0.603581,0 -0.950846,0.479557 -0.343132,0.475423 -0.343132,1.314649 z"
         id="path162422" />
      <path
         d="m 38.961097,-27.48774 v 0.37207 h -3.497462 q 0.04961,0.785482 0.471289,1.198894 0.425814,0.409277 1.182358,0.409277 0.438216,0 0.847493,-0.107487 0.413412,-0.107487 0.818555,-0.322461 v 0.719336 q -0.409277,0.173633 -0.839225,0.264584 -0.429948,0.09095 -0.872299,0.09095 -1.107943,0 -1.756999,-0.644922 -0.644922,-0.644922 -0.644922,-1.744597 0,-1.136882 0.611849,-1.802474 0.615983,-0.669727 1.657781,-0.669727 0.93431,0 1.475879,0.603581 0.545703,0.599447 0.545703,1.632976 z m -0.760677,-0.223243 q -0.0083,-0.624251 -0.3514,-0.996322 -0.338997,-0.37207 -0.901237,-0.37207 -0.636654,0 -1.021127,0.359668 -0.380339,0.359668 -0.438216,1.012858 z"
         id="path162424" />
      <path
         d="m 40.209598,-31.415151 h 0.760678 v 6.432685 h -0.760678 z"
         id="path162426" />
      <path
         d="m 45.513668,-29.47625 v 0.719336 q -0.322461,-0.165365 -0.669727,-0.248047 -0.347266,-0.08268 -0.719336,-0.08268 -0.566374,0 -0.851628,0.173632 -0.28112,0.173633 -0.28112,0.520899 0,0.264584 0.202571,0.417546 0.202572,0.148828 0.814421,0.285254 l 0.26045,0.05788 q 0.810286,0.173632 1.149284,0.491959 0.343132,0.314193 0.343132,0.880567 0,0.644922 -0.512631,1.021127 -0.508496,0.376204 -1.401465,0.376204 -0.372071,0 -0.777214,-0.07441 -0.401009,-0.07028 -0.847494,-0.214974 v -0.785482 q 0.42168,0.219108 0.830957,0.330729 0.409278,0.107487 0.810287,0.107487 0.537435,0 0.826823,-0.181901 0.289389,-0.186035 0.289389,-0.520898 0,-0.310059 -0.21084,-0.475424 -0.206706,-0.165364 -0.91364,-0.318327 l -0.264583,-0.06201 q -0.706934,-0.148829 -1.021127,-0.454753 -0.314193,-0.310059 -0.314193,-0.847494 0,-0.65319 0.463021,-1.008724 0.463021,-0.355534 1.314649,-0.355534 0.42168,0 0.79375,0.06201 0.372071,0.06201 0.686264,0.186036 z"
         id="path162428" />
      <path
         d="m 51.458532,-29.079375 q -0.611849,0 -0.967383,0.479557 -0.355534,0.475424 -0.355534,1.306381 0,0.830957 0.3514,1.310515 0.355534,0.475423 0.971517,0.475423 0.607715,0 0.963249,-0.479557 0.355534,-0.479558 0.355534,-1.306381 0,-0.822689 -0.355534,-1.302247 -0.355534,-0.483691 -0.963249,-0.483691 z m 0,-0.644922 q 0.992188,0 1.558562,0.644922 0.566374,0.644922 0.566374,1.785938 0,1.136882 -0.566374,1.785938 -0.566374,0.644922 -1.558562,0.644922 -0.996322,0 -1.562696,-0.644922 -0.56224,-0.649056 -0.56224,-1.785938 0,-1.141016 0.56224,-1.785938 0.566374,-0.644922 1.562696,-0.644922 z"
         id="path162430" />
      <path
         d="m 57.188423,-31.415151 v 0.63252 h -0.727604 q -0.409278,0 -0.570508,0.165365 -0.157097,0.165364 -0.157097,0.595312 v 0.409278 h 1.252637 v 0.591178 h -1.252637 v 4.039032 h -0.764811 v -4.039032 h -0.727605 v -0.591178 h 0.727605 v -0.322461 q 0,-0.77308 0.359668,-1.12448 0.359668,-0.355534 1.141016,-0.355534 z"
         id="path162432" />
      <path
         d="m 63.840206,-27.293437 q 0,-0.839226 -0.347266,-1.314649 -0.343132,-0.479557 -0.946713,-0.479557 -0.603581,0 -0.950846,0.479557 -0.343132,0.475423 -0.343132,1.314649 0,0.839226 0.343132,1.318783 0.347265,0.475423 0.950846,0.475423 0.603581,0 0.946713,-0.475423 0.347266,-0.479557 0.347266,-1.318783 z m -2.587957,-1.616439 q 0.239779,-0.413412 0.603581,-0.61185 0.367936,-0.202571 0.876433,-0.202571 0.843359,0 1.368392,0.669727 0.529167,0.669726 0.529167,1.761133 0,1.091407 -0.529167,1.761134 -0.525033,0.669726 -1.368392,0.669726 -0.508497,0 -0.876433,-0.198437 -0.363802,-0.202572 -0.603581,-0.615984 v 0.694532 h -0.764811 v -6.432685 h 0.764811 z"
         id="path162434" />
      <path
         d="m 65.890735,-29.612676 h 0.760678 v 4.63021 h -0.760678 z m 0,-1.802475 h 0.760678 v 0.963249 h -0.760678 z"
         id="path162436" />
      <path
         d="m 70.037252,-29.079375 q -0.611849,0 -0.967383,0.479557 -0.355534,0.475424 -0.355534,1.306381 0,0.830957 0.3514,1.310515 0.355534,0.475423 0.971517,0.475423 0.607715,0 0.963249,-0.479557 0.355534,-0.479558 0.355534,-1.306381 0,-0.822689 -0.355534,-1.302247 -0.355534,-0.483691 -0.963249,-0.483691 z m 0,-0.644922 q 0.992188,0 1.558562,0.644922 0.566374,0.644922 0.566374,1.785938 0,1.136882 -0.566374,1.785938 -0.566374,0.644922 -1.558562,0.644922 -0.996322,0 -1.562696,-0.644922 -0.56224,-0.649056 -0.56224,-1.785938 0,-1.141016 0.56224,-1.785938 0.566374,-0.644922 1.562696,-0.644922 z"
         id="path162438" />
      <path
         d="m 76.755182,-29.434909 v 0.711068 q -0.322461,-0.177767 -0.649056,-0.264584 -0.322462,-0.09095 -0.653191,-0.09095 -0.740007,0 -1.149284,0.471289 -0.409278,0.467155 -0.409278,1.314649 0,0.847494 0.409278,1.318783 0.409277,0.467155 1.149284,0.467155 0.330729,0 0.653191,-0.08682 0.326595,-0.09095 0.649056,-0.268718 v 0.7028 q -0.318327,0.148828 -0.661459,0.223242 -0.338997,0.07441 -0.72347,0.07441 -1.045932,0 -1.661915,-0.657324 -0.615983,-0.657325 -0.615983,-1.773536 0,-1.132748 0.620117,-1.781804 0.624252,-0.649056 1.70739,-0.649056 0.3514,0 0.686264,0.07441 0.334863,0.07028 0.649056,0.214974 z"
         id="path162440" />
      <path
         d="m 81.926976,-27.777129 v 2.794663 h -0.760678 v -2.769858 q 0,-0.657324 -0.256315,-0.98392 -0.256315,-0.326595 -0.768946,-0.326595 -0.615983,0 -0.971517,0.392741 -0.355534,0.392741 -0.355534,1.070736 v 2.616896 h -0.764811 v -6.432685 h 0.764811 v 2.521811 q 0.272852,-0.417546 0.640788,-0.624251 0.372071,-0.206706 0.855762,-0.206706 0.797885,0 1.207162,0.496094 0.409278,0.491959 0.409278,1.451074 z"
         id="path162442" />
      <path
         d="m 87.40467,-27.48774 v 0.37207 h -3.497462 q 0.04961,0.785482 0.471289,1.198894 0.425814,0.409277 1.182358,0.409277 0.438216,0 0.847493,-0.107487 0.413412,-0.107487 0.818555,-0.322461 v 0.719336 q -0.409277,0.173633 -0.839225,0.264584 -0.429948,0.09095 -0.872299,0.09095 -1.107943,0 -1.756999,-0.644922 -0.644922,-0.644922 -0.644922,-1.744597 0,-1.136882 0.611849,-1.802474 0.615983,-0.669727 1.657781,-0.669727 0.93431,0 1.475879,0.603581 0.545703,0.599447 0.545703,1.632976 z m -0.760677,-0.223243 q -0.0083,-0.624251 -0.3514,-0.996322 -0.338997,-0.37207 -0.901237,-0.37207 -0.636654,0 -1.021127,0.359668 -0.380339,0.359668 -0.438216,1.012858 z"
         id="path162444" />
      <path
         d="m 92.258121,-28.723841 q 0.285254,-0.512631 0.682129,-0.756543 0.396875,-0.243913 0.93431,-0.243913 0.723471,0 1.116212,0.508496 0.392741,0.504362 0.392741,1.438672 v 2.794663 h -0.764812 v -2.769858 q 0,-0.665593 -0.235645,-0.988054 -0.235644,-0.322461 -0.719336,-0.322461 -0.591178,0 -0.93431,0.392741 -0.343132,0.392741 -0.343132,1.070736 v 2.616896 h -0.764811 v -2.769858 q 0,-0.669727 -0.235645,-0.988054 -0.235644,-0.322461 -0.727604,-0.322461 -0.582911,0 -0.926042,0.396875 -0.343132,0.392741 -0.343132,1.066602 v 2.616896 h -0.764811 v -4.63021 h 0.764811 v 0.719336 q 0.260449,-0.425814 0.624252,-0.628386 0.363802,-0.202571 0.86403,-0.202571 0.504362,0 0.855762,0.256315 0.355534,0.256315 0.525033,0.744141 z"
         id="path162446" />
      <path
         d="m 96.90073,-29.612676 h 0.760677 v 4.63021 H 96.90073 Z m 0,-1.802475 h 0.760677 v 0.963249 H 96.90073 Z"
         id="path162448" />
      <path
         d="m 102.58515,-29.434909 v 0.711068 q -0.32246,-0.177767 -0.64905,-0.264584 -0.32246,-0.09095 -0.65319,-0.09095 -0.74001,0 -1.14929,0.471289 -0.409275,0.467155 -0.409275,1.314649 0,0.847494 0.409275,1.318783 0.40928,0.467155 1.14929,0.467155 0.33073,0 0.65319,-0.08682 0.32659,-0.09095 0.64905,-0.268718 v 0.7028 q -0.31832,0.148828 -0.66146,0.223242 -0.33899,0.07441 -0.72347,0.07441 -1.04593,0 -1.661911,-0.657324 -0.615983,-0.657325 -0.615983,-1.773536 0,-1.132748 0.620118,-1.781804 0.624256,-0.649056 1.707386,-0.649056 0.3514,0 0.68627,0.07441 0.33486,0.07028 0.64905,0.214974 z"
         id="path162450" />
      <path
         d="m 106.01233,-27.309973 q -0.9219,0 -1.27744,0.21084 -0.35553,0.210839 -0.35553,0.719336 0,0.405143 0.26458,0.644922 0.26872,0.235644 0.72761,0.235644 0.63252,0 1.01286,-0.446484 0.38447,-0.450619 0.38447,-1.19476 v -0.169498 z m 1.51723,-0.314193 v 2.6417 h -0.76068 v -0.7028 q -0.26045,0.42168 -0.64906,0.624252 -0.38861,0.198437 -0.95085,0.198437 -0.71106,0 -1.13274,-0.396875 -0.41755,-0.401009 -0.41755,-1.070736 0,-0.781348 0.5209,-1.178223 0.52503,-0.396875 1.5627,-0.396875 h 1.0666 v -0.07441 q 0,-0.525033 -0.34727,-0.810287 -0.34313,-0.289388 -0.96738,-0.289388 -0.39688,0 -0.77308,0.09508 -0.37621,0.09508 -0.72347,0.285254 v -0.7028 q 0.41754,-0.161231 0.81029,-0.239779 0.39274,-0.08268 0.76481,-0.08268 1.00459,0 1.50068,0.520898 0.4961,0.520899 0.4961,1.579233 z"
         id="path162452" />
      <path
         d="m 109.09638,-31.415151 h 0.76068 v 6.432685 h -0.76068 z"
         id="path162454" />
      <path
         d="m 117.09176,-29.47625 v 0.719336 q -0.32246,-0.165365 -0.66972,-0.248047 -0.34727,-0.08268 -0.71934,-0.08268 -0.56637,0 -0.85163,0.173632 -0.28112,0.173633 -0.28112,0.520899 0,0.264584 0.20257,0.417546 0.20257,0.148828 0.81442,0.285254 l 0.26045,0.05788 q 0.81029,0.173632 1.14929,0.491959 0.34313,0.314193 0.34313,0.880567 0,0.644922 -0.51263,1.021127 -0.5085,0.376204 -1.40147,0.376204 -0.37207,0 -0.77721,-0.07441 -0.40101,-0.07028 -0.84749,-0.214974 v -0.785482 q 0.42168,0.219108 0.83095,0.330729 0.40928,0.107487 0.81029,0.107487 0.53743,0 0.82682,-0.181901 0.28939,-0.186035 0.28939,-0.520898 0,-0.310059 -0.21084,-0.475424 -0.2067,-0.165364 -0.91364,-0.318327 l -0.26458,-0.06201 q -0.70694,-0.148829 -1.02113,-0.454753 -0.31419,-0.310059 -0.31419,-0.847494 0,-0.65319 0.46302,-1.008724 0.46302,-0.355534 1.31465,-0.355534 0.42168,0 0.79375,0.06201 0.37207,0.06201 0.68626,0.186036 z"
         id="path162456" />
      <path
         d="m 120.4776,-24.552518 q -0.32246,0.826823 -0.62838,1.079004 -0.30593,0.252182 -0.81856,0.252182 h -0.60771 v -0.636654 h 0.44648 q 0.3142,0 0.48783,-0.148829 0.17363,-0.148828 0.38447,-0.702799 l 0.13643,-0.347266 -1.87276,-4.555796 h 0.80615 l 1.44695,3.621486 1.44694,-3.621486 h 0.80615 z"
         id="path162458" />
      <path
         d="m 126.51341,-29.47625 v 0.719336 q -0.32246,-0.165365 -0.66973,-0.248047 -0.34726,-0.08268 -0.71933,-0.08268 -0.56638,0 -0.85163,0.173632 -0.28112,0.173633 -0.28112,0.520899 0,0.264584 0.20257,0.417546 0.20257,0.148828 0.81442,0.285254 l 0.26045,0.05788 q 0.81029,0.173632 1.14928,0.491959 0.34314,0.314193 0.34314,0.880567 0,0.644922 -0.51264,1.021127 -0.50849,0.376204 -1.40146,0.376204 -0.37207,0 -0.77721,-0.07441 -0.40101,-0.07028 -0.8475,-0.214974 v -0.785482 q 0.42168,0.219108 0.83096,0.330729 0.40928,0.107487 0.81029,0.107487 0.53743,0 0.82682,-0.181901 0.28939,-0.186035 0.28939,-0.520898 0,-0.310059 -0.21084,-0.475424 -0.20671,-0.165364 -0.91364,-0.318327 l -0.26459,-0.06201 q -0.70693,-0.148829 -1.02112,-0.454753 -0.3142,-0.310059 -0.3142,-0.847494 0,-0.65319 0.46303,-1.008724 0.46302,-0.355534 1.31464,-0.355534 0.42168,0 0.79375,0.06201 0.37208,0.06201 0.68627,0.186036 z"
         id="path162460" />
      <path
         d="m 128.72516,-30.927325 v 1.314649 h 1.56683 v 0.591178 h -1.56683 v 2.513543 q 0,0.566374 0.15296,0.727605 0.1571,0.16123 0.63252,0.16123 h 0.78135 v 0.636654 h -0.78135 q -0.88056,0 -1.21543,-0.326595 -0.33486,-0.330729 -0.33486,-1.198894 v -2.513543 h -0.55811 v -0.591178 h 0.55811 v -1.314649 z"
         id="path162462" />
      <path
         d="m 135.25294,-27.48774 v 0.37207 h -3.49747 q 0.0496,0.785482 0.47129,1.198894 0.42582,0.409277 1.18236,0.409277 0.43822,0 0.84749,-0.107487 0.41342,-0.107487 0.81856,-0.322461 v 0.719336 q -0.40928,0.173633 -0.83923,0.264584 -0.42994,0.09095 -0.87229,0.09095 -1.10795,0 -1.757,-0.644922 -0.64493,-0.644922 -0.64493,-1.744597 0,-1.136882 0.61185,-1.802474 0.61599,-0.669727 1.65778,-0.669727 0.93431,0 1.47588,0.603581 0.54571,0.599447 0.54571,1.632976 z m -0.76068,-0.223243 q -0.008,-0.624251 -0.3514,-0.996322 -0.339,-0.37207 -0.90124,-0.37207 -0.63665,0 -1.02112,0.359668 -0.38034,0.359668 -0.43822,1.012858 z"
         id="path162464" />
      <path
         d="m 140.10639,-28.723841 q 0.28525,-0.512631 0.68213,-0.756543 0.39687,-0.243913 0.93431,-0.243913 0.72347,0 1.11621,0.508496 0.39274,0.504362 0.39274,1.438672 v 2.794663 h -0.76481 v -2.769858 q 0,-0.665593 -0.23565,-0.988054 -0.23564,-0.322461 -0.71933,-0.322461 -0.59118,0 -0.93431,0.392741 -0.34314,0.392741 -0.34314,1.070736 v 2.616896 h -0.76481 v -2.769858 q 0,-0.669727 -0.23564,-0.988054 -0.23565,-0.322461 -0.72761,-0.322461 -0.58291,0 -0.92604,0.396875 -0.34313,0.392741 -0.34313,1.066602 v 2.616896 h -0.76481 v -4.63021 h 0.76481 v 0.719336 q 0.26045,-0.425814 0.62425,-0.628386 0.3638,-0.202571 0.86403,-0.202571 0.50436,0 0.85576,0.256315 0.35554,0.256315 0.52504,0.744141 z"
         id="path162466" />
      <path
         d="m 147.70076,-29.47625 v 0.719336 q -0.32247,-0.165365 -0.66973,-0.248047 -0.34727,-0.08268 -0.71934,-0.08268 -0.56637,0 -0.85163,0.173632 -0.28112,0.173633 -0.28112,0.520899 0,0.264584 0.20258,0.417546 0.20257,0.148828 0.81442,0.285254 l 0.26045,0.05788 q 0.81028,0.173632 1.14928,0.491959 0.34313,0.314193 0.34313,0.880567 0,0.644922 -0.51263,1.021127 -0.50849,0.376204 -1.40146,0.376204 -0.37207,0 -0.77722,-0.07441 -0.40101,-0.07028 -0.84749,-0.214974 v -0.785482 q 0.42168,0.219108 0.83096,0.330729 0.40927,0.107487 0.81028,0.107487 0.53744,0 0.82683,-0.181901 0.28938,-0.186035 0.28938,-0.520898 0,-0.310059 -0.21084,-0.475424 -0.2067,-0.165364 -0.91364,-0.318327 l -0.26458,-0.06201 q -0.70693,-0.148829 -1.02113,-0.454753 -0.31419,-0.310059 -0.31419,-0.847494 0,-0.65319 0.46302,-1.008724 0.46302,-0.355534 1.31465,-0.355534 0.42168,0 0.79375,0.06201 0.37207,0.06201 0.68627,0.186036 z"
         id="path162468" />
    </g>
    <text
       xml:space="preserve"
       transform="matrix(0.26458333,0,0,0.26458333,-172.85881,-44.082714)"
       id="text158115"
       style="font-size:40px;line-height:1.25;font-family:sans-serif;word-spacing:0px;white-space:pre;shape-inside:url(#rect158117);display:inline" />
  </g>
</svg>
