<?xml version="1.0" encoding="UTF-8" standalone="no"?>
<!-- Created with Inkscape (http://www.inkscape.org/) -->

<svg
   id="svg5"
   version="1.1"
   viewBox="0 0 392.81661 214.23332"
   height="214.23332mm"
   width="392.81662mm"
   sodipodi:docname="intro90.svg"
   inkscape:version="1.2 (1:1.2+202205231507+da316b6974)"
   xmlns:inkscape="http://www.inkscape.org/namespaces/inkscape"
   xmlns:sodipodi="http://sodipodi.sourceforge.net/DTD/sodipodi-0.dtd"
   xmlns="http://www.w3.org/2000/svg"
   xmlns:svg="http://www.w3.org/2000/svg">
  <sodipodi:namedview
     id="namedview765"
     pagecolor="#ffffff"
     bordercolor="#666666"
     borderopacity="1.0"
     inkscape:pageshadow="2"
     inkscape:pageopacity="0.0"
     inkscape:pagecheckerboard="0"
     inkscape:document-units="mm"
     showgrid="false"
     inkscape:zoom="0.45666983"
     inkscape:cx="533.20799"
     inkscape:cy="310.94675"
     inkscape:window-width="1862"
     inkscape:window-height="1043"
     inkscape:window-x="1978"
     inkscape:window-y="0"
     inkscape:window-maximized="1"
     inkscape:current-layer="layer1"
     inkscape:showpageshadow="2"
     inkscape:deskcolor="#d1d1d1" />
  <defs
     id="defs2">
    <inkscape:path-effect
       effect="spiro"
       id="path-effect3314"
       is_visible="true"
       lpeversion="1" />
    <rect
       x="248.51833"
       y="356.18341"
       width="129.52347"
       height="142.11378"
       id="rect29511" />
    <marker
       style="overflow:visible"
       id="marker10411"
       refX="0"
       refY="0"
       orient="auto">
      <path
         transform="matrix(-0.3,0,0,-0.3,0.69,0)"
         d="M 8.7185878,4.0337352 -2.2072895,0.01601326 8.7185884,-4.0017078 c -1.7454984,2.3720609 -1.7354408,5.6174519 -6e-7,8.035443 z"
         style="fill:context-stroke;fill-rule:evenodd;stroke:context-stroke;stroke-width:0.625;stroke-linejoin:round"
         id="path10409" />
    </marker>
    <marker
       style="overflow:visible"
       id="marker10401"
       refX="0"
       refY="0"
       orient="auto">
      <path
         transform="matrix(-0.2,0,0,-0.2,-1.2,0)"
         style="fill:context-stroke;fill-rule:evenodd;stroke:context-stroke;stroke-width:1pt"
         d="M 0,0 5,-5 -12.5,0 5,5 Z"
         id="path10399" />
    </marker>
    <marker
       style="overflow:visible"
       id="Arrow1Send"
       refX="0"
       refY="0"
       orient="auto"
       viewBox="0 0 4.4434635 2.539122"
       markerWidth="4.4434633"
       markerHeight="2.5391221"
       preserveAspectRatio="xMidYMid">
      <path
         transform="matrix(-0.2,0,0,-0.2,-1.2,0)"
         style="fill:context-stroke;fill-rule:evenodd;stroke:context-stroke;stroke-width:1pt"
         d="M 0,0 5,-5 -12.5,0 5,5 Z"
         id="path3335" />
    </marker>
    <marker
       style="overflow:visible"
       id="Arrow2Sstart"
       refX="0"
       refY="0"
       orient="auto">
      <path
         transform="matrix(0.3,0,0,0.3,-0.69,0)"
         d="M 8.7185878,4.0337352 -2.2072895,0.01601326 8.7185884,-4.0017078 c -1.7454984,2.3720609 -1.7354408,5.6174519 -6e-7,8.035443 z"
         style="fill:context-stroke;fill-rule:evenodd;stroke:context-stroke;stroke-width:0.625;stroke-linejoin:round"
         id="path3350" />
    </marker>
    <marker
       style="overflow:visible"
       id="Arrow2Send"
       refX="0"
       refY="0"
       orient="auto">
      <path
         transform="matrix(-0.3,0,0,-0.3,0.69,0)"
         d="M 8.7185878,4.0337352 -2.2072895,0.01601326 8.7185884,-4.0017078 c -1.7454984,2.3720609 -1.7354408,5.6174519 -6e-7,8.035443 z"
         style="fill:context-stroke;fill-rule:evenodd;stroke:context-stroke;stroke-width:0.625;stroke-linejoin:round"
         id="path3353" />
    </marker>
    <marker
       style="overflow:visible"
       id="Arrow2Mend"
       refX="0"
       refY="0"
       orient="auto"
       viewBox="0 0 6.9304588 5.1962256"
       markerWidth="3"
       markerHeight="2.4000001"
       preserveAspectRatio="xMidYMid">
      <path
         transform="scale(-0.6)"
         d="M 8.7185878,4.0337352 -2.2072895,0.01601326 8.7185884,-4.0017078 c -1.7454984,2.3720609 -1.7354408,5.6174519 -6e-7,8.035443 z"
         style="fill:context-stroke;fill-rule:evenodd;stroke:context-stroke;stroke-width:0.625;stroke-linejoin:round"
         id="path3347" />
    </marker>
    <marker
       style="overflow:visible"
       id="Arrow2Lend"
       refX="0"
       refY="0"
       orient="auto">
      <path
         transform="matrix(-1.1,0,0,-1.1,-1.1,0)"
         d="M 8.7185878,4.0337352 -2.2072895,0.01601326 8.7185884,-4.0017078 c -1.7454984,2.3720609 -1.7354408,5.6174519 -6e-7,8.035443 z"
         style="fill:context-stroke;fill-rule:evenodd;stroke:context-stroke;stroke-width:0.625;stroke-linejoin:round"
         id="path3341" />
    </marker>
    <marker
       style="overflow:visible"
       id="marker10411-5"
       refX="0"
       refY="0"
       orient="auto">
      <path
         transform="matrix(-0.3,0,0,-0.3,0.69,0)"
         d="M 8.7185878,4.0337352 -2.2072895,0.01601326 8.7185884,-4.0017078 c -1.7454984,2.3720609 -1.7354408,5.6174519 -6e-7,8.035443 z"
         style="fill:context-stroke;fill-rule:evenodd;stroke:context-stroke;stroke-width:0.625;stroke-linejoin:round"
         id="path10409-6" />
    </marker>
    <marker
       style="overflow:visible"
       id="marker10411-9"
       refX="0"
       refY="0"
       orient="auto">
      <path
         transform="matrix(-0.3,0,0,-0.3,0.69,0)"
         d="M 8.7185878,4.0337352 -2.2072895,0.01601326 8.7185884,-4.0017078 c -1.7454984,2.3720609 -1.7354408,5.6174519 -6e-7,8.035443 z"
         style="fill:context-stroke;fill-rule:evenodd;stroke:context-stroke;stroke-width:0.625;stroke-linejoin:round"
         id="path10409-4" />
    </marker>
    <marker
       style="overflow:visible"
       id="marker10411-1"
       refX="0"
       refY="0"
       orient="auto">
      <path
         transform="matrix(-0.3,0,0,-0.3,0.69,0)"
         d="M 8.7185878,4.0337352 -2.2072895,0.01601326 8.7185884,-4.0017078 c -1.7454984,2.3720609 -1.7354408,5.6174519 -6e-7,8.035443 z"
         style="fill:context-stroke;fill-rule:evenodd;stroke:context-stroke;stroke-width:0.625;stroke-linejoin:round"
         id="path10409-2" />
    </marker>
    <marker
       style="overflow:visible"
       id="marker5795"
       refX="0"
       refY="0"
       orient="auto"
       viewBox="0 0 6.9304588 5.1962256"
       markerWidth="6.9304585"
       markerHeight="5.1962256"
       preserveAspectRatio="xMidYMid">
      <path
         transform="scale(-0.6)"
         d="M 8.7185878,4.0337352 -2.2072895,0.01601326 8.7185884,-4.0017078 c -1.7454984,2.3720609 -1.7354408,5.6174519 -6e-7,8.035443 z"
         style="fill:#000000;fill-opacity:1;fill-rule:evenodd;stroke:#000000;stroke-width:0.625;stroke-linejoin:round;stroke-opacity:1"
         id="path5793" />
    </marker>
    <marker
       style="overflow:visible"
       id="marker10411-7"
       refX="0"
       refY="0"
       orient="auto">
      <path
         transform="matrix(-0.3,0,0,-0.3,0.69,0)"
         d="M 8.7185878,4.0337352 -2.2072895,0.01601326 8.7185884,-4.0017078 c -1.7454984,2.3720609 -1.7354408,5.6174519 -6e-7,8.035443 z"
         style="fill:context-stroke;fill-rule:evenodd;stroke:context-stroke;stroke-width:0.625;stroke-linejoin:round"
         id="path10409-41" />
    </marker>
    <marker
       style="overflow:visible"
       id="marker10411-5-8"
       refX="0"
       refY="0"
       orient="auto">
      <path
         transform="matrix(-0.3,0,0,-0.3,0.69,0)"
         d="M 8.7185878,4.0337352 -2.2072895,0.01601326 8.7185884,-4.0017078 c -1.7454984,2.3720609 -1.7354408,5.6174519 -6e-7,8.035443 z"
         style="fill:context-stroke;fill-rule:evenodd;stroke:context-stroke;stroke-width:0.625;stroke-linejoin:round"
         id="path10409-6-5" />
    </marker>
    <marker
       style="overflow:visible"
       id="marker10411-9-9"
       refX="0"
       refY="0"
       orient="auto"
       viewBox="0 0 3.4652294 2.5981128"
       markerWidth="3.4652293"
       markerHeight="2.5981126"
       preserveAspectRatio="xMidYMid">
      <path
         transform="matrix(-0.3,0,0,-0.3,0.69,0)"
         d="M 8.7185878,4.0337352 -2.2072895,0.01601326 8.7185884,-4.0017078 c -1.7454984,2.3720609 -1.7354408,5.6174519 -6e-7,8.035443 z"
         style="fill:context-stroke;fill-rule:evenodd;stroke:context-stroke;stroke-width:0.625;stroke-linejoin:round"
         id="path10409-4-7" />
    </marker>
    <marker
       style="overflow:visible"
       id="marker10411-1-5"
       refX="0"
       refY="0"
       orient="auto">
      <path
         transform="matrix(-0.3,0,0,-0.3,0.69,0)"
         d="M 8.7185878,4.0337352 -2.2072895,0.01601326 8.7185884,-4.0017078 c -1.7454984,2.3720609 -1.7354408,5.6174519 -6e-7,8.035443 z"
         style="fill:context-stroke;fill-rule:evenodd;stroke:context-stroke;stroke-width:0.625;stroke-linejoin:round"
         id="path10409-2-3" />
    </marker>
    <marker
       style="overflow:visible"
       id="marker4257"
       refX="0"
       refY="0"
       orient="auto">
      <path
         transform="scale(0.6)"
         d="M 8.7185878,4.0337352 -2.2072895,0.01601326 8.7185884,-4.0017078 c -1.7454984,2.3720609 -1.7354408,5.6174519 -6e-7,8.035443 z"
         style="fill:#000000;fill-opacity:1;fill-rule:evenodd;stroke:#000000;stroke-width:0.625;stroke-linejoin:round;stroke-opacity:1"
         id="path4255" />
    </marker>
    <marker
       style="overflow:visible"
       id="marker5795-4"
       refX="0"
       refY="0"
       orient="auto">
      <path
         transform="scale(-0.6)"
         d="M 8.7185878,4.0337352 -2.2072895,0.01601326 8.7185884,-4.0017078 c -1.7454984,2.3720609 -1.7354408,5.6174519 -6e-7,8.035443 z"
         style="fill:#000000;fill-opacity:1;fill-rule:evenodd;stroke:#000000;stroke-width:0.625;stroke-linejoin:round;stroke-opacity:1"
         id="path5793-6" />
    </marker>
    <marker
       style="overflow:visible"
       id="marker5795-3"
       refX="0"
       refY="0"
       orient="auto">
      <path
         transform="scale(-0.6)"
         d="M 8.7185878,4.0337352 -2.2072895,0.01601326 8.7185884,-4.0017078 c -1.7454984,2.3720609 -1.7354408,5.6174519 -6e-7,8.035443 z"
         style="fill:#000000;fill-opacity:1;fill-rule:evenodd;stroke:#000000;stroke-width:0.625;stroke-linejoin:round;stroke-opacity:1"
         id="path5793-8" />
    </marker>
    <marker
       style="overflow:visible"
       id="marker4924"
       refX="0"
       refY="0"
       orient="auto">
      <path
         transform="matrix(-1.1,0,0,-1.1,-1.1,0)"
         d="M 8.7185878,4.0337352 -2.2072895,0.01601326 8.7185884,-4.0017078 c -1.7454984,2.3720609 -1.7354408,5.6174519 -6e-7,8.035443 z"
         style="fill:#000000;fill-opacity:1;fill-rule:evenodd;stroke:#000000;stroke-width:0.625;stroke-linejoin:round;stroke-opacity:1"
         id="path4922" />
    </marker>
    <marker
       style="overflow:visible"
       id="Arrow2Send-5"
       refX="0"
       refY="0"
       orient="auto">
      <path
         transform="matrix(-0.3,0,0,-0.3,0.69,0)"
         d="M 8.7185878,4.0337352 -2.2072895,0.01601326 8.7185884,-4.0017078 c -1.7454984,2.3720609 -1.7354408,5.6174519 -6e-7,8.035443 z"
         style="fill:context-stroke;fill-rule:evenodd;stroke:context-stroke;stroke-width:0.625;stroke-linejoin:round"
         id="path3353-6" />
    </marker>
    <marker
       style="overflow:visible"
       id="Arrow2Send-0"
       refX="0"
       refY="0"
       orient="auto">
      <path
         transform="matrix(-0.3,0,0,-0.3,0.69,0)"
         d="M 8.7185878,4.0337352 -2.2072895,0.01601326 8.7185884,-4.0017078 c -1.7454984,2.3720609 -1.7354408,5.6174519 -6e-7,8.035443 z"
         style="fill:context-stroke;fill-rule:evenodd;stroke:context-stroke;stroke-width:0.625;stroke-linejoin:round"
         id="path3353-63" />
    </marker>
    <marker
       style="overflow:visible"
       id="marker11818"
       refX="0"
       refY="0"
       orient="auto">
      <path
         transform="matrix(-0.2,0,0,-0.2,-1.2,0)"
         style="fill:#000000;fill-opacity:1;fill-rule:evenodd;stroke:#000000;stroke-width:1pt;stroke-opacity:1"
         d="M 0,0 5,-5 -12.5,0 5,5 Z"
         id="path11816" />
    </marker>
    <marker
       orient="auto"
       refY="0"
       refX="0"
       id="marker4979"
       style="overflow:visible">
      <path
         id="path4977"
         style="fill:#3f51b5;fill-opacity:1;fill-rule:evenodd;stroke:#3f51b5;stroke-width:0.625;stroke-linejoin:round;stroke-opacity:1"
         d="M 8.7185878,4.0337352 -2.2072895,0.01601326 8.7185884,-4.0017078 c -1.7454984,2.3720609 -1.7354408,5.6174519 -6e-7,8.035443 z"
         transform="matrix(-0.3,0,0,-0.3,0.69,0)" />
    </marker>
    <marker
       orient="auto"
       refY="0"
       refX="0"
       id="marker5127"
       style="overflow:visible">
      <path
         id="path5125"
         style="fill:#3f51b5;fill-opacity:1;fill-rule:evenodd;stroke:#3f51b5;stroke-width:0.625;stroke-linejoin:round;stroke-opacity:1"
         d="M 8.7185878,4.0337352 -2.2072895,0.01601326 8.7185884,-4.0017078 c -1.7454984,2.3720609 -1.7354408,5.6174519 -6e-7,8.035443 z"
         transform="matrix(-0.3,0,0,-0.3,0.69,0)" />
    </marker>
    <marker
       style="overflow:visible"
       id="Arrow2Send-5-7"
       refX="0"
       refY="0"
       orient="auto">
      <path
         transform="matrix(-0.3,0,0,-0.3,0.69,0)"
         d="M 8.7185878,4.0337352 -2.2072895,0.01601326 8.7185884,-4.0017078 c -1.7454984,2.3720609 -1.7354408,5.6174519 -6e-7,8.035443 z"
         style="fill:context-stroke;fill-rule:evenodd;stroke:context-stroke;stroke-width:0.625;stroke-linejoin:round"
         id="path3353-6-2" />
    </marker>
    <marker
       style="overflow:visible"
       id="Arrow2Send-06"
       refX="0"
       refY="0"
       orient="auto">
      <path
         transform="matrix(-0.3,0,0,-0.3,0.69,0)"
         d="M 8.7185878,4.0337352 -2.2072895,0.01601326 8.7185884,-4.0017078 c -1.7454984,2.3720609 -1.7354408,5.6174519 -6e-7,8.035443 z"
         style="fill:context-stroke;fill-rule:evenodd;stroke:context-stroke;stroke-width:0.625;stroke-linejoin:round"
         id="path3353-2" />
    </marker>
    <marker
       style="overflow:visible"
       id="Arrow2Send-9"
       refX="0"
       refY="0"
       orient="auto">
      <path
         transform="matrix(-0.3,0,0,-0.3,0.69,0)"
         d="M 8.7185878,4.0337352 -2.2072895,0.01601326 8.7185884,-4.0017078 c -1.7454984,2.3720609 -1.7354408,5.6174519 -6e-7,8.035443 z"
         style="fill:context-stroke;fill-rule:evenodd;stroke:context-stroke;stroke-width:0.625;stroke-linejoin:round"
         id="path3353-0" />
    </marker>
    <marker
       style="overflow:visible"
       id="Arrow1Send-8"
       refX="0"
       refY="0"
       orient="auto"
       viewBox="0 0 4.4434635 2.539122"
       markerWidth="4.4434633"
       markerHeight="2.5391221"
       preserveAspectRatio="xMidYMid">
      <path
         transform="matrix(-0.2,0,0,-0.2,-1.2,0)"
         style="fill:context-stroke;fill-rule:evenodd;stroke:context-stroke;stroke-width:1pt"
         d="M 0,0 5,-5 -12.5,0 5,5 Z"
         id="path3335-5" />
    </marker>
    <inkscape:path-effect
       effect="spiro"
       id="path-effect3314-9"
       is_visible="true"
       lpeversion="1" />
  </defs>
  <g
     id="layer1"
     transform="translate(175.68073,55.936253)">
    <path
       id="rect72170"
       style="fill:#ffffff;stroke-width:0.228828;stroke-linecap:round;stroke-dasharray:0.457656, 0.457656"
       d="M -175.68073,-55.936253 H 217.13589 V 158.29707 h -392.81662 z" />
    <g
       aria-label="Efficient accurate and robust statistical inference for"
       id="text3934"
       style="font-size:8.46667px;line-height:1.25;word-spacing:0px;stroke-width:0.264583">
      <path
         d="m -81.518074,-43.754511 h 3.902606 v 0.7028 h -3.067514 v 1.827279 h 2.939356 v 0.7028 h -2.939356 v 2.236557 h 3.141928 v 0.7028 h -3.97702 z"
         style="text-align:center;text-anchor:middle"
         id="path479" />
      <path
         d="m -73.857556,-44.01496 v 0.63252 h -0.727605 q -0.409277,0 -0.570508,0.165364 -0.157096,0.165365 -0.157096,0.595313 v 0.409277 h 2.087729 v -0.322461 q 0,-0.773079 0.359668,-1.124479 0.115755,-0.115756 0.276985,-0.194304 0.322462,-0.16123 0.864031,-0.16123 h 0.719336 v 0.63252 h -0.727604 q -0.409278,0 -0.570509,0.165364 -0.157096,0.165365 -0.157096,0.595313 v 0.409277 h 2.85254 v 4.630211 h -0.764811 v -4.039032 h -2.087729 v 4.039032 h -0.764811 v -4.039032 h -2.087729 v 4.039032 h -0.764812 v -4.039032 h -0.727604 v -0.591179 h 0.727604 v -0.322461 q 0,-0.773079 0.359668,-1.124479 0.359669,-0.355534 1.141017,-0.355534 z m 3.48506,0.0083 h 0.764811 v 0.963249 h -0.764811 z"
         style="text-align:center;text-anchor:middle"
         id="path481" />
      <path
         d="m -64.683953,-42.034719 v 0.711068 q -0.322461,-0.177767 -0.649056,-0.264583 -0.322461,-0.09095 -0.65319,-0.09095 -0.740007,0 -1.149285,0.47129 -0.409277,0.467155 -0.409277,1.314649 0,0.847493 0.409277,1.318783 0.409278,0.467155 1.149285,0.467155 0.330729,0 0.65319,-0.08682 0.326595,-0.09095 0.649056,-0.268717 v 0.7028 q -0.318327,0.148828 -0.661458,0.223242 -0.338998,0.07441 -0.723471,0.07441 -1.045931,0 -1.661914,-0.657325 -0.615984,-0.657324 -0.615984,-1.773535 0,-1.132748 0.620118,-1.781804 0.624251,-0.649057 1.70739,-0.649057 0.3514,0 0.686263,0.07441 0.334863,0.07028 0.649056,0.214974 z"
         style="text-align:center;text-anchor:middle"
         id="path483" />
      <path
         d="m -63.361035,-42.212486 h 0.760677 v 4.630211 h -0.760677 z m 0,-1.802474 h 0.760677 v 0.963249 h -0.760677 z"
         style="text-align:center;text-anchor:middle"
         id="path485" />
      <path
         d="m -57.04824,-40.08755 v 0.372071 h -3.497462 q 0.04961,0.785482 0.471289,1.198893 0.425814,0.409278 1.182357,0.409278 0.438217,0 0.847494,-0.107487 0.413412,-0.107487 0.818555,-0.322461 v 0.719336 q -0.409277,0.173633 -0.839226,0.264583 -0.429948,0.09095 -0.872298,0.09095 -1.107943,0 -1.756999,-0.644922 -0.644923,-0.644922 -0.644923,-1.744597 0,-1.136882 0.61185,-1.802475 0.615983,-0.669727 1.65778,-0.669727 0.93431,0 1.47588,0.603581 0.545703,0.599447 0.545703,1.632976 z m -0.760677,-0.223242 q -0.0083,-0.624252 -0.3514,-0.996322 -0.338998,-0.372071 -0.901238,-0.372071 -0.636653,0 -1.021126,0.359669 -0.380339,0.359668 -0.438217,1.012858 z"
         style="text-align:center;text-anchor:middle"
         id="path487" />
      <path
         d="m -51.950875,-40.376938 v 2.794663 h -0.760677 v -2.769858 q 0,-0.657325 -0.256315,-0.98392 -0.256316,-0.326595 -0.768946,-0.326595 -0.615983,0 -0.971517,0.392741 -0.355534,0.392741 -0.355534,1.070736 v 2.616896 h -0.764812 v -4.630211 h 0.764812 v 0.719337 q 0.272851,-0.417546 0.640788,-0.624252 0.37207,-0.206706 0.855762,-0.206706 0.797884,0 1.207162,0.496094 0.409277,0.49196 0.409277,1.451075 z"
         style="text-align:center;text-anchor:middle"
         id="path489" />
      <path
         d="m -49.681245,-43.527135 v 1.314649 h 1.56683 v 0.591179 h -1.56683 v 2.513543 q 0,0.566374 0.152963,0.727604 0.157096,0.161231 0.632519,0.161231 h 0.781348 v 0.636654 h -0.781348 q -0.880566,0 -1.21543,-0.326596 -0.334863,-0.330729 -0.334863,-1.198893 v -2.513543 h -0.558106 v -0.591179 h 0.558106 v -1.314649 z"
         style="text-align:center;text-anchor:middle"
         id="path491" />
      <path
         d="m -42.318383,-39.909783 q -0.921908,0 -1.277442,0.21084 -0.355534,0.21084 -0.355534,0.719336 0,0.405144 0.264583,0.644922 0.268718,0.235645 0.727605,0.235645 0.632519,0 1.012858,-0.446484 0.384473,-0.450619 0.384473,-1.19476 v -0.169499 z m 1.51722,-0.314193 v 2.641701 h -0.760677 v -0.7028 q -0.260449,0.42168 -0.649056,0.624251 -0.388607,0.198438 -0.950847,0.198438 -0.711068,0 -1.132748,-0.396875 -0.417546,-0.401009 -0.417546,-1.070736 0,-0.781348 0.520899,-1.178223 0.525033,-0.396876 1.562696,-0.396876 h 1.066602 v -0.07441 q 0,-0.525032 -0.347266,-0.810286 -0.343131,-0.289389 -0.967383,-0.289389 -0.396875,0 -0.77308,0.09508 -0.376204,0.09508 -0.72347,0.285254 v -0.7028 q 0.417546,-0.16123 0.810287,-0.239778 0.392741,-0.08268 0.764811,-0.08268 1.00459,0 1.500684,0.520899 0.496094,0.520899 0.496094,1.579232 z"
         style="text-align:center;text-anchor:middle"
         id="path493" />
      <path
         d="m -35.902234,-42.034719 v 0.711068 q -0.322462,-0.177767 -0.649057,-0.264583 -0.322461,-0.09095 -0.65319,-0.09095 -0.740007,0 -1.149284,0.47129 -0.409278,0.467155 -0.409278,1.314649 0,0.847493 0.409278,1.318783 0.409277,0.467155 1.149284,0.467155 0.330729,0 0.65319,-0.08682 0.326595,-0.09095 0.649057,-0.268717 v 0.7028 q -0.318327,0.148828 -0.661459,0.223242 -0.338998,0.07441 -0.72347,0.07441 -1.045932,0 -1.661915,-0.657325 -0.615983,-0.657324 -0.615983,-1.773535 0,-1.132748 0.620117,-1.781804 0.624252,-0.649057 1.70739,-0.649057 0.3514,0 0.686263,0.07441 0.334864,0.07028 0.649057,0.214974 z"
         style="text-align:center;text-anchor:middle"
         id="path495" />
      <path
         d="m -31.24722,-42.034719 v 0.711068 q -0.322461,-0.177767 -0.649057,-0.264583 -0.322461,-0.09095 -0.65319,-0.09095 -0.740007,0 -1.149284,0.47129 -0.409278,0.467155 -0.409278,1.314649 0,0.847493 0.409278,1.318783 0.409277,0.467155 1.149284,0.467155 0.330729,0 0.65319,-0.08682 0.326596,-0.09095 0.649057,-0.268717 v 0.7028 q -0.318327,0.148828 -0.661459,0.223242 -0.338998,0.07441 -0.72347,0.07441 -1.045932,0 -1.661915,-0.657325 -0.615983,-0.657324 -0.615983,-1.773535 0,-1.132748 0.620117,-1.781804 0.624252,-0.649057 1.70739,-0.649057 0.3514,0 0.686263,0.07441 0.334864,0.07028 0.649057,0.214974 z"
         style="text-align:center;text-anchor:middle"
         id="path497" />
      <path
         d="m -30.002852,-39.409555 v -2.802931 h 0.760677 v 2.773992 q 0,0.657325 0.256315,0.988054 0.256316,0.326595 0.768946,0.326595 0.615983,0 0.971517,-0.392741 0.359668,-0.392741 0.359668,-1.070736 v -2.625164 h 0.760678 v 4.630211 h -0.760678 v -0.711068 q -0.276985,0.421679 -0.644922,0.628385 -0.363802,0.202572 -0.847494,0.202572 -0.797884,0 -1.211296,-0.496094 -0.413411,-0.496094 -0.413411,-1.451075 z m 1.914096,-2.914552 z"
         style="text-align:center;text-anchor:middle"
         id="path499" />
      <path
         d="m -21.875178,-41.501418 q -0.128157,-0.07441 -0.281119,-0.107487 -0.148829,-0.03721 -0.33073,-0.03721 -0.644922,0 -0.992188,0.42168 -0.343131,0.417546 -0.343131,1.203028 v 2.439129 h -0.764812 v -4.630211 h 0.764812 v 0.719337 q 0.239778,-0.42168 0.624251,-0.624252 0.384473,-0.206706 0.93431,-0.206706 0.07855,0 0.173633,0.0124 0.09509,0.0083 0.21084,0.02894 z"
         style="text-align:center;text-anchor:middle"
         id="path501" />
      <path
         d="m -18.973031,-39.909783 q -0.921908,0 -1.277442,0.21084 -0.355534,0.21084 -0.355534,0.719336 0,0.405144 0.264583,0.644922 0.268718,0.235645 0.727605,0.235645 0.63252,0 1.012858,-0.446484 0.384473,-0.450619 0.384473,-1.19476 v -0.169499 z m 1.51722,-0.314193 v 2.641701 h -0.760677 v -0.7028 q -0.260449,0.42168 -0.649056,0.624251 -0.388607,0.198438 -0.950847,0.198438 -0.711068,0 -1.132748,-0.396875 -0.417545,-0.401009 -0.417545,-1.070736 0,-0.781348 0.520898,-1.178223 0.525033,-0.396876 1.562696,-0.396876 h 1.066602 v -0.07441 q 0,-0.525032 -0.347266,-0.810286 -0.343131,-0.289389 -0.967383,-0.289389 -0.396875,0 -0.77308,0.09508 -0.376204,0.09508 -0.72347,0.285254 v -0.7028 q 0.417546,-0.16123 0.810287,-0.239778 0.392741,-0.08268 0.764811,-0.08268 1.004591,0 1.500685,0.520899 0.496093,0.520899 0.496093,1.579232 z"
         style="text-align:center;text-anchor:middle"
         id="path503" />
      <path
         d="m -15.136567,-43.527135 v 1.314649 h 1.56683 v 0.591179 h -1.56683 v 2.513543 q 0,0.566374 0.152962,0.727604 0.157097,0.161231 0.63252,0.161231 h 0.781348 v 0.636654 h -0.781348 q -0.880567,0 -1.21543,-0.326596 -0.334864,-0.330729 -0.334864,-1.198893 v -2.513543 h -0.558105 v -0.591179 h 0.558105 v -1.314649 z"
         style="text-align:center;text-anchor:middle"
         id="path505" />
      <path
         d="m -8.6087983,-40.08755 v 0.372071 h -3.4974627 q 0.04961,0.785482 0.47129,1.198893 0.425814,0.409278 1.182357,0.409278 0.438216,0 0.8474937,-0.107487 0.4134116,-0.107487 0.818555,-0.322461 v 0.719336 q -0.4092775,0.173633 -0.8392256,0.264583 -0.4299481,0.09095 -0.8722981,0.09095 -1.107944,0 -1.757,-0.644922 -0.644922,-0.644922 -0.644922,-1.744597 0,-1.136882 0.611849,-1.802475 0.615984,-0.669727 1.657781,-0.669727 0.9343101,0 1.4758794,0.603581 0.5457033,0.599447 0.5457033,1.632976 z m -0.7606774,-0.223242 q -0.00827,-0.624252 -0.3513999,-0.996322 -0.3389974,-0.372071 -0.9012374,-0.372071 -0.636654,0 -1.021127,0.359669 -0.380338,0.359668 -0.438216,1.012858 z"
         style="text-align:center;text-anchor:middle"
         id="path507" />
      <path
         d="m -2.564725,-39.909783 q -0.921908,0 -1.277442,0.21084 -0.3555339,0.21084 -0.3555339,0.719336 0,0.405144 0.2645834,0.644922 0.2687175,0.235645 0.7276044,0.235645 0.6325198,0 1.0128585,-0.446484 0.3844728,-0.450619 0.3844728,-1.19476 v -0.169499 z m 1.5172206,-0.314193 v 2.641701 h -0.7606774 v -0.7028 q -0.2604493,0.42168 -0.6490562,0.624251 -0.3886069,0.198438 -0.9508467,0.198438 -0.711068,0 -1.1327479,-0.396875 -0.4175457,-0.401009 -0.4175457,-1.070736 0,-0.781348 0.5208986,-1.178223 0.5250328,-0.396876 1.5626959,-0.396876 h 1.066602 v -0.07441 q 0,-0.525032 -0.3472657,-0.810286 -0.3431317,-0.289389 -0.9673832,-0.289389 -0.3968752,0 -0.7730798,0.09508 -0.3762045,0.09508 -0.7234703,0.285254 v -0.7028 q 0.4175457,-0.16123 0.8102868,-0.239778 0.392741,-0.08268 0.7648115,-0.08268 1.0045902,0 1.5006842,0.520899 0.4960939,0.520899 0.4960939,1.579232 z"
         style="text-align:center;text-anchor:middle"
         id="path509" />
      <path
         d="m 4.3681884,-40.376938 v 2.794663 H 3.607511 v -2.769858 q 0,-0.657325 -0.2563152,-0.98392 -0.2563152,-0.326595 -0.7689457,-0.326595 -0.6159833,0 -0.9715173,0.392741 -0.355534,0.392741 -0.355534,1.070736 v 2.616896 H 0.49038734 v -4.630211 H 1.2551988 v 0.719337 q 0.2728517,-0.417546 0.6407881,-0.624252 0.3720704,-0.206706 0.855762,-0.206706 0.7978844,0 1.207162,0.496094 0.4092775,0.49196 0.4092775,1.451075 z"
         style="text-align:center;text-anchor:middle"
         id="path511" />
      <path
         d="m 8.932251,-41.509686 v -2.505274 h 0.7606774 v 6.432685 H 8.932251 v -0.694532 q -0.2397787,0.413412 -0.607715,0.615983 -0.3638023,0.198438 -0.8764327,0.198438 -0.8392256,0 -1.3683925,-0.669727 -0.5250327,-0.669727 -0.5250327,-1.761133 0,-1.091407 0.5250327,-1.761134 0.5291669,-0.669727 1.3683925,-0.669727 0.5126304,0 0.8764327,0.202572 0.3679363,0.198438 0.607715,0.611849 z m -2.5920908,1.61644 q 0,0.839225 0.3431316,1.318783 0.3472658,0.475423 0.9508468,0.475423 0.6035809,0 0.9508467,-0.475423 0.3472657,-0.479558 0.3472657,-1.318783 0,-0.839226 -0.3472657,-1.314649 -0.3472658,-0.479558 -0.9508467,-0.479558 -0.603581,0 -0.9508468,0.479558 -0.3431316,0.475423 -0.3431316,1.314649 z"
         style="text-align:center;text-anchor:middle"
         id="path513" />
      <path
         d="m 16.634115,-41.501418 q -0.128158,-0.07441 -0.28112,-0.107487 -0.148828,-0.03721 -0.330729,-0.03721 -0.644922,0 -0.992188,0.42168 -0.343132,0.417546 -0.343132,1.203028 v 2.439129 h -0.764811 v -4.630211 h 0.764811 v 0.719337 q 0.239779,-0.42168 0.624252,-0.624252 0.384473,-0.206706 0.93431,-0.206706 0.07855,0 0.173633,0.0124 0.09509,0.0083 0.21084,0.02894 z"
         style="text-align:center;text-anchor:middle"
         id="path515" />
      <path
         d="m 19.040171,-41.679185 q -0.611849,0 -0.967383,0.479558 -0.355534,0.475423 -0.355534,1.306381 0,0.830957 0.3514,1.310514 0.355534,0.475424 0.971517,0.475424 0.607715,0 0.963249,-0.479558 0.355534,-0.479557 0.355534,-1.30638 0,-0.822689 -0.355534,-1.302247 -0.355534,-0.483692 -0.963249,-0.483692 z m 0,-0.644922 q 0.992188,0 1.558562,0.644922 0.566374,0.644923 0.566374,1.785939 0,1.136882 -0.566374,1.785938 -0.566374,0.644922 -1.558562,0.644922 -0.996322,0 -1.562696,-0.644922 -0.562239,-0.649056 -0.562239,-1.785938 0,-1.141016 0.562239,-1.785939 0.566374,-0.644922 1.562696,-0.644922 z"
         style="text-align:center;text-anchor:middle"
         id="path517" />
      <path
         d="m 25.74984,-39.893246 q 0,-0.839226 -0.347265,-1.314649 -0.343132,-0.479558 -0.946713,-0.479558 -0.603581,0 -0.950847,0.479558 -0.343131,0.475423 -0.343131,1.314649 0,0.839225 0.343131,1.318783 0.347266,0.475423 0.950847,0.475423 0.603581,0 0.946713,-0.475423 0.347265,-0.479558 0.347265,-1.318783 z m -2.587956,-1.61644 q 0.239778,-0.413411 0.603581,-0.611849 0.367936,-0.202572 0.876432,-0.202572 0.84336,0 1.368393,0.669727 0.529167,0.669727 0.529167,1.761134 0,1.091406 -0.529167,1.761133 -0.525033,0.669727 -1.368393,0.669727 -0.508496,0 -0.876432,-0.198438 -0.363803,-0.202571 -0.603581,-0.615983 v 0.694532 h -0.764812 v -6.432685 h 0.764812 z"
         style="text-align:center;text-anchor:middle"
         id="path519" />
      <path
         d="m 27.721814,-39.409555 v -2.802931 h 0.760678 v 2.773992 q 0,0.657325 0.256315,0.988054 0.256315,0.326595 0.768946,0.326595 0.615983,0 0.971517,-0.392741 0.359668,-0.392741 0.359668,-1.070736 v -2.625164 h 0.760677 v 4.630211 h -0.760677 v -0.711068 q -0.276986,0.421679 -0.644922,0.628385 -0.363802,0.202572 -0.847494,0.202572 -0.797884,0 -1.211296,-0.496094 -0.413412,-0.496094 -0.413412,-1.451075 z m 1.914096,-2.914552 z"
         style="text-align:center;text-anchor:middle"
         id="path521" />
      <path
         d="m 36.118203,-42.07606 v 0.719336 q -0.322461,-0.165364 -0.669727,-0.248046 -0.347266,-0.08268 -0.719336,-0.08268 -0.566374,0 -0.851628,0.173633 -0.28112,0.173633 -0.28112,0.520899 0,0.264583 0.202572,0.417545 0.202571,0.148829 0.81442,0.285254 l 0.26045,0.05788 q 0.810287,0.173633 1.149284,0.49196 0.343132,0.314193 0.343132,0.880567 0,0.644922 -0.512631,1.021126 -0.508496,0.376205 -1.401465,0.376205 -0.372071,0 -0.777214,-0.07441 -0.401009,-0.07028 -0.847494,-0.214974 v -0.785482 q 0.42168,0.219108 0.830958,0.330729 0.409277,0.107487 0.810286,0.107487 0.537435,0 0.826824,-0.181901 0.289388,-0.186035 0.289388,-0.520899 0,-0.310058 -0.21084,-0.475423 -0.206706,-0.165365 -0.91364,-0.318327 l -0.264583,-0.06201 q -0.706934,-0.148828 -1.021127,-0.454753 -0.314193,-0.310058 -0.314193,-0.847493 0,-0.653191 0.463021,-1.008725 0.463021,-0.355534 1.314649,-0.355534 0.42168,0 0.79375,0.06201 0.372071,0.06201 0.686264,0.186035 z"
         style="text-align:center;text-anchor:middle"
         id="path523" />
      <path
         d="m 38.329955,-43.527135 v 1.314649 h 1.56683 v 0.591179 h -1.56683 v 2.513543 q 0,0.566374 0.152963,0.727604 0.157096,0.161231 0.632519,0.161231 h 0.781348 v 0.636654 h -0.781348 q -0.880566,0 -1.21543,-0.326596 -0.334863,-0.330729 -0.334863,-1.198893 v -2.513543 h -0.558106 v -0.591179 h 0.558106 v -1.314649 z"
         style="text-align:center;text-anchor:middle"
         id="path525" />
      <path
         d="m 46.540307,-42.07606 v 0.719336 q -0.322461,-0.165364 -0.669727,-0.248046 -0.347266,-0.08268 -0.719336,-0.08268 -0.566374,0 -0.851628,0.173633 -0.28112,0.173633 -0.28112,0.520899 0,0.264583 0.202571,0.417545 0.202572,0.148829 0.814421,0.285254 l 0.26045,0.05788 q 0.810286,0.173633 1.149284,0.49196 0.343132,0.314193 0.343132,0.880567 0,0.644922 -0.512631,1.021126 -0.508496,0.376205 -1.401465,0.376205 -0.372071,0 -0.777214,-0.07441 -0.401009,-0.07028 -0.847494,-0.214974 v -0.785482 q 0.42168,0.219108 0.830957,0.330729 0.409278,0.107487 0.810287,0.107487 0.537435,0 0.826824,-0.181901 0.289388,-0.186035 0.289388,-0.520899 0,-0.310058 -0.21084,-0.475423 -0.206706,-0.165365 -0.91364,-0.318327 l -0.264583,-0.06201 q -0.706934,-0.148828 -1.021127,-0.454753 -0.314193,-0.310058 -0.314193,-0.847493 0,-0.653191 0.463021,-1.008725 0.463021,-0.355534 1.314649,-0.355534 0.42168,0 0.79375,0.06201 0.372071,0.06201 0.686264,0.186035 z"
         style="text-align:center;text-anchor:middle"
         id="path527" />
      <path
         d="m 48.752059,-43.527135 v 1.314649 h 1.56683 v 0.591179 h -1.56683 v 2.513543 q 0,0.566374 0.152962,0.727604 0.157097,0.161231 0.63252,0.161231 h 0.781348 v 0.636654 h -0.781348 q -0.880567,0 -1.21543,-0.326596 -0.334863,-0.330729 -0.334863,-1.198893 v -2.513543 h -0.558106 v -0.591179 h 0.558106 v -1.314649 z"
         style="text-align:center;text-anchor:middle"
         id="path529" />
      <path
         d="m 53.423617,-39.909783 q -0.921908,0 -1.277442,0.21084 -0.355534,0.21084 -0.355534,0.719336 0,0.405144 0.264584,0.644922 0.268717,0.235645 0.727604,0.235645 0.63252,0 1.012859,-0.446484 0.384473,-0.450619 0.384473,-1.19476 v -0.169499 z m 1.517221,-0.314193 v 2.641701 h -0.760677 v -0.7028 q -0.26045,0.42168 -0.649057,0.624251 -0.388607,0.198438 -0.950846,0.198438 -0.711068,0 -1.132748,-0.396875 -0.417546,-0.401009 -0.417546,-1.070736 0,-0.781348 0.520899,-1.178223 0.525032,-0.396876 1.562696,-0.396876 h 1.066602 v -0.07441 q 0,-0.525032 -0.347266,-0.810286 -0.343132,-0.289389 -0.967383,-0.289389 -0.396876,0 -0.77308,0.09508 -0.376205,0.09508 -0.723471,0.285254 v -0.7028 q 0.417546,-0.16123 0.810287,-0.239778 0.392741,-0.08268 0.764812,-0.08268 1.00459,0 1.500684,0.520899 0.496094,0.520899 0.496094,1.579232 z"
         style="text-align:center;text-anchor:middle"
         id="path531" />
      <path
         d="m 57.26007,-43.527135 v 1.314649 h 1.56683 v 0.591179 h -1.56683 v 2.513543 q 0,0.566374 0.152962,0.727604 0.157097,0.161231 0.63252,0.161231 H 58.8269 v 0.636654 h -0.781348 q -0.880567,0 -1.21543,-0.326596 -0.334864,-0.330729 -0.334864,-1.198893 v -2.513543 h -0.558105 v -0.591179 h 0.558105 v -1.314649 z"
         style="text-align:center;text-anchor:middle"
         id="path533" />
      <path
         d="m 59.827363,-42.212486 h 0.760677 v 4.630211 h -0.760677 z m 0,-1.802474 h 0.760677 v 0.963249 h -0.760677 z"
         style="text-align:center;text-anchor:middle"
         id="path535" />
      <path
         d="m 65.131432,-42.07606 v 0.719336 q -0.322461,-0.165364 -0.669727,-0.248046 -0.347265,-0.08268 -0.719336,-0.08268 -0.566374,0 -0.851628,0.173633 -0.28112,0.173633 -0.28112,0.520899 0,0.264583 0.202572,0.417545 0.202572,0.148829 0.814421,0.285254 l 0.260449,0.05788 q 0.810287,0.173633 1.149284,0.49196 0.343132,0.314193 0.343132,0.880567 0,0.644922 -0.51263,1.021126 -0.508497,0.376205 -1.401466,0.376205 -0.37207,0 -0.777214,-0.07441 -0.401009,-0.07028 -0.847493,-0.214974 v -0.785482 q 0.421679,0.219108 0.830957,0.330729 0.409277,0.107487 0.810287,0.107487 0.537435,0 0.826823,-0.181901 0.289388,-0.186035 0.289388,-0.520899 0,-0.310058 -0.21084,-0.475423 -0.206706,-0.165365 -0.913639,-0.318327 l -0.264584,-0.06201 q -0.706934,-0.148828 -1.021127,-0.454753 -0.314192,-0.310058 -0.314192,-0.847493 0,-0.653191 0.463021,-1.008725 0.463021,-0.355534 1.314649,-0.355534 0.421679,0 0.79375,0.06201 0.37207,0.06201 0.686263,0.186035 z"
         style="text-align:center;text-anchor:middle"
         id="path537" />
      <path
         d="m 67.343185,-43.527135 v 1.314649 h 1.56683 v 0.591179 h -1.56683 v 2.513543 q 0,0.566374 0.152962,0.727604 0.157096,0.161231 0.63252,0.161231 h 0.781348 v 0.636654 h -0.781348 q -0.880567,0 -1.215431,-0.326596 -0.334863,-0.330729 -0.334863,-1.198893 v -2.513543 h -0.558106 v -0.591179 h 0.558106 v -1.314649 z"
         style="text-align:center;text-anchor:middle"
         id="path539" />
      <path
         d="m 69.910462,-42.212486 h 0.760678 v 4.630211 h -0.760678 z m 0,-1.802474 h 0.760678 v 0.963249 h -0.760678 z"
         style="text-align:center;text-anchor:middle"
         id="path541" />
      <path
         d="m 75.59487,-42.034719 v 0.711068 q -0.322461,-0.177767 -0.649056,-0.264583 -0.322461,-0.09095 -0.65319,-0.09095 -0.740007,0 -1.149285,0.47129 -0.409277,0.467155 -0.409277,1.314649 0,0.847493 0.409277,1.318783 0.409278,0.467155 1.149285,0.467155 0.330729,0 0.65319,-0.08682 0.326595,-0.09095 0.649056,-0.268717 v 0.7028 q -0.318327,0.148828 -0.661458,0.223242 -0.338998,0.07441 -0.723471,0.07441 -1.045931,0 -1.661914,-0.657325 -0.615984,-0.657324 -0.615984,-1.773535 0,-1.132748 0.620118,-1.781804 0.624251,-0.649057 1.70739,-0.649057 0.3514,0 0.686263,0.07441 0.334863,0.07028 0.649056,0.214974 z"
         style="text-align:center;text-anchor:middle"
         id="path543" />
      <path
         d="m 79.022052,-39.909783 q -0.921908,0 -1.277442,0.21084 -0.355534,0.21084 -0.355534,0.719336 0,0.405144 0.264583,0.644922 0.268718,0.235645 0.727605,0.235645 0.632519,0 1.012858,-0.446484 0.384473,-0.450619 0.384473,-1.19476 v -0.169499 z m 1.51722,-0.314193 v 2.641701 h -0.760677 v -0.7028 q -0.260449,0.42168 -0.649056,0.624251 -0.388607,0.198438 -0.950847,0.198438 -0.711068,0 -1.132748,-0.396875 -0.417546,-0.401009 -0.417546,-1.070736 0,-0.781348 0.520899,-1.178223 0.525033,-0.396876 1.562696,-0.396876 h 1.066602 v -0.07441 q 0,-0.525032 -0.347266,-0.810286 -0.343131,-0.289389 -0.967383,-0.289389 -0.396875,0 -0.77308,0.09508 -0.376204,0.09508 -0.72347,0.285254 v -0.7028 q 0.417546,-0.16123 0.810287,-0.239778 0.392741,-0.08268 0.764811,-0.08268 1.00459,0 1.500684,0.520899 0.496094,0.520899 0.496094,1.579232 z"
         style="text-align:center;text-anchor:middle"
         id="path545" />
      <path
         d="m 82.106111,-44.01496 h 0.760677 v 6.432685 h -0.760677 z"
         style="text-align:center;text-anchor:middle"
         id="path547" />
      <path
         d="m 87.149735,-42.212486 h 0.760678 v 4.630211 h -0.760678 z m 0,-1.802474 h 0.760678 v 0.963249 h -0.760678 z"
         style="text-align:center;text-anchor:middle"
         id="path549" />
      <path
         d="m 93.350908,-40.376938 v 2.794663 H 92.59023 v -2.769858 q 0,-0.657325 -0.256315,-0.98392 -0.256315,-0.326595 -0.768945,-0.326595 -0.615984,0 -0.971518,0.392741 -0.355534,0.392741 -0.355534,1.070736 v 2.616896 h -0.764811 v -4.630211 h 0.764811 v 0.719337 q 0.272852,-0.417546 0.640788,-0.624252 0.372071,-0.206706 0.855762,-0.206706 0.797885,0 1.207162,0.496094 0.409278,0.49196 0.409278,1.451075 z"
         style="text-align:center;text-anchor:middle"
         id="path551" />
      <path
         d="m 97.212163,-44.01496 v 0.63252 h -0.727604 q -0.409278,0 -0.570508,0.165364 -0.157097,0.165365 -0.157097,0.595313 v 0.409277 h 1.252637 v 0.591179 h -1.252637 v 4.039032 h -0.764811 v -4.039032 h -0.727605 v -0.591179 h 0.727605 v -0.322461 q 0,-0.773079 0.359668,-1.124479 0.359668,-0.355534 1.141016,-0.355534 z"
         style="text-align:center;text-anchor:middle"
         id="path553" />
      <path
         d="m 101.8093,-40.08755 v 0.372071 h -3.497462 q 0.04961,0.785482 0.471289,1.198893 0.425814,0.409278 1.182357,0.409278 0.438216,0 0.847496,-0.107487 0.41341,-0.107487 0.81855,-0.322461 v 0.719336 q -0.40927,0.173633 -0.83922,0.264583 -0.42995,0.09095 -0.872301,0.09095 -1.107943,0 -1.756999,-0.644922 -0.644922,-0.644922 -0.644922,-1.744597 0,-1.136882 0.611849,-1.802475 0.615983,-0.669727 1.65778,-0.669727 0.934313,0 1.475883,0.603581 0.5457,0.599447 0.5457,1.632976 z m -0.76068,-0.223242 q -0.008,-0.624252 -0.3514,-0.996322 -0.33899,-0.372071 -0.901234,-0.372071 -0.636654,0 -1.021127,0.359669 -0.380339,0.359668 -0.438216,1.012858 z"
         style="text-align:center;text-anchor:middle"
         id="path555" />
      <path
         d="m 105.74086,-41.501418 q -0.12816,-0.07441 -0.28112,-0.107487 -0.14883,-0.03721 -0.33073,-0.03721 -0.64492,0 -0.99219,0.42168 -0.34313,0.417546 -0.34313,1.203028 v 2.439129 h -0.76481 v -4.630211 h 0.76481 v 0.719337 q 0.23978,-0.42168 0.62425,-0.624252 0.38447,-0.206706 0.93431,-0.206706 0.0786,0 0.17363,0.0124 0.0951,0.0083 0.21084,0.02894 z"
         style="text-align:center;text-anchor:middle"
         id="path557" />
      <path
         d="m 110.31319,-40.08755 v 0.372071 h -3.49746 q 0.0496,0.785482 0.47129,1.198893 0.42581,0.409278 1.18236,0.409278 0.43821,0 0.84749,-0.107487 0.41341,-0.107487 0.81855,-0.322461 v 0.719336 q -0.40927,0.173633 -0.83922,0.264583 -0.42995,0.09095 -0.8723,0.09095 -1.10794,0 -1.757,-0.644922 -0.64492,-0.644922 -0.64492,-1.744597 0,-1.136882 0.61185,-1.802475 0.61598,-0.669727 1.65778,-0.669727 0.93431,0 1.47588,0.603581 0.5457,0.599447 0.5457,1.632976 z m -0.76068,-0.223242 q -0.008,-0.624252 -0.3514,-0.996322 -0.33899,-0.372071 -0.90123,-0.372071 -0.63666,0 -1.02113,0.359669 -0.38034,0.359668 -0.43822,1.012858 z"
         style="text-align:center;text-anchor:middle"
         id="path559" />
      <path
         d="m 115.41055,-40.376938 v 2.794663 h -0.76067 v -2.769858 q 0,-0.657325 -0.25632,-0.98392 -0.25631,-0.326595 -0.76894,-0.326595 -0.61599,0 -0.97152,0.392741 -0.35554,0.392741 -0.35554,1.070736 v 2.616896 h -0.76481 v -4.630211 h 0.76481 v 0.719337 q 0.27286,-0.417546 0.64079,-0.624252 0.37207,-0.206706 0.85576,-0.206706 0.79789,0 1.20717,0.496094 0.40927,0.49196 0.40927,1.451075 z"
         style="text-align:center;text-anchor:middle"
         id="path561" />
      <path
         d="m 120.25986,-42.034719 v 0.711068 q -0.32246,-0.177767 -0.64905,-0.264583 -0.32246,-0.09095 -0.65319,-0.09095 -0.74001,0 -1.14929,0.47129 -0.40927,0.467155 -0.40927,1.314649 0,0.847493 0.40927,1.318783 0.40928,0.467155 1.14929,0.467155 0.33073,0 0.65319,-0.08682 0.32659,-0.09095 0.64905,-0.268717 v 0.7028 q -0.31832,0.148828 -0.66146,0.223242 -0.33899,0.07441 -0.72347,0.07441 -1.04593,0 -1.66191,-0.657325 -0.61598,-0.657324 -0.61598,-1.773535 0,-1.132748 0.62011,-1.781804 0.62426,-0.649057 1.70739,-0.649057 0.3514,0 0.68627,0.07441 0.33486,0.07028 0.64905,0.214974 z"
         style="text-align:center;text-anchor:middle"
         id="path563" />
      <path
         d="m 125.54326,-40.08755 v 0.372071 h -3.49746 q 0.0496,0.785482 0.47129,1.198893 0.42581,0.409278 1.18236,0.409278 0.43821,0 0.84749,-0.107487 0.41341,-0.107487 0.81856,-0.322461 v 0.719336 q -0.40928,0.173633 -0.83923,0.264583 -0.42995,0.09095 -0.8723,0.09095 -1.10794,0 -1.757,-0.644922 -0.64492,-0.644922 -0.64492,-1.744597 0,-1.136882 0.61185,-1.802475 0.61598,-0.669727 1.65778,-0.669727 0.93431,0 1.47588,0.603581 0.5457,0.599447 0.5457,1.632976 z m -0.76067,-0.223242 q -0.008,-0.624252 -0.3514,-0.996322 -0.339,-0.372071 -0.90124,-0.372071 -0.63666,0 -1.02113,0.359669 -0.38034,0.359668 -0.43821,1.012858 z"
         style="text-align:center;text-anchor:middle"
         id="path565" />
      <path
         d="m 131.82712,-44.01496 v 0.63252 h -0.7276 q -0.40928,0 -0.57051,0.165364 -0.1571,0.165365 -0.1571,0.595313 v 0.409277 h 1.25264 v 0.591179 h -1.25264 v 4.039032 h -0.76481 v -4.039032 h -0.7276 v -0.591179 h 0.7276 v -0.322461 q 0,-0.773079 0.35967,-1.124479 0.35967,-0.355534 1.14102,-0.355534 z"
         style="text-align:center;text-anchor:middle"
         id="path567" />
      <path
         d="m 134.25798,-41.679185 q -0.61185,0 -0.96738,0.479558 -0.35553,0.475423 -0.35553,1.306381 0,0.830957 0.3514,1.310514 0.35553,0.475424 0.97151,0.475424 0.60772,0 0.96325,-0.479558 0.35554,-0.479557 0.35554,-1.30638 0,-0.822689 -0.35554,-1.302247 -0.35553,-0.483692 -0.96325,-0.483692 z m 0,-0.644922 q 0.99219,0 1.55856,0.644922 0.56638,0.644923 0.56638,1.785939 0,1.136882 -0.56638,1.785938 -0.56637,0.644922 -1.55856,0.644922 -0.99632,0 -1.56269,-0.644922 -0.56224,-0.649056 -0.56224,-1.785938 0,-1.141016 0.56224,-1.785939 0.56637,-0.644922 1.56269,-0.644922 z"
         style="text-align:center;text-anchor:middle"
         id="path569" />
      <path
         d="m 140.32687,-41.501418 q -0.12816,-0.07441 -0.28112,-0.107487 -0.14883,-0.03721 -0.33073,-0.03721 -0.64492,0 -0.99219,0.42168 -0.34313,0.417546 -0.34313,1.203028 v 2.439129 h -0.76481 v -4.630211 h 0.76481 v 0.719337 q 0.23978,-0.42168 0.62425,-0.624252 0.38448,-0.206706 0.93431,-0.206706 0.0785,0 0.17364,0.0124 0.0951,0.0083 0.21084,0.02894 z"
         style="text-align:center;text-anchor:middle"
         id="path571" />
    </g>
    <g
       transform="scale(0.26458333)"
       id="text29509"
       style="font-size:40px;line-height:1.25;word-spacing:0px;white-space:pre;shape-inside:url(#rect29511);display:inline" />
    <g
       id="g925"
       transform="matrix(0.26458333,0,0,0.26458333,-105.11951,35.754436)" />
    <g
       id="g913"
       transform="matrix(0.26458333,0,0,0.26458333,-64.470579,20.172306)" />
    <g
       id="g928"
       transform="matrix(0.26458333,0,0,0.26458333,-65.184575,27.562187)" />
    <g
       id="g943"
       transform="matrix(0.26458333,0,0,0.26458333,-65.278946,34.179786)" />
    <g
       id="g895"
       transform="matrix(0.26458333,0,0,0.26458333,-64.402609,13.006913)" />
    <g
       id="g1003"
       transform="matrix(0.26458333,0,0,0.26458333,-49.403316,40.95154)" />
    <g
       aria-label="Simulator"
       id="text2642"
       style="font-size:9.87778px;line-height:1.25;font-family:sans-serif;stroke-width:0.264583"
       transform="matrix(0.46315689,0,0,0.46315689,-165.06929,246.60771)" />
    <g
       id="g1018"
       transform="matrix(0.26458333,0,0,0.26458333,-45.408297,47.600701)" />
    <g
       id="g910"
       transform="matrix(0.26458333,0,0,0.26458333,-99.673552,11.244992)" />
    <g
       aria-label="deterministic and stochastic models of biochemical systems"
       id="text27958"
       style="font-size:8.46667px;line-height:1.25;word-spacing:0px;stroke-width:0.264583">
      <path
         d="m -100.19601,-30.860203 v -2.505275 h 0.760682 v 6.432685 h -0.760682 v -0.694531 q -0.23977,0.413411 -0.60771,0.615983 -0.3638,0.198438 -0.87643,0.198438 -0.83923,0 -1.3684,-0.669727 -0.52503,-0.669727 -0.52503,-1.761134 0,-1.091406 0.52503,-1.761133 0.52917,-0.669727 1.3684,-0.669727 0.51263,0 0.87643,0.202572 0.36794,0.198437 0.60771,0.611849 z m -2.59209,1.616439 q 0,0.839226 0.34314,1.318783 0.34726,0.475424 0.95084,0.475424 0.60358,0 0.95085,-0.475424 0.34726,-0.479557 0.34726,-1.318783 0,-0.839225 -0.34726,-1.314649 -0.34727,-0.479557 -0.95085,-0.479557 -0.60358,0 -0.95084,0.479557 -0.34314,0.475424 -0.34314,1.314649 z"
         id="path373" />
      <path
         d="m -93.908015,-29.438067 v 0.37207 h -3.497462 q 0.04961,0.785482 0.471289,1.198894 0.425814,0.409278 1.182358,0.409278 0.438216,0 0.847493,-0.107487 0.413412,-0.107487 0.818555,-0.322462 v 0.719337 q -0.409277,0.173633 -0.839225,0.264583 -0.429948,0.09095 -0.872299,0.09095 -1.107943,0 -1.756999,-0.644922 -0.644922,-0.644923 -0.644922,-1.744597 0,-1.136882 0.611849,-1.802475 0.615983,-0.669727 1.657781,-0.669727 0.93431,0 1.475879,0.603581 0.545703,0.599447 0.545703,1.632976 z m -0.760677,-0.223242 q -0.0083,-0.624252 -0.3514,-0.996322 -0.338997,-0.372071 -0.901237,-0.372071 -0.636654,0 -1.021127,0.359668 -0.380339,0.359668 -0.438216,1.012859 z"
         id="path375" />
      <path
         d="m -91.907102,-32.877652 v 1.314649 h 1.56683 v 0.591179 h -1.56683 v 2.513542 q 0,0.566374 0.152962,0.727605 0.157097,0.16123 0.63252,0.16123 h 0.781348 v 0.636654 h -0.781348 q -0.880567,0 -1.21543,-0.326595 -0.334863,-0.330729 -0.334863,-1.198894 v -2.513542 h -0.558106 v -0.591179 h 0.558106 v -1.314649 z"
         id="path377" />
      <path
         d="m -85.379333,-29.438067 v 0.37207 h -3.497463 q 0.04961,0.785482 0.47129,1.198894 0.425814,0.409278 1.182357,0.409278 0.438216,0 0.847494,-0.107487 0.413411,-0.107487 0.818555,-0.322462 v 0.719337 q -0.409278,0.173633 -0.839226,0.264583 -0.429948,0.09095 -0.872298,0.09095 -1.107944,0 -1.757,-0.644922 -0.644922,-0.644923 -0.644922,-1.744597 0,-1.136882 0.611849,-1.802475 0.615984,-0.669727 1.657781,-0.669727 0.93431,0 1.475879,0.603581 0.545704,0.599447 0.545704,1.632976 z m -0.760678,-0.223242 q -0.0083,-0.624252 -0.3514,-0.996322 -0.338997,-0.372071 -0.901237,-0.372071 -0.636654,0 -1.021127,0.359668 -0.380338,0.359668 -0.438216,1.012859 z"
         id="path379" />
      <path
         d="m -81.447789,-30.851935 q -0.128157,-0.07441 -0.28112,-0.107487 -0.148828,-0.03721 -0.330729,-0.03721 -0.644922,0 -0.992188,0.42168 -0.343132,0.417546 -0.343132,1.203028 v 2.439128 h -0.764811 v -4.63021 h 0.764811 v 0.719336 q 0.239779,-0.421679 0.624252,-0.624251 0.384473,-0.206706 0.93431,-0.206706 0.07855,0 0.173633,0.0124 0.09508,0.0083 0.21084,0.02894 z"
         id="path381" />
      <path
         d="m -77.193783,-30.674168 q 0.285254,-0.51263 0.682129,-0.756543 0.396875,-0.243913 0.93431,-0.243913 0.723471,0 1.116212,0.508496 0.392741,0.504362 0.392741,1.438673 v 2.794662 h -0.764812 v -2.769858 q 0,-0.665592 -0.235644,-0.988053 -0.235645,-0.322461 -0.719336,-0.322461 -0.591179,0 -0.934311,0.392741 -0.343131,0.392741 -0.343131,1.070736 v 2.616895 h -0.764812 v -2.769858 q 0,-0.669726 -0.235644,-0.988053 -0.235645,-0.322461 -0.727605,-0.322461 -0.58291,0 -0.926042,0.396875 -0.343132,0.392741 -0.343132,1.066602 v 2.616895 h -0.764811 v -4.63021 h 0.764811 v 0.719336 q 0.26045,-0.425814 0.624252,-0.628385 0.363802,-0.202572 0.86403,-0.202572 0.504362,0 0.855762,0.256315 0.355534,0.256315 0.525033,0.744141 z"
         id="path383" />
      <path
         d="m -72.551172,-31.563003 h 0.760678 v 4.63021 h -0.760678 z m 0,-1.802475 h 0.760678 v 0.96325 h -0.760678 z"
         id="path385" />
      <path
         d="m -66.349996,-29.727455 v 2.794662 h -0.760677 v -2.769858 q 0,-0.657324 -0.256315,-0.983919 -0.256315,-0.326595 -0.768946,-0.326595 -0.615983,0 -0.971517,0.392741 -0.355534,0.392741 -0.355534,1.070736 v 2.616895 h -0.764812 v -4.63021 h 0.764812 v 0.719336 q 0.272852,-0.417545 0.640788,-0.624251 0.37207,-0.206706 0.855762,-0.206706 0.797884,0 1.207162,0.496094 0.409277,0.49196 0.409277,1.451075 z"
         id="path387" />
      <path
         d="m -64.832777,-31.563003 h 0.760678 v 4.63021 h -0.760678 z m 0,-1.802475 h 0.760678 v 0.96325 h -0.760678 z"
         id="path389" />
      <path
         d="m -59.528704,-31.426577 v 0.719336 q -0.322461,-0.165364 -0.669726,-0.248047 -0.347266,-0.08268 -0.719337,-0.08268 -0.566374,0 -0.851628,0.173633 -0.281119,0.173633 -0.281119,0.520898 0,0.264584 0.202571,0.417546 0.202572,0.148828 0.814421,0.285254 l 0.260449,0.05788 q 0.810287,0.173633 1.149285,0.49196 0.343131,0.314192 0.343131,0.880566 0,0.644923 -0.51263,1.021127 -0.508496,0.376205 -1.401465,0.376205 -0.372071,0 -0.777214,-0.07441 -0.40101,-0.07028 -0.847494,-0.214974 v -0.785483 q 0.42168,0.219109 0.830957,0.33073 0.409278,0.107487 0.810287,0.107487 0.537435,0 0.826823,-0.181901 0.289388,-0.186036 0.289388,-0.520899 0,-0.310059 -0.21084,-0.475423 -0.206705,-0.165365 -0.913639,-0.318327 l -0.264584,-0.06201 q -0.706934,-0.148828 -1.021126,-0.454753 -0.314193,-0.310059 -0.314193,-0.847494 0,-0.65319 0.463021,-1.008724 0.463021,-0.355534 1.314649,-0.355534 0.42168,0 0.79375,0.06201 0.372071,0.06201 0.686263,0.186035 z"
         id="path391" />
      <path
         d="m -57.316955,-32.877652 v 1.314649 h 1.56683 v 0.591179 h -1.56683 v 2.513542 q 0,0.566374 0.152962,0.727605 0.157097,0.16123 0.63252,0.16123 h 0.781348 v 0.636654 h -0.781348 q -0.880567,0 -1.21543,-0.326595 -0.334863,-0.330729 -0.334863,-1.198894 v -2.513542 h -0.558106 v -0.591179 h 0.558106 v -1.314649 z"
         id="path393" />
      <path
         d="m -54.749666,-31.563003 h 0.760678 v 4.63021 h -0.760678 z m 0,-1.802475 h 0.760678 v 0.96325 h -0.760678 z"
         id="path395" />
      <path
         d="m -49.065258,-31.385236 v 0.711068 q -0.322461,-0.177767 -0.649056,-0.264583 -0.322461,-0.09095 -0.653191,-0.09095 -0.740006,0 -1.149284,0.471289 -0.409277,0.467156 -0.409277,1.314649 0,0.847494 0.409277,1.318783 0.409278,0.467156 1.149284,0.467156 0.33073,0 0.653191,-0.08682 0.326595,-0.09095 0.649056,-0.268717 v 0.702799 q -0.318327,0.148829 -0.661459,0.223243 -0.338997,0.07441 -0.72347,0.07441 -1.045931,0 -1.661915,-0.657325 -0.615983,-0.657324 -0.615983,-1.773536 0,-1.132747 0.620118,-1.781804 0.624251,-0.649056 1.70739,-0.649056 0.351399,0 0.686263,0.07441 0.334863,0.07028 0.649056,0.214974 z"
         id="path397" />
      <path
         d="m -42.946766,-29.2603 q -0.921907,0 -1.277441,0.21084 -0.355534,0.21084 -0.355534,0.719336 0,0.405143 0.264583,0.644922 0.268718,0.235645 0.727604,0.235645 0.63252,0 1.012859,-0.446485 0.384473,-0.450618 0.384473,-1.194759 V -29.2603 Z m 1.517221,-0.314193 v 2.6417 h -0.760677 v -0.702799 q -0.26045,0.421679 -0.649056,0.624251 -0.388607,0.198438 -0.950847,0.198438 -0.711068,0 -1.132748,-0.396875 -0.417546,-0.40101 -0.417546,-1.070737 0,-0.781348 0.520899,-1.178223 0.525033,-0.396875 1.562696,-0.396875 h 1.066602 v -0.07441 q 0,-0.525033 -0.347266,-0.810287 -0.343132,-0.289388 -0.967383,-0.289388 -0.396875,0 -0.77308,0.09509 -0.376205,0.09509 -0.72347,0.285254 v -0.7028 q 0.417545,-0.16123 0.810287,-0.239779 0.392741,-0.08268 0.764811,-0.08268 1.00459,0 1.500684,0.520899 0.496094,0.520898 0.496094,1.579232 z"
         id="path399" />
      <path
         d="m -36.013852,-29.727455 v 2.794662 h -0.760677 v -2.769858 q 0,-0.657324 -0.256316,-0.983919 -0.256315,-0.326595 -0.768945,-0.326595 -0.615984,0 -0.971518,0.392741 -0.355534,0.392741 -0.355534,1.070736 v 2.616895 h -0.764811 v -4.63021 h 0.764811 v 0.719336 q 0.272852,-0.417545 0.640788,-0.624251 0.372071,-0.206706 0.855762,-0.206706 0.797885,0 1.207162,0.496094 0.409278,0.49196 0.409278,1.451075 z"
         id="path401" />
      <path
         d="m -31.449789,-30.860203 v -2.505275 h 0.760677 v 6.432685 h -0.760677 v -0.694531 q -0.239779,0.413411 -0.607716,0.615983 -0.363802,0.198438 -0.876432,0.198438 -0.839226,0 -1.368393,-0.669727 -0.525032,-0.669727 -0.525032,-1.761134 0,-1.091406 0.525032,-1.761133 0.529167,-0.669727 1.368393,-0.669727 0.51263,0 0.876432,0.202572 0.367937,0.198437 0.607716,0.611849 z m -2.592091,1.616439 q 0,0.839226 0.343131,1.318783 0.347266,0.475424 0.950847,0.475424 0.603581,0 0.950847,-0.475424 0.347266,-0.479557 0.347266,-1.318783 0,-0.839225 -0.347266,-1.314649 -0.347266,-0.479557 -0.950847,-0.479557 -0.603581,0 -0.950847,0.479557 -0.343131,0.475424 -0.343131,1.314649 z"
         id="path403" />
      <path
         d="m -23.479216,-31.426577 v 0.719336 q -0.322461,-0.165364 -0.669726,-0.248047 -0.347266,-0.08268 -0.719337,-0.08268 -0.566374,0 -0.851628,0.173633 -0.281119,0.173633 -0.281119,0.520898 0,0.264584 0.202571,0.417546 0.202572,0.148828 0.814421,0.285254 l 0.260449,0.05788 q 0.810287,0.173633 1.149285,0.49196 0.343131,0.314192 0.343131,0.880566 0,0.644923 -0.51263,1.021127 -0.508496,0.376205 -1.401465,0.376205 -0.372071,0 -0.777214,-0.07441 -0.401009,-0.07028 -0.847494,-0.214974 v -0.785483 q 0.42168,0.219109 0.830957,0.33073 0.409278,0.107487 0.810287,0.107487 0.537435,0 0.826823,-0.181901 0.289388,-0.186036 0.289388,-0.520899 0,-0.310059 -0.210839,-0.475423 -0.206706,-0.165365 -0.91364,-0.318327 l -0.264584,-0.06201 q -0.706933,-0.148828 -1.021126,-0.454753 -0.314193,-0.310059 -0.314193,-0.847494 0,-0.65319 0.463021,-1.008724 0.463021,-0.355534 1.314649,-0.355534 0.42168,0 0.79375,0.06201 0.372071,0.06201 0.686263,0.186035 z"
         id="path405" />
      <path
         d="m -21.267463,-32.877652 v 1.314649 h 1.56683 v 0.591179 h -1.56683 v 2.513542 q 0,0.566374 0.152962,0.727605 0.157097,0.16123 0.63252,0.16123 h 0.781348 v 0.636654 h -0.781348 q -0.880567,0 -1.21543,-0.326595 -0.334864,-0.330729 -0.334864,-1.198894 v -2.513542 h -0.558105 v -0.591179 h 0.558105 v -1.314649 z"
         id="path407" />
      <path
         d="m -16.905964,-31.029702 q -0.611849,0 -0.967383,0.479558 -0.355534,0.475423 -0.355534,1.30638 0,0.830958 0.3514,1.310515 0.355534,0.475424 0.971517,0.475424 0.607715,0 0.963249,-0.479558 0.355534,-0.479557 0.355534,-1.306381 0,-0.822689 -0.355534,-1.302246 -0.355534,-0.483692 -0.963249,-0.483692 z m 0,-0.644922 q 0.992188,0 1.558562,0.644922 0.566374,0.644922 0.566374,1.785938 0,1.136882 -0.566374,1.785939 -0.566374,0.644922 -1.558562,0.644922 -0.996322,0 -1.562696,-0.644922 -0.562239,-0.649057 -0.562239,-1.785939 0,-1.141016 0.562239,-1.785938 0.566374,-0.644922 1.562696,-0.644922 z"
         id="path409" />
      <path
         d="m -10.188026,-31.385236 v 0.711068 q -0.322461,-0.177767 -0.649057,-0.264583 -0.322461,-0.09095 -0.65319,-0.09095 -0.740007,0 -1.149284,0.471289 -0.409278,0.467156 -0.409278,1.314649 0,0.847494 0.409278,1.318783 0.409277,0.467156 1.149284,0.467156 0.330729,0 0.65319,-0.08682 0.326596,-0.09095 0.649057,-0.268717 v 0.702799 q -0.318327,0.148829 -0.661459,0.223243 -0.338997,0.07441 -0.72347,0.07441 -1.045932,0 -1.661915,-0.657325 -0.615983,-0.657324 -0.615983,-1.773536 0,-1.132747 0.620117,-1.781804 0.624252,-0.649056 1.70739,-0.649056 0.3514,0 0.686263,0.07441 0.334864,0.07028 0.649057,0.214974 z"
         id="path411" />
      <path
         d="m -5.0162477,-29.727455 v 2.794662 h -0.7606774 v -2.769858 q 0,-0.657324 -0.2563152,-0.983919 -0.2563152,-0.326595 -0.7689457,-0.326595 -0.6159833,0 -0.9715173,0.392741 -0.355534,0.392741 -0.355534,1.070736 v 2.616895 h -0.7648115 v -6.432685 h 0.7648115 v 2.521811 q 0.2728517,-0.417545 0.6407881,-0.624251 0.3720704,-0.206706 0.855762,-0.206706 0.7978844,0 1.2071619,0.496094 0.4092776,0.49196 0.4092776,1.451075 z"
         id="path413" />
      <path
         d="m -1.3947636,-29.2603 q -0.9219079,0 -1.2774419,0.21084 -0.355534,0.21084 -0.355534,0.719336 0,0.405143 0.2645835,0.644922 0.2687175,0.235645 0.7276044,0.235645 0.6325198,0 1.0128585,-0.446485 0.38447282,-0.450618 0.38447282,-1.194759 V -29.2603 Z m 1.5172207,-0.314193 v 2.6417 h -0.76067738 v -0.702799 q -0.26044933,0.421679 -0.64905622,0.624251 -0.388607,0.198438 -0.9508468,0.198438 -0.711068,0 -1.1327478,-0.396875 -0.4175458,-0.40101 -0.4175458,-1.070737 0,-0.781348 0.5208987,-1.178223 0.5250328,-0.396875 1.5626959,-0.396875 h 1.06660202 v -0.07441 q 0,-0.525033 -0.34726577,-0.810287 -0.34313165,-0.289388 -0.96738315,-0.289388 -0.3968752,0 -0.7730798,0.09509 -0.3762046,0.09509 -0.7234703,0.285254 v -0.7028 q 0.4175457,-0.16123 0.8102868,-0.239779 0.392741,-0.08268 0.7648115,-0.08268 1.00459021,0 1.50068415,0.520899 0.49609395,0.520898 0.49609395,1.579232 z"
         id="path415" />
      <path
         d="m 4.6410466,-31.426577 v 0.719336 q -0.322461,-0.165364 -0.6697268,-0.248047 -0.3472658,-0.08268 -0.7193362,-0.08268 -0.566374,0 -0.851628,0.173633 -0.2811199,0.173633 -0.2811199,0.520898 0,0.264584 0.2025717,0.417546 0.2025717,0.148828 0.8144209,0.285254 l 0.2604493,0.05788 q 0.8102868,0.173633 1.1492843,0.49196 0.3431317,0.314192 0.3431317,0.880566 0,0.644923 -0.5126304,1.021127 -0.5084963,0.376205 -1.4014654,0.376205 -0.3720705,0 -0.7772139,-0.07441 -0.4010092,-0.07028 -0.8474938,-0.214974 v -0.785483 q 0.4216799,0.219109 0.8309574,0.33073 0.4092775,0.107487 0.8102867,0.107487 0.5374352,0 0.8268233,-0.181901 0.2893881,-0.186036 0.2893881,-0.520899 0,-0.310059 -0.2108399,-0.475423 -0.2067058,-0.165365 -0.9136397,-0.318327 l -0.2645834,-0.06201 q -0.7069339,-0.148828 -1.0211267,-0.454753 -0.3141929,-0.310059 -0.3141929,-0.847494 0,-0.65319 0.463021,-1.008724 0.4630211,-0.355534 1.314649,-0.355534 0.4216799,0 0.7937503,0.06201 0.3720705,0.06201 0.6862633,0.186035 z"
         id="path417" />
      <path
         d="m 6.8527991,-32.877652 v 1.314649 h 1.56683 v 0.591179 h -1.56683 v 2.513542 q 0,0.566374 0.1529623,0.727605 0.1570964,0.16123 0.6325198,0.16123 h 0.7813479 v 0.636654 H 7.6382812 q -0.8805668,0 -1.2154302,-0.326595 -0.3348634,-0.330729 -0.3348634,-1.198894 v -2.513542 H 5.5298819 v -0.591179 h 0.5581057 v -1.314649 z"
         id="path419" />
      <path
         d="m 9.4200844,-31.563003 h 0.7606776 v 4.63021 H 9.4200844 Z m 0,-1.802475 h 0.7606776 v 0.96325 H 9.4200844 Z"
         id="path421" />
      <path
         d="m 15.104492,-31.385236 v 0.711068 q -0.322461,-0.177767 -0.649056,-0.264583 -0.322461,-0.09095 -0.65319,-0.09095 -0.740007,0 -1.149285,0.471289 -0.409277,0.467156 -0.409277,1.314649 0,0.847494 0.409277,1.318783 0.409278,0.467156 1.149285,0.467156 0.330729,0 0.65319,-0.08682 0.326595,-0.09095 0.649056,-0.268717 v 0.702799 q -0.318327,0.148829 -0.661458,0.223243 -0.338998,0.07441 -0.723471,0.07441 -1.045931,0 -1.661914,-0.657325 -0.615984,-0.657324 -0.615984,-1.773536 0,-1.132747 0.620118,-1.781804 0.624251,-0.649056 1.70739,-0.649056 0.3514,0 0.686263,0.07441 0.334863,0.07028 0.649056,0.214974 z"
         id="path423" />
      <path
         d="m 22.723673,-30.674168 q 0.285254,-0.51263 0.682129,-0.756543 0.396875,-0.243913 0.93431,-0.243913 0.72347,0 1.116212,0.508496 0.392741,0.504362 0.392741,1.438673 v 2.794662 h -0.764812 v -2.769858 q 0,-0.665592 -0.235645,-0.988053 -0.235644,-0.322461 -0.719336,-0.322461 -0.591178,0 -0.93431,0.392741 -0.343132,0.392741 -0.343132,1.070736 v 2.616895 h -0.764811 v -2.769858 q 0,-0.669726 -0.235645,-0.988053 -0.235644,-0.322461 -0.727604,-0.322461 -0.582911,0 -0.926042,0.396875 -0.343132,0.392741 -0.343132,1.066602 v 2.616895 h -0.764811 v -4.63021 h 0.764811 v 0.719336 q 0.260449,-0.425814 0.624252,-0.628385 0.363802,-0.202572 0.86403,-0.202572 0.504362,0 0.855762,0.256315 0.355534,0.256315 0.525033,0.744141 z"
         id="path425" />
      <path
         d="m 29.160488,-31.029702 q -0.611849,0 -0.967383,0.479558 -0.355534,0.475423 -0.355534,1.30638 0,0.830958 0.3514,1.310515 0.355534,0.475424 0.971517,0.475424 0.607715,0 0.963249,-0.479558 0.355534,-0.479557 0.355534,-1.306381 0,-0.822689 -0.355534,-1.302246 -0.355534,-0.483692 -0.963249,-0.483692 z m 0,-0.644922 q 0.992188,0 1.558562,0.644922 0.566374,0.644922 0.566374,1.785938 0,1.136882 -0.566374,1.785939 -0.566374,0.644922 -1.558562,0.644922 -0.996322,0 -1.562696,-0.644922 -0.562239,-0.649057 -0.562239,-1.785939 0,-1.141016 0.562239,-1.785938 0.566374,-0.644922 1.562696,-0.644922 z"
         id="path427" />
      <path
         d="m 35.593179,-30.860203 v -2.505275 h 0.760678 v 6.432685 h -0.760678 v -0.694531 q -0.239778,0.413411 -0.607715,0.615983 -0.363802,0.198438 -0.876432,0.198438 -0.839226,0 -1.368393,-0.669727 -0.525033,-0.669727 -0.525033,-1.761134 0,-1.091406 0.525033,-1.761133 0.529167,-0.669727 1.368393,-0.669727 0.51263,0 0.876432,0.202572 0.367937,0.198437 0.607715,0.611849 z m -2.592091,1.616439 q 0,0.839226 0.343132,1.318783 0.347266,0.475424 0.950847,0.475424 0.603581,0 0.950847,-0.475424 0.347265,-0.479557 0.347265,-1.318783 0,-0.839225 -0.347265,-1.314649 -0.347266,-0.479557 -0.950847,-0.479557 -0.603581,0 -0.950847,0.479557 -0.343132,0.475424 -0.343132,1.314649 z"
         id="path429" />
      <path
         d="m 41.881163,-29.438067 v 0.37207 h -3.497462 q 0.04961,0.785482 0.471289,1.198894 0.425814,0.409278 1.182357,0.409278 0.438216,0 0.847494,-0.107487 0.413411,-0.107487 0.818555,-0.322462 v 0.719337 q -0.409278,0.173633 -0.839226,0.264583 -0.429948,0.09095 -0.872298,0.09095 -1.107943,0 -1.757,-0.644922 -0.644922,-0.644923 -0.644922,-1.744597 0,-1.136882 0.611849,-1.802475 0.615984,-0.669727 1.657781,-0.669727 0.93431,0 1.47588,0.603581 0.545703,0.599447 0.545703,1.632976 z m -0.760678,-0.223242 q -0.0083,-0.624252 -0.351399,-0.996322 -0.338998,-0.372071 -0.901238,-0.372071 -0.636654,0 -1.021126,0.359668 -0.380339,0.359668 -0.438217,1.012859 z"
         id="path431" />
      <path
         d="m 43.129664,-33.365478 h 0.760677 v 6.432685 h -0.760677 z"
         id="path433" />
      <path
         d="m 48.433733,-31.426577 v 0.719336 q -0.322461,-0.165364 -0.669727,-0.248047 -0.347266,-0.08268 -0.719336,-0.08268 -0.566374,0 -0.851628,0.173633 -0.28112,0.173633 -0.28112,0.520898 0,0.264584 0.202572,0.417546 0.202572,0.148828 0.814421,0.285254 l 0.260449,0.05788 q 0.810287,0.173633 1.149284,0.49196 0.343132,0.314192 0.343132,0.880566 0,0.644923 -0.51263,1.021127 -0.508497,0.376205 -1.401466,0.376205 -0.37207,0 -0.777214,-0.07441 -0.401009,-0.07028 -0.847493,-0.214974 v -0.785483 q 0.421679,0.219109 0.830957,0.33073 0.409277,0.107487 0.810287,0.107487 0.537435,0 0.826823,-0.181901 0.289388,-0.186036 0.289388,-0.520899 0,-0.310059 -0.21084,-0.475423 -0.206706,-0.165365 -0.91364,-0.318327 l -0.264583,-0.06201 q -0.706934,-0.148828 -1.021127,-0.454753 -0.314193,-0.310059 -0.314193,-0.847494 0,-0.65319 0.463022,-1.008724 0.463021,-0.355534 1.314648,-0.355534 0.42168,0 0.793751,0.06201 0.37207,0.06201 0.686263,0.186035 z"
         id="path435" />
      <path
         d="m 54.378598,-31.029702 q -0.61185,0 -0.967384,0.479558 -0.355534,0.475423 -0.355534,1.30638 0,0.830958 0.3514,1.310515 0.355534,0.475424 0.971518,0.475424 0.607715,0 0.963249,-0.479558 0.355534,-0.479557 0.355534,-1.306381 0,-0.822689 -0.355534,-1.302246 -0.355534,-0.483692 -0.963249,-0.483692 z m 0,-0.644922 q 0.992187,0 1.558561,0.644922 0.566374,0.644922 0.566374,1.785938 0,1.136882 -0.566374,1.785939 -0.566374,0.644922 -1.558561,0.644922 -0.996322,0 -1.562696,-0.644922 -0.56224,-0.649057 -0.56224,-1.785939 0,-1.141016 0.56224,-1.785938 0.566374,-0.644922 1.562696,-0.644922 z"
         id="path437" />
      <path
         d="m 60.108489,-33.365478 v 0.63252 h -0.727605 q -0.409277,0 -0.570508,0.165365 -0.157096,0.165365 -0.157096,0.595313 v 0.409277 h 1.252637 v 0.591179 H 58.65328 v 4.039031 h -0.764812 v -4.039031 h -0.727604 v -0.591179 h 0.727604 v -0.322461 q 0,-0.77308 0.359668,-1.12448 0.359669,-0.355534 1.141016,-0.355534 z"
         id="path439" />
      <path
         d="m 66.760271,-29.243764 q 0,-0.839225 -0.347265,-1.314649 -0.343132,-0.479557 -0.946713,-0.479557 -0.603581,0 -0.950847,0.479557 -0.343131,0.475424 -0.343131,1.314649 0,0.839226 0.343131,1.318783 0.347266,0.475424 0.950847,0.475424 0.603581,0 0.946713,-0.475424 0.347265,-0.479557 0.347265,-1.318783 z m -2.587956,-1.616439 q 0.239778,-0.413412 0.603581,-0.611849 0.367936,-0.202572 0.876432,-0.202572 0.84336,0 1.368393,0.669727 0.529167,0.669727 0.529167,1.761133 0,1.091407 -0.529167,1.761134 -0.525033,0.669727 -1.368393,0.669727 -0.508496,0 -0.876432,-0.198438 -0.363803,-0.202572 -0.603581,-0.615983 v 0.694531 h -0.764812 v -6.432685 h 0.764812 z"
         id="path441" />
      <path
         d="m 68.810801,-31.563003 h 0.760677 v 4.63021 h -0.760677 z m 0,-1.802475 h 0.760677 v 0.96325 h -0.760677 z"
         id="path443" />
      <path
         d="m 72.957318,-31.029702 q -0.61185,0 -0.967384,0.479558 -0.355534,0.475423 -0.355534,1.30638 0,0.830958 0.3514,1.310515 0.355534,0.475424 0.971518,0.475424 0.607715,0 0.963249,-0.479558 0.355534,-0.479557 0.355534,-1.306381 0,-0.822689 -0.355534,-1.302246 -0.355534,-0.483692 -0.963249,-0.483692 z m 0,-0.644922 q 0.992188,0 1.558561,0.644922 0.566374,0.644922 0.566374,1.785938 0,1.136882 -0.566374,1.785939 -0.566373,0.644922 -1.558561,0.644922 -0.996322,0 -1.562696,-0.644922 -0.56224,-0.649057 -0.56224,-1.785939 0,-1.141016 0.56224,-1.785938 0.566374,-0.644922 1.562696,-0.644922 z"
         id="path445" />
      <path
         d="m 79.675247,-31.385236 v 0.711068 q -0.322461,-0.177767 -0.649056,-0.264583 -0.322461,-0.09095 -0.65319,-0.09095 -0.740007,0 -1.149285,0.471289 -0.409277,0.467156 -0.409277,1.314649 0,0.847494 0.409277,1.318783 0.409278,0.467156 1.149285,0.467156 0.330729,0 0.65319,-0.08682 0.326595,-0.09095 0.649056,-0.268717 v 0.702799 q -0.318327,0.148829 -0.661458,0.223243 -0.338998,0.07441 -0.723471,0.07441 -1.045931,0 -1.661914,-0.657325 -0.615984,-0.657324 -0.615984,-1.773536 0,-1.132747 0.620118,-1.781804 0.624251,-0.649056 1.70739,-0.649056 0.3514,0 0.686263,0.07441 0.334863,0.07028 0.649056,0.214974 z"
         id="path447" />
      <path
         d="m 84.847041,-29.727455 v 2.794662 h -0.760677 v -2.769858 q 0,-0.657324 -0.256315,-0.983919 -0.256316,-0.326595 -0.768946,-0.326595 -0.615983,0 -0.971517,0.392741 -0.355534,0.392741 -0.355534,1.070736 v 2.616895 H 80.96924 v -6.432685 h 0.764812 v 2.521811 q 0.272851,-0.417545 0.640788,-0.624251 0.37207,-0.206706 0.855762,-0.206706 0.797884,0 1.207162,0.496094 0.409277,0.49196 0.409277,1.451075 z"
         id="path449" />
      <path
         d="m 90.324736,-29.438067 v 0.37207 h -3.497462 q 0.04961,0.785482 0.471289,1.198894 0.425814,0.409278 1.182357,0.409278 0.438216,0 0.847494,-0.107487 0.413411,-0.107487 0.818555,-0.322462 v 0.719337 q -0.409278,0.173633 -0.839226,0.264583 -0.429948,0.09095 -0.872298,0.09095 -1.107943,0 -1.757,-0.644922 -0.644922,-0.644923 -0.644922,-1.744597 0,-1.136882 0.611849,-1.802475 0.615984,-0.669727 1.657781,-0.669727 0.93431,0 1.47588,0.603581 0.545703,0.599447 0.545703,1.632976 z m -0.760678,-0.223242 q -0.0083,-0.624252 -0.351399,-0.996322 -0.338998,-0.372071 -0.901238,-0.372071 -0.636654,0 -1.021126,0.359668 -0.380339,0.359668 -0.438217,1.012859 z"
         id="path451" />
      <path
         d="m 95.178186,-30.674168 q 0.285254,-0.51263 0.682129,-0.756543 0.396876,-0.243913 0.934311,-0.243913 0.72347,0 1.116211,0.508496 0.392741,0.504362 0.392741,1.438673 v 2.794662 h -0.764811 v -2.769858 q 0,-0.665592 -0.235645,-0.988053 -0.235645,-0.322461 -0.719336,-0.322461 -0.591179,0 -0.93431,0.392741 -0.343132,0.392741 -0.343132,1.070736 v 2.616895 h -0.764812 v -2.769858 q 0,-0.669726 -0.235644,-0.988053 -0.235645,-0.322461 -0.727605,-0.322461 -0.58291,0 -0.926042,0.396875 -0.343131,0.392741 -0.343131,1.066602 v 2.616895 h -0.764812 v -4.63021 h 0.764812 v 0.719336 q 0.260449,-0.425814 0.624251,-0.628385 0.363802,-0.202572 0.86403,-0.202572 0.504363,0 0.855763,0.256315 0.355533,0.256315 0.525032,0.744141 z"
         id="path453" />
      <path
         d="m 99.820796,-31.563003 h 0.760674 v 4.63021 h -0.760674 z m 0,-1.802475 h 0.760674 v 0.96325 h -0.760674 z"
         id="path455" />
      <path
         d="m 105.50522,-31.385236 v 0.711068 q -0.32246,-0.177767 -0.64906,-0.264583 -0.32246,-0.09095 -0.65319,-0.09095 -0.74,0 -1.14928,0.471289 -0.40928,0.467156 -0.40928,1.314649 0,0.847494 0.40928,1.318783 0.40928,0.467156 1.14928,0.467156 0.33073,0 0.65319,-0.08682 0.3266,-0.09095 0.64906,-0.268717 v 0.702799 q -0.31833,0.148829 -0.66146,0.223243 -0.339,0.07441 -0.72347,0.07441 -1.04593,0 -1.66192,-0.657325 -0.61598,-0.657324 -0.61598,-1.773536 0,-1.132747 0.62012,-1.781804 0.62425,-0.649056 1.70739,-0.649056 0.3514,0 0.68626,0.07441 0.33487,0.07028 0.64906,0.214974 z"
         id="path457" />
      <path
         d="m 108.9324,-29.2603 q -0.92191,0 -1.27744,0.21084 -0.35554,0.21084 -0.35554,0.719336 0,0.405143 0.26459,0.644922 0.26872,0.235645 0.7276,0.235645 0.63252,0 1.01286,-0.446485 0.38447,-0.450618 0.38447,-1.194759 V -29.2603 Z m 1.51722,-0.314193 v 2.6417 h -0.76068 v -0.702799 q -0.26045,0.421679 -0.64905,0.624251 -0.38861,0.198438 -0.95085,0.198438 -0.71107,0 -1.13275,-0.396875 -0.41754,-0.40101 -0.41754,-1.070737 0,-0.781348 0.5209,-1.178223 0.52503,-0.396875 1.56269,-0.396875 h 1.0666 v -0.07441 q 0,-0.525033 -0.34726,-0.810287 -0.34313,-0.289388 -0.96739,-0.289388 -0.39687,0 -0.77308,0.09509 -0.3762,0.09509 -0.72347,0.285254 v -0.7028 q 0.41755,-0.16123 0.81029,-0.239779 0.39274,-0.08268 0.76481,-0.08268 1.00459,0 1.50069,0.520899 0.49609,0.520898 0.49609,1.579232 z"
         id="path459" />
      <path
         d="m 112.01644,-33.365478 h 0.76068 v 6.432685 h -0.76068 z"
         id="path461" />
      <path
         d="m 120.01183,-31.426577 v 0.719336 q -0.32246,-0.165364 -0.66973,-0.248047 -0.34727,-0.08268 -0.71934,-0.08268 -0.56637,0 -0.85162,0.173633 -0.28112,0.173633 -0.28112,0.520898 0,0.264584 0.20257,0.417546 0.20257,0.148828 0.81442,0.285254 l 0.26045,0.05788 q 0.81029,0.173633 1.14928,0.49196 0.34313,0.314192 0.34313,0.880566 0,0.644923 -0.51263,1.021127 -0.50849,0.376205 -1.40146,0.376205 -0.37207,0 -0.77722,-0.07441 -0.401,-0.07028 -0.84749,-0.214974 v -0.785483 q 0.42168,0.219109 0.83096,0.33073 0.40928,0.107487 0.81029,0.107487 0.53743,0 0.82682,-0.181901 0.28939,-0.186036 0.28939,-0.520899 0,-0.310059 -0.21084,-0.475423 -0.20671,-0.165365 -0.91364,-0.318327 l -0.26459,-0.06201 q -0.70693,-0.148828 -1.02112,-0.454753 -0.3142,-0.310059 -0.3142,-0.847494 0,-0.65319 0.46302,-1.008724 0.46303,-0.355534 1.31465,-0.355534 0.42168,0 0.79375,0.06201 0.37207,0.06201 0.68627,0.186035 z"
         id="path463" />
      <path
         d="m 123.39767,-26.502845 q -0.32246,0.826824 -0.62839,1.079005 -0.30592,0.252181 -0.81855,0.252181 h -0.60772 v -0.636654 h 0.44649 q 0.31419,0 0.48782,-0.148828 0.17364,-0.148828 0.38448,-0.7028 l 0.13642,-0.347266 -1.87275,-4.555796 h 0.80615 l 1.44694,3.621486 1.44694,-3.621486 h 0.80615 z"
         id="path465" />
      <path
         d="m 129.43347,-31.426577 v 0.719336 q -0.32246,-0.165364 -0.66972,-0.248047 -0.34727,-0.08268 -0.71934,-0.08268 -0.56637,0 -0.85163,0.173633 -0.28112,0.173633 -0.28112,0.520898 0,0.264584 0.20257,0.417546 0.20258,0.148828 0.81443,0.285254 l 0.26044,0.05788 q 0.81029,0.173633 1.14929,0.49196 0.34313,0.314192 0.34313,0.880566 0,0.644923 -0.51263,1.021127 -0.5085,0.376205 -1.40147,0.376205 -0.37207,0 -0.77721,-0.07441 -0.40101,-0.07028 -0.84749,-0.214974 v -0.785483 q 0.42168,0.219109 0.83095,0.33073 0.40928,0.107487 0.81029,0.107487 0.53744,0 0.82682,-0.181901 0.28939,-0.186036 0.28939,-0.520899 0,-0.310059 -0.21084,-0.475423 -0.2067,-0.165365 -0.91364,-0.318327 l -0.26458,-0.06201 q -0.70693,-0.148828 -1.02113,-0.454753 -0.31419,-0.310059 -0.31419,-0.847494 0,-0.65319 0.46302,-1.008724 0.46302,-0.355534 1.31465,-0.355534 0.42168,0 0.79375,0.06201 0.37207,0.06201 0.68626,0.186035 z"
         id="path467" />
      <path
         d="m 131.64523,-32.877652 v 1.314649 h 1.56683 v 0.591179 h -1.56683 v 2.513542 q 0,0.566374 0.15296,0.727605 0.15709,0.16123 0.63252,0.16123 h 0.78135 v 0.636654 h -0.78135 q -0.88057,0 -1.21543,-0.326595 -0.33487,-0.330729 -0.33487,-1.198894 v -2.513542 h -0.5581 v -0.591179 h 0.5581 v -1.314649 z"
         id="path469" />
      <path
         d="m 138.173,-29.438067 v 0.37207 h -3.49746 q 0.0496,0.785482 0.47129,1.198894 0.42581,0.409278 1.18236,0.409278 0.43821,0 0.84749,-0.107487 0.41341,-0.107487 0.81856,-0.322462 v 0.719337 q -0.40928,0.173633 -0.83923,0.264583 -0.42995,0.09095 -0.8723,0.09095 -1.10794,0 -1.757,-0.644922 -0.64492,-0.644923 -0.64492,-1.744597 0,-1.136882 0.61185,-1.802475 0.61598,-0.669727 1.65778,-0.669727 0.93431,0 1.47588,0.603581 0.5457,0.599447 0.5457,1.632976 z m -0.76067,-0.223242 q -0.008,-0.624252 -0.3514,-0.996322 -0.339,-0.372071 -0.90124,-0.372071 -0.63666,0 -1.02113,0.359668 -0.38034,0.359668 -0.43822,1.012859 z"
         id="path471" />
      <path
         d="m 143.02645,-30.674168 q 0.28526,-0.51263 0.68213,-0.756543 0.39688,-0.243913 0.93431,-0.243913 0.72347,0 1.11621,0.508496 0.39274,0.504362 0.39274,1.438673 v 2.794662 h -0.76481 v -2.769858 q 0,-0.665592 -0.23564,-0.988053 -0.23565,-0.322461 -0.71934,-0.322461 -0.59118,0 -0.93431,0.392741 -0.34313,0.392741 -0.34313,1.070736 v 2.616895 h -0.76481 v -2.769858 q 0,-0.669726 -0.23565,-0.988053 -0.23564,-0.322461 -0.7276,-0.322461 -0.58291,0 -0.92604,0.396875 -0.34313,0.392741 -0.34313,1.066602 v 2.616895 h -0.76482 v -4.63021 h 0.76482 v 0.719336 q 0.26045,-0.425814 0.62425,-0.628385 0.3638,-0.202572 0.86403,-0.202572 0.50436,0 0.85576,0.256315 0.35553,0.256315 0.52503,0.744141 z"
         id="path473" />
      <path
         d="m 150.62082,-31.426577 v 0.719336 q -0.32246,-0.165364 -0.66973,-0.248047 -0.34726,-0.08268 -0.71933,-0.08268 -0.56638,0 -0.85163,0.173633 -0.28112,0.173633 -0.28112,0.520898 0,0.264584 0.20257,0.417546 0.20257,0.148828 0.81442,0.285254 l 0.26045,0.05788 q 0.81029,0.173633 1.14929,0.49196 0.34313,0.314192 0.34313,0.880566 0,0.644923 -0.51263,1.021127 -0.5085,0.376205 -1.40147,0.376205 -0.37207,0 -0.77721,-0.07441 -0.40101,-0.07028 -0.8475,-0.214974 v -0.785483 q 0.42168,0.219109 0.83096,0.33073 0.40928,0.107487 0.81029,0.107487 0.53743,0 0.82682,-0.181901 0.28939,-0.186036 0.28939,-0.520899 0,-0.310059 -0.21084,-0.475423 -0.20671,-0.165365 -0.91364,-0.318327 l -0.26458,-0.06201 q -0.70694,-0.148828 -1.02113,-0.454753 -0.31419,-0.310059 -0.31419,-0.847494 0,-0.65319 0.46302,-1.008724 0.46302,-0.355534 1.31465,-0.355534 0.42168,0 0.79375,0.06201 0.37207,0.06201 0.68626,0.186035 z"
         id="path475" />
    </g>
  </g>
</svg>
